<svg width="331" height="149" viewBox="0 0 331 149" fill="none" xmlns="http://www.w3.org/2000/svg">
<g filter="url(#filter0_d_511_298)">
<rect x="4" width="323" height="141" rx="15" fill="url(#paint0_linear_511_298)" shape-rendering="crispEdges"/>
</g>
<g filter="url(#filter1_d_511_298)">
<path d="M41.3813 64.8428V34.0428H62.0173V39.6748H47.3213V46.1428H56.6493V51.7748H47.3213V64.8428H41.3813ZM69.331 39.7188C68.4216 39.7188 67.6296 39.3961 66.955 38.7508C66.3096 38.0761 65.987 37.2841 65.987 36.3748C65.987 35.4654 66.3096 34.6881 66.955 34.0428C67.6003 33.3974 68.3923 33.0748 69.331 33.0748C70.2696 33.0748 71.0616 33.3974 71.707 34.0428C72.3523 34.6588 72.675 35.4361 72.675 36.3748C72.675 37.3134 72.3523 38.1054 71.707 38.7508C71.0616 39.3961 70.2696 39.7188 69.331 39.7188ZM66.471 64.8428V42.3588H72.191V64.8428H66.471ZM92.7489 64.8428V52.5228C92.7489 50.7041 92.4263 49.3841 91.7809 48.5628C91.1649 47.7414 90.1823 47.3308 88.8329 47.3308C85.9876 47.3308 84.5649 49.0321 84.5649 52.4348V64.8428H78.8449V42.3588H84.5649V44.4708C86.0023 42.7108 88.0116 41.8308 90.5929 41.8308C92.8223 41.8308 94.6849 42.5348 96.1809 43.9428C97.7063 45.3214 98.4689 47.5654 98.4689 50.6748V64.8428H92.7489ZM113.025 65.3708C110.15 65.3708 107.877 64.3441 106.205 62.2908C104.562 60.2374 103.741 57.3334 103.741 53.5788C103.741 50.0001 104.606 47.1548 106.337 45.0428C108.097 42.9014 110.341 41.8308 113.069 41.8308C115.122 41.8308 116.721 42.5494 117.865 43.9868V35.6708L123.585 33.0748V64.8428H117.865V63.2148C116.897 64.6521 115.284 65.3708 113.025 65.3708ZM113.949 59.8708C115.709 59.8708 117.014 59.2694 117.865 58.0668V49.1788C116.956 47.9468 115.65 47.3308 113.949 47.3308C112.512 47.3308 111.397 47.8734 110.605 48.9588C109.842 50.0148 109.461 51.5548 109.461 53.5788C109.461 55.5441 109.842 57.0841 110.605 58.1988C111.397 59.3134 112.512 59.8708 113.949 59.8708ZM153.953 64.8428V63.2148C152.515 64.6521 150.579 65.3708 148.145 65.3708C145.71 65.3708 143.715 64.7254 142.161 63.4348C140.635 62.1441 139.873 60.3108 139.873 57.9348C139.873 55.5001 140.738 53.6521 142.469 52.3908C144.229 51.1294 146.341 50.4988 148.805 50.4988C150.77 50.4988 152.486 50.8508 153.953 51.5548V50.4108C153.953 48.0348 152.603 46.8468 149.905 46.8468C147.441 46.8468 145.123 47.5948 142.953 49.0908L141.193 44.4708C143.803 42.7108 146.869 41.8308 150.389 41.8308C151.591 41.8308 152.647 41.9334 153.557 42.1388C154.495 42.3441 155.463 42.7254 156.461 43.2828C157.458 43.8401 158.221 44.7348 158.749 45.9668C159.306 47.1694 159.585 48.6801 159.585 50.4988V64.8428H153.953ZM149.245 60.3548C151.034 60.3548 152.603 59.7388 153.953 58.5068V56.0868C152.721 55.5881 151.327 55.3388 149.773 55.3388C148.482 55.3388 147.441 55.5588 146.649 55.9988C145.857 56.4094 145.461 57.0548 145.461 57.9348C145.461 58.6681 145.783 59.2548 146.429 59.6948C147.103 60.1348 148.042 60.3548 149.245 60.3548ZM184.164 65.3708C182.345 65.3708 180.614 65.0041 178.972 64.2708C177.329 63.5374 176.068 62.5548 175.188 61.3228L178.972 58.1108C180.585 59.7241 182.345 60.5308 184.252 60.5308C186.51 60.5308 187.64 59.8708 187.64 58.5508C187.64 57.9348 187.332 57.4361 186.716 57.0548C186.129 56.6441 185.073 56.1454 183.548 55.5588C180.878 54.6788 178.928 53.6961 177.696 52.6108C176.464 51.4961 175.848 50.0148 175.848 48.1668C175.848 46.2014 176.625 44.6614 178.18 43.5468C179.734 42.4028 181.685 41.8308 184.032 41.8308C187.434 41.8308 190.177 43.0334 192.26 45.4388L188.432 48.5628C187.082 47.3014 185.616 46.6708 184.032 46.6708C182.125 46.6708 181.172 47.2281 181.172 48.3428C181.172 49.2814 182.638 50.1908 185.572 51.0708C187.918 51.8334 189.737 52.7721 191.028 53.8868C192.318 54.9721 192.964 56.5268 192.964 58.5508C192.964 60.7214 192.172 62.4081 190.588 63.6108C189.004 64.7841 186.862 65.3708 184.164 65.3708ZM215.063 62.2468C213.215 64.3294 210.692 65.3708 207.495 65.3708C204.298 65.3708 201.775 64.3294 199.927 62.2468C198.079 60.1641 197.155 57.2894 197.155 53.6228C197.155 49.9854 198.079 47.1108 199.927 44.9988C201.804 42.8868 204.327 41.8308 207.495 41.8308C210.663 41.8308 213.171 42.8868 215.019 44.9988C216.896 47.1108 217.835 49.9854 217.835 53.6228C217.835 57.2894 216.911 60.1641 215.063 62.2468ZM207.495 59.8708C208.932 59.8708 210.062 59.3281 210.883 58.2428C211.704 57.1281 212.115 55.5881 212.115 53.6228C212.115 51.6574 211.704 50.1174 210.883 49.0028C210.062 47.8881 208.932 47.3308 207.495 47.3308C206.087 47.3308 204.958 47.9028 204.107 49.0468C203.286 50.1614 202.875 51.6868 202.875 53.6228C202.875 55.5588 203.286 57.0841 204.107 58.1988C204.958 59.3134 206.087 59.8708 207.495 59.8708ZM237.253 64.8428V52.5228C237.253 50.7041 236.93 49.3841 236.285 48.5628C235.669 47.7414 234.686 47.3308 233.337 47.3308C230.491 47.3308 229.069 49.0321 229.069 52.4348V64.8428H223.349V42.3588H229.069V44.4708C230.506 42.7108 232.515 41.8308 235.097 41.8308C237.326 41.8308 239.189 42.5348 240.685 43.9428C242.21 45.3214 242.973 47.5654 242.973 50.6748V64.8428H237.253ZM257.485 73.6428L254.317 68.8908C257.426 68.6561 259.538 68.2161 260.653 67.5708C261.797 66.9548 262.369 65.8548 262.369 64.2708V63.6548C261.225 64.7988 259.612 65.3708 257.529 65.3708C254.742 65.3708 252.498 64.3588 250.797 62.3348C249.096 60.2814 248.245 57.3628 248.245 53.5788C248.245 50.0001 249.096 47.1548 250.797 45.0428C252.528 42.9014 254.786 41.8308 257.573 41.8308C259.568 41.8308 261.166 42.4028 262.369 43.5468V42.3588H268.089V61.8068C268.089 65.8254 267.341 68.7148 265.845 70.4748C264.378 72.2641 261.592 73.3201 257.485 73.6428ZM258.453 59.8708C260.184 59.8708 261.489 59.2694 262.369 58.0668V49.1788C261.342 47.9468 260.037 47.3308 258.453 47.3308C257.016 47.3308 255.901 47.8734 255.109 48.9588C254.346 50.0148 253.965 51.5548 253.965 53.5788C253.965 55.4854 254.346 57.0108 255.109 58.1548C255.872 59.2988 256.986 59.8708 258.453 59.8708ZM282.132 65.3708C280.314 65.3708 278.583 65.0041 276.94 64.2708C275.298 63.5374 274.036 62.5548 273.156 61.3228L276.94 58.1108C278.554 59.7241 280.314 60.5308 282.22 60.5308C284.479 60.5308 285.608 59.8708 285.608 58.5508C285.608 57.9348 285.3 57.4361 284.684 57.0548C284.098 56.6441 283.042 56.1454 281.516 55.5588C278.847 54.6788 276.896 53.6961 275.664 52.6108C274.432 51.4961 273.816 50.0148 273.816 48.1668C273.816 46.2014 274.594 44.6614 276.148 43.5468C277.703 42.4028 279.654 41.8308 282 41.8308C285.403 41.8308 288.146 43.0334 290.228 45.4388L286.4 48.5628C285.051 47.3014 283.584 46.6708 282 46.6708C280.094 46.6708 279.14 47.2281 279.14 48.3428C279.14 49.2814 280.607 50.1908 283.54 51.0708C285.887 51.8334 287.706 52.7721 288.996 53.8868C290.287 54.9721 290.932 56.5268 290.932 58.5508C290.932 60.7214 290.14 62.4081 288.556 63.6108C286.972 64.7841 284.831 65.3708 282.132 65.3708Z" fill="#F8F8F8"/>
</g>
<g filter="url(#filter2_d_511_298)">
<path d="M112.751 113.8L109.583 109.048C112.692 108.813 114.804 108.373 115.919 107.728C117.063 107.112 117.635 106.012 117.635 104.428V103.812C116.491 104.956 114.877 105.528 112.795 105.528C110.008 105.528 107.764 104.516 106.063 102.492C104.361 100.439 103.511 97.52 103.511 93.736C103.511 90.1573 104.361 87.312 106.063 85.2C107.793 83.0587 110.052 81.988 112.839 81.988C114.833 81.988 116.432 82.56 117.635 83.704V82.516H123.355V101.964C123.355 105.983 122.607 108.872 121.111 110.632C119.644 112.421 116.857 113.477 112.751 113.8ZM113.719 100.028C115.449 100.028 116.755 99.4267 117.635 98.224V89.336C116.608 88.104 115.303 87.488 113.719 87.488C112.281 87.488 111.167 88.0307 110.375 89.116C109.612 90.172 109.231 91.712 109.231 93.736C109.231 95.6427 109.612 97.168 110.375 98.312C111.137 99.456 112.252 100.028 113.719 100.028ZM139.378 105.528C136.122 105.528 133.555 104.487 131.678 102.404C129.801 100.321 128.862 97.432 128.862 93.736C128.862 90.128 129.801 87.268 131.678 85.156C133.585 83.044 136.151 81.988 139.378 81.988C142.311 81.988 144.702 82.8973 146.55 84.716C148.398 86.5053 149.322 89.1307 149.322 92.592C149.322 94.0293 149.263 95.1587 149.146 95.98H134.494C134.611 97.388 135.125 98.5027 136.034 99.324C136.973 100.116 138.087 100.512 139.378 100.512C141.373 100.512 142.986 99.7347 144.218 98.18L147.738 101.744C145.655 104.267 142.869 105.528 139.378 105.528ZM134.538 91.14H143.734C143.558 89.8493 143.074 88.8373 142.282 88.104C141.519 87.3707 140.551 87.004 139.378 87.004C136.503 87.004 134.89 88.3827 134.538 91.14ZM168.487 105V92.68C168.487 90.8613 168.165 89.5413 167.519 88.72C166.903 87.8987 165.921 87.488 164.571 87.488C161.726 87.488 160.303 89.1893 160.303 92.592V105H154.583V82.516H160.303V84.628C161.741 82.868 163.75 81.988 166.331 81.988C168.561 81.988 170.423 82.692 171.919 84.1C173.445 85.4787 174.207 87.7227 174.207 90.832V105H168.487ZM180.579 105V82.516H186.299V84.496C187.091 82.824 188.485 81.988 190.479 81.988C192.151 81.988 193.677 82.56 195.055 83.704L194.263 88.94C193.031 88.06 191.667 87.62 190.171 87.62C187.59 87.62 186.299 89.2333 186.299 92.46V105H180.579ZM207.784 105.528C204.528 105.528 201.962 104.487 200.084 102.404C198.207 100.321 197.268 97.432 197.268 93.736C197.268 90.128 198.207 87.268 200.084 85.156C201.991 83.044 204.558 81.988 207.784 81.988C210.718 81.988 213.108 82.8973 214.956 84.716C216.804 86.5053 217.728 89.1307 217.728 92.592C217.728 94.0293 217.67 95.1587 217.552 95.98H202.9C203.018 97.388 203.531 98.5027 204.44 99.324C205.379 100.116 206.494 100.512 207.784 100.512C209.779 100.512 211.392 99.7347 212.624 98.18L216.144 101.744C214.062 104.267 211.275 105.528 207.784 105.528ZM202.944 91.14H212.14C211.964 89.8493 211.48 88.8373 210.688 88.104C209.926 87.3707 208.958 87.004 207.784 87.004C204.91 87.004 203.296 88.3827 202.944 91.14Z" fill="#F8F8F8"/>
</g>
<defs>
<filter id="filter0_d_511_298" x="0" y="0" width="331" height="149" filterUnits="userSpaceOnUse" color-interpolation-filters="sRGB">
<feFlood flood-opacity="0" result="BackgroundImageFix"/>
<feColorMatrix in="SourceAlpha" type="matrix" values="0 0 0 0 0 0 0 0 0 0 0 0 0 0 0 0 0 0 127 0" result="hardAlpha"/>
<feOffset dy="4"/>
<feGaussianBlur stdDeviation="2"/>
<feComposite in2="hardAlpha" operator="out"/>
<feColorMatrix type="matrix" values="0 0 0 0 0.188235 0 0 0 0 0.188235 0 0 0 0 0.188235 0 0 0 0.25 0"/>
<feBlend mode="normal" in2="BackgroundImageFix" result="effect1_dropShadow_511_298"/>
<feBlend mode="normal" in="SourceGraphic" in2="effect1_dropShadow_511_298" result="shape"/>
</filter>
<filter id="filter1_d_511_298" x="37.3813" y="31.0752" width="261.551" height="52.5674" filterUnits="userSpaceOnUse" color-interpolation-filters="sRGB">
<feFlood flood-opacity="0" result="BackgroundImageFix"/>
<feColorMatrix in="SourceAlpha" type="matrix" values="0 0 0 0 0 0 0 0 0 0 0 0 0 0 0 0 0 0 127 0" result="hardAlpha"/>
<feOffset dx="2" dy="4"/>
<feGaussianBlur stdDeviation="3"/>
<feComposite in2="hardAlpha" operator="out"/>
<feColorMatrix type="matrix" values="0 0 0 0 0.188235 0 0 0 0 0.188235 0 0 0 0 0.188235 0 0 0 0.4 0"/>
<feBlend mode="normal" in2="BackgroundImageFix" result="effect1_dropShadow_511_298"/>
<feBlend mode="normal" in="SourceGraphic" in2="effect1_dropShadow_511_298" result="shape"/>
</filter>
<filter id="filter2_d_511_298" x="99.5105" y="79.9883" width="126.218" height="43.8115" filterUnits="userSpaceOnUse" color-interpolation-filters="sRGB">
<feFlood flood-opacity="0" result="BackgroundImageFix"/>
<feColorMatrix in="SourceAlpha" type="matrix" values="0 0 0 0 0 0 0 0 0 0 0 0 0 0 0 0 0 0 127 0" result="hardAlpha"/>
<feOffset dx="2" dy="4"/>
<feGaussianBlur stdDeviation="3"/>
<feComposite in2="hardAlpha" operator="out"/>
<feColorMatrix type="matrix" values="0 0 0 0 0.188235 0 0 0 0 0.188235 0 0 0 0 0.188235 0 0 0 0.4 0"/>
<feBlend mode="normal" in2="BackgroundImageFix" result="effect1_dropShadow_511_298"/>
<feBlend mode="normal" in="SourceGraphic" in2="effect1_dropShadow_511_298" result="shape"/>
</filter>
<linearGradient id="paint0_linear_511_298" x1="166.079" y1="9.5449e-07" x2="166.079" y2="141" gradientUnits="userSpaceOnUse">
<stop stop-color="#A6E1FA" stop-opacity="0.929871"/>
<stop offset="0.208668" stop-color="#A6E1FA" stop-opacity="0.649885"/>
<stop offset="0.341907" stop-color="#A6E1FA" stop-opacity="0.464333"/>
<stop offset="1" stop-color="#A6E1FA" stop-opacity="0.09"/>
</linearGradient>
</defs>
</svg>
