<svg width="236" height="66" viewBox="0 0 236 66" fill="none" xmlns="http://www.w3.org/2000/svg">
<path d="M111.094 17.6C111.974 17.6 112.681 17.8933 113.214 18.48C113.774 19.04 114.054 19.7733 114.054 20.68V43.4C114.054 44.28 113.801 44.9733 113.294 45.48C112.787 45.9867 112.121 46.24 111.294 46.24C110.494 46.24 109.841 45.9867 109.334 45.48C108.827 44.9733 108.574 44.28 108.574 43.4V29.28L102.894 39.96C102.521 40.6533 102.107 41.16 101.654 41.48C101.227 41.8 100.707 41.96 100.094 41.96C99.5072 41.96 98.9872 41.8 98.5339 41.48C98.0806 41.16 97.6672 40.6533 97.2939 39.96L91.6139 29.48V43.4C91.6139 44.2533 91.3606 44.9467 90.8539 45.48C90.3472 45.9867 89.6806 46.24 88.8539 46.24C88.0539 46.24 87.4006 45.9867 86.8939 45.48C86.3872 44.9733 86.1339 44.28 86.1339 43.4V20.68C86.1339 19.7733 86.4006 19.04 86.9339 18.48C87.4939 17.8933 88.2139 17.6 89.0939 17.6C90.3739 17.6 91.3472 18.28 92.0139 19.64L100.134 35.04L108.214 19.64C108.934 18.28 109.894 17.6 111.094 17.6ZM135.126 25.96C136.059 25.96 136.792 26.2133 137.326 26.72C137.886 27.2267 138.166 27.92 138.166 28.8V43.48C138.166 44.3067 137.872 44.9733 137.286 45.48C136.726 45.9867 135.992 46.24 135.086 46.24C134.232 46.24 133.552 46 133.046 45.52C132.539 45.04 132.286 44.4 132.286 43.6V43.2C131.672 44.2133 130.859 44.9867 129.846 45.52C128.859 46.0533 127.739 46.32 126.486 46.32C124.006 46.32 122.152 45.64 120.926 44.28C119.726 42.8933 119.126 40.8133 119.126 38.04V28.8C119.126 27.92 119.392 27.2267 119.926 26.72C120.486 26.2133 121.232 25.96 122.166 25.96C123.099 25.96 123.832 26.2133 124.366 26.72C124.899 27.2267 125.166 27.92 125.166 28.8V38.16C125.166 39.3333 125.406 40.2 125.886 40.76C126.392 41.32 127.152 41.6 128.166 41.6C129.339 41.6 130.286 41.2 131.006 40.4C131.752 39.6 132.126 38.5467 132.126 37.24V28.8C132.126 27.92 132.392 27.2267 132.926 26.72C133.459 26.2133 134.192 25.96 135.126 25.96ZM150.24 46.32C148.614 46.32 147.2 46.1867 146 45.92C144.8 45.6533 143.747 45.2267 142.84 44.64C142.44 44.4 142.134 44.08 141.92 43.68C141.707 43.28 141.6 42.8267 141.6 42.32C141.6 41.7067 141.774 41.2 142.12 40.8C142.467 40.3733 142.894 40.16 143.4 40.16C143.747 40.16 144.094 40.2267 144.44 40.36C144.787 40.4667 145.147 40.6 145.52 40.76C146.267 41.1067 147 41.3867 147.72 41.6C148.44 41.7867 149.334 41.88 150.4 41.88C151.334 41.88 152.054 41.7333 152.56 41.44C153.094 41.1467 153.36 40.7467 153.36 40.24C153.36 39.8667 153.24 39.5733 153 39.36C152.787 39.12 152.374 38.9067 151.76 38.72C151.147 38.5333 150.174 38.3067 148.84 38.04C146.467 37.5867 144.76 36.9067 143.72 36C142.68 35.0933 142.16 33.8267 142.16 32.2C142.16 31 142.52 29.92 143.24 28.96C143.987 28 145 27.2533 146.28 26.72C147.56 26.16 149 25.88 150.6 25.88C151.747 25.88 152.867 26.0267 153.96 26.32C155.054 26.6133 156.027 27.0267 156.88 27.56C157.707 28.0667 158.12 28.8133 158.12 29.8C158.12 30.44 157.947 30.9733 157.6 31.4C157.254 31.8267 156.827 32.04 156.32 32.04C155.707 32.04 154.974 31.8 154.12 31.32C153.454 30.9733 152.84 30.72 152.28 30.56C151.747 30.3733 151.107 30.28 150.36 30.28C149.534 30.28 148.88 30.44 148.4 30.76C147.92 31.0533 147.68 31.4667 147.68 32C147.68 32.56 147.96 32.9867 148.52 33.28C149.08 33.5733 150.16 33.8667 151.76 34.16C153.547 34.5067 154.947 34.9333 155.96 35.44C156.974 35.92 157.707 36.5333 158.16 37.28C158.614 38.0267 158.84 38.9733 158.84 40.12C158.84 42.0133 158.054 43.52 156.48 44.64C154.934 45.76 152.854 46.32 150.24 46.32ZM165.333 46.24C164.453 46.24 163.719 46 163.133 45.52C162.573 45.04 162.293 44.3333 162.293 43.4V28.8C162.293 27.8667 162.586 27.16 163.173 26.68C163.759 26.2 164.479 25.96 165.333 25.96C166.186 25.96 166.893 26.2 167.453 26.68C168.039 27.16 168.333 27.8667 168.333 28.8V43.4C168.333 44.3333 168.039 45.04 167.453 45.52C166.893 46 166.186 46.24 165.333 46.24ZM165.333 22.76C164.266 22.76 163.426 22.4933 162.813 21.96C162.199 21.4 161.893 20.6533 161.893 19.72C161.893 18.7867 162.199 18.0533 162.813 17.52C163.426 16.9867 164.266 16.72 165.333 16.72C166.373 16.72 167.199 17 167.813 17.56C168.453 18.0933 168.773 18.8133 168.773 19.72C168.773 20.6533 168.466 21.4 167.853 21.96C167.239 22.4933 166.399 22.76 165.333 22.76ZM182.037 46.32C180.01 46.32 178.237 45.9067 176.717 45.08C175.197 44.2533 174.023 43.08 173.197 41.56C172.397 40.04 171.997 38.2533 171.997 36.2C171.997 34.1467 172.423 32.3467 173.277 30.8C174.157 29.2267 175.383 28.0133 176.957 27.16C178.53 26.3067 180.343 25.88 182.397 25.88C183.463 25.88 184.53 26.0267 185.597 26.32C186.69 26.6133 187.663 27.0267 188.517 27.56C189.343 28.0667 189.757 28.8133 189.757 29.8C189.757 30.4933 189.597 31.0667 189.277 31.52C188.957 31.9467 188.53 32.16 187.997 32.16C187.65 32.16 187.317 32.1067 186.997 32C186.703 31.8667 186.303 31.68 185.797 31.44C185.237 31.1467 184.73 30.92 184.277 30.76C183.85 30.6 183.357 30.52 182.797 30.52C181.303 30.52 180.157 31 179.357 31.96C178.583 32.8933 178.197 34.2667 178.197 36.08C178.197 37.8933 178.583 39.28 179.357 40.24C180.157 41.2 181.303 41.68 182.797 41.68C183.357 41.68 183.85 41.6133 184.277 41.48C184.703 41.32 185.223 41.08 185.837 40.76C186.343 40.52 186.743 40.3467 187.037 40.24C187.33 40.1067 187.65 40.04 187.997 40.04C188.503 40.04 188.917 40.2667 189.237 40.72C189.583 41.1733 189.757 41.7467 189.757 42.44C189.757 43.4267 189.343 44.16 188.517 44.64C187.663 45.1733 186.677 45.5867 185.557 45.88C184.437 46.1733 183.263 46.32 182.037 46.32ZM196.322 46.24C195.362 46.24 194.602 45.96 194.042 45.4C193.482 44.84 193.202 44.08 193.202 43.12V20.68C193.202 19.7467 193.482 19 194.042 18.44C194.602 17.88 195.362 17.6 196.322 17.6C197.282 17.6 198.042 17.88 198.602 18.44C199.162 19 199.442 19.7467 199.442 20.68V43.12C199.442 44.08 199.162 44.84 198.602 45.4C198.042 45.96 197.282 46.24 196.322 46.24ZM207.958 46C207.025 46 206.305 45.7467 205.798 45.24C205.292 44.7333 205.038 44.0133 205.038 43.08V20.72C205.038 19.7867 205.292 19.0667 205.798 18.56C206.305 18.0533 207.025 17.8 207.958 17.8H215.998C219.065 17.8 221.705 18.36 223.918 19.48C226.132 20.6 227.825 22.2133 228.998 24.32C230.172 26.4267 230.758 28.9467 230.758 31.88C230.758 34.8133 230.172 37.3467 228.998 39.48C227.852 41.5867 226.172 43.2 223.958 44.32C221.745 45.44 219.092 46 215.998 46H207.958ZM215.558 40.96C221.558 40.96 224.558 37.9333 224.558 31.88C224.558 25.8533 221.558 22.84 215.558 22.84H211.278V40.96H215.558Z" fill="url(#paint0_linear_510_101)" fill-opacity="0.8"/>
<path d="M113.214 18.48L112.474 19.1527L112.49 19.1703L112.507 19.1871L113.214 18.48ZM113.294 45.48L114.001 46.1871L113.294 45.48ZM109.334 45.48L108.627 46.1871L109.334 45.48ZM108.574 29.28H109.574L107.691 28.8104L108.574 29.28ZM102.894 39.96L103.774 40.4341L103.777 40.4296L102.894 39.96ZM101.654 41.48L101.077 40.663L101.065 40.6713L101.054 40.68L101.654 41.48ZM98.5339 41.48L99.1106 40.663L98.5339 41.48ZM97.2939 39.96L98.1744 39.4859L98.1731 39.4835L97.2939 39.96ZM91.6139 29.48L92.4931 29.0035L90.6139 29.48H91.6139ZM90.8539 45.48L91.561 46.1871L91.5701 46.178L91.5789 46.1688L90.8539 45.48ZM86.8939 45.48L86.1868 46.1871L86.8939 45.48ZM86.9339 18.48L86.2106 17.7895L86.2098 17.7903L86.9339 18.48ZM92.0139 19.64L91.116 20.0802L91.1225 20.0934L91.1293 20.1064L92.0139 19.64ZM100.134 35.04L99.2493 35.5064L100.136 37.1882L101.019 35.5046L100.134 35.04ZM108.214 19.64L107.33 19.1721L107.328 19.1754L108.214 19.64ZM111.094 18.6C111.727 18.6 112.152 18.7987 112.474 19.1527L113.954 17.8073C113.209 16.988 112.221 16.6 111.094 16.6V18.6ZM112.507 19.1871C112.852 19.532 113.054 19.9968 113.054 20.68H115.054C115.054 19.5498 114.696 18.548 113.921 17.7729L112.507 19.1871ZM113.054 20.68V43.4H115.054V20.68H113.054ZM113.054 43.4C113.054 44.0791 112.865 44.4948 112.587 44.7729L114.001 46.1871C114.736 45.4519 115.054 44.4809 115.054 43.4H113.054ZM112.587 44.7729C112.297 45.0629 111.9 45.24 111.294 45.24V47.24C112.342 47.24 113.278 46.9104 114.001 46.1871L112.587 44.7729ZM111.294 45.24C110.725 45.24 110.338 45.0694 110.041 44.7729L108.627 46.1871C109.344 46.9039 110.262 47.24 111.294 47.24V45.24ZM110.041 44.7729C109.763 44.4948 109.574 44.0791 109.574 43.4H107.574C107.574 44.4809 107.892 45.4519 108.627 46.1871L110.041 44.7729ZM109.574 43.4V29.28H107.574V43.4H109.574ZM107.691 28.8104L102.011 39.4904L103.777 40.4296L109.457 29.7496L107.691 28.8104ZM102.013 39.4859C101.685 40.0964 101.362 40.4617 101.077 40.663L102.231 42.297C102.852 41.8583 103.356 41.2103 103.774 40.4341L102.013 39.4859ZM101.054 40.68C100.826 40.8513 100.525 40.96 100.094 40.96V42.96C100.89 42.96 101.629 42.7487 102.254 42.28L101.054 40.68ZM100.094 40.96C99.7012 40.96 99.3853 40.8569 99.1106 40.663L97.9572 42.297C98.5892 42.7431 99.3133 42.96 100.094 42.96V40.96ZM99.1106 40.663C98.8253 40.4617 98.5031 40.0964 98.1744 39.4859L96.4134 40.4341C96.8314 41.2103 97.3358 41.8583 97.9572 42.297L99.1106 40.663ZM98.1731 39.4835L92.4931 29.0035L90.7347 29.9565L96.4147 40.4365L98.1731 39.4835ZM90.6139 29.48V43.4H92.6139V29.48H90.6139ZM90.6139 43.4C90.6139 44.041 90.4309 44.4734 90.1289 44.7913L91.5789 46.1688C92.2903 45.4199 92.6139 44.4657 92.6139 43.4H90.6139ZM90.1468 44.7729C89.8567 45.0629 89.4595 45.24 88.8539 45.24V47.24C89.9016 47.24 90.8377 46.9104 91.561 46.1871L90.1468 44.7729ZM88.8539 45.24C88.2853 45.24 87.8975 45.0694 87.601 44.7729L86.1868 46.1871C86.9036 46.9039 87.8225 47.24 88.8539 47.24V45.24ZM87.601 44.7729C87.3229 44.4948 87.1339 44.0791 87.1339 43.4H85.1339C85.1339 44.4809 85.4516 45.4519 86.1868 46.1871L87.601 44.7729ZM87.1339 43.4V20.68H85.1339V43.4H87.1339ZM87.1339 20.68C87.1339 19.9827 87.332 19.512 87.658 19.1697L86.2098 17.7903C85.4692 18.568 85.1339 19.5639 85.1339 20.68H87.1339ZM87.6573 19.1705C88.0115 18.7994 88.4614 18.6 89.0939 18.6V16.6C87.9664 16.6 86.9764 16.9872 86.2106 17.7895L87.6573 19.1705ZM89.0939 18.6C89.5459 18.6 89.9058 18.7164 90.2112 18.9298C90.5259 19.1496 90.8371 19.5112 91.116 20.0802L92.9118 19.1998C92.5241 18.4088 92.0152 17.7504 91.3566 17.2902C90.6887 16.8236 89.9219 16.6 89.0939 16.6V18.6ZM91.1293 20.1064L99.2493 35.5064L101.018 34.5736L92.8985 19.1736L91.1293 20.1064ZM101.019 35.5046L109.099 20.1046L107.328 19.1754L99.2484 34.5754L101.019 35.5046ZM109.098 20.1079C109.702 18.9668 110.373 18.6 111.094 18.6V16.6C109.415 16.6 108.166 17.5932 107.33 19.1721L109.098 20.1079ZM137.326 26.72L136.637 27.445L136.646 27.4534L136.655 27.4615L137.326 26.72ZM137.286 45.48L136.632 44.7232L136.623 44.7307L136.615 44.7385L137.286 45.48ZM133.046 45.52L133.734 44.794L133.046 45.52ZM132.286 43.2H133.286V39.6166L131.43 42.6822L132.286 43.2ZM129.846 45.52L129.38 44.635L129.37 44.6403L129.846 45.52ZM120.926 44.28L120.17 44.9344L120.176 44.9421L120.183 44.9498L120.926 44.28ZM119.926 26.72L119.255 25.9785L119.246 25.9866L119.237 25.995L119.926 26.72ZM124.366 26.72L123.677 27.445V27.445L124.366 26.72ZM125.886 40.76L125.127 41.4108L125.135 41.421L125.144 41.4309L125.886 40.76ZM131.006 40.4L130.275 39.7177L130.269 39.7243L130.262 39.731L131.006 40.4ZM132.926 26.72L133.615 27.445L132.926 26.72ZM135.126 26.96C135.875 26.96 136.336 27.1588 136.637 27.445L138.015 25.995C137.249 25.2678 136.244 24.96 135.126 24.96V26.96ZM136.655 27.4615C136.97 27.7467 137.166 28.1513 137.166 28.8H139.166C139.166 27.6887 138.801 26.7066 137.997 25.9785L136.655 27.4615ZM137.166 28.8V43.48H139.166V28.8H137.166ZM137.166 43.48C137.166 44.038 136.983 44.4203 136.632 44.7232L137.939 46.2368C138.762 45.5263 139.166 44.5754 139.166 43.48H137.166ZM136.615 44.7385C136.274 45.0467 135.797 45.24 135.086 45.24V47.24C136.188 47.24 137.177 46.9267 137.957 46.2215L136.615 44.7385ZM135.086 45.24C134.428 45.24 134.015 45.0607 133.734 44.794L132.358 46.246C133.09 46.9393 134.037 47.24 135.086 47.24V45.24ZM133.734 44.794C133.456 44.5311 133.286 44.1694 133.286 43.6H131.286C131.286 44.6306 131.622 45.5489 132.358 46.246L133.734 44.794ZM133.286 43.6V43.2H131.286V43.6H133.286ZM131.43 42.6822C130.908 43.5456 130.227 44.1894 129.38 44.6351L130.312 46.4049C131.491 45.7839 132.437 44.8811 133.141 43.7178L131.43 42.6822ZM129.37 44.6403C128.546 45.0858 127.593 45.32 126.486 45.32V47.32C127.885 47.32 129.172 47.0209 130.321 46.3997L129.37 44.6403ZM126.486 45.32C124.184 45.32 122.645 44.6931 121.668 43.6102L120.183 44.9498C121.66 46.5869 123.827 47.32 126.486 47.32V45.32ZM121.682 43.6256C120.703 42.4939 120.126 40.6918 120.126 38.04H118.126C118.126 40.9349 118.749 43.2928 120.17 44.9344L121.682 43.6256ZM120.126 38.04V28.8H118.126V38.04H120.126ZM120.126 28.8C120.126 28.136 120.318 27.7263 120.615 27.445L119.237 25.995C118.466 26.7271 118.126 27.704 118.126 28.8H120.126ZM120.597 27.4615C120.932 27.1581 121.419 26.96 122.166 26.96V24.96C121.046 24.96 120.039 25.2686 119.255 25.9785L120.597 27.4615ZM122.166 26.96C122.915 26.96 123.376 27.1588 123.677 27.445L125.055 25.995C124.289 25.2678 123.284 24.96 122.166 24.96V26.96ZM123.677 27.445C123.973 27.7263 124.166 28.136 124.166 28.8H126.166C126.166 27.704 125.825 26.7271 125.055 25.995L123.677 27.445ZM124.166 28.8V38.16H126.166V28.8H124.166ZM124.166 38.16C124.166 39.4389 124.422 40.5891 125.127 41.4108L126.645 40.1092C126.389 39.8109 126.166 39.2277 126.166 38.16H124.166ZM125.144 41.4309C125.899 42.2653 126.971 42.6 128.166 42.6V40.6C127.334 40.6 126.886 40.3747 126.627 40.0891L125.144 41.4309ZM128.166 42.6C129.594 42.6 130.821 42.1001 131.749 41.069L130.262 39.731C129.75 40.2999 129.084 40.6 128.166 40.6V42.6ZM131.737 41.0823C132.689 40.0623 133.126 38.7478 133.126 37.24H131.126C131.126 38.3455 130.816 39.1377 130.275 39.7177L131.737 41.0823ZM133.126 37.24V28.8H131.126V37.24H133.126ZM133.126 28.8C133.126 28.136 133.318 27.7263 133.615 27.445L132.237 25.995C131.466 26.7271 131.126 27.704 131.126 28.8H133.126ZM133.615 27.445C133.916 27.1588 134.377 26.96 135.126 26.96V24.96C134.008 24.96 133.002 25.2678 132.237 25.995L133.615 27.445ZM146 45.92L146.217 44.9438L146 45.92ZM142.84 44.64L143.384 43.8004L143.369 43.7912L143.355 43.7825L142.84 44.64ZM141.92 43.68L141.038 44.1506L141.92 43.68ZM142.12 40.8L142.876 41.4549L142.887 41.4429L142.897 41.4306L142.12 40.8ZM144.44 40.36L144.081 41.2933L144.114 41.3057L144.146 41.3158L144.44 40.36ZM145.52 40.76L145.942 39.853L145.928 39.8467L145.914 39.8409L145.52 40.76ZM147.72 41.6L147.436 42.5588L147.453 42.5637L147.47 42.568L147.72 41.6ZM152.56 41.44L152.079 40.5638L152.069 40.5691L152.059 40.5746L152.56 41.44ZM153 39.36L152.253 40.0244L152.292 40.0683L152.336 40.1074L153 39.36ZM148.84 38.04L149.037 37.0594L149.028 37.0578L148.84 38.04ZM143.72 36L143.063 36.7538H143.063L143.72 36ZM143.24 28.96L142.451 28.3461L142.446 28.353L142.44 28.36L143.24 28.96ZM146.28 26.72L146.665 27.6431L146.673 27.6397L146.681 27.6362L146.28 26.72ZM153.96 26.32L153.701 27.2858L153.96 26.32ZM156.88 27.56L156.35 28.408L156.358 28.4126L156.88 27.56ZM157.6 31.4L158.377 32.0306V32.0306L157.6 31.4ZM154.12 31.32L154.611 30.4484L154.596 30.4404L154.582 30.4328L154.12 31.32ZM152.28 30.56L151.95 31.5039L151.978 31.5135L152.006 31.5215L152.28 30.56ZM148.4 30.76L148.922 31.6133L148.939 31.603L148.955 31.5921L148.4 30.76ZM148.52 33.28L148.056 34.1658L148.52 33.28ZM151.76 34.16L151.951 33.1783L151.941 33.1764L151.76 34.16ZM155.96 35.44L155.513 36.3344L155.523 36.3392L155.532 36.3437L155.96 35.44ZM158.16 37.28L159.015 36.761L158.16 37.28ZM156.48 44.64L155.901 43.8253L155.894 43.8301L156.48 44.64ZM150.24 45.32C148.665 45.32 147.328 45.1905 146.217 44.9438L145.784 46.8962C147.073 47.1828 148.563 47.32 150.24 47.32V45.32ZM146.217 44.9438C145.118 44.6994 144.178 44.3143 143.384 43.8004L142.297 45.4796C143.316 46.1391 144.483 46.6073 145.784 46.8962L146.217 44.9438ZM143.355 43.7825C143.106 43.6329 142.928 43.4447 142.803 43.2094L141.038 44.1506C141.339 44.7153 141.775 45.1671 142.326 45.4975L143.355 43.7825ZM142.803 43.2094C142.675 42.9706 142.6 42.6821 142.6 42.32H140.6C140.6 42.9712 140.739 43.5894 141.038 44.1506L142.803 43.2094ZM142.6 42.32C142.6 41.9068 142.712 41.6447 142.876 41.4549L141.365 40.1451C140.836 40.7553 140.6 41.5065 140.6 42.32H142.6ZM142.897 41.4306C143.072 41.2149 143.223 41.16 143.4 41.16V39.16C142.565 39.16 141.862 39.5317 141.344 40.1694L142.897 41.4306ZM143.4 41.16C143.616 41.16 143.841 41.2009 144.081 41.2933L144.799 39.4267C144.346 39.2524 143.878 39.16 143.4 39.16V41.16ZM144.146 41.3158C144.455 41.4109 144.782 41.5315 145.127 41.6791L145.914 39.8409C145.512 39.6685 145.119 39.5225 144.735 39.4042L144.146 41.3158ZM145.099 41.667C145.886 42.0323 146.665 42.3303 147.436 42.5588L148.005 40.6412C147.336 40.443 146.648 40.181 145.942 39.853L145.099 41.667ZM147.47 42.568C148.298 42.7829 149.282 42.88 150.4 42.88V40.88C149.385 40.88 148.583 40.7904 147.971 40.632L147.47 42.568ZM150.4 42.88C151.415 42.88 152.338 42.7245 153.062 42.3054L152.059 40.5746C151.77 40.7421 151.252 40.88 150.4 40.88V42.88ZM153.042 42.3162C153.819 41.8893 154.36 41.1912 154.36 40.24H152.36C152.36 40.3022 152.369 40.404 152.079 40.5638L153.042 42.3162ZM154.36 40.24C154.36 39.6322 154.154 39.0472 153.665 38.6126L152.336 40.1074C152.339 40.11 152.341 40.1118 152.342 40.1127C152.342 40.1137 152.343 40.1141 152.343 40.1142C152.343 40.1143 152.343 40.1144 152.343 40.1148C152.343 40.1153 152.344 40.1164 152.345 40.1186C152.348 40.1257 152.36 40.1605 152.36 40.24H154.36ZM153.748 38.6956C153.341 38.2376 152.697 37.9598 152.052 37.7633L151.469 39.6767C151.738 39.7585 151.935 39.8378 152.072 39.9086C152.214 39.982 152.256 40.0276 152.253 40.0244L153.748 38.6956ZM152.052 37.7633C151.389 37.5615 150.375 37.3271 149.037 37.0594L148.644 39.0206C149.973 39.2863 150.906 39.5051 151.469 39.6767L152.052 37.7633ZM149.028 37.0578C146.715 36.616 145.218 35.9788 144.378 35.2462L143.063 36.7538C144.303 37.8346 146.219 38.5574 148.653 39.0222L149.028 37.0578ZM144.378 35.2462C143.595 34.5639 143.16 33.5946 143.16 32.2H141.16C141.16 34.0587 141.766 35.6227 143.063 36.7538L144.378 35.2462ZM143.16 32.2C143.16 31.2164 143.45 30.3469 144.04 29.56L142.44 28.36C141.591 29.4931 141.16 30.7836 141.16 32.2H143.16ZM144.03 29.5739C144.656 28.7683 145.522 28.1195 146.665 27.6431L145.896 25.7969C144.479 26.3872 143.318 27.2317 142.451 28.3461L144.03 29.5739ZM146.681 27.6362C147.818 27.1389 149.118 26.88 150.6 26.88V24.88C148.882 24.88 147.303 25.1811 145.88 25.8038L146.681 27.6362ZM150.6 26.88C151.661 26.88 152.694 27.0155 153.701 27.2858L154.22 25.3542C153.041 25.0379 151.833 24.88 150.6 24.88V26.88ZM153.701 27.2858C154.711 27.5567 155.591 27.9332 156.35 28.408L157.41 26.712C156.463 26.1201 155.397 25.67 154.22 25.3542L153.701 27.2858ZM156.358 28.4126C156.882 28.7336 157.12 29.1537 157.12 29.8H159.12C159.12 28.4729 158.533 27.3998 157.403 26.7074L156.358 28.4126ZM157.12 29.8C157.12 30.2499 157.003 30.5494 156.824 30.7694L158.377 32.0306C158.891 31.3972 159.12 30.6301 159.12 29.8H157.12ZM156.824 30.7694C156.649 30.9851 156.498 31.04 156.32 31.04V33.04C157.156 33.04 157.858 32.6683 158.377 32.0306L156.824 30.7694ZM156.32 31.04C155.952 31.04 155.395 30.8895 154.611 30.4484L153.63 32.1916C154.553 32.7105 155.462 33.04 156.32 33.04V31.04ZM154.582 30.4328C153.872 30.0636 153.195 29.7813 152.555 29.5985L152.006 31.5215C152.486 31.6587 153.036 31.8831 153.659 32.2072L154.582 30.4328ZM152.611 29.6161C151.943 29.3825 151.186 29.28 150.36 29.28V31.28C151.029 31.28 151.551 31.3641 151.95 31.5039L152.611 29.6161ZM150.36 29.28C149.418 29.28 148.547 29.4606 147.846 29.9279L148.955 31.5921C149.214 31.4194 149.65 31.28 150.36 31.28V29.28ZM147.879 29.9067C147.122 30.3696 146.68 31.0958 146.68 32H148.68C148.68 31.8376 148.719 31.737 148.922 31.6133L147.879 29.9067ZM146.68 32C146.68 32.4552 146.797 32.8966 147.054 33.2887C147.308 33.6743 147.661 33.9589 148.056 34.1658L148.984 32.3942C148.82 32.3078 148.753 32.2323 148.727 32.1913C148.704 32.1568 148.68 32.1048 148.68 32H146.68ZM148.056 34.1658C148.768 34.5384 149.989 34.8519 151.58 35.1436L151.941 33.1764C150.332 32.8814 149.393 32.6083 148.984 32.3942L148.056 34.1658ZM151.57 35.1417C153.314 35.4802 154.615 35.8853 155.513 36.3344L156.408 34.5456C155.279 33.9814 153.78 33.5332 151.951 33.1783L151.57 35.1417ZM155.532 36.3437C156.419 36.7635 156.979 37.2611 157.306 37.799L159.015 36.761C158.435 35.8056 157.529 35.0765 156.389 34.5363L155.532 36.3437ZM157.306 37.799C157.639 38.3475 157.84 39.1005 157.84 40.12H159.84C159.84 38.8462 159.589 37.7059 159.015 36.761L157.306 37.799ZM157.84 40.12C157.84 41.6822 157.217 42.8885 155.901 43.8253L157.06 45.4547C158.891 44.1515 159.84 42.3445 159.84 40.12H157.84ZM155.894 43.8301C154.571 44.7883 152.719 45.32 150.24 45.32V47.32C152.988 47.32 155.297 46.7317 157.067 45.4499L155.894 43.8301ZM163.133 45.52L162.482 46.2793L162.491 46.2867L162.499 46.294L163.133 45.52ZM163.173 26.68L163.806 27.454L163.173 26.68ZM167.453 26.68L166.802 27.4393L166.811 27.4467L166.819 27.454L167.453 26.68ZM167.453 45.52L166.819 44.746L166.811 44.7533L166.802 44.7607L167.453 45.52ZM162.813 21.96L162.138 22.6985L162.147 22.7067L162.156 22.7146L162.813 21.96ZM162.813 17.52L163.469 18.2746L162.813 17.52ZM167.813 17.56L167.138 18.2985L167.155 18.3137L167.172 18.3282L167.813 17.56ZM167.853 21.96L168.509 22.7146L168.518 22.7067L168.527 22.6985L167.853 21.96ZM165.333 45.24C164.644 45.24 164.146 45.0569 163.766 44.746L162.499 46.294C163.293 46.9431 164.261 47.24 165.333 47.24V45.24ZM163.783 44.7607C163.502 44.5191 163.293 44.125 163.293 43.4H161.293C161.293 44.5417 161.644 45.5609 162.482 46.2793L163.783 44.7607ZM163.293 43.4V28.8H161.293V43.4H163.293ZM163.293 28.8C163.293 28.0905 163.504 27.7006 163.806 27.454L162.539 25.906C161.667 26.6194 161.293 27.6429 161.293 28.8H163.293ZM163.806 27.454C164.191 27.1385 164.679 26.96 165.333 26.96V24.96C164.279 24.96 163.327 25.2615 162.539 25.906L163.806 27.454ZM165.333 26.96C165.987 26.96 166.451 27.1386 166.802 27.4393L168.103 25.9207C167.334 25.2614 166.385 24.96 165.333 24.96V26.96ZM166.819 27.454C167.121 27.7006 167.333 28.0905 167.333 28.8H169.333C169.333 27.6429 168.958 26.6194 168.086 25.906L166.819 27.454ZM167.333 28.8V43.4H169.333V28.8H167.333ZM167.333 43.4C167.333 44.1095 167.121 44.4994 166.819 44.746L168.086 46.294C168.958 45.5806 169.333 44.5571 169.333 43.4H167.333ZM166.802 44.7607C166.451 45.0614 165.987 45.24 165.333 45.24V47.24C166.385 47.24 167.334 46.9386 168.103 46.2793L166.802 44.7607ZM165.333 21.76C164.43 21.76 163.85 21.5365 163.469 21.2054L162.156 22.7146C163.002 23.4501 164.102 23.76 165.333 23.76V21.76ZM163.487 21.2215C163.108 20.8755 162.893 20.4109 162.893 19.72H160.893C160.893 20.8958 161.291 21.9245 162.138 22.6985L163.487 21.2215ZM162.893 19.72C162.893 19.0285 163.107 18.5888 163.469 18.2746L162.156 16.7654C161.291 17.5178 160.893 18.5449 160.893 19.72H162.893ZM163.469 18.2746C163.85 17.9435 164.43 17.72 165.333 17.72V15.72C164.101 15.72 163.002 16.0299 162.156 16.7654L163.469 18.2746ZM165.333 17.72C166.189 17.72 166.753 17.9462 167.138 18.2985L168.487 16.8215C167.646 16.0538 166.557 15.72 165.333 15.72V17.72ZM167.172 18.3282C167.563 18.6533 167.773 19.0803 167.773 19.72H169.773C169.773 18.5463 169.343 17.5334 168.453 16.7918L167.172 18.3282ZM167.773 19.72C167.773 20.4109 167.557 20.8755 167.178 21.2215L168.527 22.6985C169.375 21.9245 169.773 20.8958 169.773 19.72H167.773ZM167.196 21.2054C166.816 21.5365 166.235 21.76 165.333 21.76V23.76C166.564 23.76 167.663 23.4501 168.509 22.7146L167.196 21.2054ZM176.717 45.08L177.194 44.2015L176.717 45.08ZM173.197 41.56L172.312 42.0258L172.318 42.0378L173.197 41.56ZM173.277 30.8L172.404 30.3118L172.401 30.3169L173.277 30.8ZM176.957 27.16L176.48 26.281L176.957 27.16ZM185.597 26.32L185.332 27.2842L185.338 27.2858L185.597 26.32ZM188.517 27.56L187.987 28.408L187.994 28.4126L188.517 27.56ZM189.277 31.52L190.077 32.12L190.085 32.1085L190.094 32.0967L189.277 31.52ZM186.997 32L186.583 32.9104L186.631 32.9321L186.68 32.9487L186.997 32ZM185.797 31.44L185.333 32.3258L185.35 32.3351L185.369 32.3437L185.797 31.44ZM184.277 30.76L183.926 31.6963L183.935 31.6997L183.944 31.703L184.277 30.76ZM179.357 31.96L178.588 31.3198L178.587 31.322L179.357 31.96ZM179.357 40.24L178.578 40.8673L178.583 40.8738L178.589 40.8802L179.357 40.24ZM184.277 41.48L184.575 42.4345L184.602 42.4261L184.628 42.4163L184.277 41.48ZM185.837 40.76L185.409 39.8563L185.391 39.8645L185.374 39.8734L185.837 40.76ZM187.037 40.24L187.378 41.1798L187.415 41.1665L187.451 41.1504L187.037 40.24ZM189.237 40.72L188.42 41.2967L188.431 41.3123L188.442 41.3274L189.237 40.72ZM188.517 44.64L188.015 43.7752L188.001 43.7834L187.987 43.792L188.517 44.64ZM182.037 45.32C180.148 45.32 178.545 44.9358 177.194 44.2015L176.239 45.9585C177.929 46.8776 179.872 47.32 182.037 47.32V45.32ZM177.194 44.2015C175.844 43.467 174.81 42.4328 174.075 41.0822L172.318 42.0378C173.237 43.7272 174.55 45.0397 176.239 45.9585L177.194 44.2015ZM174.082 41.0943C173.371 39.7434 172.997 38.1226 172.997 36.2H170.997C170.997 38.3841 171.423 40.3366 172.312 42.0257L174.082 41.0943ZM172.997 36.2C172.997 34.288 173.393 32.6594 174.152 31.2831L172.401 30.3169C171.454 32.034 170.997 34.0053 170.997 36.2H172.997ZM174.149 31.2882C174.938 29.8787 176.028 28.8015 177.433 28.039L176.48 26.281C174.739 27.2252 173.376 28.5746 172.404 30.3118L174.149 31.2882ZM177.433 28.039C178.84 27.2761 180.485 26.88 182.397 26.88V24.88C180.202 24.88 178.22 25.3372 176.48 26.281L177.433 28.039ZM182.397 26.88C183.371 26.88 184.348 27.0137 185.332 27.2842L185.862 25.3558C184.712 25.0396 183.556 24.88 182.397 24.88V26.88ZM185.338 27.2858C186.347 27.5567 187.227 27.9332 187.987 28.408L189.047 26.712C188.1 26.1201 187.033 25.67 185.856 25.3542L185.338 27.2858ZM187.994 28.4126C188.518 28.7336 188.757 29.1537 188.757 29.8H190.757C190.757 28.4729 190.169 27.3998 189.039 26.7074L187.994 28.4126ZM188.757 29.8C188.757 30.3388 188.634 30.6967 188.46 30.9433L190.094 32.0967C190.56 31.4367 190.757 30.6479 190.757 29.8H188.757ZM188.477 30.92C188.346 31.0949 188.215 31.16 187.997 31.16V33.16C188.845 33.16 189.568 32.7985 190.077 32.12L188.477 30.92ZM187.997 31.16C187.755 31.16 187.528 31.1231 187.313 31.0513L186.68 32.9487C187.105 33.0903 187.546 33.16 187.997 33.16V31.16ZM187.411 31.0896C187.124 30.9595 186.73 30.7754 186.225 30.5363L185.369 32.3437C185.877 32.5846 186.283 32.7738 186.583 32.9104L187.411 31.0896ZM186.261 30.5542C185.671 30.2451 185.119 29.997 184.61 29.817L183.944 31.703C184.341 31.843 184.803 32.0482 185.333 32.3258L186.261 30.5542ZM184.628 29.8237C184.066 29.6132 183.45 29.52 182.797 29.52V31.52C183.263 31.52 183.634 31.5868 183.926 31.6963L184.628 29.8237ZM182.797 29.52C181.071 29.52 179.616 30.0869 178.589 31.3198L180.125 32.6002C180.698 31.9131 181.536 31.52 182.797 31.52V29.52ZM178.587 31.322C177.607 32.5049 177.197 34.145 177.197 36.08H179.197C179.197 34.3883 179.56 33.2817 180.127 32.598L178.587 31.322ZM177.197 36.08C177.197 38.0177 177.608 39.6628 178.578 40.8673L180.135 39.6127C179.559 38.8972 179.197 37.769 179.197 36.08H177.197ZM178.589 40.8802C179.616 42.1131 181.071 42.68 182.797 42.68V40.68C181.536 40.68 180.698 40.2869 180.125 39.5998L178.589 40.8802ZM182.797 42.68C183.433 42.68 184.031 42.6045 184.575 42.4345L183.978 40.5255C183.669 40.6222 183.28 40.68 182.797 40.68V42.68ZM184.628 42.4163C185.107 42.2367 185.666 41.9768 186.299 41.6466L185.374 39.8734C184.78 40.1832 184.3 40.4033 183.926 40.5437L184.628 42.4163ZM186.265 41.6637C186.762 41.4284 187.129 41.2706 187.378 41.1798L186.695 39.3002C186.358 39.4228 185.925 39.6116 185.409 39.8563L186.265 41.6637ZM187.451 41.1504C187.604 41.0805 187.782 41.04 187.997 41.04V39.04C187.518 39.04 187.056 39.1328 186.623 39.3296L187.451 41.1504ZM187.997 41.04C188.144 41.04 188.266 41.0793 188.42 41.2967L190.054 40.1433C189.567 39.4541 188.863 39.04 187.997 39.04V41.04ZM188.442 41.3274C188.629 41.5714 188.757 41.9178 188.757 42.44H190.757C190.757 41.5756 190.538 40.7752 190.031 40.1125L188.442 41.3274ZM188.757 42.44C188.757 43.0844 188.521 43.4811 188.015 43.7752L189.019 45.5048C190.166 44.8389 190.757 43.7689 190.757 42.44H188.757ZM187.987 43.792C187.231 44.2644 186.34 44.6411 185.303 44.9126L185.81 46.8474C187.013 46.5322 188.096 46.0822 189.047 45.488L187.987 43.792ZM185.303 44.9126C184.271 45.183 183.183 45.32 182.037 45.32V47.32C183.344 47.32 184.603 47.1636 185.81 46.8474L185.303 44.9126ZM194.042 45.4L194.749 44.6929L194.042 45.4ZM194.042 18.44L194.749 19.1471L194.042 18.44ZM198.602 18.44L197.895 19.1471L198.602 18.44ZM198.602 45.4L199.309 46.1071L198.602 45.4ZM196.322 45.24C195.568 45.24 195.083 45.0268 194.749 44.6929L193.335 46.1071C194.121 46.8932 195.157 47.24 196.322 47.24V45.24ZM194.749 44.6929C194.416 44.359 194.202 43.8748 194.202 43.12H192.202C192.202 44.2852 192.549 45.321 193.335 46.1071L194.749 44.6929ZM194.202 43.12V20.68H192.202V43.12H194.202ZM194.202 20.68C194.202 19.9609 194.41 19.4864 194.749 19.1471L193.335 17.7329C192.555 18.5136 192.202 19.5324 192.202 20.68H194.202ZM194.749 19.1471C195.083 18.8132 195.568 18.6 196.322 18.6V16.6C195.157 16.6 194.121 16.9468 193.335 17.7329L194.749 19.1471ZM196.322 18.6C197.077 18.6 197.561 18.8132 197.895 19.1471L199.309 17.7329C198.523 16.9468 197.488 16.6 196.322 16.6V18.6ZM197.895 19.1471C198.235 19.4864 198.442 19.9609 198.442 20.68H200.442C200.442 19.5324 200.09 18.5136 199.309 17.7329L197.895 19.1471ZM198.442 20.68V43.12H200.442V20.68H198.442ZM198.442 43.12C198.442 43.8748 198.229 44.359 197.895 44.6929L199.309 46.1071C200.096 45.321 200.442 44.2852 200.442 43.12H198.442ZM197.895 44.6929C197.561 45.0268 197.077 45.24 196.322 45.24V47.24C197.488 47.24 198.523 46.8932 199.309 46.1071L197.895 44.6929ZM223.918 19.48L224.37 18.5877V18.5877L223.918 19.48ZM228.998 24.32L229.872 23.8334L228.998 24.32ZM228.998 39.48L228.122 38.9981L228.12 39.0019L228.998 39.48ZM223.958 44.32L224.41 45.2123L223.958 44.32ZM211.278 22.84V21.84H210.278V22.84H211.278ZM211.278 40.96H210.278V41.96H211.278V40.96ZM207.958 45C207.207 45 206.773 44.8002 206.505 44.5329L205.091 45.9471C205.837 46.6931 206.843 47 207.958 47V45ZM206.505 44.5329C206.238 44.2656 206.038 43.8317 206.038 43.08H204.038C204.038 44.195 204.345 45.2011 205.091 45.9471L206.505 44.5329ZM206.038 43.08V20.72H204.038V43.08H206.038ZM206.038 20.72C206.038 19.9683 206.238 19.5344 206.505 19.2671L205.091 17.8529C204.345 18.5989 204.038 19.605 204.038 20.72H206.038ZM206.505 19.2671C206.773 18.9998 207.207 18.8 207.958 18.8V16.8C206.843 16.8 205.837 17.1069 205.091 17.8529L206.505 19.2671ZM207.958 18.8H215.998V16.8H207.958V18.8ZM215.998 18.8C218.944 18.8 221.423 19.3379 223.467 20.3723L224.37 18.5877C221.987 17.3821 219.185 16.8 215.998 16.8V18.8ZM223.467 20.3723C225.508 21.4049 227.051 22.8795 228.125 24.8066L229.872 23.8334C228.599 21.5472 226.756 19.7951 224.37 18.5877L223.467 20.3723ZM228.125 24.8066C229.199 26.7354 229.758 29.0803 229.758 31.88H231.758C231.758 28.813 231.144 26.1179 229.872 23.8334L228.125 24.8066ZM229.758 31.88C229.758 34.6792 229.199 37.0398 228.122 38.9981L229.874 39.9619C231.144 37.6535 231.758 34.9475 231.758 31.88H229.758ZM228.12 39.0019C227.074 40.9241 225.546 42.396 223.507 43.4277L224.41 45.2123C226.798 44.004 228.63 42.2493 229.877 39.9581L228.12 39.0019ZM223.507 43.4277C221.464 44.4616 218.973 45 215.998 45V47C219.211 47 222.026 46.4184 224.41 45.2123L223.507 43.4277ZM215.998 45H207.958V47H215.998V45ZM215.558 41.96C218.715 41.96 221.265 41.1629 223.019 39.394C224.77 37.6267 225.558 35.0586 225.558 31.88H223.558C223.558 34.7547 222.846 36.7267 221.598 37.986C220.351 39.2438 218.402 39.96 215.558 39.96V41.96ZM225.558 31.88C225.558 28.7136 224.77 26.155 223.017 24.3945C221.263 22.6331 218.714 21.84 215.558 21.84V23.84C218.403 23.84 220.353 24.5535 221.6 25.8055C222.847 27.0584 223.558 29.0197 223.558 31.88H225.558ZM215.558 21.84H211.278V23.84H215.558V21.84ZM210.278 22.84V40.96H212.278V22.84H210.278ZM211.278 41.96H215.558V39.96H211.278V41.96Z" fill="url(#paint1_linear_510_101)" fill-opacity="0.8"/>
<rect x="4" y="5" width="61.63" height="57" rx="9" stroke="url(#paint2_linear_510_101)" stroke-opacity="0.8" stroke-width="8"/>
<rect x="14.5049" y="24.8335" width="4.35187" height="17.3333" rx="2.17594" fill="url(#paint3_linear_510_101)" fill-opacity="0.8"/>
<rect x="15.0049" y="25.3335" width="3.35187" height="16.3333" rx="1.67594" stroke="url(#paint4_linear_510_101)" stroke-opacity="0.8"/>
<rect x="49.3203" y="24.8335" width="4.35187" height="17.3333" rx="2.17594" fill="url(#paint5_linear_510_101)" fill-opacity="0.8"/>
<rect x="49.8203" y="25.3335" width="3.35187" height="16.3333" rx="1.67594" stroke="url(#paint6_linear_510_101)" stroke-opacity="0.8"/>
<rect x="40.6162" y="18.3335" width="4.35187" height="28.1667" rx="2.17594" fill="url(#paint7_linear_510_101)" fill-opacity="0.8"/>
<rect x="41.1162" y="18.8335" width="3.35187" height="27.1667" rx="1.67594" stroke="url(#paint8_linear_510_101)" stroke-opacity="0.8"/>
<rect x="23.209" y="18.3335" width="4.35187" height="28.1667" rx="2.17594" fill="url(#paint9_linear_510_101)" fill-opacity="0.8"/>
<rect x="23.709" y="18.8335" width="3.35187" height="27.1667" rx="1.67594" stroke="url(#paint10_linear_510_101)" stroke-opacity="0.8"/>
<rect x="31.9125" y="11.8335" width="4.35187" height="39" rx="2.17594" fill="url(#paint11_linear_510_101)" fill-opacity="0.8"/>
<rect x="32.4125" y="12.3335" width="3.35187" height="38" rx="1.67594" stroke="url(#paint12_linear_510_101)" stroke-opacity="0.8"/>
<defs>
<linearGradient id="paint0_linear_510_101" x1="236" y1="3.83079e-06" x2="139.49" y2="113.581" gradientUnits="userSpaceOnUse">
<stop offset="0.004574" stop-color="#00BBF9"/>
<stop offset="0.481253" stop-color="#9B5DE5"/>
<stop offset="1" stop-color="#DE4D86"/>
</linearGradient>
<linearGradient id="paint1_linear_510_101" x1="236" y1="3.83079e-06" x2="139.49" y2="113.581" gradientUnits="userSpaceOnUse">
<stop offset="0.004574" stop-color="#00BBF9"/>
<stop offset="0.481253" stop-color="#9B5DE5"/>
<stop offset="1" stop-color="#DE4D86"/>
</linearGradient>
<linearGradient id="paint2_linear_510_101" x1="69.63" y1="1" x2="-10.8917" y2="43.298" gradientUnits="userSpaceOnUse">
<stop offset="0.004574" stop-color="#00BBF9"/>
<stop offset="0.481253" stop-color="#9B5DE5"/>
<stop offset="1" stop-color="#DE4D86"/>
</linearGradient>
<linearGradient id="paint3_linear_510_101" x1="18.8568" y1="24.8335" x2="12.5313" y2="25.6123" gradientUnits="userSpaceOnUse">
<stop offset="0.004574" stop-color="#00BBF9"/>
<stop offset="0.481253" stop-color="#9B5DE5"/>
<stop offset="1" stop-color="#DE4D86"/>
</linearGradient>
<linearGradient id="paint4_linear_510_101" x1="18.8568" y1="24.8335" x2="12.5313" y2="25.6123" gradientUnits="userSpaceOnUse">
<stop offset="0.004574" stop-color="#00BBF9"/>
<stop offset="0.481253" stop-color="#9B5DE5"/>
<stop offset="1" stop-color="#DE4D86"/>
</linearGradient>
<linearGradient id="paint5_linear_510_101" x1="53.6722" y1="24.8335" x2="47.3468" y2="25.6123" gradientUnits="userSpaceOnUse">
<stop offset="0.004574" stop-color="#00BBF9"/>
<stop offset="0.481253" stop-color="#9B5DE5"/>
<stop offset="1" stop-color="#DE4D86"/>
</linearGradient>
<linearGradient id="paint6_linear_510_101" x1="53.6722" y1="24.8335" x2="47.3468" y2="25.6123" gradientUnits="userSpaceOnUse">
<stop offset="0.004574" stop-color="#00BBF9"/>
<stop offset="0.481253" stop-color="#9B5DE5"/>
<stop offset="1" stop-color="#DE4D86"/>
</linearGradient>
<linearGradient id="paint7_linear_510_101" x1="44.9681" y1="18.3335" x2="38.5834" y2="18.8172" gradientUnits="userSpaceOnUse">
<stop offset="0.004574" stop-color="#00BBF9"/>
<stop offset="0.481253" stop-color="#9B5DE5"/>
<stop offset="1" stop-color="#DE4D86"/>
</linearGradient>
<linearGradient id="paint8_linear_510_101" x1="44.9681" y1="18.3335" x2="38.5834" y2="18.8172" gradientUnits="userSpaceOnUse">
<stop offset="0.004574" stop-color="#00BBF9"/>
<stop offset="0.481253" stop-color="#9B5DE5"/>
<stop offset="1" stop-color="#DE4D86"/>
</linearGradient>
<linearGradient id="paint9_linear_510_101" x1="27.5609" y1="18.3335" x2="21.1762" y2="18.8172" gradientUnits="userSpaceOnUse">
<stop offset="0.004574" stop-color="#00BBF9"/>
<stop offset="0.481253" stop-color="#9B5DE5"/>
<stop offset="1" stop-color="#DE4D86"/>
</linearGradient>
<linearGradient id="paint10_linear_510_101" x1="27.5609" y1="18.3335" x2="21.1762" y2="18.8172" gradientUnits="userSpaceOnUse">
<stop offset="0.004574" stop-color="#00BBF9"/>
<stop offset="0.481253" stop-color="#9B5DE5"/>
<stop offset="1" stop-color="#DE4D86"/>
</linearGradient>
<linearGradient id="paint11_linear_510_101" x1="36.2644" y1="11.8335" x2="29.8623" y2="12.1838" gradientUnits="userSpaceOnUse">
<stop offset="0.004574" stop-color="#00BBF9"/>
<stop offset="0.481253" stop-color="#9B5DE5"/>
<stop offset="1" stop-color="#DE4D86"/>
</linearGradient>
<linearGradient id="paint12_linear_510_101" x1="36.2644" y1="11.8335" x2="29.8623" y2="12.1838" gradientUnits="userSpaceOnUse">
<stop offset="0.004574" stop-color="#00BBF9"/>
<stop offset="0.481253" stop-color="#9B5DE5"/>
<stop offset="1" stop-color="#DE4D86"/>
</linearGradient>
</defs>
</svg>
