<svg width="75" height="75" viewBox="0 0 75 75" fill="none" xmlns="http://www.w3.org/2000/svg">
<circle cx="37.5" cy="37.5" r="37.5" fill="url(#paint0_linear_577_379)" fill-opacity="0.8"/>
<path d="M37 42.6316C40.5571 42.6316 43.4071 39.8811 43.4071 36.4737L43.4286 24.1579C43.4286 20.7505 40.5571 18 37 18C33.4429 18 30.5714 20.7505 30.5714 24.1579V36.4737C30.5714 39.8811 33.4429 42.6316 37 42.6316ZM48.3571 36.4737C48.3571 42.6316 42.9143 46.9421 37 46.9421C31.0857 46.9421 25.6429 42.6316 25.6429 36.4737H22C22 43.4732 27.8286 49.2616 34.8571 50.2674V57H39.1429V50.2674C46.1714 49.2821 52 43.4937 52 36.4737H48.3571Z" fill="#F8F8F8"/>
<defs>
<linearGradient id="paint0_linear_577_379" x1="75" y1="4.42014e-06" x2="-14.2122" y2="43.747" gradientUnits="userSpaceOnUse">
<stop offset="0.004574" stop-color="#00BBF9"/>
<stop offset="0.481253" stop-color="#9B5DE5"/>
<stop offset="1" stop-color="#DE4D86"/>
</linearGradient>
</defs>
</svg>
