<svg width="160" height="15" viewBox="0 0 160 15" fill="none" xmlns="http://www.w3.org/2000/svg">
<path d="M80.896 12.584C79.888 13.72 78.52 14.288 76.792 14.288C75.064 14.288 73.696 13.72 72.688 12.584C71.696 11.448 71.2 9.88 71.2 7.88C71.2 5.88 71.696 4.312 72.688 3.176C73.696 2.024 75.064 1.448 76.792 1.448C78.52 1.448 79.888 2.024 80.896 3.176C81.904 4.312 82.408 5.88 82.408 7.88C82.408 9.88 81.904 11.448 80.896 12.584ZM76.792 11.936C77.752 11.936 78.512 11.576 79.072 10.856C79.632 10.136 79.912 9.144 79.912 7.88C79.912 6.616 79.632 5.624 79.072 4.904C78.512 4.168 77.752 3.8 76.792 3.8C75.848 3.8 75.096 4.168 74.536 4.904C73.976 5.624 73.696 6.616 73.696 7.88C73.696 9.128 73.976 10.12 74.536 10.856C75.096 11.576 75.848 11.936 76.792 11.936ZM85.4172 14V1.736H87.9132V3.224C88.4572 2.04 89.3692 1.448 90.6492 1.448C91.4492 1.448 92.1372 1.696 92.7132 2.192L92.3532 4.496C91.7612 4.096 91.1132 3.896 90.4092 3.896C89.7372 3.896 89.1532 4.152 88.6572 4.664C88.1612 5.16 87.9132 5.976 87.9132 7.112V14H85.4172Z" fill="black"/>
<line x1="1.5" y1="7.5" x2="56.5" y2="7.5" stroke="black" stroke-width="3" stroke-linecap="round"/>
<line x1="103.5" y1="7.5" x2="158.5" y2="7.5" stroke="black" stroke-width="3" stroke-linecap="round"/>
</svg>
