<svg width="160" height="14" viewBox="0 0 160 14" fill="none" xmlns="http://www.w3.org/2000/svg">
<path d="M76.768 13.288C75.056 13.288 73.708 12.716 72.724 11.572C71.74 10.428 71.248 8.864 71.248 6.88C71.248 5.56 71.472 4.42 71.92 3.46C72.368 2.5 73.004 1.76 73.828 1.24C74.66 0.712 75.64 0.448 76.768 0.448C77.904 0.448 78.884 0.708 79.708 1.228C80.532 1.748 81.168 2.488 81.616 3.448C82.064 4.408 82.288 5.548 82.288 6.868C82.288 8.188 82.064 9.328 81.616 10.288C81.168 11.248 80.532 11.988 79.708 12.508C78.884 13.028 77.904 13.288 76.768 13.288ZM76.768 10.732C77.656 10.732 78.348 10.392 78.844 9.712C79.34 9.032 79.588 8.084 79.588 6.868C79.588 5.644 79.336 4.692 78.832 4.012C78.336 3.332 77.648 2.992 76.768 2.992C75.888 2.992 75.196 3.336 74.692 4.024C74.196 4.704 73.948 5.656 73.948 6.88C73.948 8.088 74.196 9.032 74.692 9.712C75.196 10.392 75.888 10.732 76.768 10.732ZM85.2559 13V0.735999H87.9439V2.152C88.1839 1.624 88.5439 1.208 89.0239 0.904C89.5119 0.6 90.0479 0.448 90.6319 0.448C91.4559 0.448 92.1519 0.716 92.7199 1.252L92.3479 3.736C92.0439 3.496 91.7399 3.324 91.4359 3.22C91.1319 3.116 90.7959 3.064 90.4279 3.064C89.9159 3.064 89.4759 3.192 89.1079 3.448C88.7399 3.704 88.4519 4.068 88.2439 4.54C88.0439 5.012 87.9439 5.572 87.9439 6.22V13H85.2559Z" fill="url(#paint0_linear_577_473)" fill-opacity="0.8"/>
<line x1="103.5" y1="8.5" x2="158.5" y2="8.5" stroke="url(#paint1_linear_577_473)" stroke-opacity="0.8" stroke-width="3" stroke-linecap="round"/>
<line x1="1.5" y1="8.5" x2="56.5" y2="8.5" stroke="url(#paint2_linear_577_473)" stroke-opacity="0.8" stroke-width="3" stroke-linecap="round"/>
<defs>
<linearGradient id="paint0_linear_577_473" x1="96" y1="1" x2="77.9791" y2="20.1467" gradientUnits="userSpaceOnUse">
<stop offset="0.004574" stop-color="#00BBF9"/>
<stop offset="0.481253" stop-color="#9B5DE5"/>
<stop offset="1" stop-color="#DE4D86"/>
</linearGradient>
<linearGradient id="paint1_linear_577_473" x1="135" y1="7.5" x2="117.5" y2="10" gradientUnits="userSpaceOnUse">
<stop offset="0.004574" stop-color="#00BBF9"/>
<stop offset="0.481253" stop-color="#9B5DE5"/>
<stop offset="1" stop-color="#DE4D86"/>
</linearGradient>
<linearGradient id="paint2_linear_577_473" x1="33" y1="7.5" x2="15.5" y2="10" gradientUnits="userSpaceOnUse">
<stop offset="0.004574" stop-color="#00BBF9"/>
<stop offset="0.481253" stop-color="#9B5DE5"/>
<stop offset="1" stop-color="#DE4D86"/>
</linearGradient>
</defs>
</svg>
