<svg width="331" height="149" viewBox="0 0 331 149" fill="none" xmlns="http://www.w3.org/2000/svg">
<g filter="url(#filter0_d_511_218)">
<rect x="4" width="323" height="141" rx="15" fill="url(#paint0_linear_511_218)" shape-rendering="crispEdges"/>
</g>
<g filter="url(#filter1_d_511_218)">
<path d="M47.2524 71V40.2H67.8884V45.832H53.1924V52.3H62.5204V57.932H53.1924V71H47.2524ZM75.202 45.876C74.2927 45.876 73.5007 45.5533 72.826 44.908C72.1807 44.2333 71.858 43.4413 71.858 42.532C71.858 41.6227 72.1807 40.8453 72.826 40.2C73.4714 39.5547 74.2634 39.232 75.202 39.232C76.1407 39.232 76.9327 39.5547 77.578 40.2C78.2234 40.816 78.546 41.5933 78.546 42.532C78.546 43.4707 78.2234 44.2627 77.578 44.908C76.9327 45.5533 76.1407 45.876 75.202 45.876ZM72.342 71V48.516H78.062V71H72.342ZM98.62 71V58.68C98.62 56.8613 98.2974 55.5413 97.652 54.72C97.036 53.8987 96.0533 53.488 94.704 53.488C91.8587 53.488 90.436 55.1893 90.436 58.592V71H84.716V48.516H90.436V50.628C91.8733 48.868 93.8827 47.988 96.464 47.988C98.6933 47.988 100.556 48.692 102.052 50.1C103.577 51.4787 104.34 53.7227 104.34 56.832V71H98.62ZM118.896 71.528C116.021 71.528 113.748 70.5013 112.076 68.448C110.433 66.3947 109.612 63.4907 109.612 59.736C109.612 56.1573 110.477 53.312 112.208 51.2C113.968 49.0587 116.212 47.988 118.94 47.988C120.993 47.988 122.592 48.7067 123.736 50.144V41.828L129.456 39.232V71H123.736V69.372C122.768 70.8093 121.155 71.528 118.896 71.528ZM119.82 66.028C121.58 66.028 122.885 65.4267 123.736 64.224V55.336C122.827 54.104 121.521 53.488 119.82 53.488C118.383 53.488 117.268 54.0307 116.476 55.116C115.713 56.172 115.332 57.712 115.332 59.736C115.332 61.7013 115.713 63.2413 116.476 64.356C117.268 65.4707 118.383 66.028 119.82 66.028ZM159.824 71V69.372C158.386 70.8093 156.45 71.528 154.016 71.528C151.581 71.528 149.586 70.8827 148.032 69.592C146.506 68.3013 145.744 66.468 145.744 64.092C145.744 61.6573 146.609 59.8093 148.34 58.548C150.1 57.2867 152.212 56.656 154.676 56.656C156.641 56.656 158.357 57.008 159.824 57.712V56.568C159.824 54.192 158.474 53.004 155.776 53.004C153.312 53.004 150.994 53.752 148.824 55.248L147.064 50.628C149.674 48.868 152.74 47.988 156.26 47.988C157.462 47.988 158.518 48.0907 159.428 48.296C160.366 48.5013 161.334 48.8827 162.332 49.44C163.329 49.9973 164.092 50.892 164.62 52.124C165.177 53.3267 165.456 54.8373 165.456 56.656V71H159.824ZM155.116 66.512C156.905 66.512 158.474 65.896 159.824 64.664V62.244C158.592 61.7453 157.198 61.496 155.644 61.496C154.353 61.496 153.312 61.716 152.52 62.156C151.728 62.5667 151.332 63.212 151.332 64.092C151.332 64.8253 151.654 65.412 152.3 65.852C152.974 66.292 153.913 66.512 155.116 66.512ZM190.035 71.528C188.216 71.528 186.485 71.1613 184.843 70.428C183.2 69.6947 181.939 68.712 181.059 67.48L184.843 64.268C186.456 65.8813 188.216 66.688 190.123 66.688C192.381 66.688 193.511 66.028 193.511 64.708C193.511 64.092 193.203 63.5933 192.587 63.212C192 62.8013 190.944 62.3027 189.419 61.716C186.749 60.836 184.799 59.8533 183.567 58.768C182.335 57.6533 181.719 56.172 181.719 54.324C181.719 52.3587 182.496 50.8187 184.051 49.704C185.605 48.56 187.556 47.988 189.903 47.988C193.305 47.988 196.048 49.1907 198.131 51.596L194.303 54.72C192.953 53.4587 191.487 52.828 189.903 52.828C187.996 52.828 187.043 53.3853 187.043 54.5C187.043 55.4387 188.509 56.348 191.443 57.228C193.789 57.9907 195.608 58.9293 196.899 60.044C198.189 61.1293 198.835 62.684 198.835 64.708C198.835 66.8787 198.043 68.5653 196.459 69.768C194.875 70.9413 192.733 71.528 190.035 71.528ZM220.934 68.404C219.086 70.4867 216.564 71.528 213.366 71.528C210.169 71.528 207.646 70.4867 205.798 68.404C203.95 66.3213 203.026 63.4467 203.026 59.78C203.026 56.1427 203.95 53.268 205.798 51.156C207.676 49.044 210.198 47.988 213.366 47.988C216.534 47.988 219.042 49.044 220.89 51.156C222.768 53.268 223.706 56.1427 223.706 59.78C223.706 63.4467 222.782 66.3213 220.934 68.404ZM213.366 66.028C214.804 66.028 215.933 65.4853 216.754 64.4C217.576 63.2853 217.986 61.7453 217.986 59.78C217.986 57.8147 217.576 56.2747 216.754 55.16C215.933 54.0453 214.804 53.488 213.366 53.488C211.958 53.488 210.829 54.06 209.978 55.204C209.157 56.3187 208.746 57.844 208.746 59.78C208.746 61.716 209.157 63.2413 209.978 64.356C210.829 65.4707 211.958 66.028 213.366 66.028ZM243.124 71V58.68C243.124 56.8613 242.801 55.5413 242.156 54.72C241.54 53.8987 240.557 53.488 239.208 53.488C236.363 53.488 234.94 55.1893 234.94 58.592V71H229.22V48.516H234.94V50.628C236.377 48.868 238.387 47.988 240.968 47.988C243.197 47.988 245.06 48.692 246.556 50.1C248.081 51.4787 248.844 53.7227 248.844 56.832V71H243.124ZM263.356 79.8L260.188 75.048C263.297 74.8133 265.409 74.3733 266.524 73.728C267.668 73.112 268.24 72.012 268.24 70.428V69.812C267.096 70.956 265.483 71.528 263.4 71.528C260.613 71.528 258.369 70.516 256.668 68.492C254.967 66.4387 254.116 63.52 254.116 59.736C254.116 56.1573 254.967 53.312 256.668 51.2C258.399 49.0587 260.657 47.988 263.444 47.988C265.439 47.988 267.037 48.56 268.24 49.704V48.516H273.96V67.964C273.96 71.9827 273.212 74.872 271.716 76.632C270.249 78.4213 267.463 79.4773 263.356 79.8ZM264.324 66.028C266.055 66.028 267.36 65.4267 268.24 64.224V55.336C267.213 54.104 265.908 53.488 264.324 53.488C262.887 53.488 261.772 54.0307 260.98 55.116C260.217 56.172 259.836 57.712 259.836 59.736C259.836 61.6427 260.217 63.168 260.98 64.312C261.743 65.456 262.857 66.028 264.324 66.028Z" fill="#F8F8F8"/>
</g>
<defs>
<filter id="filter0_d_511_218" x="0" y="0" width="331" height="149" filterUnits="userSpaceOnUse" color-interpolation-filters="sRGB">
<feFlood flood-opacity="0" result="BackgroundImageFix"/>
<feColorMatrix in="SourceAlpha" type="matrix" values="0 0 0 0 0 0 0 0 0 0 0 0 0 0 0 0 0 0 127 0" result="hardAlpha"/>
<feOffset dy="4"/>
<feGaussianBlur stdDeviation="2"/>
<feComposite in2="hardAlpha" operator="out"/>
<feColorMatrix type="matrix" values="0 0 0 0 0.188235 0 0 0 0 0.188235 0 0 0 0 0.188235 0 0 0 0.25 0"/>
<feBlend mode="normal" in2="BackgroundImageFix" result="effect1_dropShadow_511_218"/>
<feBlend mode="normal" in="SourceGraphic" in2="effect1_dropShadow_511_218" result="shape"/>
</filter>
<filter id="filter1_d_511_218" x="43.2524" y="37.2319" width="238.708" height="52.5679" filterUnits="userSpaceOnUse" color-interpolation-filters="sRGB">
<feFlood flood-opacity="0" result="BackgroundImageFix"/>
<feColorMatrix in="SourceAlpha" type="matrix" values="0 0 0 0 0 0 0 0 0 0 0 0 0 0 0 0 0 0 127 0" result="hardAlpha"/>
<feOffset dx="2" dy="4"/>
<feGaussianBlur stdDeviation="3"/>
<feComposite in2="hardAlpha" operator="out"/>
<feColorMatrix type="matrix" values="0 0 0 0 0.188235 0 0 0 0 0.188235 0 0 0 0 0.188235 0 0 0 0.4 0"/>
<feBlend mode="normal" in2="BackgroundImageFix" result="effect1_dropShadow_511_218"/>
<feBlend mode="normal" in="SourceGraphic" in2="effect1_dropShadow_511_218" result="shape"/>
</filter>
<linearGradient id="paint0_linear_511_218" x1="166.079" y1="-4.70084e-07" x2="166.079" y2="141" gradientUnits="userSpaceOnUse">
<stop stop-color="#FCB0B4" stop-opacity="0.929871"/>
<stop offset="0.208668" stop-color="#FCB0B4" stop-opacity="0.649885"/>
<stop offset="0.341907" stop-color="#FCB0B4" stop-opacity="0.464333"/>
<stop offset="1" stop-color="#BCCCD1" stop-opacity="0.09"/>
<stop offset="1" stop-color="#FCB0B4" stop-opacity="0.09"/>
</linearGradient>
</defs>
</svg>
