<svg width="280" height="449" viewBox="0 0 280 449" fill="none" xmlns="http://www.w3.org/2000/svg">
<g clip-path="url(#clip0_458_396)">
<path d="M280 0H0V449H280V0Z" fill="#E5E5E5"/>
<path d="M476.5 -182.5H-141.5V550.5H476.5V-182.5Z" fill="#F8F8F8" stroke="black"/>
<path d="M270 -1H10C4.47715 -1 0 3.47715 0 9V439C0 444.523 4.47715 449 10 449H270C275.523 449 280 444.523 280 439V9C280 3.47715 275.523 -1 270 -1Z" fill="#0000B9"/>
<path d="M108.941 6.44057L53.1563 46.5035C46.9946 50.9288 45.5719 59.5321 49.9786 65.7197L93.8636 127.339C98.2704 133.527 106.838 134.956 113 130.531L168.784 90.4675C174.945 86.0423 176.368 77.4389 171.961 71.2513L128.076 9.63158C123.67 3.444 115.102 2.01534 108.941 6.44057Z" fill="#A6E1FA"/>
<path d="M88.3003 21.2635C96.3513 20.1378 97.8109 49.0669 89.551 47.8825C74.1241 45.6701 67.7476 50.4175 65.3562 50.0185C61.406 49.3596 59.8922 43.2805 61.5236 40.4941C64.3123 38.4909 69.0363 35.0985 72.4018 32.6815C78.7174 28.1457 79.6537 27.4732 88.3003 21.2635Z" fill="#00BBF9"/>
<path d="M171.195 70.4325C172.316 78.518 143.508 79.9837 144.687 71.6892C146.891 56.1974 142.163 49.7942 142.56 47.3924C143.216 43.4255 149.27 41.9059 152.045 43.5437C154.039 46.3445 157.418 51.088 159.825 54.4676C164.342 60.8099 165.011 61.7499 171.195 70.4325Z" fill="#00BBF9"/>
<path d="M77.5043 90.8262L72.4775 83.7675L75.4895 81.6043C75.9179 81.2963 76.3349 81.0937 76.7407 80.9953C77.1532 80.892 77.5262 80.8834 77.8604 80.9689C78.1939 81.0538 78.4957 81.1933 78.7644 81.3862C79.0331 81.5791 79.2707 81.8199 79.4766 82.1091C79.8933 82.6938 80.0576 83.3582 79.9697 84.1015C79.8892 84.8406 79.454 85.4938 78.6641 86.061L77.0072 87.2511L78.8595 89.8525L77.5043 90.8262ZM77.8051 84.7272C78.1197 84.5009 78.2893 84.2423 78.3139 83.9501C78.3335 83.6509 78.2526 83.3742 78.071 83.1184C77.8937 82.8702 77.6644 82.7044 77.383 82.6219C77.1017 82.5393 76.7972 82.616 76.469 82.8514L74.7522 84.0849L76.0877 85.96L77.8051 84.7272ZM87.0239 83.09C86.9425 83.8698 86.5368 84.522 85.8068 85.0458C85.0774 85.5697 84.3315 85.7445 83.5699 85.5703C82.8082 85.3961 82.1283 84.8885 81.5301 84.0487C80.9361 83.2151 80.6777 82.405 80.755 81.6176C80.8383 80.8261 81.242 80.1706 81.9652 79.6516C82.6877 79.1319 83.4322 78.9633 84.1988 79.1443C84.9721 79.3205 85.6554 79.8254 86.2494 80.659C86.8476 81.4994 87.106 82.3096 87.0239 83.09ZM84.9095 83.7855C85.237 83.5501 85.4061 83.2405 85.4167 82.8575C85.4224 82.4669 85.2646 82.047 84.944 81.5963C84.6233 81.1464 84.2782 80.8606 83.9087 80.7396C83.5392 80.6186 83.1907 80.6765 82.8624 80.9119C82.541 81.1424 82.3768 81.4588 82.3692 81.8604C82.3641 82.2503 82.5191 82.6675 82.8349 83.1106C83.1514 83.5545 83.4937 83.8369 83.8632 83.9578C84.2395 84.0739 84.588 84.0167 84.9095 83.7855ZM91.8247 80.7243C91.3562 81.061 90.8736 81.1581 90.3784 81.0164L91.6568 82.8108L90.7749 84.3431L85.6689 77.1743L86.9743 76.2369L87.24 76.6096C87.2664 76.0928 87.5173 75.664 87.9926 75.3224C88.6355 74.8607 89.3173 74.732 90.0388 74.9348C90.7622 75.1266 91.4279 75.6496 92.0358 76.5031C92.625 77.3298 92.8942 78.1274 92.8435 78.8945C92.7935 79.6623 92.4539 80.2724 91.8247 80.7243ZM90.7258 79.6079C91.0541 79.3725 91.2163 79.0678 91.2133 78.6939C91.2171 78.3157 91.0559 77.8979 90.7303 77.4404C90.4146 76.9973 90.075 76.7121 89.7123 76.5869C89.3515 76.4494 89.0077 76.499 88.6795 76.7343C88.2913 77.013 88.0918 77.3649 88.0803 77.7893L89.5312 79.8265C89.9059 79.9839 90.3043 79.911 90.7258 79.6079ZM91.603 104.591C91.0806 104.966 90.5439 105.2 89.9913 105.291C89.4414 105.371 88.9183 105.326 88.4214 105.154C87.932 104.977 87.4754 104.721 87.0537 104.383C86.6313 104.047 86.2507 103.639 85.9106 103.162C85.5948 102.719 85.3521 102.243 85.1824 101.735C85.0079 101.22 84.9143 100.697 84.9015 100.169C84.8955 99.6341 85.0165 99.1149 85.2653 98.6117C85.5153 98.0968 85.895 97.6563 86.4037 97.291C87.0261 96.844 87.6261 96.621 88.2043 96.6228C88.7837 96.6129 89.383 96.7364 90.0008 96.9933L89.2946 98.5369C88.4849 98.2241 87.8322 98.2458 87.3371 98.602C87.0293 98.8227 86.8105 99.0914 86.6819 99.4075C86.5546 99.7125 86.5173 100.029 86.5693 100.358C86.6163 100.679 86.7032 100.993 86.8296 101.298C86.9574 101.592 87.12 101.877 87.3161 102.153C87.7856 102.811 88.321 103.265 88.9229 103.513C89.5248 103.762 90.107 103.684 90.6695 103.28C91.0107 103.035 91.2195 102.718 91.2959 102.328C91.379 101.932 91.3076 101.577 91.0829 101.261L91.0252 101.18L89.8307 102.039L88.9112 100.748L91.4915 98.8944L92.2316 99.9332C92.8541 100.807 93.0951 101.665 92.956 102.507C92.8169 103.348 92.3657 104.043 91.603 104.591ZM97.6162 100.273C96.8732 100.806 96.1171 100.988 95.3486 100.819C94.5802 100.65 93.8948 100.141 93.2917 99.2937C92.7026 98.4669 92.4504 97.6575 92.5337 96.866C92.6239 96.0696 93.0378 95.407 93.7739 94.8783C94.4433 94.397 95.1376 94.2137 95.8561 94.3278C96.5698 94.4349 97.2087 94.8852 97.7742 95.6784C98.0086 96.008 98.1793 96.2763 98.287 96.4839L94.9433 98.8853C95.1994 99.1885 95.4988 99.3598 95.84 99.3991C96.1839 99.4266 96.5026 99.3346 96.7975 99.1229C97.2524 98.796 97.4935 98.3535 97.5209 97.7954L98.9059 98.0356C98.8424 98.955 98.4122 99.7004 97.6162 100.273ZM94.1634 97.7684L96.2615 96.2618C96.0106 95.9943 95.7354 95.8421 95.4346 95.8038C95.1413 95.7606 94.8602 95.835 94.5925 96.0278C93.9367 96.4986 93.7937 97.0792 94.1634 97.7684ZM104.172 95.3808L102.162 92.5572C101.865 92.1407 101.576 91.8909 101.295 91.809C101.02 91.7215 100.729 91.7885 100.421 92.0092C99.7718 92.4758 99.7245 93.0989 100.28 93.8785L102.305 96.7219L101 97.6593L97.3298 92.5071L98.6353 91.5698L98.9803 92.0533C99.0205 91.4144 99.3356 90.8837 99.9246 90.4604C100.433 90.0951 100.974 89.9512 101.545 90.0289C102.118 90.0947 102.658 90.484 103.166 91.1965L105.478 94.4435L104.172 95.3808ZM106.932 93.3993L103.263 88.2464L104.568 87.3091L104.891 87.7625C104.799 87.2496 104.98 86.8297 105.435 86.5028C105.817 86.229 106.259 86.1103 106.76 86.1459L107.434 87.4759C107.009 87.4761 106.626 87.5991 106.285 87.8442C105.696 88.2668 105.664 88.8484 106.191 89.5877L108.237 92.4612L106.932 93.3993ZM113.227 89.0612C112.484 89.5949 111.728 89.7767 110.96 89.6074C110.191 89.4374 109.505 88.9298 108.902 88.0825C108.314 87.2557 108.061 86.4462 108.145 85.6547C108.235 84.8583 108.648 84.1957 109.385 83.667C110.055 83.1858 110.748 83.0025 111.467 83.1165C112.18 83.2237 112.82 83.6739 113.385 84.4672C113.619 84.7961 113.791 85.0651 113.898 85.272L110.554 87.6733C110.811 87.9773 111.109 88.1485 111.451 88.1878C111.794 88.2154 112.114 88.1233 112.408 87.9117C112.864 87.5848 113.105 87.1423 113.132 86.5841L114.517 86.8237C114.454 87.7431 114.023 88.4892 113.227 89.0612ZM109.774 86.5572L111.873 85.0498C111.622 84.7831 111.346 84.6309 111.046 84.5925C110.752 84.5493 110.471 84.6238 110.204 84.8159C109.547 85.2873 109.404 85.868 109.774 86.5572Z" fill="#F8F8F8"/>
<path d="M119.46 22.9856C117.57 23.0823 115.916 23.9393 114.77 25.2452C113.868 26.2729 113.282 27.579 113.142 29.0119L112.408 29.0497L112.585 31.4166L113.319 31.3788C113.755 33.1204 114.839 34.5993 116.283 35.556L118.809 48.3281L120.288 48.2519L120.414 49.9368C120.497 51.0532 121.011 52.0826 121.862 52.8354C122.712 53.5881 123.794 53.9711 124.907 53.9137C127.213 53.7952 128.948 51.818 128.776 49.5064L128.109 40.5731C128.034 39.5666 128.79 38.706 129.793 38.6543C130.797 38.6027 131.675 39.3794 131.75 40.3857L132.281 47.5138L134.642 47.3924L134.11 40.2642C133.938 37.9527 131.922 36.1686 129.617 36.2873C127.312 36.4059 125.576 38.383 125.749 40.6946L126.415 49.6279C126.49 50.6343 125.734 51.495 124.731 51.5467C124.248 51.5716 123.777 51.4043 123.407 51.0758C123.035 50.7471 122.81 50.2995 122.775 49.8153L122.649 48.1304L124.002 48.0608L124.616 35.0122C124.812 34.836 124.999 34.6496 125.172 34.4517C126.075 33.4239 126.659 32.1187 126.8 30.685L127.535 30.6472L127.358 28.2802L126.624 28.318C125.824 25.1218 122.838 22.8132 119.46 22.9856ZM122.744 44.9587C122.809 45.8302 122.157 46.573 121.288 46.6177C120.418 46.6624 119.661 45.9922 119.597 45.1207C119.531 44.2492 120.183 43.5064 121.053 43.4617C121.922 43.417 122.679 44.0872 122.744 44.9587Z" fill="#00BBF9"/>
<path d="M138.486 0.0919075C134.08 -6.09568 135.503 -14.6992 141.664 -19.1243L169.556 -39.1559L189.097 -53.2299L197.812 -59.0962C203.956 -63.2322 212.259 -61.7312 216.581 -55.7031L223.783 -45.657L238.526 -25.1864L260.469 5.62356C264.875 11.8111 263.452 20.4144 257.291 24.8396L201.507 64.9026C195.345 69.3281 186.778 67.8994 182.372 61.7116L138.486 0.0919075Z" fill="#D3BCF1"/>
<path d="M162.281 -0.272432C157.889 6.31451 150.102 15.3913 144.883 8.85538C141.063 4.07265 142.101 5.09529 139.254 0.99142C137.315 -1.80383 137.521 -6.55223 139.151 -9.33859C146.005 -16.2946 147.136 -5.97493 153.61 -10.1722C159.925 -14.7081 164.977 -5.12056 162.281 -0.272432Z" fill="#9B5DE5"/>
<path d="M259.819 4.8028C260.94 12.8881 232.132 14.3536 233.311 6.0594C235.515 -9.43248 230.787 -15.8356 231.184 -18.2375C231.84 -22.2044 237.894 -23.724 240.669 -22.0862C242.663 -19.2854 246.042 -14.5418 248.449 -11.1622C252.966 -4.81999 253.635 -3.87997 259.819 4.8028Z" fill="#9B5DE5"/>
<path d="M168.91 23.3685C168.381 23.7484 167.845 23.9759 167.302 24.0511C166.754 24.1197 166.242 24.0551 165.767 23.8575C165.288 23.6531 164.848 23.3844 164.449 23.0513C164.057 22.7133 163.696 22.3125 163.366 21.8486C163.059 21.4184 162.816 20.9632 162.635 20.4829C162.451 19.9959 162.339 19.4916 162.302 18.97C162.259 18.4417 162.357 17.9247 162.594 17.4193C162.826 16.9071 163.203 16.4635 163.725 16.0884C164.354 15.6365 164.993 15.4113 165.642 15.4129C166.297 15.4096 166.873 15.5649 167.37 15.8788L166.55 17.3059C166.157 17.1515 165.815 17.0768 165.525 17.0817C165.235 17.0867 164.946 17.1926 164.659 17.3993C164.29 17.6637 164.074 18.0126 164.008 18.4459C163.944 18.8677 163.988 19.2779 164.14 19.6765C164.288 20.0684 164.498 20.4559 164.771 20.839C165.206 21.4507 165.723 21.8981 166.319 22.1812C166.922 22.4594 167.474 22.4183 167.976 22.0577C168.465 21.7067 168.675 21.099 168.605 20.2344L170.188 19.8141C170.494 21.352 170.068 22.5369 168.91 23.3685ZM172.552 20.5848L167.806 13.9197L168.673 12.3672L173.858 19.6473L172.552 20.5848ZM178.326 16.438L178.061 16.0649C177.968 16.6298 177.643 17.1119 177.087 17.5108C176.532 17.9099 175.971 18.0889 175.406 18.0479C174.847 18.0022 174.373 17.707 173.986 17.1625C173.589 16.6046 173.484 16.0393 173.674 15.4666C173.869 14.889 174.249 14.3984 174.81 13.9945C175.259 13.6724 175.708 13.4719 176.158 13.3928L175.971 13.1307C175.583 12.5862 175.081 12.5351 174.466 12.9773C173.903 13.3812 173.496 13.9324 173.246 14.631L172.09 13.8607C172.398 13.0295 172.954 12.3254 173.757 11.7486C174.032 11.5515 174.29 11.4019 174.531 11.2999C174.779 11.1931 175.062 11.1218 175.38 11.0861C175.699 11.0504 176.019 11.1304 176.34 11.3262C176.664 11.5105 176.974 11.811 177.271 12.2278L179.611 15.5149L178.326 16.438ZM176.519 16.1811C176.928 15.8878 177.185 15.4895 177.292 14.986L176.898 14.4314C176.535 14.5191 176.176 14.6902 175.821 14.945C175.527 15.1566 175.325 15.3776 175.216 15.6083C175.102 15.8322 175.118 16.045 175.261 16.2467C175.381 16.4147 175.55 16.4963 175.769 16.4913C175.995 16.4817 176.245 16.3782 176.519 16.1811ZM182.797 13.4104C182.382 13.7085 181.927 13.9081 181.433 14.0092C180.938 14.1104 180.49 14.0919 180.088 13.9538L180.427 12.5976C181.059 12.7029 181.592 12.5993 182.027 12.2868C182.543 11.9166 182.692 11.5803 182.477 11.2778C182.377 11.1366 182.225 11.0728 182.022 11.0863C181.821 11.0884 181.499 11.1472 181.055 11.2628C180.302 11.4986 179.697 11.5931 179.238 11.5463C178.775 11.4928 178.393 11.2543 178.091 10.8307C177.77 10.3804 177.696 9.90011 177.87 9.38981C178.037 8.87289 178.389 8.4221 178.925 8.03752C179.701 7.47979 180.524 7.30591 181.391 7.51582L181.027 8.85912C180.514 8.79119 180.076 8.88703 179.715 9.14666C179.28 9.45916 179.153 9.74308 179.335 9.99857C179.488 10.2136 179.971 10.1816 180.784 9.90257C181.445 9.69271 182.012 9.60982 182.489 9.65367C182.961 9.69088 183.362 9.94135 183.692 10.4052C184.046 10.9026 184.141 11.419 183.976 11.9542C183.806 12.4826 183.413 12.9681 182.797 13.4104ZM187.759 9.84696C187.343 10.145 186.888 10.3447 186.394 10.4458C185.899 10.547 185.451 10.5285 185.049 10.3904L185.388 9.03417C186.021 9.13948 186.554 9.03585 186.989 8.72342C187.504 8.35324 187.654 8.01687 187.438 7.7144C187.338 7.57318 187.187 7.50941 186.984 7.52301C186.783 7.52503 186.46 7.58384 186.016 7.69938C185.264 7.93517 184.658 8.02973 184.2 7.98288C183.737 7.92939 183.355 7.69085 183.053 7.26734C182.732 6.81696 182.658 6.33669 182.831 5.82639C182.999 5.30947 183.351 4.85868 183.886 4.4741C184.663 3.91637 185.485 3.74249 186.353 3.9524L185.989 5.2957C185.476 5.22777 185.038 5.32362 184.677 5.58324C184.241 5.89574 184.115 6.17966 184.297 6.43515C184.45 6.65022 184.933 6.61825 185.746 6.33916C186.406 6.12929 186.974 6.0464 187.45 6.09025C187.922 6.12747 188.324 6.378 188.653 6.8418C189.008 7.33923 189.102 7.85559 188.938 8.3908C188.767 8.91925 188.374 9.40468 187.759 9.84696ZM187.499 1.1478C187.292 1.29684 187.058 1.35269 186.799 1.31538C186.542 1.26654 186.339 1.13792 186.191 0.929536C186.042 0.721156 185.989 0.490129 186.031 0.236474C186.073 -0.0171804 186.2 -0.220919 186.415 -0.374768C186.63 -0.528611 186.863 -0.58447 187.115 -0.542345C187.363 -0.506949 187.564 -0.381697 187.717 -0.166582C187.87 0.0485258 187.926 0.282906 187.884 0.536561C187.842 0.790216 187.714 0.993961 187.499 1.1478ZM190.947 7.37407L187.278 2.22153L188.583 1.28406L192.253 6.43658L190.947 7.37407ZM195.946 3.96711C195.229 4.48147 194.49 4.65149 193.729 4.47708C192.968 4.30268 192.287 3.79536 191.689 2.9551C191.095 2.12155 190.837 1.31135 190.914 0.524484C190.998 -0.267202 191.394 -0.917843 192.104 -1.42745C193.209 -2.2207 194.28 -2.22853 195.32 -1.45097L194.369 -0.143351C193.886 -0.466827 193.44 -0.481933 193.031 -0.188668C192.717 0.0372891 192.556 0.351055 192.548 0.752642C192.548 1.14941 192.703 1.56626 193.014 2.00321C193.326 2.44014 193.668 2.72239 194.042 2.84998C194.412 2.9708 194.747 2.92302 195.048 2.7067C195.496 2.38458 195.621 1.91951 195.421 1.3115L196.931 0.79038C197.392 2.10532 197.064 3.16421 195.946 3.96711ZM180.229 38.9627C179.706 39.3377 179.169 39.571 178.617 39.6626C178.067 39.7427 177.544 39.6968 177.047 39.5252C176.557 39.3487 176.101 39.092 175.679 38.755C175.257 38.418 174.876 38.0109 174.536 37.5337C174.22 37.09 173.977 36.6141 173.807 36.106C173.633 35.5911 173.54 35.069 173.527 34.5397C173.521 34.0056 173.642 33.4867 173.89 32.9832C174.141 32.4681 174.521 32.0278 175.029 31.6625C175.652 31.2154 176.252 30.9926 176.83 30.9942C177.409 30.9842 178.009 31.1078 178.626 31.3649L177.92 32.9087C177.11 32.596 176.458 32.6175 175.963 32.9733C175.655 33.1944 175.436 33.4631 175.307 33.7792C175.18 34.0838 175.143 34.4004 175.195 34.729C175.242 35.0508 175.328 35.3644 175.454 35.6698C175.583 35.9637 175.746 36.2484 175.942 36.5241C176.411 37.1829 176.947 37.6365 177.548 37.8849C178.15 38.1334 178.733 38.0557 179.294 37.6519C179.636 37.4067 179.845 37.0891 179.921 36.699C180.005 36.3041 179.933 35.9486 179.708 35.6327L179.651 35.5521L178.456 36.4102L177.537 35.1195L180.117 33.2662L180.857 34.3048C181.48 35.1787 181.721 36.0364 181.582 36.8781C181.442 37.7198 180.991 38.4146 180.229 38.9627ZM186.242 34.6442C185.498 35.1778 184.743 35.3599 183.974 35.1903C183.206 35.0207 182.52 34.5124 181.917 33.6654C181.328 32.8386 181.076 32.0293 181.159 31.2377C181.249 30.4411 181.663 29.7785 182.399 29.2497C183.069 28.7689 183.763 28.5854 184.482 28.6994C185.195 28.8066 185.834 29.2567 186.4 30.0499C186.634 30.3793 186.805 30.6478 186.913 30.8552L183.569 33.2566C183.825 33.56 184.124 33.7313 184.466 33.7705C184.809 33.7982 185.128 33.7062 185.423 33.4947C185.878 33.1678 186.119 32.7252 186.146 32.167L187.531 32.4069C187.468 33.3263 187.038 34.0721 186.242 34.6442ZM182.789 32.1402L184.887 30.6331C184.636 30.3661 184.361 30.2135 184.06 30.1753C183.767 30.1322 183.486 30.2068 183.218 30.3992C182.562 30.8703 182.419 31.4507 182.789 32.1402ZM192.798 29.7524L190.788 26.9291C190.491 26.5123 190.202 26.2627 189.92 26.1802C189.646 26.093 189.354 26.1599 189.046 26.381C188.397 26.8474 188.35 27.4704 188.905 28.2502L190.931 31.0937L189.625 32.0312L185.955 26.8786L187.261 25.9411L187.606 26.4252C187.646 25.7862 187.961 25.2553 188.55 24.8322C189.059 24.4669 189.599 24.3229 190.17 24.4004C190.743 24.4663 191.284 24.8555 191.791 25.5681L194.103 28.8149L192.798 29.7524ZM195.558 27.7706L191.888 22.6181L193.194 21.6806L193.516 22.1343C193.424 21.6214 193.606 21.2014 194.061 20.8745C194.443 20.6004 194.884 20.4816 195.386 20.5177L196.059 21.8475C195.634 21.8477 195.251 21.9704 194.91 22.2156C194.321 22.6387 194.29 23.2199 194.816 23.9594L196.863 26.8331L195.558 27.7706ZM201.852 23.4328C201.109 23.9664 200.353 24.1485 199.585 23.9789C198.817 23.8093 198.131 23.301 197.528 22.454C196.939 21.6272 196.686 20.8179 196.77 20.0263C196.861 19.2297 197.274 18.5671 198.01 18.0383C198.679 17.5575 199.374 17.3741 200.092 17.488C200.806 17.5952 201.445 18.0453 202.01 18.8386C202.245 19.168 202.416 19.4364 202.523 19.6438L199.179 22.0452C199.436 22.3486 199.735 22.52 200.077 22.5592C200.42 22.5868 200.739 22.4949 201.033 22.2833C201.488 21.9564 201.73 21.5138 201.758 20.9557L203.143 21.1955C203.079 22.1149 202.649 22.8607 201.852 23.4328ZM198.399 20.9289L200.498 19.4217C200.247 19.1548 199.971 19.0022 199.671 18.9639C199.377 18.9208 199.097 18.9955 198.829 19.1878C198.173 19.6589 198.03 20.2393 198.399 20.9289Z" fill="#F8F8F8"/>
<path d="M181.279 104.204L125.496 144.267C119.334 148.692 117.911 157.296 122.318 163.483L166.203 225.103C170.61 231.291 179.177 232.719 185.339 228.294L241.123 188.231C247.284 183.806 248.707 175.203 244.3 169.015L200.415 107.395C196.009 101.208 187.441 99.779 181.279 104.204Z" fill="#98F5E1"/>
<path d="M181.61 104.274C189.664 103.163 191.071 132.095 182.814 130.896C167.391 128.655 161.006 133.391 158.615 132.988C154.666 132.322 153.163 126.24 154.799 123.456C157.592 121.459 162.322 118.074 165.691 115.664C172.015 111.139 172.953 110.468 181.61 104.274Z" fill="#20E9BD"/>
<path d="M152.259 187.038C151.604 187.509 150.913 187.746 150.186 187.749C149.46 187.753 148.781 187.524 148.149 187.063L149.054 185.712C149.447 185.938 149.85 186.056 150.261 186.065C150.673 186.074 151.046 185.959 151.381 185.719C151.729 185.469 151.95 185.197 152.046 184.906C152.148 184.608 152.101 184.322 151.905 184.047C151.804 183.905 151.682 183.805 151.539 183.745C151.395 183.686 151.212 183.67 150.989 183.698C150.766 183.726 150.575 183.763 150.414 183.807C150.255 183.839 150.023 183.904 149.718 184.002C149.37 184.109 149.103 184.189 148.917 184.241C148.738 184.288 148.486 184.332 148.161 184.373C147.836 184.413 147.567 184.413 147.356 184.372C147.139 184.324 146.904 184.228 146.651 184.086C146.399 183.931 146.178 183.719 145.987 183.45C145.594 182.899 145.48 182.285 145.645 181.607C145.805 180.923 146.25 180.319 146.98 179.796C147.582 179.363 148.196 179.151 148.819 179.16C149.45 179.165 150.004 179.361 150.483 179.749L149.555 181.025C148.98 180.685 148.401 180.726 147.819 181.144C147.524 181.355 147.336 181.581 147.255 181.823C147.176 182.053 147.213 182.275 147.366 182.49C147.467 182.631 147.625 182.711 147.84 182.729C148.05 182.74 148.247 182.726 148.431 182.685C148.61 182.638 148.886 182.557 149.259 182.441C149.551 182.354 149.777 182.288 149.937 182.243C150.098 182.199 150.325 182.148 150.618 182.091C150.911 182.032 151.155 182.014 151.352 182.035C151.556 182.052 151.78 182.089 152.024 182.147C152.27 182.194 152.498 182.3 152.706 182.465C152.91 182.623 153.098 182.824 153.271 183.066C153.744 183.731 153.877 184.428 153.668 185.158C153.465 185.882 152.996 186.509 152.259 187.038ZM158.883 182.098L158.617 181.725C158.524 182.29 158.2 182.772 157.644 183.171C157.088 183.57 156.528 183.749 155.962 183.708C155.403 183.662 154.931 183.367 154.543 182.823C154.145 182.265 154.041 181.699 154.23 181.127C154.426 180.549 154.805 180.059 155.367 179.654C155.816 179.332 156.265 179.132 156.714 179.053L156.528 178.791C156.14 178.246 155.638 178.195 155.022 178.637C154.46 179.042 154.053 179.593 153.802 180.291L152.646 179.521C152.955 178.69 153.511 177.986 154.314 177.409C154.588 177.212 154.846 177.062 155.087 176.96C155.335 176.853 155.618 176.782 155.937 176.746C156.255 176.711 156.575 176.79 156.897 176.986C157.22 177.171 157.53 177.471 157.827 177.888L160.169 181.175L158.883 182.098ZM157.077 181.841C157.485 181.548 157.742 181.149 157.849 180.646L157.454 180.092C157.092 180.179 156.733 180.35 156.378 180.605C156.084 180.817 155.882 181.038 155.773 181.268C155.659 181.492 155.674 181.705 155.818 181.907C155.938 182.075 156.107 182.157 156.326 182.152C156.552 182.142 156.802 182.038 157.077 181.841ZM163.524 178.948C162.868 179.419 162.182 179.557 161.465 179.36C160.755 179.158 160.094 178.628 159.481 177.767C158.897 176.947 158.63 176.153 158.681 175.386C158.732 174.607 159.07 173.993 159.692 173.546C160.161 173.209 160.643 173.112 161.139 173.254L159.782 171.348L160.663 169.816L165.848 177.096L164.543 178.034L164.277 177.661C164.291 178.148 164.04 178.578 163.524 178.948ZM162.838 177.536C163.239 177.248 163.439 176.896 163.437 176.481L161.986 174.444C161.577 174.311 161.179 174.383 160.791 174.663C160.463 174.898 160.297 175.205 160.294 175.584C160.292 175.951 160.456 176.366 160.786 176.83C161.107 177.28 161.446 177.571 161.801 177.701C162.164 177.827 162.509 177.771 162.838 177.536ZM163.43 202.723C162.774 203.194 162.083 203.431 161.357 203.435C160.631 203.438 159.952 203.209 159.321 202.749L160.225 201.398C160.618 201.623 161.02 201.741 161.432 201.75C161.844 201.759 162.216 201.644 162.551 201.404C162.899 201.154 163.121 200.883 163.217 200.59C163.319 200.293 163.272 200.007 163.075 199.732C162.975 199.59 162.853 199.49 162.709 199.431C162.566 199.371 162.383 199.356 162.16 199.383C161.937 199.411 161.745 199.447 161.585 199.492C161.426 199.524 161.194 199.589 160.888 199.687C160.54 199.795 160.274 199.875 160.088 199.926C159.909 199.973 159.657 200.017 159.332 200.058C159.006 200.099 158.738 200.098 158.526 200.057C158.311 200.009 158.075 199.914 157.822 199.77C157.57 199.616 157.349 199.405 157.157 199.136C156.764 198.584 156.65 197.97 156.816 197.293C156.976 196.609 157.421 196.004 158.151 195.48C158.753 195.047 159.366 194.836 159.99 194.845C160.621 194.85 161.175 195.046 161.654 195.434L160.726 196.71C160.151 196.371 159.572 196.41 158.99 196.829C158.695 197.04 158.507 197.267 158.426 197.508C158.347 197.738 158.384 197.96 158.537 198.175C158.637 198.316 158.795 198.396 159.011 198.414C159.221 198.425 159.418 198.411 159.602 198.37C159.781 198.323 160.057 198.242 160.43 198.126C160.722 198.039 160.948 197.973 161.108 197.928C161.269 197.884 161.496 197.833 161.788 197.775C162.081 197.717 162.326 197.699 162.523 197.72C162.727 197.736 162.951 197.773 163.195 197.832C163.441 197.879 163.668 197.985 163.877 198.15C164.081 198.309 164.269 198.509 164.441 198.751C164.915 199.416 165.047 200.113 164.839 200.843C164.636 201.567 164.167 202.194 163.43 202.723ZM170.456 196.596C170.374 197.375 169.968 198.027 169.239 198.551C168.509 199.075 167.764 199.25 167.002 199.076C166.24 198.902 165.56 198.394 164.962 197.554C164.368 196.721 164.11 195.91 164.186 195.123C164.271 194.332 164.674 193.676 165.397 193.157C166.12 192.637 166.864 192.469 167.631 192.65C168.404 192.826 169.088 193.331 169.681 194.165C170.28 195.005 170.537 195.815 170.456 196.596ZM168.341 197.291C168.669 197.056 168.838 196.746 168.849 196.363C168.854 195.972 168.696 195.553 168.375 195.102C168.055 194.652 167.71 194.366 167.34 194.245C166.971 194.124 166.622 194.182 166.295 194.417C165.973 194.648 165.809 194.964 165.801 195.366C165.796 195.756 165.951 196.173 166.267 196.616C166.583 197.06 166.926 197.342 167.295 197.463C167.671 197.579 168.02 197.521 168.341 197.291ZM175.944 193.554L173.933 190.73C173.636 190.313 173.347 190.064 173.066 189.981C172.791 189.894 172.5 189.961 172.192 190.182C171.542 190.648 171.495 191.272 172.051 192.051L174.076 194.895L172.771 195.832L169.101 190.68L170.407 189.742L170.751 190.226C170.792 189.587 171.107 189.056 171.696 188.633C172.205 188.268 172.744 188.124 173.316 188.202C173.889 188.267 174.429 188.657 174.936 189.369L177.249 192.616L175.944 193.554ZM181.997 192.254L180.498 191.684C181.17 191.121 181.579 190.674 181.729 190.343C181.889 190.014 181.84 189.669 181.582 189.306L181.481 189.165C181.407 189.614 181.132 190.01 180.656 190.351C180.021 190.808 179.343 190.944 178.625 190.759C177.901 190.567 177.231 190.038 176.613 189.171C176.03 188.351 175.759 187.559 175.803 186.796C175.848 186.022 176.189 185.406 176.825 184.949C177.28 184.622 177.738 184.492 178.2 184.557L178.006 184.285L179.311 183.347L182.485 187.804C183.141 188.724 183.442 189.509 183.388 190.158C183.345 190.808 182.881 191.507 181.997 192.254ZM179.97 188.939C180.365 188.656 180.565 188.304 180.57 187.884L179.119 185.847C178.683 185.733 178.285 185.806 177.923 186.066C177.595 186.301 177.429 186.608 177.426 186.987C177.424 187.354 177.588 187.769 177.919 188.233C178.23 188.67 178.566 188.957 178.927 189.094C179.287 189.231 179.635 189.18 179.97 188.939ZM186.271 186.319C185.857 186.617 185.402 186.817 184.907 186.918C184.413 187.019 183.965 187 183.563 186.863L183.902 185.506C184.533 185.611 185.066 185.508 185.502 185.195C186.017 184.825 186.167 184.489 185.952 184.186C185.851 184.045 185.699 183.982 185.496 183.995C185.296 183.997 184.973 184.056 184.53 184.171C183.777 184.407 183.171 184.501 182.713 184.455C182.25 184.401 181.867 184.163 181.566 183.739C181.245 183.289 181.171 182.809 181.344 182.299C181.512 181.781 181.864 181.33 182.4 180.946C183.176 180.388 183.998 180.214 184.866 180.424L184.503 181.768C183.989 181.7 183.551 181.796 183.189 182.055C182.754 182.368 182.628 182.651 182.809 182.907C182.962 183.122 183.446 183.09 184.259 182.811C184.919 182.601 185.487 182.518 185.964 182.562C186.435 182.599 186.836 182.85 187.167 183.314C187.521 183.811 187.616 184.327 187.45 184.863C187.281 185.391 186.888 185.877 186.271 186.319Z" fill="#F8F8F8"/>
<path d="M146.115 163.123C141.722 169.71 133.936 178.787 128.715 172.251C124.896 167.468 125.933 168.491 123.087 164.387C121.148 161.591 121.354 156.843 122.985 154.057C129.837 147.101 130.968 157.42 137.442 153.223C143.758 148.687 148.81 158.275 146.115 163.123Z" fill="#20E9BD"/>
<path d="M203.094 160.426C202.774 160.851 202.839 161.497 203.239 161.869C206.168 164.587 211.255 169.911 212.426 175.033C213.971 181.794 210.398 185.153 206.54 186.042C200.649 187.4 197.43 182.942 196.462 178.712C194.362 169.521 200.834 158.649 200.9 158.541C201.178 158.081 201.054 157.442 200.623 157.115C200.192 156.788 199.617 156.896 199.339 157.356C199.267 157.474 197.573 160.296 196.137 164.372C194.186 169.909 193.69 174.874 194.662 179.127C195.933 184.688 200.24 189.602 206.997 188.045C210.151 187.318 212.46 185.503 213.673 182.797C214.708 180.49 214.905 177.586 214.227 174.618C212.988 169.198 208.199 163.856 204.4 160.33C204 159.958 203.415 160.001 203.094 160.426Z" fill="#20E9BD"/>
<path d="M192.552 161.585C192.179 159.952 191.072 158.173 189.263 156.3C187.963 154.955 186.775 154.058 186.725 154.02C186.292 153.696 185.718 153.807 185.442 154.269C185.166 154.731 185.292 155.369 185.725 155.694C186.928 156.598 190.178 159.494 190.751 162C190.922 162.746 191.279 165.225 188.728 165.812C186.701 166.279 185.604 164.804 185.252 163.268C184.966 162.013 185.072 160.52 185.568 158.83C185.723 158.301 185.453 157.712 184.964 157.518C184.475 157.323 183.953 157.594 183.797 158.124C183.194 160.178 183.078 162.048 183.451 163.682C183.761 165.036 184.432 166.199 185.343 166.958C186.091 167.58 187.364 168.234 189.186 167.814C192.329 167.09 193.142 164.164 192.552 161.585Z" fill="#20E9BD"/>
<path d="M214.27 145.011C213.839 144.687 213.267 144.796 212.99 145.255C212.947 145.325 211.935 147.011 211.081 149.435C209.912 152.754 209.617 155.742 210.205 158.316C210.622 160.142 211.524 161.707 212.745 162.723C214.172 163.914 215.95 164.306 217.887 163.861C222.097 162.89 223.183 158.967 222.393 155.508C221.193 150.26 214.552 145.223 214.27 145.011ZM217.429 161.858C215.354 162.336 212.839 161.548 212.006 157.902C211.086 153.877 213.103 149.237 214.07 147.329C215.8 148.778 219.795 152.437 220.591 155.923C221.138 158.313 220.594 161.128 217.429 161.858Z" fill="#20E9BD"/>
<path d="M267.794 37.2194L212.01 77.2823C205.849 81.7076 204.426 90.3109 208.833 96.4985L252.718 158.118C257.124 164.306 265.692 165.735 271.853 161.309L327.637 121.246C333.799 116.821 335.222 108.218 330.815 102.03L286.93 40.4104C282.523 34.2228 273.956 32.7941 267.794 37.2194Z" fill="#FCB0B4"/>
<path d="M232.511 96.1353C228.118 102.722 220.332 111.799 215.112 105.263C211.292 100.481 212.33 101.503 209.483 97.3998C207.545 94.6043 207.75 89.8555 209.381 87.0691C216.234 80.1131 217.365 90.4328 223.839 86.2355C230.155 81.6996 235.206 91.2871 232.511 96.1353Z" fill="#DE4D86"/>
<path d="M238.152 120.5C237.644 120.865 237.082 121.065 236.47 121.099C235.851 121.126 235.257 120.974 234.687 120.642L235.477 119.237C236.136 119.565 236.717 119.55 237.219 119.19C237.922 118.685 237.945 117.971 237.289 117.05L234.094 112.564L235.449 111.59L238.731 116.198C239.071 116.676 239.294 117.145 239.401 117.607C239.509 118.058 239.504 118.463 239.386 118.822C239.267 119.181 239.105 119.501 238.9 119.78C238.696 120.049 238.447 120.289 238.152 120.5ZM245.399 114.214C245.317 114.994 244.911 115.646 244.182 116.17C243.452 116.694 242.706 116.869 241.944 116.694C241.183 116.52 240.503 116.013 239.904 115.173C239.31 114.339 239.053 113.529 239.129 112.742C239.213 111.95 239.616 111.295 240.34 110.776C241.063 110.257 241.807 110.087 242.574 110.268C243.346 110.445 244.03 110.95 244.624 111.783C245.222 112.624 245.48 113.434 245.399 114.214ZM243.284 114.91C243.612 114.674 243.781 114.365 243.791 113.982C243.797 113.591 243.639 113.171 243.318 112.72C242.998 112.27 242.653 111.985 242.283 111.864C241.914 111.743 241.565 111.801 241.237 112.036C240.916 112.267 240.751 112.583 240.744 112.985C240.738 113.374 240.894 113.792 241.21 114.235C241.526 114.679 241.869 114.961 242.238 115.082C242.614 115.198 242.962 115.141 243.284 114.91ZM249.651 115.016L248.991 112.427L243.443 108.729L244.779 107.77L248.022 109.937C248.187 110.041 248.35 110.164 248.51 110.303C248.486 110.24 248.423 110.045 248.323 109.72L247.33 105.938L248.665 104.979L251.007 114.042L249.651 115.016ZM252.108 104.244L254.958 108.248L253.653 109.185L250.802 105.182L250.089 105.694L249.271 104.544L249.984 104.032L249.424 103.246C248.834 102.419 248.962 101.703 249.805 101.097C250.24 100.784 250.682 100.595 251.129 100.527L251.891 101.596C251.521 101.688 251.236 101.807 251.036 101.951C250.788 102.129 250.748 102.335 250.915 102.571L251.289 103.095L252.394 102.302L253.212 103.451L252.108 104.244ZM260.093 104.56L259.748 104.076C259.714 104.71 259.399 105.241 258.803 105.669C258.301 106.029 257.761 106.173 257.183 106.101C256.605 106.029 256.065 105.639 255.562 104.933L253.25 101.687L254.556 100.749L256.566 103.572C256.858 103.983 257.144 104.235 257.423 104.328C257.705 104.411 257.999 104.342 258.307 104.12C258.956 103.654 259.004 103.031 258.448 102.251L256.423 99.4076L257.729 98.4703L261.398 103.623L260.093 104.56ZM262.952 102.506L258.206 95.8414L259.073 94.2886L264.258 101.569L262.952 102.506ZM249.263 136.229C248.848 136.526 248.393 136.726 247.899 136.827C247.404 136.928 246.956 136.91 246.554 136.772L246.894 135.416C247.525 135.521 248.058 135.417 248.493 135.105C249.009 134.735 249.158 134.398 248.943 134.095C248.843 133.955 248.691 133.891 248.488 133.904C248.287 133.906 247.965 133.965 247.521 134.081C246.768 134.316 246.163 134.411 245.704 134.364C245.241 134.311 244.859 134.072 244.557 133.649C244.236 133.198 244.162 132.718 244.336 132.208C244.503 131.691 244.856 131.24 245.391 130.855C246.168 130.298 246.99 130.124 247.857 130.334L247.494 131.677C246.98 131.609 246.543 131.705 246.181 131.965C245.746 132.277 245.619 132.561 245.801 132.816C245.954 133.032 246.437 133 247.25 132.72C247.911 132.511 248.478 132.428 248.955 132.472C249.427 132.509 249.828 132.759 250.158 133.223C250.512 133.721 250.607 134.237 250.442 134.772C250.272 135.3 249.879 135.786 249.263 136.229ZM255.805 130.448C255.723 131.228 255.317 131.881 254.588 132.405C253.858 132.928 253.112 133.103 252.35 132.929C251.588 132.755 250.909 132.247 250.31 131.407C249.716 130.573 249.459 129.763 249.535 128.976C249.619 128.185 250.022 127.529 250.745 127.01C251.469 126.491 252.213 126.322 252.98 126.503C253.752 126.679 254.436 127.184 255.03 128.018C255.628 128.858 255.886 129.668 255.805 130.448ZM253.69 131.144C254.018 130.909 254.187 130.599 254.197 130.215C254.203 129.826 254.045 129.406 253.724 128.955C253.404 128.504 253.058 128.219 252.689 128.098C252.319 127.977 251.971 128.035 251.643 128.271C251.322 128.501 251.157 128.818 251.15 129.219C251.144 129.609 251.299 130.026 251.616 130.469C251.932 130.913 252.275 131.196 252.643 131.317C253.02 131.432 253.368 131.375 253.69 131.144ZM261.292 127.407L259.281 124.583C258.984 124.167 258.695 123.917 258.414 123.834C258.139 123.747 257.849 123.814 257.54 124.035C256.891 124.502 256.844 125.125 257.4 125.904L259.424 128.748L258.119 129.685L254.45 124.532L255.755 123.595L256.1 124.079C256.141 123.44 256.456 122.91 257.045 122.486C257.553 122.121 258.093 121.977 258.664 122.054C259.237 122.121 259.777 122.51 260.285 123.222L262.598 126.469L261.292 127.407ZM267.346 126.107L265.847 125.537C266.518 124.974 266.928 124.527 267.077 124.196C267.238 123.868 267.189 123.522 266.93 123.159L266.83 123.018C266.756 123.468 266.481 123.863 266.005 124.204C265.369 124.661 264.692 124.797 263.974 124.612C263.25 124.42 262.58 123.891 261.962 123.024C261.378 122.203 261.108 121.412 261.151 120.649C261.197 119.875 261.538 119.259 262.173 118.802C262.629 118.476 263.087 118.345 263.548 118.41L263.354 118.138L264.659 117.2L267.834 121.657C268.49 122.578 268.79 123.362 268.736 124.011C268.694 124.662 268.23 125.36 267.346 126.107ZM265.318 122.792C265.713 122.509 265.914 122.157 265.918 121.737L264.467 119.7C264.032 119.586 263.634 119.659 263.272 119.919C262.944 120.154 262.778 120.461 262.774 120.84C262.773 121.207 262.937 121.622 263.268 122.086C263.578 122.523 263.915 122.81 264.275 122.947C264.636 123.084 264.984 123.033 265.318 122.792ZM271.62 120.172C271.205 120.47 270.75 120.67 270.256 120.77C269.761 120.872 269.313 120.854 268.911 120.715L269.251 119.359C269.882 119.464 270.415 119.361 270.85 119.048C271.366 118.678 271.515 118.342 271.3 118.04C271.2 117.898 271.048 117.834 270.845 117.848C270.644 117.85 270.322 117.909 269.878 118.024C269.125 118.26 268.52 118.355 268.062 118.308C267.598 118.254 267.216 118.016 266.915 117.592C266.593 117.142 266.52 116.662 266.693 116.151C266.86 115.634 267.213 115.184 267.748 114.799C268.525 114.241 269.347 114.067 270.214 114.278L269.851 115.621C269.337 115.553 268.9 115.648 268.538 115.908C268.103 116.221 267.976 116.505 268.158 116.76C268.311 116.975 268.794 116.943 269.608 116.664C270.268 116.454 270.836 116.371 271.312 116.415C271.784 116.453 272.185 116.703 272.515 117.166C272.869 117.664 272.964 118.181 272.799 118.716C272.629 119.244 272.236 119.729 271.62 120.172Z" fill="#F8F8F8"/>
<path d="M70 190H51C44.9249 190 40 194.925 40 201V217C40 223.075 44.9249 228 51 228H70C76.0751 228 81 223.075 81 217V201C81 194.925 76.0751 190 70 190Z" stroke="#00BBF9" stroke-width="4"/>
<path d="M50.1865 205.806C50.1865 205.03 49.5569 204.4 48.7803 204.4C48.0036 204.4 47.374 205.03 47.374 205.806V214.194C47.374 214.97 48.0036 215.6 48.7803 215.6C49.5569 215.6 50.1865 214.97 50.1865 214.194V205.806Z" fill="#00BBF9"/>
<path d="M72.6865 205.806C72.6865 205.03 72.0569 204.4 71.2803 204.4C70.5036 204.4 69.874 205.03 69.874 205.806V214.194C69.874 214.97 70.5036 215.6 71.2803 215.6C72.0569 215.6 72.6865 214.97 72.6865 214.194V205.806Z" fill="#00BBF9"/>
<path d="M67.0615 201.606C67.0615 200.83 66.4319 200.2 65.6553 200.2C64.8786 200.2 64.249 200.83 64.249 201.606V216.994C64.249 217.77 64.8786 218.4 65.6553 218.4C66.4319 218.4 67.0615 217.77 67.0615 216.994V201.606Z" fill="#00BBF9"/>
<path d="M55.8115 201.606C55.8115 200.83 55.1819 200.2 54.4053 200.2C53.6286 200.2 52.999 200.83 52.999 201.606V216.994C52.999 217.77 53.6286 218.4 54.4053 218.4C55.1819 218.4 55.8115 217.77 55.8115 216.994V201.606Z" fill="#00BBF9"/>
<path d="M61.4365 197.406C61.4365 196.63 60.8069 196 60.0303 196C59.2536 196 58.624 196.63 58.624 197.406V219.794C58.624 220.57 59.2536 221.2 60.0303 221.2C60.8069 221.2 61.4365 220.57 61.4365 219.794V197.406Z" fill="#00BBF9"/>
</g>
<defs>
<clipPath id="clip0_458_396">
<rect width="280" height="449" fill="white"/>
</clipPath>
</defs>
</svg>
