<svg width="971" height="423" viewBox="0 0 971 423" fill="none" xmlns="http://www.w3.org/2000/svg">
<g clip-path="url(#clip0_428_322)">
<path d="M971 0H0V423H971V0Z" fill="#E5E5E5"/>
<path d="M961 0H10C4.47715 0 0 4.47715 0 10V413C0 418.523 4.47715 423 10 423H961C966.523 423 971 418.523 971 413V10C971 4.47715 966.523 0 961 0Z" fill="#0000B9"/>
<path d="M744.298 14.4721L662.383 71.8297C653.335 78.1653 651.136 90.6362 657.472 99.6843L720.565 189.791C726.9 198.839 739.371 201.038 748.42 194.703L830.335 137.345C839.383 131.009 841.582 118.538 835.246 109.49L772.153 19.3836C765.817 10.3355 753.346 8.13654 744.298 14.4721Z" fill="#A6E1FA"/>
<path d="M713.99 35.6942C725.745 34.1768 727.454 76.2015 715.428 74.3616C692.967 70.9249 683.601 77.7251 680.12 77.111C674.37 76.0968 672.251 67.2483 674.67 63.2264C678.765 60.3584 685.702 55.5016 690.644 52.0412C699.918 45.5473 701.293 44.5845 713.99 35.6942Z" fill="#00BBF9"/>
<path d="M834.141 108.29C835.658 120.046 793.633 121.755 795.473 109.729C798.91 87.2678 792.11 77.902 792.724 74.4204C793.738 68.6702 802.587 66.552 806.609 68.9703C809.476 73.066 814.333 80.0024 817.794 84.9444C824.288 94.2187 825.25 95.5933 834.141 108.29Z" fill="#00BBF9"/>
<path d="M697.242 136.538L690.015 126.216L694.438 123.119C695.067 122.678 695.678 122.39 696.271 122.253C696.874 122.109 697.418 122.102 697.904 122.231C698.389 122.359 698.827 122.566 699.216 122.85C699.605 123.134 699.948 123.487 700.244 123.91C700.843 124.765 701.073 125.732 700.934 126.81C700.806 127.882 700.162 128.824 699.002 129.636L696.569 131.34L699.232 135.144L697.242 136.538ZM697.769 127.687C698.231 127.363 698.482 126.99 698.522 126.566C698.555 126.132 698.441 125.729 698.18 125.355C697.925 124.992 697.593 124.748 697.184 124.624C696.775 124.5 696.33 124.607 695.848 124.944L693.327 126.71L695.247 129.452L697.769 127.687ZM711.234 125.444C711.104 126.575 710.503 127.516 709.431 128.266C708.36 129.016 707.27 129.259 706.162 128.995C705.054 128.731 704.07 127.984 703.21 126.756C702.356 125.537 701.991 124.357 702.115 123.215C702.248 122.067 702.846 121.121 703.908 120.378C704.969 119.634 706.057 119.4 707.172 119.674C708.297 119.941 709.286 120.684 710.14 121.903C711 123.132 711.365 124.312 711.234 125.444ZM708.141 126.423C708.622 126.086 708.873 125.639 708.894 125.083C708.908 124.516 708.684 123.904 708.223 123.245C707.762 122.587 707.263 122.167 706.726 121.986C706.189 121.805 705.68 121.884 705.198 122.221C704.726 122.551 704.482 123.008 704.465 123.591C704.452 124.157 704.672 124.765 705.126 125.413C705.581 126.062 706.076 126.477 706.613 126.658C707.16 126.832 707.669 126.754 708.141 126.423ZM718.268 122.079C717.58 122.561 716.875 122.695 716.155 122.482L717.993 125.106L716.685 127.318L709.344 116.835L711.261 115.493L711.643 116.038C711.689 115.288 712.061 114.669 712.759 114.18C713.703 113.519 714.699 113.342 715.748 113.647C716.8 113.936 717.763 114.705 718.637 115.953C719.484 117.162 719.865 118.324 719.78 119.437C719.696 120.551 719.192 121.432 718.268 122.079ZM716.682 120.442C717.164 120.105 717.405 119.665 717.406 119.122C717.417 118.573 717.188 117.964 716.72 117.295C716.266 116.647 715.775 116.228 715.248 116.041C714.724 115.836 714.222 115.903 713.74 116.24C713.17 116.639 712.874 117.147 712.851 117.763L714.937 120.742C715.481 120.976 716.063 120.876 716.682 120.442ZM717.599 156.729C716.832 157.266 716.046 157.597 715.239 157.722C714.436 157.83 713.674 157.756 712.952 157.499C712.241 157.236 711.579 156.857 710.969 156.361C710.358 155.866 709.809 155.269 709.32 154.571C708.866 153.923 708.519 153.228 708.279 152.488C708.032 151.738 707.903 150.978 707.892 150.21C707.891 149.434 708.075 148.682 708.445 147.955C708.817 147.211 709.377 146.577 710.124 146.054C711.038 145.414 711.916 145.099 712.759 145.11C713.604 145.104 714.476 145.292 715.373 145.674L714.321 147.905C713.145 147.439 712.193 147.461 711.466 147.971C711.014 148.287 710.691 148.674 710.499 149.131C710.309 149.572 710.25 150.031 710.321 150.509C710.385 150.976 710.507 151.433 710.687 151.878C710.869 152.307 711.102 152.723 711.384 153.126C712.059 154.089 712.833 154.756 713.707 155.125C714.581 155.495 715.431 155.39 716.257 154.812C716.758 154.461 717.067 154.003 717.184 153.438C717.311 152.865 717.212 152.348 716.889 151.886L716.806 151.768L715.052 152.997L713.73 151.11L717.519 148.456L718.583 149.975C719.478 151.253 719.817 152.502 719.602 153.722C719.387 154.942 718.719 155.944 717.599 156.729ZM726.429 150.546C725.338 151.31 724.233 151.563 723.115 151.306C721.997 151.049 721.005 150.301 720.138 149.062C719.291 147.853 718.935 146.674 719.068 145.526C719.211 144.371 719.824 143.415 720.905 142.658C721.888 141.969 722.903 141.713 723.949 141.889C724.988 142.055 725.913 142.718 726.726 143.878C727.063 144.36 727.308 144.752 727.462 145.055L722.552 148.493C722.921 148.937 723.355 149.19 723.852 149.252C724.353 149.297 724.819 149.168 725.252 148.865C725.92 148.397 726.278 147.758 726.326 146.948L728.342 147.317C728.236 148.651 727.598 149.727 726.429 150.546ZM721.431 146.86L724.512 144.703C724.15 144.311 723.751 144.086 723.313 144.026C722.886 143.959 722.475 144.063 722.082 144.339C721.119 145.013 720.902 145.854 721.431 146.86ZM736.059 143.539L733.169 139.41C732.742 138.801 732.324 138.434 731.915 138.311C731.516 138.18 731.09 138.273 730.638 138.589C729.685 139.257 729.607 140.161 730.405 141.301L733.317 145.459L731.4 146.801L726.124 139.267L728.041 137.925L728.537 138.632C728.605 137.705 729.072 136.939 729.937 136.333C730.684 135.81 731.474 135.609 732.305 135.73C733.14 135.834 733.922 136.407 734.652 137.449L737.976 142.197L736.059 143.539ZM740.112 140.702L734.836 133.167L736.753 131.825L737.217 132.488C737.09 131.742 737.361 131.135 738.029 130.667C738.59 130.275 739.235 130.109 739.966 130.168L740.929 132.109C740.309 132.103 739.749 132.276 739.248 132.627C738.383 133.232 738.329 134.076 739.086 135.157L742.028 139.359L740.112 140.702ZM749.352 134.495C748.261 135.259 747.157 135.512 746.039 135.255C744.921 134.997 743.928 134.25 743.061 133.011C742.215 131.802 741.858 130.623 741.992 129.475C742.135 128.32 742.747 127.364 743.829 126.607C744.812 125.918 745.826 125.662 746.872 125.838C747.911 126.004 748.837 126.667 749.649 127.827C749.986 128.308 750.232 128.701 750.385 129.003L745.475 132.441C745.845 132.886 746.278 133.139 746.776 133.201C747.276 133.246 747.743 133.117 748.175 132.814C748.844 132.346 749.202 131.707 749.25 130.897L751.266 131.265C751.16 132.599 750.522 133.676 749.352 134.495ZM744.354 130.809L747.436 128.651C747.074 128.26 746.674 128.035 746.237 127.975C745.809 127.908 745.399 128.012 745.006 128.287C744.042 128.962 743.825 129.803 744.354 130.809Z" fill="#F8F8F8"/>
<path d="M759.395 38.6472C756.639 38.7601 754.215 39.9804 752.525 41.8598C751.195 43.3388 750.322 45.2267 750.097 47.3051L749.026 47.3493L749.249 50.7886L750.32 50.7444C750.93 53.2794 752.49 55.4424 754.582 56.8525L758.079 75.4336L760.237 75.3445L760.396 77.7927C760.501 79.4148 761.236 80.917 762.465 82.0223C763.694 83.1276 765.266 83.6994 766.89 83.6323C770.253 83.4937 772.812 80.6482 772.594 77.2894L771.752 64.3091C771.657 62.8466 772.771 61.608 774.235 61.5476C775.699 61.4872 776.968 62.6277 777.063 64.09L777.734 74.4473L781.178 74.3053L780.506 63.9479C780.288 60.5892 777.375 57.9695 774.012 58.1083C770.649 58.2469 768.09 61.0923 768.308 64.4511L769.15 77.4315C769.245 78.8938 768.131 80.1325 766.667 80.193C765.963 80.2221 765.279 79.9724 764.743 79.4899C764.206 79.0073 763.885 78.3541 763.84 77.6506L763.681 75.2024L765.655 75.121L766.739 56.1841C767.027 55.9311 767.302 55.6633 767.558 55.3784C768.889 53.8992 769.759 52.0126 769.986 49.9331L771.058 49.8889L770.835 46.4495L769.764 46.4938C768.643 41.8414 764.323 38.446 759.395 38.6472ZM763.865 70.5987C763.947 71.8649 762.986 72.934 761.718 72.9863C760.45 73.0385 759.356 72.0544 759.274 70.7881C759.191 69.5218 760.153 68.4527 761.421 68.4005C762.689 68.3483 763.783 69.3323 763.865 70.5987Z" fill="#00BBF9"/>
<path d="M787.471 5.68382C781.136 -3.3643 783.335 -15.8352 792.383 -22.1707L833.34 -50.8496L862.036 -71L874.827 -79.3908C883.845 -85.3066 895.93 -83.0064 902.144 -74.1911L912.5 -59.5L933.699 -29.5635L965.246 15.4899C971.581 24.538 969.382 37.0089 960.334 43.3444L878.419 100.702C869.371 107.038 856.9 104.839 850.565 95.7905L787.471 5.68382Z" fill="#D3BCF1"/>
<path d="M822.169 5.49986C815.669 14.9998 804.185 28.0656 796.669 18.4998C791.169 11.5 792.667 12.9999 788.576 6.99994C785.79 2.91319 786.158 -3.97822 788.576 -8.00013C798.669 -18.0001 800.169 -3.00015 809.669 -9.00015C818.943 -15.4941 826.169 -1.50014 822.169 5.49986Z" fill="#9B5DE5"/>
<path d="M964.31 14.2894C965.827 26.0451 923.802 27.7539 925.642 15.7283C929.079 -6.73295 922.279 -16.0987 922.893 -19.5804C923.907 -25.3305 932.756 -27.4488 936.777 -25.0304C939.645 -20.9348 944.502 -13.9983 947.963 -9.05632C954.457 0.217983 955.419 1.59254 964.31 14.2894Z" fill="#9B5DE5"/>
<path d="M831.491 39.922C830.714 40.4658 829.929 40.7883 829.136 40.8897C828.336 40.9812 827.591 40.8801 826.902 40.5862C826.206 40.2825 825.569 39.886 824.992 39.3965C824.425 38.9001 823.904 38.3128 823.429 37.6345C822.988 37.0054 822.64 36.3409 822.384 35.641C822.122 34.9312 821.967 34.1974 821.92 33.4394C821.865 32.6717 822.015 31.9225 822.368 31.1921C822.714 30.4518 823.27 29.8132 824.037 29.2763C824.961 28.6293 825.895 28.3116 826.841 28.3233C827.797 28.3281 828.634 28.562 829.354 29.0249L828.138 31.0851C827.567 30.8551 827.07 30.7417 826.647 30.7447C826.224 30.7477 825.801 30.8972 825.379 31.1931C824.838 31.5717 824.517 32.0751 824.415 32.7033C824.315 33.3148 824.374 33.911 824.59 34.492C824.8 35.0631 825.101 35.6288 825.493 36.1891C826.119 37.0836 826.865 37.7407 827.73 38.1604C828.605 38.5731 829.411 38.5214 830.149 38.0052C830.866 37.5027 831.181 36.6233 831.092 35.367L833.406 34.7797C833.83 37.0172 833.191 38.7313 831.491 39.922ZM836.842 35.9331L830.018 26.1868L831.305 23.9452L838.759 34.5909L836.842 35.9331ZM845.321 29.9962L844.939 29.4506C844.795 30.2695 844.315 30.9647 843.499 31.5359C842.683 32.1072 841.863 32.359 841.039 32.2913C840.225 32.2167 839.539 31.7813 838.982 30.9851C838.411 30.1692 838.267 29.3469 838.551 28.5181C838.845 27.6824 839.405 26.9755 840.23 26.3973C840.889 25.9362 841.546 25.6515 842.203 25.5433L841.935 25.1599C841.377 24.3637 840.646 24.2822 839.742 24.9154C838.916 25.4936 838.315 26.288 837.939 27.2987L836.265 26.1634C836.727 24.9611 837.548 23.9469 838.727 23.121C839.13 22.8388 839.508 22.6254 839.861 22.4808C840.224 22.3294 840.638 22.23 841.103 22.1828C841.568 22.1355 842.033 22.2564 842.499 22.5453C842.968 22.8176 843.416 23.2584 843.843 23.8679L847.208 28.6747L845.321 29.9962ZM842.69 29.5969C843.29 29.1771 843.671 28.6024 843.834 27.8729L843.267 27.062C842.737 27.184 842.211 27.4273 841.69 27.7921C841.258 28.095 840.96 28.413 840.798 28.7463C840.629 29.0698 840.648 29.379 840.854 29.6739C841.027 29.9196 841.272 30.0405 841.592 30.0365C841.921 30.0257 842.287 29.8791 842.69 29.5969ZM851.883 25.6653C851.273 26.0921 850.607 26.3753 849.885 26.515C849.162 26.6547 848.509 26.6213 847.925 26.415L848.439 24.4507C849.359 24.6128 850.138 24.4701 850.777 24.0227C851.534 23.4928 851.757 23.0066 851.447 22.5643C851.303 22.3578 851.083 22.263 850.787 22.2797C850.494 22.2798 850.023 22.3605 849.374 22.5218C848.273 22.8532 847.389 22.9816 846.721 22.907C846.047 22.8226 845.493 22.4707 845.059 21.8514C844.598 21.1928 844.497 20.4944 844.757 19.756C845.009 19.0079 845.529 18.3585 846.315 17.8079C847.455 17.0094 848.657 16.7689 849.919 17.0863L849.369 19.0314C848.621 18.9253 847.982 19.0581 847.451 19.4298C846.812 19.8772 846.623 20.2876 846.885 20.6612C847.105 20.9757 847.81 20.9363 848.999 20.5429C849.965 20.2478 850.794 20.1357 851.488 20.2063C852.176 20.2672 852.757 20.6367 853.231 21.315C853.741 22.0424 853.871 22.7935 853.623 23.5682C853.367 24.333 852.787 25.0321 851.883 25.6653ZM859.169 20.5636C858.559 20.9904 857.893 21.2736 857.171 21.4133C856.448 21.553 855.795 21.5196 855.211 21.3133L855.725 19.349C856.645 19.5111 857.424 19.3684 858.063 18.9211C858.819 18.3911 859.043 17.9049 858.733 17.4626C858.589 17.2561 858.369 17.1613 858.073 17.1781C857.78 17.1781 857.309 17.2588 856.66 17.4201C855.559 17.7515 854.675 17.88 854.007 17.8053C853.333 17.7209 852.779 17.369 852.345 16.7497C851.884 16.0911 851.783 15.3927 852.043 14.6543C852.295 13.9062 852.815 13.2568 853.601 12.7062C854.741 11.9077 855.943 11.6672 857.205 11.9846L856.655 13.9297C855.907 13.8236 855.268 13.9564 854.737 14.3281C854.098 14.7755 853.909 15.1859 854.171 15.5595C854.391 15.874 855.096 15.8346 856.285 15.4412C857.251 15.1461 858.08 15.034 858.774 15.1046C859.461 15.1655 860.043 15.5351 860.517 16.2133C861.027 16.9407 861.157 17.6918 860.909 18.4665C860.653 19.2313 860.073 19.9304 859.169 20.5636ZM858.917 7.92919C858.612 8.14256 858.271 8.22027 857.894 8.16232C857.519 8.08766 857.225 7.89797 857.012 7.59324C856.798 7.28852 856.724 6.95231 856.789 6.58463C856.854 6.21695 857.043 5.92299 857.358 5.70273C857.673 5.48248 858.014 5.40477 858.381 5.4696C858.742 5.5246 859.033 5.70938 859.253 6.02394C859.473 6.33849 859.551 6.67961 859.486 7.04729C859.421 7.41497 859.232 7.70894 858.917 7.92919ZM863.854 17.0195L858.578 9.48496L860.495 8.14279L865.771 15.6773L863.854 17.0195ZM871.191 12.1455C870.139 12.8819 869.059 13.118 867.952 12.8537C866.844 12.5894 865.859 11.8429 864.999 10.6142C864.146 9.39533 863.781 8.2152 863.904 7.07383C864.038 5.92557 864.626 4.98665 865.668 4.25706C867.29 3.12138 868.853 3.12559 870.357 4.26968L868.952 6.15444C868.252 5.67774 867.602 5.64932 867.002 6.06918C866.54 6.39268 866.301 6.84591 866.284 7.42888C866.278 8.00496 866.498 8.61247 866.945 9.25141C867.393 9.89035 867.888 10.3051 868.432 10.4958C868.969 10.6766 869.458 10.6121 869.901 10.3024C870.559 9.84125 870.747 9.16781 870.464 8.2821L872.674 7.54743C873.327 9.46336 872.833 10.996 871.191 12.1455ZM847.768 62.7285C847.001 63.2653 846.215 63.5963 845.408 63.7212C844.605 63.8295 843.843 63.7553 843.121 63.4989C842.409 63.2355 841.748 62.8561 841.138 62.3607C840.527 61.8653 839.978 61.2687 839.489 60.5708C839.035 59.922 838.687 59.2275 838.447 58.4873C838.201 57.7372 838.072 56.9778 838.061 56.2091C838.06 55.4334 838.244 54.6818 838.613 53.9543C838.986 53.2101 839.546 52.5764 840.293 52.0533C841.207 51.4132 842.085 51.0985 842.928 51.1092C843.773 51.1031 844.645 51.2913 845.542 51.6736L844.49 53.9048C843.314 53.439 842.362 53.4608 841.635 53.9701C841.183 54.2867 840.86 54.6736 840.668 55.1308C840.478 55.5712 840.419 56.0303 840.49 56.5081C840.554 56.976 840.675 57.4326 840.855 57.8779C841.038 58.3065 841.271 58.7223 841.553 59.1254C842.228 60.0887 843.002 60.7551 843.876 61.1246C844.75 61.4941 845.6 61.3898 846.425 60.8117C846.927 60.4606 847.236 60.0025 847.353 59.4372C847.48 58.865 847.381 58.3479 847.058 57.8859L846.975 57.768L845.22 58.9966L843.899 57.1092L847.688 54.4559L848.752 55.9746C849.647 57.2525 849.986 58.5014 849.771 59.7214C849.556 60.9415 848.888 61.9438 847.768 62.7285ZM856.598 56.5457C855.506 57.3097 854.402 57.563 853.284 57.3056C852.166 57.0482 851.174 56.3002 850.307 55.0616C849.46 53.8526 849.104 52.6739 849.237 51.5257C849.38 50.3705 849.993 49.4144 851.074 48.6573C852.057 47.969 853.072 47.7127 854.118 47.8886C855.157 48.0546 856.082 48.7175 856.895 49.8774C857.232 50.3591 857.477 50.7513 857.631 51.0541L852.721 54.4921C853.09 54.9364 853.524 55.1895 854.021 55.2513C854.522 55.2965 854.988 55.1676 855.421 54.8648C856.089 54.3968 856.447 53.7577 856.495 52.9476L858.511 53.316C858.405 54.6501 857.767 55.7266 856.598 56.5457ZM851.6 52.8599L854.681 50.7021C854.319 50.3108 853.92 50.0853 853.482 50.0254C853.055 49.9586 852.644 50.0628 852.251 50.3382C851.288 51.0127 851.071 51.8533 851.6 52.8599ZM866.228 49.5385L863.338 45.4099C862.911 44.8005 862.493 44.4339 862.084 44.31C861.685 44.1794 861.259 44.2723 860.807 44.5889C859.853 45.2566 859.776 46.1605 860.574 47.3008L863.486 51.4588L861.569 52.801L856.293 45.2664L858.21 43.9242L858.706 44.632C858.774 43.7049 859.241 42.9386 860.106 42.3329C860.853 41.8098 861.643 41.6086 862.474 41.7294C863.309 41.8335 864.091 42.4065 864.821 43.4485L868.145 48.1963L866.228 49.5385ZM870.281 46.7011L865.005 39.1666L866.922 37.8244L867.386 38.4879C867.259 37.7418 867.53 37.1347 868.198 36.6666C868.759 36.2743 869.404 36.1081 870.135 36.1679L871.098 38.1084C870.478 38.1026 869.918 38.2752 869.417 38.6262C868.552 39.2319 868.498 40.0754 869.255 41.1567L872.197 45.3589L870.281 46.7011ZM879.521 40.4945C878.43 41.2585 877.325 41.5118 876.208 41.2544C875.09 40.997 874.097 40.249 873.23 39.0105C872.384 37.8014 872.027 36.6227 872.161 35.4745C872.304 34.3193 872.916 33.3632 873.997 32.6061C874.98 31.9178 875.995 31.6616 877.041 31.8374C878.08 32.0034 879.006 32.6663 879.818 33.8263C880.155 34.3079 880.401 34.7001 880.554 35.0029L875.644 38.4409C876.014 38.8852 876.447 39.1383 876.945 39.2002C877.445 39.2453 877.912 39.1165 878.344 38.8136C879.012 38.3456 879.371 37.7065 879.419 36.8965L881.435 37.2648C881.329 38.5989 880.691 39.6755 879.521 40.4945ZM874.523 36.8087L877.605 34.6509C877.243 34.2597 876.843 34.0341 876.406 33.9742C875.978 33.9074 875.568 34.0117 875.174 34.287C874.211 34.9615 873.994 35.8021 874.523 36.8087Z" fill="#F8F8F8"/>
<path d="M848.355 157.472L766.44 214.829C757.392 221.165 755.193 233.636 761.529 242.684L824.622 332.791C830.958 341.839 843.429 344.038 852.477 337.702L934.392 280.345C943.44 274.009 945.639 261.538 939.303 252.49L876.21 162.383C869.874 153.335 857.403 151.136 848.355 157.472Z" fill="#98F5E1"/>
<path d="M848.837 157.579C860.595 156.083 862.228 198.11 850.206 196.249C827.751 192.772 818.373 199.555 814.892 198.935C809.144 197.91 807.042 189.058 809.467 185.04C813.568 182.18 820.513 177.335 825.461 173.884C834.747 167.407 836.124 166.446 848.837 157.579Z" fill="#20E9BD"/>
<path d="M804.843 277.319C803.88 277.994 802.869 278.328 801.81 278.322C800.751 278.317 799.765 277.975 798.85 277.296L800.189 275.348C800.759 275.682 801.344 275.858 801.944 275.877C802.544 275.897 803.089 275.735 803.581 275.391C804.092 275.033 804.419 274.642 804.563 274.22C804.716 273.79 804.651 273.374 804.369 272.971C804.225 272.764 804.048 272.617 803.84 272.528C803.631 272.44 803.364 272.414 803.039 272.452C802.714 272.489 802.434 272.539 802.199 272.601C801.967 272.646 801.627 272.737 801.181 272.874C800.672 273.025 800.282 273.137 800.01 273.21C799.749 273.276 799.381 273.336 798.906 273.39C798.431 273.444 798.04 273.44 797.732 273.377C797.417 273.304 797.076 273.162 796.709 272.951C796.344 272.723 796.024 272.412 795.749 272.019C795.184 271.213 795.027 270.32 795.278 269.338C795.521 268.347 796.179 267.477 797.25 266.727C798.135 266.107 799.032 265.809 799.941 265.831C800.861 265.847 801.666 266.14 802.359 266.71L800.987 268.549C800.154 268.048 799.309 268.098 798.454 268.697C798.021 268.999 797.744 269.325 797.622 269.674C797.504 270.007 797.554 270.33 797.774 270.645C797.919 270.851 798.148 270.969 798.462 270.998C798.768 271.018 799.056 271 799.324 270.944C799.586 270.878 799.989 270.764 800.535 270.601C800.962 270.479 801.292 270.386 801.527 270.324C801.762 270.262 802.094 270.191 802.521 270.112C802.949 270.032 803.306 270.009 803.593 270.042C803.89 270.069 804.216 270.126 804.571 270.215C804.929 270.286 805.259 270.444 805.56 270.686C805.855 270.919 806.127 271.213 806.375 271.567C807.056 272.54 807.239 273.554 806.924 274.61C806.618 275.659 805.925 276.562 804.843 277.319ZM814.572 270.243L814.19 269.698C814.046 270.517 813.566 271.212 812.75 271.783C811.934 272.354 811.114 272.606 810.29 272.538C809.476 272.464 808.791 272.028 808.233 271.232C807.662 270.416 807.518 269.594 807.802 268.765C808.096 267.929 808.656 267.223 809.481 266.644C810.14 266.183 810.798 265.899 811.454 265.79L811.186 265.407C810.628 264.611 809.897 264.529 808.993 265.162C808.167 265.741 807.566 266.535 807.19 267.546L805.516 266.41C805.978 265.208 806.799 264.194 807.978 263.368C808.381 263.086 808.759 262.872 809.112 262.728C809.475 262.576 809.889 262.477 810.354 262.43C810.819 262.383 811.284 262.503 811.75 262.792C812.219 263.065 812.667 263.505 813.094 264.115L816.46 268.922L814.572 270.243ZM811.942 269.844C812.541 269.424 812.922 268.849 813.086 268.12L812.518 267.309C811.988 267.431 811.462 267.674 810.941 268.039C810.509 268.342 810.212 268.66 810.049 268.993C809.88 269.317 809.899 269.626 810.106 269.921C810.278 270.167 810.523 270.288 810.843 270.284C811.172 270.273 811.538 270.126 811.942 269.844ZM821.385 265.737C820.421 266.411 819.419 266.601 818.377 266.305C817.344 266.002 816.388 265.222 815.507 263.964C814.667 262.764 814.289 261.608 814.374 260.494C814.461 259.364 814.962 258.478 815.876 257.838C816.564 257.356 817.268 257.222 817.989 257.435L816.038 254.648L817.345 252.436L824.799 263.082L822.883 264.424L822.501 263.879C822.514 264.587 822.142 265.207 821.385 265.737ZM820.404 263.677C820.994 263.264 821.29 262.756 821.293 262.154L819.207 259.175C818.613 258.976 818.031 259.075 817.461 259.475C816.98 259.812 816.733 260.255 816.723 260.805C816.715 261.338 816.948 261.943 817.423 262.622C817.885 263.28 818.374 263.707 818.891 263.901C819.418 264.089 819.922 264.014 820.404 263.677ZM820.903 300.255C819.94 300.93 818.929 301.264 817.87 301.259C816.811 301.253 815.825 300.911 814.911 300.233L816.249 298.285C816.819 298.618 817.404 298.794 818.004 298.814C818.604 298.833 819.149 298.671 819.641 298.327C820.152 297.969 820.479 297.579 820.623 297.156C820.776 296.726 820.712 296.31 820.429 295.907C820.285 295.7 820.108 295.553 819.9 295.465C819.692 295.376 819.425 295.351 819.099 295.388C818.774 295.425 818.494 295.475 818.259 295.537C818.027 295.582 817.688 295.673 817.241 295.81C816.732 295.962 816.342 296.074 816.07 296.146C815.809 296.212 815.441 296.272 814.966 296.326C814.491 296.381 814.1 296.376 813.792 296.313C813.478 296.241 813.136 296.099 812.769 295.887C812.404 295.659 812.084 295.349 811.809 294.956C811.244 294.149 811.087 293.256 811.338 292.275C811.582 291.284 812.239 290.413 813.311 289.663C814.195 289.043 815.092 288.745 816.002 288.767C816.921 288.783 817.726 289.076 818.419 289.646L817.048 291.485C816.214 290.985 815.369 291.034 814.514 291.633C814.082 291.936 813.804 292.262 813.683 292.611C813.564 292.943 813.614 293.266 813.835 293.581C813.979 293.787 814.208 293.905 814.522 293.935C814.829 293.954 815.116 293.936 815.384 293.88C815.646 293.814 816.05 293.7 816.595 293.538C817.022 293.415 817.353 293.322 817.587 293.26C817.822 293.198 818.154 293.128 818.581 293.048C819.009 292.968 819.366 292.945 819.653 292.978C819.95 293.005 820.276 293.062 820.631 293.151C820.989 293.223 821.319 293.38 821.621 293.623C821.916 293.856 822.187 294.149 822.435 294.503C823.116 295.476 823.299 296.49 822.984 297.546C822.678 298.595 821.985 299.498 820.903 300.255ZM831.236 291.461C831.105 292.592 830.504 293.533 829.433 294.283C828.361 295.033 827.272 295.276 826.164 295.012C825.056 294.748 824.071 294.001 823.211 292.773C822.358 291.554 821.993 290.374 822.116 289.232C822.25 288.084 822.848 287.138 823.909 286.395C824.971 285.651 826.059 285.417 827.174 285.691C828.299 285.958 829.288 286.701 830.141 287.92C831.002 289.149 831.366 290.329 831.236 291.461ZM828.142 292.44C828.624 292.103 828.875 291.656 828.896 291.1C828.909 290.533 828.685 289.921 828.224 289.262C827.763 288.604 827.264 288.184 826.727 288.003C826.191 287.822 825.681 287.901 825.2 288.238C824.728 288.568 824.484 289.025 824.467 289.608C824.453 290.174 824.674 290.782 825.128 291.43C825.582 292.079 826.078 292.494 826.615 292.675C827.161 292.849 827.67 292.77 828.142 292.44ZM839.281 287.124L836.39 282.995C835.963 282.386 835.545 282.019 835.137 281.895C834.737 281.765 834.312 281.858 833.86 282.174C832.906 282.842 832.828 283.746 833.627 284.886L836.538 289.044L834.622 290.386L829.346 282.852L831.263 281.51L831.758 282.217C831.827 281.29 832.294 280.524 833.159 279.918C833.906 279.395 834.695 279.194 835.527 279.315C836.362 279.419 837.144 279.992 837.873 281.034L841.198 285.782L839.281 287.124ZM848.126 285.325L845.949 284.476C846.936 283.668 847.54 283.025 847.763 282.547C848.001 282.072 847.935 281.569 847.563 281.039L847.419 280.832C847.304 281.484 846.897 282.054 846.199 282.543C845.266 283.197 844.276 283.384 843.231 283.105C842.179 282.816 841.209 282.038 840.321 280.77C839.482 279.571 839.099 278.418 839.174 277.311C839.251 276.187 839.757 275.298 840.691 274.644C841.359 274.176 842.029 273.993 842.701 274.094L842.422 273.696L844.339 272.354L848.902 278.871C849.845 280.217 850.272 281.361 850.184 282.302C850.112 283.246 849.426 284.254 848.126 285.325ZM845.219 280.483C845.799 280.077 846.095 279.569 846.108 278.96L844.022 275.981C843.389 275.809 842.807 275.909 842.276 276.281C841.794 276.618 841.548 277.061 841.538 277.611C841.53 278.144 841.763 278.749 842.238 279.428C842.686 280.067 843.171 280.488 843.695 280.693C844.219 280.897 844.727 280.827 845.219 280.483ZM854.444 276.77C853.835 277.197 853.169 277.48 852.446 277.62C851.724 277.759 851.071 277.726 850.487 277.52L851.001 275.555C851.92 275.717 852.699 275.575 853.338 275.127C854.095 274.597 854.319 274.111 854.009 273.669C853.864 273.462 853.644 273.368 853.348 273.384C853.055 273.384 852.584 273.465 851.936 273.626C850.835 273.958 849.95 274.086 849.283 274.012C848.608 273.927 848.054 273.575 847.621 272.956C847.16 272.297 847.059 271.599 847.318 270.861C847.571 270.112 848.09 269.463 848.877 268.912C850.017 268.114 851.218 267.873 852.48 268.191L851.931 270.136C851.183 270.03 850.543 270.163 850.012 270.534C849.373 270.982 849.185 271.392 849.446 271.766C849.666 272.08 850.371 272.041 851.561 271.647C852.526 271.352 853.356 271.24 854.05 271.311C854.737 271.372 855.318 271.741 855.793 272.42C856.302 273.147 856.433 273.898 856.184 274.673C855.929 275.438 855.349 276.137 854.444 276.77Z" fill="#F8F8F8"/>
<path d="M796.228 242.506C789.728 252.006 778.244 265.072 770.727 255.506C765.227 248.506 766.725 250.006 762.635 244.006C759.848 239.919 760.217 233.028 762.635 229.006C772.727 219.006 774.227 234.006 783.727 228.006C793.001 221.512 800.228 235.506 796.228 242.506Z" fill="#20E9BD"/>
<path d="M879.347 239.419C878.874 240.032 878.959 240.97 879.538 241.517C883.768 245.505 891.108 253.31 892.741 260.764C894.896 270.602 889.638 275.428 884 276.663C875.391 278.548 870.762 272.029 869.413 265.873C866.484 252.498 876.078 236.806 876.175 236.65C876.587 235.986 876.416 235.057 875.792 234.576C875.169 234.095 874.328 234.243 873.916 234.907C873.81 235.078 871.299 239.15 869.146 245.047C866.221 253.059 865.426 260.26 866.782 266.449C868.554 274.542 874.763 281.74 884.638 279.577C889.247 278.567 892.64 275.966 894.448 272.055C895.99 268.72 896.319 264.506 895.373 260.187C893.645 252.299 886.741 244.474 881.253 239.299C880.674 238.753 879.821 238.807 879.347 239.419Z" fill="#20E9BD"/>
<path d="M863.96 240.949C863.439 238.572 861.851 235.974 859.24 233.228C857.365 231.256 855.645 229.937 855.573 229.881C854.947 229.404 854.108 229.556 853.698 230.223C853.289 230.89 853.464 231.818 854.09 232.296C855.832 233.626 860.529 237.878 861.328 241.526C861.566 242.611 862.051 246.215 858.323 247.031C855.361 247.68 853.782 245.522 853.292 243.286C852.892 241.46 853.069 239.294 853.816 236.848C854.05 236.081 853.665 235.223 852.955 234.933C852.245 234.644 851.479 235.03 851.244 235.797C850.336 238.77 850.139 241.484 850.66 243.862C851.092 245.832 852.054 247.53 853.371 248.645C854.452 249.56 856.299 250.528 858.962 249.945C863.555 248.939 864.782 244.702 863.96 240.949Z" fill="#20E9BD"/>
<path d="M895.868 217.2C895.244 216.724 894.408 216.874 893.997 217.536C893.934 217.638 892.434 220.07 891.154 223.577C889.401 228.38 888.928 232.714 889.748 236.46C890.33 239.117 891.622 241.403 893.387 242.896C895.451 244.645 898.038 245.241 900.868 244.622C907.02 243.274 908.661 237.593 907.559 232.56C905.886 224.923 896.276 217.512 895.868 217.2ZM900.23 241.707C897.197 242.372 893.542 241.191 892.38 235.884C891.097 230.027 894.104 223.32 895.542 220.563C898.044 222.692 903.815 228.063 904.926 233.136C905.689 236.615 904.855 240.694 900.23 241.707Z" fill="#20E9BD"/>
<path d="M975.467 61.4719L893.552 118.829C884.504 125.165 882.305 137.636 888.64 146.684L951.734 236.791C958.069 245.839 970.54 248.038 979.588 241.702L1061.5 184.345C1070.55 178.009 1072.75 165.538 1066.42 156.49L1003.32 66.3834C996.986 57.3353 984.515 55.1363 975.467 61.4719Z" fill="#FCB0B4"/>
<path d="M923.169 146.5C916.669 156 905.185 169.066 897.669 159.5C892.169 152.501 893.667 154.001 889.576 148.001C886.79 143.914 887.158 137.022 889.576 133C899.669 123 901.169 138 910.669 132C919.943 125.506 927.169 139.5 923.169 146.5Z" fill="#DE4D86"/>
<path d="M931.041 181.959C930.294 182.482 929.473 182.764 928.579 182.805C927.677 182.835 926.813 182.605 925.986 182.115L927.158 180.086C928.115 180.573 928.962 180.559 929.699 180.043C930.731 179.32 930.776 178.285 929.833 176.938L925.239 170.377L927.229 168.983L931.947 175.722C932.436 176.42 932.755 177.105 932.903 177.777C933.055 178.433 933.042 179.021 932.864 179.541C932.686 180.061 932.445 180.522 932.141 180.925C931.841 181.312 931.474 181.657 931.041 181.959ZM941.698 172.938C941.567 174.069 940.966 175.01 939.895 175.76C938.823 176.511 937.733 176.754 936.625 176.489C935.517 176.225 934.533 175.478 933.673 174.25C932.819 173.031 932.455 171.851 932.578 170.709C932.712 169.561 933.309 168.615 934.371 167.872C935.433 167.129 936.521 166.894 937.636 167.168C938.76 167.435 939.749 168.178 940.603 169.397C941.463 170.626 941.828 171.806 941.698 172.938ZM938.604 173.917C939.086 173.58 939.337 173.133 939.357 172.577C939.371 172.01 939.147 171.398 938.686 170.739C938.225 170.081 937.726 169.661 937.189 169.48C936.652 169.299 936.143 169.378 935.662 169.715C935.19 170.045 934.945 170.502 934.929 171.085C934.915 171.651 935.135 172.259 935.59 172.908C936.044 173.556 936.54 173.971 937.076 174.152C937.623 174.326 938.132 174.248 938.604 173.917ZM947.886 174.164L946.961 170.395L938.926 164.946L940.887 163.573L945.585 166.766C945.824 166.92 946.06 167.1 946.291 167.304C946.256 167.212 946.168 166.929 946.027 166.456L944.633 160.95L946.594 159.577L949.877 172.77L947.886 174.164ZM951.624 158.56L955.722 164.414L953.806 165.756L949.707 159.902L948.66 160.635L947.483 158.954L948.53 158.221L947.725 157.071C946.878 155.862 947.074 154.824 948.312 153.957C948.951 153.509 949.598 153.24 950.251 153.149L951.346 154.711C950.806 154.84 950.389 155.008 950.094 155.214C949.73 155.469 949.669 155.768 949.91 156.113L950.447 156.879L952.069 155.744L953.246 157.424L951.624 158.56ZM963.262 159.135L962.766 158.427C962.707 159.347 962.241 160.113 961.366 160.726C960.628 161.242 959.839 161.443 958.997 161.33C958.156 161.216 957.374 160.643 956.651 159.61L953.327 154.863L955.244 153.52L958.134 157.649C958.554 158.249 958.967 158.619 959.373 158.759C959.782 158.883 960.213 158.787 960.665 158.47C961.618 157.802 961.696 156.898 960.898 155.758L957.986 151.6L959.903 150.258L965.179 157.793L963.262 159.135ZM967.461 156.194L960.637 146.448L961.924 144.206L969.378 154.852L967.461 156.194ZM947.013 204.958C946.404 205.384 945.738 205.668 945.015 205.807C944.293 205.947 943.639 205.914 943.055 205.707L943.57 203.743C944.489 203.905 945.268 203.762 945.907 203.315C946.664 202.785 946.887 202.299 946.578 201.856C946.433 201.65 946.213 201.555 945.917 201.572C945.624 201.572 945.153 201.653 944.504 201.814C943.403 202.145 942.519 202.274 941.851 202.199C941.177 202.115 940.623 201.763 940.189 201.144C939.728 200.485 939.627 199.787 939.887 199.048C940.139 198.3 940.659 197.651 941.445 197.1C942.586 196.302 943.787 196.061 945.049 196.379L944.499 198.324C943.751 198.218 943.112 198.35 942.581 198.722C941.942 199.169 941.753 199.58 942.015 199.953C942.235 200.268 942.94 200.229 944.129 199.835C945.095 199.54 945.924 199.428 946.619 199.499C947.306 199.559 947.887 199.929 948.362 200.607C948.871 201.335 949.001 202.086 948.753 202.86C948.497 203.625 947.917 204.324 947.013 204.958ZM956.635 196.66C956.504 197.792 955.903 198.733 954.832 199.483C953.76 200.233 952.67 200.476 951.562 200.212C950.454 199.948 949.47 199.201 948.61 197.972C947.756 196.753 947.392 195.573 947.515 194.432C947.649 193.284 948.246 192.338 949.308 191.595C950.37 190.851 951.458 190.617 952.573 190.891C953.697 191.158 954.686 191.901 955.54 193.12C956.4 194.349 956.765 195.529 956.635 196.66ZM953.541 197.64C954.023 197.303 954.274 196.856 954.294 196.299C954.308 195.733 954.084 195.121 953.623 194.462C953.162 193.803 952.663 193.384 952.126 193.203C951.589 193.022 951.08 193.1 950.599 193.438C950.127 193.768 949.882 194.225 949.866 194.808C949.852 195.374 950.072 195.981 950.527 196.63C950.981 197.279 951.477 197.694 952.013 197.875C952.56 198.048 953.069 197.97 953.541 197.64ZM964.68 192.324L961.789 188.195C961.362 187.586 960.944 187.219 960.535 187.095C960.136 186.964 959.711 187.057 959.258 187.374C958.305 188.042 958.227 188.946 959.026 190.086L961.937 194.244L960.02 195.586L954.745 188.051L956.661 186.709L957.157 187.417C957.226 186.49 957.693 185.724 958.558 185.118C959.305 184.595 960.094 184.394 960.926 184.514C961.76 184.619 962.542 185.192 963.272 186.234L966.597 190.981L964.68 192.324ZM973.525 190.525L971.348 189.676C972.335 188.868 972.939 188.225 973.161 187.747C973.4 187.272 973.334 186.769 972.962 186.238L972.818 186.032C972.703 186.684 972.296 187.254 971.598 187.743C970.664 188.397 969.675 188.584 968.63 188.305C967.578 188.016 966.608 187.238 965.72 185.97C964.88 184.77 964.498 183.617 964.572 182.51C964.65 181.387 965.156 180.498 966.089 179.844C966.758 179.376 967.428 179.193 968.099 179.294L967.821 178.896L969.737 177.553L974.301 184.071C975.244 185.417 975.671 186.561 975.583 187.502C975.511 188.446 974.825 189.453 973.525 190.525ZM970.617 185.683C971.197 185.277 971.494 184.769 971.506 184.159L969.421 181.181C968.788 181.009 968.206 181.109 967.675 181.481C967.193 181.818 966.947 182.261 966.936 182.811C966.929 183.344 967.162 183.949 967.637 184.627C968.084 185.266 968.57 185.688 969.094 185.892C969.618 186.097 970.126 186.027 970.617 185.683ZM979.843 181.97C979.234 182.396 978.568 182.68 977.845 182.819C977.123 182.959 976.469 182.926 975.885 182.719L976.4 180.755C977.319 180.917 978.098 180.775 978.737 180.327C979.494 179.797 979.717 179.311 979.408 178.869C979.263 178.662 979.043 178.567 978.747 178.584C978.454 178.584 977.983 178.665 977.334 178.826C976.233 179.158 975.349 179.286 974.682 179.211C974.007 179.127 973.453 178.775 973.02 178.156C972.558 177.497 972.458 176.799 972.717 176.06C972.969 175.312 973.489 174.663 974.275 174.112C975.416 173.314 976.617 173.073 977.879 173.391L977.329 175.336C976.581 175.23 975.942 175.362 975.411 175.734C974.772 176.182 974.583 176.592 974.845 176.966C975.065 177.28 975.77 177.241 976.96 176.847C977.925 176.552 978.755 176.44 979.449 176.511C980.136 176.572 980.717 176.941 981.192 177.619C981.701 178.347 981.831 179.098 981.583 179.873C981.327 180.637 980.747 181.336 979.843 181.97Z" fill="#F8F8F8"/>
<rect x="76.5" y="70.5" width="61.63" height="57" rx="4.5" stroke="#84E6F8" stroke-width="3"/>
<rect x="88.4634" y="90.9998" width="4.03937" height="16" rx="2.01969" fill="#84E6F8"/>
<rect x="120.778" y="90.9998" width="4.03937" height="16" rx="2.01969" fill="#84E6F8"/>
<rect x="112.699" y="84.9998" width="4.03937" height="26" rx="2.01969" fill="#84E6F8"/>
<rect x="96.542" y="84.9998" width="4.03937" height="26" rx="2.01969" fill="#84E6F8"/>
<rect x="104.62" y="78.9998" width="4.03937" height="36" rx="2.01969" fill="#84E6F8"/>
</g>
<defs>
<clipPath id="clip0_428_322">
<rect width="971" height="423" fill="white"/>
</clipPath>
</defs>
</svg>
