<svg width="283" height="66" viewBox="0 0 283 66" fill="none" xmlns="http://www.w3.org/2000/svg">
<path d="M99.5527 46C98.5127 46 97.7127 45.72 97.1527 45.16C96.5927 44.6 96.3127 43.8 96.3127 42.76V21.04C96.3127 20 96.5927 19.2 97.1527 18.64C97.7127 18.08 98.5127 17.8 99.5527 17.8H109.233C111.233 17.8 112.939 18.0933 114.353 18.68C115.766 19.2667 116.833 20.1067 117.553 21.2C118.299 22.2933 118.673 23.6 118.673 25.12C118.673 26.8 118.193 28.2267 117.233 29.4C116.273 30.5733 114.953 31.36 113.273 31.76V31.12C115.219 31.4667 116.726 32.24 117.793 33.44C118.886 34.6133 119.433 36.1467 119.433 38.04C119.433 40.5467 118.566 42.5067 116.833 43.92C115.099 45.3067 112.713 46 109.673 46H99.5527ZM102.233 41.4H108.833C110.433 41.4 111.606 41.0933 112.353 40.48C113.099 39.84 113.473 38.9067 113.473 37.68C113.473 36.4533 113.099 35.5333 112.353 34.92C111.606 34.3067 110.433 34 108.833 34H102.233V41.4ZM102.233 29.4H108.153C109.699 29.4 110.846 29.1067 111.593 28.52C112.339 27.9333 112.713 27.0533 112.713 25.88C112.713 24.7333 112.339 23.8667 111.593 23.28C110.846 22.6933 109.699 22.4 108.153 22.4H102.233V29.4ZM136.205 46.44C134.205 46.44 132.432 46.1867 130.885 45.68C129.365 45.1467 128.085 44.3733 127.045 43.36C126.005 42.3467 125.218 41.08 124.685 39.56C124.178 38.0133 123.925 36.2267 123.925 34.2V20.6C123.925 19.56 124.192 18.7733 124.725 18.24C125.258 17.7067 126.032 17.44 127.045 17.44C128.032 17.44 128.792 17.7067 129.325 18.24C129.858 18.7733 130.125 19.56 130.125 20.6V34.24C130.125 36.5333 130.645 38.2667 131.685 39.44C132.725 40.5867 134.232 41.16 136.205 41.16C138.178 41.16 139.672 40.5867 140.685 39.44C141.725 38.2667 142.245 36.5333 142.245 34.24V20.6C142.245 19.56 142.512 18.7733 143.045 18.24C143.578 17.7067 144.338 17.44 145.325 17.44C146.312 17.44 147.058 17.7067 147.565 18.24C148.098 18.7733 148.365 19.56 148.365 20.6V34.2C148.365 36.8933 147.898 39.16 146.965 41C146.058 42.8133 144.698 44.1733 142.885 45.08C141.098 45.9867 138.872 46.44 136.205 46.44ZM157.052 28.72C156.652 29.2267 156.225 29.5067 155.772 29.56C155.318 29.6133 154.918 29.5333 154.572 29.32C154.252 29.08 154.078 28.7333 154.052 28.28C154.025 27.8267 154.225 27.3467 154.652 26.84C155.238 26.12 155.638 25.4 155.852 24.68C156.065 23.96 156.172 23.32 156.172 22.76L156.372 24.4C155.305 24.4 154.438 24.0933 153.772 23.48C153.105 22.8667 152.772 22.04 152.772 21C152.772 19.9867 153.078 19.1733 153.692 18.56C154.305 17.92 155.145 17.6 156.212 17.6C157.305 17.6 158.158 17.96 158.772 18.68C159.385 19.4 159.692 20.4267 159.692 21.76C159.692 22.4533 159.625 23.1733 159.492 23.92C159.358 24.64 159.105 25.4 158.732 26.2C158.358 26.9733 157.798 27.8133 157.052 28.72ZM167.122 46.36C166.216 46.36 165.522 46.1067 165.042 45.6C164.562 45.0933 164.322 44.3867 164.322 43.48V20.32C164.322 19.4133 164.576 18.7067 165.082 18.2C165.616 17.6933 166.336 17.44 167.242 17.44C168.042 17.44 168.669 17.6 169.122 17.92C169.602 18.2133 170.042 18.7333 170.442 19.48L179.682 36.36H178.322L187.562 19.48C187.962 18.7333 188.389 18.2133 188.842 17.92C189.322 17.6 189.949 17.44 190.722 17.44C191.629 17.44 192.322 17.6933 192.802 18.2C193.309 18.7067 193.562 19.4133 193.562 20.32V43.48C193.562 44.3867 193.322 45.0933 192.842 45.6C192.362 46.1067 191.669 46.36 190.762 46.36C189.856 46.36 189.149 46.1067 188.642 45.6C188.162 45.0933 187.922 44.3867 187.922 43.48V27.28H188.802L181.362 40.6C181.042 41.1067 180.696 41.4933 180.322 41.76C179.976 42 179.509 42.12 178.922 42.12C178.336 42.12 177.856 41.9867 177.482 41.72C177.109 41.4533 176.776 41.08 176.482 40.6L168.962 27.24H169.922V43.48C169.922 44.3867 169.682 45.0933 169.202 45.6C168.749 46.1067 168.056 46.36 167.122 46.36ZM206.001 46.44C204.348 46.44 202.975 46.1333 201.881 45.52C200.788 44.9067 199.975 43.9867 199.441 42.76C198.935 41.5067 198.681 39.96 198.681 38.12V29.08C198.681 28.0667 198.935 27.3067 199.441 26.8C199.975 26.2933 200.721 26.04 201.681 26.04C202.641 26.04 203.388 26.2933 203.921 26.8C204.455 27.3067 204.721 28.0667 204.721 29.08V38.28C204.721 39.4533 204.961 40.3333 205.441 40.92C205.921 41.48 206.681 41.76 207.721 41.76C208.868 41.76 209.801 41.36 210.521 40.56C211.268 39.7333 211.641 38.6533 211.641 37.32V29.08C211.641 28.0667 211.895 27.3067 212.401 26.8C212.935 26.2933 213.681 26.04 214.641 26.04C215.628 26.04 216.375 26.2933 216.881 26.8C217.415 27.3067 217.681 28.0667 217.681 29.08V43.28C217.681 45.3333 216.708 46.36 214.761 46.36C213.801 46.36 213.068 46.0933 212.561 45.56C212.055 45.0267 211.801 44.2667 211.801 43.28V40.6L212.401 42.16C211.815 43.52 210.975 44.5733 209.881 45.32C208.788 46.0667 207.495 46.44 206.001 46.44ZM229.875 46.44C228.702 46.44 227.488 46.3333 226.235 46.12C225.008 45.9067 223.888 45.5467 222.875 45.04C222.342 44.7733 221.955 44.44 221.715 44.04C221.502 43.6133 221.408 43.1867 221.435 42.76C221.462 42.3333 221.595 41.9467 221.835 41.6C222.102 41.2533 222.435 41.0267 222.835 40.92C223.262 40.7867 223.728 40.8267 224.235 41.04C225.328 41.4933 226.328 41.8133 227.235 42C228.142 42.1867 229.035 42.28 229.915 42.28C231.062 42.28 231.888 42.1067 232.395 41.76C232.928 41.3867 233.195 40.9067 233.195 40.32C233.195 39.7867 233.022 39.3867 232.675 39.12C232.328 38.8533 231.822 38.6667 231.155 38.56L226.955 37.8C225.302 37.5067 224.022 36.9067 223.115 36C222.235 35.0667 221.795 33.88 221.795 32.44C221.795 31.1067 222.168 29.96 222.915 29C223.662 28.0133 224.688 27.2667 225.995 26.76C227.328 26.2267 228.835 25.96 230.515 25.96C231.715 25.96 232.822 26.0667 233.835 26.28C234.848 26.4933 235.822 26.84 236.755 27.32C237.235 27.56 237.568 27.88 237.755 28.28C237.968 28.68 238.035 29.0933 237.955 29.52C237.902 29.9467 237.742 30.3333 237.475 30.68C237.208 31.0267 236.862 31.2533 236.435 31.36C236.035 31.4667 235.568 31.4133 235.035 31.2C234.182 30.8 233.395 30.52 232.675 30.36C231.955 30.1733 231.262 30.08 230.595 30.08C229.395 30.08 228.528 30.28 227.995 30.68C227.462 31.0533 227.195 31.5333 227.195 32.12C227.195 32.5733 227.342 32.96 227.635 33.28C227.955 33.5733 228.435 33.7733 229.075 33.88L233.275 34.64C235.008 34.9333 236.328 35.52 237.235 36.4C238.142 37.2533 238.595 38.4267 238.595 39.92C238.595 41.9467 237.795 43.5467 236.195 44.72C234.622 45.8667 232.515 46.44 229.875 46.44ZM245.083 46.32C244.096 46.32 243.336 46.04 242.803 45.48C242.296 44.8933 242.043 44.08 242.043 43.04V29.36C242.043 28.2933 242.296 27.48 242.803 26.92C243.336 26.3333 244.096 26.04 245.083 26.04C246.043 26.04 246.776 26.3333 247.283 26.92C247.816 27.48 248.083 28.2933 248.083 29.36V43.04C248.083 44.08 247.829 44.8933 247.323 45.48C246.816 46.04 246.069 46.32 245.083 46.32ZM245.083 22.76C243.963 22.76 243.096 22.5067 242.483 22C241.896 21.4667 241.603 20.72 241.603 19.76C241.603 18.7733 241.896 18.0267 242.483 17.52C243.096 16.9867 243.963 16.72 245.083 16.72C246.203 16.72 247.056 16.9867 247.643 17.52C248.229 18.0267 248.523 18.7733 248.523 19.76C248.523 20.72 248.229 21.4667 247.643 22C247.056 22.5067 246.203 22.76 245.083 22.76ZM262.306 46.44C260.172 46.44 258.306 46.0267 256.706 45.2C255.132 44.3467 253.919 43.1467 253.066 41.6C252.212 40.0533 251.786 38.2267 251.786 36.12C251.786 34.5467 252.026 33.1333 252.506 31.88C252.986 30.6267 253.679 29.56 254.586 28.68C255.519 27.8 256.639 27.1333 257.946 26.68C259.252 26.2 260.706 25.96 262.306 25.96C263.132 25.96 264.012 26.0667 264.946 26.28C265.879 26.4667 266.799 26.8 267.706 27.28C268.239 27.52 268.599 27.8667 268.786 28.32C268.999 28.7467 269.079 29.2 269.026 29.68C268.972 30.1333 268.799 30.5467 268.506 30.92C268.239 31.2667 267.892 31.5067 267.466 31.64C267.039 31.7467 266.559 31.6667 266.026 31.4C265.519 31.1067 264.986 30.8933 264.426 30.76C263.892 30.6267 263.386 30.56 262.906 30.56C262.106 30.56 261.399 30.6933 260.786 30.96C260.172 31.2 259.652 31.56 259.226 32.04C258.826 32.4933 258.506 33.0667 258.266 33.76C258.052 34.4533 257.946 35.2533 257.946 36.16C257.946 37.92 258.372 39.3067 259.226 40.32C260.106 41.3067 261.332 41.8 262.906 41.8C263.386 41.8 263.892 41.7467 264.426 41.64C264.959 41.5067 265.492 41.2933 266.026 41C266.559 40.7333 267.039 40.6667 267.466 40.8C267.892 40.9333 268.226 41.1867 268.466 41.56C268.732 41.9067 268.879 42.32 268.906 42.8C268.959 43.2533 268.879 43.7067 268.666 44.16C268.479 44.5867 268.132 44.92 267.626 45.16C266.719 45.6133 265.812 45.9333 264.906 46.12C263.999 46.3333 263.132 46.44 262.306 46.44Z" fill="#F8F8F8"/>
<rect x="4" y="5" width="61.63" height="57" rx="9" stroke="#F8F8F8" stroke-width="8"/>
<rect x="14.5049" y="24.8333" width="4.35187" height="17.3333" rx="2.17594" fill="#F8F8F8"/>
<rect x="49.3203" y="24.8333" width="4.35187" height="17.3333" rx="2.17594" fill="#F8F8F8"/>
<rect x="40.6162" y="18.3333" width="4.35187" height="28.1667" rx="2.17594" fill="#F8F8F8"/>
<rect x="23.209" y="18.3333" width="4.35187" height="28.1667" rx="2.17594" fill="#F8F8F8"/>
<rect x="31.9125" y="11.8333" width="4.35187" height="39" rx="2.17594" fill="#F8F8F8"/>
</svg>
