<svg width="159" height="42" viewBox="0 0 159 42" fill="none" xmlns="http://www.w3.org/2000/svg">
<path d="M78.511 11.54C79.083 11.54 79.5424 11.7307 79.889 12.112C80.253 12.476 80.435 12.9527 80.435 13.542V28.31C80.435 28.882 80.2704 29.3327 79.941 29.662C79.6117 29.9913 79.1784 30.156 78.641 30.156C78.121 30.156 77.6964 29.9913 77.367 29.662C77.0377 29.3327 76.873 28.882 76.873 28.31V19.132L73.181 26.074C72.9384 26.5247 72.6697 26.854 72.375 27.062C72.0977 27.27 71.7597 27.374 71.361 27.374C70.9797 27.374 70.6417 27.27 70.347 27.062C70.0524 26.854 69.7837 26.5247 69.541 26.074L65.849 19.262V28.31C65.849 28.8647 65.6844 29.3153 65.355 29.662C65.0257 29.9913 64.5924 30.156 64.055 30.156C63.535 30.156 63.1104 29.9913 62.781 29.662C62.4517 29.3327 62.287 28.882 62.287 28.31V13.542C62.287 12.9527 62.4604 12.476 62.807 12.112C63.171 11.7307 63.639 11.54 64.211 11.54C65.043 11.54 65.6757 11.982 66.109 12.866L71.387 22.876L76.639 12.866C77.107 11.982 77.731 11.54 78.511 11.54ZM94.1318 16.974C94.7384 16.974 95.2151 17.1387 95.5618 17.468C95.9258 17.7973 96.1078 18.248 96.1078 18.82V28.362C96.1078 28.8993 95.9171 29.3327 95.5358 29.662C95.1718 29.9913 94.6951 30.156 94.1058 30.156C93.5511 30.156 93.1091 30 92.7798 29.688C92.4504 29.376 92.2858 28.96 92.2858 28.44V28.18C91.8871 28.8387 91.3584 29.3413 90.6998 29.688C90.0584 30.0347 89.3304 30.208 88.5158 30.208C86.9038 30.208 85.6991 29.766 84.9018 28.882C84.1218 27.9807 83.7318 26.6287 83.7318 24.826V18.82C83.7318 18.248 83.9051 17.7973 84.2518 17.468C84.6158 17.1387 85.1011 16.974 85.7078 16.974C86.3144 16.974 86.7911 17.1387 87.1378 17.468C87.4844 17.7973 87.6578 18.248 87.6578 18.82V24.904C87.6578 25.6667 87.8138 26.23 88.1258 26.594C88.4551 26.958 88.9491 27.14 89.6078 27.14C90.3704 27.14 90.9858 26.88 91.4538 26.36C91.9391 25.84 92.1818 25.1553 92.1818 24.306V18.82C92.1818 18.248 92.3551 17.7973 92.7018 17.468C93.0484 17.1387 93.5251 16.974 94.1318 16.974ZM103.956 30.208C102.899 30.208 101.98 30.1213 101.2 29.948C100.42 29.7747 99.7356 29.4973 99.1463 29.116C98.8863 28.96 98.687 28.752 98.5483 28.492C98.4096 28.232 98.3403 27.9373 98.3403 27.608C98.3403 27.2093 98.453 26.88 98.6783 26.62C98.9036 26.3427 99.181 26.204 99.5103 26.204C99.7356 26.204 99.961 26.2473 100.186 26.334C100.412 26.4033 100.646 26.49 100.888 26.594C101.374 26.8193 101.85 27.0013 102.318 27.14C102.786 27.2613 103.367 27.322 104.06 27.322C104.667 27.322 105.135 27.2267 105.464 27.036C105.811 26.8453 105.984 26.5853 105.984 26.256C105.984 26.0133 105.906 25.8227 105.75 25.684C105.612 25.528 105.343 25.3893 104.944 25.268C104.546 25.1467 103.913 24.9993 103.046 24.826C101.504 24.5313 100.394 24.0893 99.7183 23.5C99.0423 22.9107 98.7043 22.0873 98.7043 21.03C98.7043 20.25 98.9383 19.548 99.4063 18.924C99.8916 18.3 100.55 17.8147 101.382 17.468C102.214 17.104 103.15 16.922 104.19 16.922C104.936 16.922 105.664 17.0173 106.374 17.208C107.085 17.3987 107.718 17.6673 108.272 18.014C108.81 18.3433 109.078 18.8287 109.078 19.47C109.078 19.886 108.966 20.2327 108.74 20.51C108.515 20.7873 108.238 20.926 107.908 20.926C107.51 20.926 107.033 20.77 106.478 20.458C106.045 20.2327 105.646 20.068 105.282 19.964C104.936 19.8427 104.52 19.782 104.034 19.782C103.497 19.782 103.072 19.886 102.76 20.094C102.448 20.2847 102.292 20.5533 102.292 20.9C102.292 21.264 102.474 21.5413 102.838 21.732C103.202 21.9227 103.904 22.1133 104.944 22.304C106.106 22.5293 107.016 22.8067 107.674 23.136C108.333 23.448 108.81 23.8467 109.104 24.332C109.399 24.8173 109.546 25.4327 109.546 26.178C109.546 27.4087 109.035 28.388 108.012 29.116C107.007 29.844 105.655 30.208 103.956 30.208ZM113.766 30.156C113.194 30.156 112.718 30 112.336 29.688C111.972 29.376 111.79 28.9167 111.79 28.31V18.82C111.79 18.2133 111.981 17.754 112.362 17.442C112.744 17.13 113.212 16.974 113.766 16.974C114.321 16.974 114.78 17.13 115.144 17.442C115.526 17.754 115.716 18.2133 115.716 18.82V28.31C115.716 28.9167 115.526 29.376 115.144 29.688C114.78 30 114.321 30.156 113.766 30.156ZM113.766 14.894C113.073 14.894 112.527 14.7207 112.128 14.374C111.73 14.01 111.53 13.5247 111.53 12.918C111.53 12.3113 111.73 11.8347 112.128 11.488C112.527 11.1413 113.073 10.968 113.766 10.968C114.442 10.968 114.98 11.15 115.378 11.514C115.794 11.8607 116.002 12.3287 116.002 12.918C116.002 13.5247 115.803 14.01 115.404 14.374C115.006 14.7207 114.46 14.894 113.766 14.894ZM124.624 30.208C123.307 30.208 122.154 29.9393 121.166 29.402C120.178 28.8647 119.415 28.102 118.878 27.114C118.358 26.126 118.098 24.9647 118.098 23.63C118.098 22.2953 118.375 21.1253 118.93 20.12C119.502 19.0973 120.299 18.3087 121.322 17.754C122.345 17.1993 123.523 16.922 124.858 16.922C125.551 16.922 126.245 17.0173 126.938 17.208C127.649 17.3987 128.281 17.6673 128.836 18.014C129.373 18.3433 129.642 18.8287 129.642 19.47C129.642 19.9207 129.538 20.2933 129.33 20.588C129.122 20.8653 128.845 21.004 128.498 21.004C128.273 21.004 128.056 20.9693 127.848 20.9C127.657 20.8133 127.397 20.692 127.068 20.536C126.704 20.3453 126.375 20.198 126.08 20.094C125.803 19.99 125.482 19.938 125.118 19.938C124.147 19.938 123.402 20.25 122.882 20.874C122.379 21.4807 122.128 22.3733 122.128 23.552C122.128 24.7307 122.379 25.632 122.882 26.256C123.402 26.88 124.147 27.192 125.118 27.192C125.482 27.192 125.803 27.1487 126.08 27.062C126.357 26.958 126.695 26.802 127.094 26.594C127.423 26.438 127.683 26.3253 127.874 26.256C128.065 26.1693 128.273 26.126 128.498 26.126C128.827 26.126 129.096 26.2733 129.304 26.568C129.529 26.8627 129.642 27.2353 129.642 27.686C129.642 28.3273 129.373 28.804 128.836 29.116C128.281 29.4627 127.64 29.7313 126.912 29.922C126.184 30.1127 125.421 30.208 124.624 30.208ZM133.91 30.156C133.286 30.156 132.792 29.974 132.428 29.61C132.064 29.246 131.882 28.752 131.882 28.128V13.542C131.882 12.9353 132.064 12.45 132.428 12.086C132.792 11.722 133.286 11.54 133.91 11.54C134.534 11.54 135.028 11.722 135.392 12.086C135.756 12.45 135.938 12.9353 135.938 13.542V28.128C135.938 28.752 135.756 29.246 135.392 29.61C135.028 29.974 134.534 30.156 133.91 30.156ZM141.473 30C140.866 30 140.398 29.8353 140.069 29.506C139.74 29.1767 139.575 28.7087 139.575 28.102V13.568C139.575 12.9613 139.74 12.4933 140.069 12.164C140.398 11.8347 140.866 11.67 141.473 11.67H146.699C148.692 11.67 150.408 12.034 151.847 12.762C153.286 13.49 154.386 14.5387 155.149 15.908C155.912 17.2773 156.293 18.9153 156.293 20.822C156.293 22.7287 155.912 24.3753 155.149 25.762C154.404 27.1313 153.312 28.18 151.873 28.908C150.434 29.636 148.71 30 146.699 30H141.473ZM146.413 26.724C150.313 26.724 152.263 24.7567 152.263 20.822C152.263 16.9047 150.313 14.946 146.413 14.946H143.631V26.724H146.413Z" fill="#F8F8F8"/>
<rect x="2" y="2" width="41" height="38" rx="11" stroke="#F8F8F8" stroke-width="4"/>
<rect x="9.37411" y="16.3999" width="2.8125" height="11.2" rx="1.40625" fill="#F8F8F8"/>
<rect x="31.8744" y="16.3999" width="2.8125" height="11.2" rx="1.40625" fill="#F8F8F8"/>
<rect x="26.2492" y="12.2" width="2.8125" height="18.2" rx="1.40625" fill="#F8F8F8"/>
<rect x="14.9994" y="12.2" width="2.8125" height="18.2" rx="1.40625" fill="#F8F8F8"/>
<rect x="20.6242" y="8" width="2.8125" height="25.2" rx="1.40625" fill="#F8F8F8"/>
</svg>
