<svg width="166" height="114" viewBox="0 0 166 114" fill="none" xmlns="http://www.w3.org/2000/svg">
<path d="M31.4033 77.76C32.3713 77.76 33.1486 78.0827 33.7353 78.728C34.3513 79.344 34.6593 80.1507 34.6593 81.148V106.14C34.6593 107.108 34.3806 107.871 33.8233 108.428C33.266 108.985 32.5326 109.264 31.6233 109.264C30.7433 109.264 30.0246 108.985 29.4673 108.428C28.91 107.871 28.6313 107.108 28.6313 106.14V90.608L22.3833 102.356C21.9726 103.119 21.518 103.676 21.0193 104.028C20.55 104.38 19.978 104.556 19.3033 104.556C18.658 104.556 18.086 104.38 17.5873 104.028C17.0886 103.676 16.634 103.119 16.2233 102.356L9.9753 90.828V106.14C9.9753 107.079 9.69663 107.841 9.1393 108.428C8.58196 108.985 7.84863 109.264 6.9393 109.264C6.0593 109.264 5.34063 108.985 4.7833 108.428C4.22596 107.871 3.9473 107.108 3.9473 106.14V81.148C3.9473 80.1507 4.24063 79.344 4.8273 78.728C5.4433 78.0827 6.2353 77.76 7.2033 77.76C8.6113 77.76 9.68196 78.508 10.4153 80.004L19.3473 96.944L28.2353 80.004C29.0273 78.508 30.0833 77.76 31.4033 77.76ZM57.8384 86.956C58.865 86.956 59.6717 87.2347 60.2584 87.792C60.8744 88.3493 61.1824 89.112 61.1824 90.08V106.228C61.1824 107.137 60.8597 107.871 60.2144 108.428C59.5984 108.985 58.7917 109.264 57.7944 109.264C56.8557 109.264 56.1077 109 55.5504 108.472C54.993 107.944 54.7144 107.24 54.7144 106.36V105.92C54.0397 107.035 53.145 107.885 52.0304 108.472C50.945 109.059 49.713 109.352 48.3344 109.352C45.6064 109.352 43.5677 108.604 42.2184 107.108C40.8984 105.583 40.2384 103.295 40.2384 100.244V90.08C40.2384 89.112 40.5317 88.3493 41.1184 87.792C41.7344 87.2347 42.5557 86.956 43.5824 86.956C44.609 86.956 45.4157 87.2347 46.0024 87.792C46.589 88.3493 46.8824 89.112 46.8824 90.08V100.376C46.8824 101.667 47.1464 102.62 47.6744 103.236C48.2317 103.852 49.0677 104.16 50.1824 104.16C51.473 104.16 52.5144 103.72 53.3064 102.84C54.1277 101.96 54.5384 100.801 54.5384 99.364V90.08C54.5384 89.112 54.8317 88.3493 55.4184 87.792C56.005 87.2347 56.8117 86.956 57.8384 86.956ZM74.4645 109.352C72.6752 109.352 71.1205 109.205 69.8005 108.912C68.4805 108.619 67.3218 108.149 66.3245 107.504C65.8845 107.24 65.5472 106.888 65.3125 106.448C65.0778 106.008 64.9605 105.509 64.9605 104.952C64.9605 104.277 65.1512 103.72 65.5325 103.28C65.9138 102.811 66.3832 102.576 66.9405 102.576C67.3218 102.576 67.7032 102.649 68.0845 102.796C68.4658 102.913 68.8618 103.06 69.2725 103.236C70.0938 103.617 70.9005 103.925 71.6925 104.16C72.4845 104.365 73.4672 104.468 74.6405 104.468C75.6672 104.468 76.4592 104.307 77.0165 103.984C77.6032 103.661 77.8965 103.221 77.8965 102.664C77.8965 102.253 77.7645 101.931 77.5005 101.696C77.2658 101.432 76.8112 101.197 76.1365 100.992C75.4618 100.787 74.3912 100.537 72.9245 100.244C70.3138 99.7453 68.4365 98.9973 67.2925 98C66.1485 97.0027 65.5765 95.6093 65.5765 93.82C65.5765 92.5 65.9725 91.312 66.7645 90.256C67.5858 89.2 68.7005 88.3787 70.1085 87.792C71.5165 87.176 73.1005 86.868 74.8605 86.868C76.1218 86.868 77.3538 87.0293 78.5565 87.352C79.7592 87.6747 80.8298 88.1293 81.7685 88.716C82.6778 89.2733 83.1325 90.0947 83.1325 91.18C83.1325 91.884 82.9418 92.4707 82.5605 92.94C82.1792 93.4093 81.7098 93.644 81.1525 93.644C80.4779 93.644 79.6712 93.38 78.7325 92.852C77.9992 92.4707 77.3245 92.192 76.7085 92.016C76.1218 91.8107 75.4178 91.708 74.5965 91.708C73.6872 91.708 72.9685 91.884 72.4405 92.236C71.9125 92.5587 71.6485 93.0133 71.6485 93.6C71.6485 94.216 71.9565 94.6853 72.5725 95.008C73.1885 95.3307 74.3765 95.6533 76.1365 95.976C78.1018 96.3573 79.6418 96.8267 80.7565 97.384C81.8712 97.912 82.6778 98.5867 83.1765 99.408C83.6752 100.229 83.9245 101.271 83.9245 102.532C83.9245 104.615 83.0592 106.272 81.3285 107.504C79.6272 108.736 77.3392 109.352 74.4645 109.352ZM91.0659 109.264C90.0979 109.264 89.2913 109 88.6459 108.472C88.0299 107.944 87.7219 107.167 87.7219 106.14V90.08C87.7219 89.0533 88.0446 88.276 88.6899 87.748C89.3353 87.22 90.1273 86.956 91.0659 86.956C92.0046 86.956 92.7819 87.22 93.3979 87.748C94.0433 88.276 94.3659 89.0533 94.3659 90.08V106.14C94.3659 107.167 94.0433 107.944 93.3979 108.472C92.7819 109 92.0046 109.264 91.0659 109.264ZM91.0659 83.436C89.8926 83.436 88.9686 83.1427 88.2939 82.556C87.6193 81.94 87.2819 81.1187 87.2819 80.092C87.2819 79.0653 87.6193 78.2587 88.2939 77.672C88.9686 77.0853 89.8926 76.792 91.0659 76.792C92.2099 76.792 93.1193 77.1 93.7939 77.716C94.4979 78.3027 94.8499 79.0947 94.8499 80.092C94.8499 81.1187 94.5126 81.94 93.8379 82.556C93.1633 83.1427 92.2393 83.436 91.0659 83.436ZM109.44 109.352C107.211 109.352 105.26 108.897 103.588 107.988C101.916 107.079 100.626 105.788 99.7164 104.116C98.8364 102.444 98.3964 100.479 98.3964 98.22C98.3964 95.9613 98.8657 93.9813 99.8044 92.28C100.772 90.5493 102.122 89.2147 103.852 88.276C105.583 87.3373 107.578 86.868 109.836 86.868C111.01 86.868 112.183 87.0293 113.356 87.352C114.559 87.6747 115.63 88.1293 116.568 88.716C117.478 89.2733 117.932 90.0947 117.932 91.18C117.932 91.9427 117.756 92.5733 117.404 93.072C117.052 93.5413 116.583 93.776 115.996 93.776C115.615 93.776 115.248 93.7173 114.896 93.6C114.574 93.4533 114.134 93.248 113.576 92.984C112.96 92.6613 112.403 92.412 111.904 92.236C111.435 92.06 110.892 91.972 110.276 91.972C108.634 91.972 107.372 92.5 106.492 93.556C105.642 94.5827 105.216 96.0933 105.216 98.088C105.216 100.083 105.642 101.608 106.492 102.664C107.372 103.72 108.634 104.248 110.276 104.248C110.892 104.248 111.435 104.175 111.904 104.028C112.374 103.852 112.946 103.588 113.62 103.236C114.178 102.972 114.618 102.781 114.94 102.664C115.263 102.517 115.615 102.444 115.996 102.444C116.554 102.444 117.008 102.693 117.36 103.192C117.742 103.691 117.932 104.321 117.932 105.084C117.932 106.169 117.478 106.976 116.568 107.504C115.63 108.091 114.544 108.545 113.312 108.868C112.08 109.191 110.79 109.352 109.44 109.352ZM125.155 109.264C124.099 109.264 123.263 108.956 122.647 108.34C122.031 107.724 121.723 106.888 121.723 105.832V81.148C121.723 80.1213 122.031 79.3 122.647 78.684C123.263 78.068 124.099 77.76 125.155 77.76C126.211 77.76 127.047 78.068 127.663 78.684C128.279 79.3 128.587 80.1213 128.587 81.148V105.832C128.587 106.888 128.279 107.724 127.663 108.34C127.047 108.956 126.211 109.264 125.155 109.264ZM137.954 109C136.927 109 136.135 108.721 135.578 108.164C135.021 107.607 134.742 106.815 134.742 105.788V81.192C134.742 80.1653 135.021 79.3733 135.578 78.816C136.135 78.2587 136.927 77.98 137.954 77.98H146.798C150.171 77.98 153.075 78.596 155.51 79.828C157.945 81.06 159.807 82.8347 161.098 85.152C162.389 87.4693 163.034 90.2413 163.034 93.468C163.034 96.6947 162.389 99.4813 161.098 101.828C159.837 104.145 157.989 105.92 155.554 107.152C153.119 108.384 150.201 109 146.798 109H137.954ZM146.314 103.456C152.914 103.456 156.214 100.127 156.214 93.468C156.214 86.8387 152.914 83.524 146.314 83.524H141.606V103.456H146.314Z" fill="#F8F8F8"/>
<path d="M50 13C50 8.02944 54.0294 4 59 4H107.63C112.601 4 116.63 8.02944 116.63 13V57C116.63 61.9706 112.601 66 107.63 66H59C54.0294 66 50 61.9706 50 57V13Z" stroke="#F8F8F8" stroke-width="8"/>
<rect x="63.5479" y="27.6665" width="4.66437" height="18.6667" rx="2.33219" fill="#F8F8F8"/>
<rect x="100.863" y="27.6665" width="4.66437" height="18.6667" rx="2.33219" fill="#F8F8F8"/>
<rect x="91.534" y="20.6665" width="4.66437" height="30.3333" rx="2.33219" fill="#F8F8F8"/>
<rect x="72.8763" y="20.6665" width="4.66437" height="30.3333" rx="2.33219" fill="#F8F8F8"/>
<rect x="82.205" y="13.6665" width="4.66437" height="42" rx="2.33219" fill="#F8F8F8"/>
</svg>
