<svg width="184" height="161" viewBox="0 0 184 161" fill="none" xmlns="http://www.w3.org/2000/svg">
<path d="M10.0527 134.903C9.01266 134.903 8.21266 134.623 7.65266 134.063C7.09266 133.503 6.81266 132.703 6.81266 131.663V109.943C6.81266 108.903 7.09266 108.103 7.65266 107.543C8.21266 106.983 9.01266 106.703 10.0527 106.703H19.7327C21.7327 106.703 23.4393 106.996 24.8527 107.583C26.266 108.17 27.3327 109.01 28.0527 110.103C28.7993 111.196 29.1727 112.503 29.1727 114.023C29.1727 115.703 28.6927 117.13 27.7327 118.303C26.7727 119.476 25.4527 120.263 23.7727 120.663V120.023C25.7193 120.37 27.226 121.143 28.2927 122.343C29.386 123.516 29.9327 125.05 29.9327 126.943C29.9327 129.45 29.066 131.41 27.3327 132.823C25.5993 134.21 23.2127 134.903 20.1727 134.903H10.0527ZM12.7327 130.303H19.3327C20.9327 130.303 22.106 129.996 22.8527 129.383C23.5993 128.743 23.9727 127.81 23.9727 126.583C23.9727 125.356 23.5993 124.436 22.8527 123.823C22.106 123.21 20.9327 122.903 19.3327 122.903H12.7327V130.303ZM12.7327 118.303H18.6527C20.1993 118.303 21.346 118.01 22.0927 117.423C22.8393 116.836 23.2127 115.956 23.2127 114.783C23.2127 113.636 22.8393 112.77 22.0927 112.183C21.346 111.596 20.1993 111.303 18.6527 111.303H12.7327V118.303ZM46.7052 135.343C44.7052 135.343 42.9318 135.09 41.3852 134.583C39.8652 134.05 38.5852 133.276 37.5452 132.263C36.5052 131.25 35.7185 129.983 35.1852 128.463C34.6785 126.916 34.4252 125.13 34.4252 123.103V109.503C34.4252 108.463 34.6918 107.676 35.2252 107.143C35.7585 106.61 36.5318 106.343 37.5452 106.343C38.5318 106.343 39.2918 106.61 39.8252 107.143C40.3585 107.676 40.6252 108.463 40.6252 109.503V123.143C40.6252 125.436 41.1452 127.17 42.1852 128.343C43.2252 129.49 44.7318 130.063 46.7052 130.063C48.6785 130.063 50.1718 129.49 51.1852 128.343C52.2252 127.17 52.7452 125.436 52.7452 123.143V109.503C52.7452 108.463 53.0118 107.676 53.5452 107.143C54.0785 106.61 54.8385 106.343 55.8252 106.343C56.8118 106.343 57.5585 106.61 58.0652 107.143C58.5985 107.676 58.8652 108.463 58.8652 109.503V123.103C58.8652 125.796 58.3985 128.063 57.4652 129.903C56.5585 131.716 55.1985 133.076 53.3852 133.983C51.5985 134.89 49.3718 135.343 46.7052 135.343ZM67.5517 117.623C67.1517 118.13 66.7251 118.41 66.2717 118.463C65.8184 118.516 65.4184 118.436 65.0717 118.223C64.7517 117.983 64.5784 117.636 64.5517 117.183C64.5251 116.73 64.7251 116.25 65.1517 115.743C65.7384 115.023 66.1384 114.303 66.3517 113.583C66.5651 112.863 66.6717 112.223 66.6717 111.663L66.8717 113.303C65.8051 113.303 64.9384 112.996 64.2717 112.383C63.6051 111.77 63.2717 110.943 63.2717 109.903C63.2717 108.89 63.5784 108.076 64.1917 107.463C64.8051 106.823 65.6451 106.503 66.7117 106.503C67.8051 106.503 68.6584 106.863 69.2717 107.583C69.8851 108.303 70.1917 109.33 70.1917 110.663C70.1917 111.356 70.1251 112.076 69.9917 112.823C69.8584 113.543 69.6051 114.303 69.2317 115.103C68.8584 115.876 68.2984 116.716 67.5517 117.623ZM77.6223 135.263C76.7157 135.263 76.0223 135.01 75.5423 134.503C75.0623 133.996 74.8223 133.29 74.8223 132.383V109.223C74.8223 108.316 75.0757 107.61 75.5823 107.103C76.1157 106.596 76.8357 106.343 77.7423 106.343C78.5423 106.343 79.169 106.503 79.6223 106.823C80.1023 107.116 80.5423 107.636 80.9423 108.383L90.1823 125.263H88.8223L98.0623 108.383C98.4623 107.636 98.889 107.116 99.3423 106.823C99.8223 106.503 100.449 106.343 101.222 106.343C102.129 106.343 102.822 106.596 103.302 107.103C103.809 107.61 104.062 108.316 104.062 109.223V132.383C104.062 133.29 103.822 133.996 103.342 134.503C102.862 135.01 102.169 135.263 101.262 135.263C100.356 135.263 99.649 135.01 99.1423 134.503C98.6623 133.996 98.4223 133.29 98.4223 132.383V116.183H99.3023L91.8623 129.503C91.5423 130.01 91.1957 130.396 90.8223 130.663C90.4757 130.903 90.009 131.023 89.4223 131.023C88.8357 131.023 88.3557 130.89 87.9823 130.623C87.609 130.356 87.2757 129.983 86.9823 129.503L79.4623 116.143H80.4223V132.383C80.4223 133.29 80.1823 133.996 79.7023 134.503C79.249 135.01 78.5557 135.263 77.6223 135.263ZM116.501 135.343C114.848 135.343 113.475 135.036 112.381 134.423C111.288 133.81 110.475 132.89 109.941 131.663C109.435 130.41 109.181 128.863 109.181 127.023V117.983C109.181 116.97 109.435 116.21 109.941 115.703C110.475 115.196 111.221 114.943 112.181 114.943C113.141 114.943 113.888 115.196 114.421 115.703C114.955 116.21 115.221 116.97 115.221 117.983V127.183C115.221 128.356 115.461 129.236 115.941 129.823C116.421 130.383 117.181 130.663 118.221 130.663C119.368 130.663 120.301 130.263 121.021 129.463C121.768 128.636 122.141 127.556 122.141 126.223V117.983C122.141 116.97 122.395 116.21 122.901 115.703C123.435 115.196 124.181 114.943 125.141 114.943C126.128 114.943 126.875 115.196 127.381 115.703C127.915 116.21 128.181 116.97 128.181 117.983V132.183C128.181 134.236 127.208 135.263 125.261 135.263C124.301 135.263 123.568 134.996 123.061 134.463C122.555 133.93 122.301 133.17 122.301 132.183V129.503L122.901 131.063C122.315 132.423 121.475 133.476 120.381 134.223C119.288 134.97 117.995 135.343 116.501 135.343ZM140.375 135.343C139.202 135.343 137.988 135.236 136.735 135.023C135.508 134.81 134.388 134.45 133.375 133.943C132.842 133.676 132.455 133.343 132.215 132.943C132.002 132.516 131.908 132.09 131.935 131.663C131.962 131.236 132.095 130.85 132.335 130.503C132.602 130.156 132.935 129.93 133.335 129.823C133.762 129.69 134.228 129.73 134.735 129.943C135.828 130.396 136.828 130.716 137.735 130.903C138.642 131.09 139.535 131.183 140.415 131.183C141.562 131.183 142.388 131.01 142.895 130.663C143.428 130.29 143.695 129.81 143.695 129.223C143.695 128.69 143.522 128.29 143.175 128.023C142.828 127.756 142.322 127.57 141.655 127.463L137.455 126.703C135.802 126.41 134.522 125.81 133.615 124.903C132.735 123.97 132.295 122.783 132.295 121.343C132.295 120.01 132.668 118.863 133.415 117.903C134.162 116.916 135.188 116.17 136.495 115.663C137.828 115.13 139.335 114.863 141.015 114.863C142.215 114.863 143.322 114.97 144.335 115.183C145.348 115.396 146.322 115.743 147.255 116.223C147.735 116.463 148.068 116.783 148.255 117.183C148.468 117.583 148.535 117.996 148.455 118.423C148.402 118.85 148.242 119.236 147.975 119.583C147.708 119.93 147.362 120.156 146.935 120.263C146.535 120.37 146.068 120.316 145.535 120.103C144.682 119.703 143.895 119.423 143.175 119.263C142.455 119.076 141.762 118.983 141.095 118.983C139.895 118.983 139.028 119.183 138.495 119.583C137.962 119.956 137.695 120.436 137.695 121.023C137.695 121.476 137.842 121.863 138.135 122.183C138.455 122.476 138.935 122.676 139.575 122.783L143.775 123.543C145.508 123.836 146.828 124.423 147.735 125.303C148.642 126.156 149.095 127.33 149.095 128.823C149.095 130.85 148.295 132.45 146.695 133.623C145.122 134.77 143.015 135.343 140.375 135.343ZM155.583 135.223C154.596 135.223 153.836 134.943 153.303 134.383C152.796 133.796 152.543 132.983 152.543 131.943V118.263C152.543 117.196 152.796 116.383 153.303 115.823C153.836 115.236 154.596 114.943 155.583 114.943C156.543 114.943 157.276 115.236 157.783 115.823C158.316 116.383 158.583 117.196 158.583 118.263V131.943C158.583 132.983 158.329 133.796 157.823 134.383C157.316 134.943 156.569 135.223 155.583 135.223ZM155.583 111.663C154.463 111.663 153.596 111.41 152.983 110.903C152.396 110.37 152.103 109.623 152.103 108.663C152.103 107.676 152.396 106.93 152.983 106.423C153.596 105.89 154.463 105.623 155.583 105.623C156.703 105.623 157.556 105.89 158.143 106.423C158.729 106.93 159.023 107.676 159.023 108.663C159.023 109.623 158.729 110.37 158.143 110.903C157.556 111.41 156.703 111.663 155.583 111.663ZM172.806 135.343C170.672 135.343 168.806 134.93 167.206 134.103C165.632 133.25 164.419 132.05 163.566 130.503C162.712 128.956 162.286 127.13 162.286 125.023C162.286 123.45 162.526 122.036 163.006 120.783C163.486 119.53 164.179 118.463 165.086 117.583C166.019 116.703 167.139 116.036 168.446 115.583C169.752 115.103 171.206 114.863 172.806 114.863C173.632 114.863 174.512 114.97 175.446 115.183C176.379 115.37 177.299 115.703 178.206 116.183C178.739 116.423 179.099 116.77 179.286 117.223C179.499 117.65 179.579 118.103 179.526 118.583C179.472 119.036 179.299 119.45 179.006 119.823C178.739 120.17 178.392 120.41 177.966 120.543C177.539 120.65 177.059 120.57 176.526 120.303C176.019 120.01 175.486 119.796 174.926 119.663C174.392 119.53 173.886 119.463 173.406 119.463C172.606 119.463 171.899 119.596 171.286 119.863C170.672 120.103 170.152 120.463 169.726 120.943C169.326 121.396 169.006 121.97 168.766 122.663C168.552 123.356 168.446 124.156 168.446 125.063C168.446 126.823 168.872 128.21 169.726 129.223C170.606 130.21 171.832 130.703 173.406 130.703C173.886 130.703 174.392 130.65 174.926 130.543C175.459 130.41 175.992 130.196 176.526 129.903C177.059 129.636 177.539 129.57 177.966 129.703C178.392 129.836 178.726 130.09 178.966 130.463C179.232 130.81 179.379 131.223 179.406 131.703C179.459 132.156 179.379 132.61 179.166 133.063C178.979 133.49 178.632 133.823 178.126 134.063C177.219 134.516 176.312 134.836 175.406 135.023C174.499 135.236 173.632 135.343 172.806 135.343Z" fill="#F8F8F8"/>
<rect x="54.718" y="4" width="74.1277" height="70.097" rx="9" stroke="#F8F8F8" stroke-width="8"/>
<rect x="67.8262" y="28.6355" width="5.13298" height="20.8259" rx="2.56649" fill="#F8F8F8"/>
<rect x="108.891" y="28.6355" width="5.13298" height="20.8259" rx="2.56649" fill="#F8F8F8"/>
<rect x="98.6242" y="20.8258" width="5.13298" height="33.842" rx="2.56649" fill="#F8F8F8"/>
<rect x="78.0926" y="20.8258" width="5.13298" height="33.842" rx="2.56649" fill="#F8F8F8"/>
<rect x="88.3583" y="13.0161" width="5.13298" height="46.8582" rx="2.56649" fill="#F8F8F8"/>
</svg>
