<svg width="210" height="236" viewBox="0 0 210 236" fill="none" xmlns="http://www.w3.org/2000/svg">
<rect width="210" height="236" fill="#E5E5E5"/>
<rect x="-91" y="-84" width="367" height="456" fill="#0000B9"/>
<path d="M102.593 -14.0128L41.5748 -45.5353C34.8349 -49.0171 26.5231 -46.3799 23.0098 -39.6447L-11.9774 27.4279C-15.491 34.1633 -12.8758 42.4456 -6.13595 45.9278L54.8829 77.4499C61.6224 80.9312 69.9344 78.2941 73.4476 71.5587L108.435 4.48594C111.949 -2.24856 109.333 -10.5316 102.593 -14.0128Z" fill="#A6E1FA"/>
<path d="M73.8293 70.5044C67.1335 75.1732 52.7517 50.1689 60.6777 47.4547C75.4822 42.3869 79.0418 35.2676 81.3621 34.5312C85.1946 33.3152 89.2965 38.0199 89.0967 41.236C87.5061 44.284 84.813 49.4479 82.8942 53.1267C79.2931 60.0303 78.7591 61.0531 73.8293 70.5044Z" fill="#00BBF9"/>
<path d="M26.0663 12.2075L30.0744 4.52447L33.3691 6.22646C33.838 6.46839 34.2078 6.748 34.4796 7.06493C34.7589 7.3856 34.9359 7.71406 35.0114 8.05066C35.0871 8.38636 35.0998 8.71861 35.0499 9.04559C34.9999 9.37257 34.8932 9.69358 34.729 10.0083C34.3971 10.645 33.8797 11.093 33.1775 11.352C32.4823 11.6158 31.7028 11.5245 30.8388 11.0781L29.0263 10.1419L27.5491 12.9731L26.0663 12.2075ZM31.6374 9.70726C31.9819 9.88487 32.2893 9.91862 32.5608 9.80791C32.8363 9.68957 33.0461 9.49188 33.1916 9.21396C33.3323 8.94332 33.376 8.66375 33.3218 8.37556C33.2677 8.08742 33.0611 7.8509 32.7024 7.6653L30.8241 6.69541L29.7594 8.73652L31.6374 9.70726ZM37.2806 17.1786C36.5488 17.46 35.7835 17.3946 34.9855 16.9818C34.1876 16.5697 33.6932 15.9844 33.5028 15.2267C33.3123 14.4689 33.456 13.6327 33.9328 12.7185C34.4059 11.8108 35.0105 11.2129 35.7472 10.9244C36.4903 10.6393 37.2576 10.7015 38.0483 11.1104C38.8393 11.5183 39.3275 12.1051 39.5142 12.8704C39.7081 13.6394 39.5684 14.4774 39.0952 15.3851C38.6179 16.2996 38.0133 16.8975 37.2806 17.1786ZM35.7012 15.6102C36.0596 15.7952 36.4122 15.8054 36.7583 15.641C37.1089 15.4688 37.4115 15.1376 37.6675 14.6473C37.9229 14.1574 38.0209 13.7201 37.961 13.336C37.9011 12.9518 37.6913 12.6675 37.3325 12.4819C36.9813 12.3001 36.6248 12.2974 36.2635 12.4729C35.9138 12.6453 35.6124 12.9728 35.3609 13.4553C35.109 13.9388 35.0127 14.372 35.0727 14.7561C35.1401 15.1441 35.3492 15.4287 35.7012 15.6102ZM41.5676 20.3826C41.055 20.118 40.7494 19.732 40.6509 19.2265L39.6322 21.1801L37.8666 21.0897L41.9368 13.2861L43.3646 14.0238L43.1531 14.4298C43.6256 14.2187 44.1215 14.2476 44.6417 14.5161C45.3449 14.8794 45.769 15.4285 45.9158 16.1635C46.0732 16.8951 45.9094 17.7257 45.4248 18.6547C44.9556 19.555 44.3671 20.1569 43.6605 20.4599C42.9537 20.7638 42.2559 20.7382 41.5676 20.3826ZM42.0636 18.8967C42.4224 19.0824 42.7675 19.0886 43.0993 18.9162C43.438 18.748 43.7372 18.4147 43.997 17.9169C44.2486 17.4345 44.3486 17.0024 44.2955 16.6224C44.2542 16.2385 44.054 15.9547 43.6954 15.769C43.2708 15.5496 42.8667 15.5316 42.4833 15.714L41.3266 17.9315C41.3564 18.3368 41.6022 18.6587 42.0636 18.8967ZM20.2006 31.0179C19.6294 30.7226 19.1772 30.3506 18.8453 29.8995C18.5245 29.4458 18.3271 28.9593 18.2548 28.4385C18.1904 27.9221 18.2113 27.399 18.3211 26.8698C18.4287 26.3409 18.6195 25.8166 18.8902 25.2971C19.1416 24.8146 19.4556 24.3823 19.8312 24.0005C20.2109 23.6112 20.6344 23.2905 21.0991 23.0394C21.5728 22.7913 22.0904 22.6635 22.6517 22.6568C23.224 22.6459 23.7888 22.7842 24.3452 23.0717C25.026 23.4234 25.4971 23.8568 25.7579 24.3729C26.0297 24.8846 26.1917 25.4747 26.2432 26.1418L24.5472 26.2132C24.4584 25.3497 24.1428 24.778 23.6007 24.4985C23.2643 24.3244 22.9256 24.2514 22.5856 24.2803C22.256 24.3053 21.9572 24.4156 21.6877 24.6113C21.423 24.7989 21.1827 25.0188 20.9683 25.2699C20.7643 25.5172 20.5841 25.7914 20.4272 26.0915C20.054 26.8085 19.8925 27.4916 19.9447 28.1405C19.996 28.7898 20.3298 29.2732 20.9451 29.5911C21.3183 29.7839 21.6955 29.8261 22.0777 29.7171C22.4683 29.6114 22.7522 29.3867 22.9318 29.043L22.9778 28.9548L21.6702 28.2804L22.4032 26.8751L25.2258 28.333L24.6361 29.464C24.1402 30.4152 23.4851 31.0194 22.6717 31.2776C21.8592 31.5354 21.0351 31.4488 20.2006 31.0179ZM26.7776 34.4161C25.9654 33.996 25.46 33.4049 25.2618 32.6434C25.0636 31.882 25.2061 31.0402 25.6871 30.1183C26.1565 29.2181 26.7632 28.626 27.5063 28.341C28.2569 28.0599 29.0351 28.1279 29.8404 28.5439C30.5731 28.9219 31.0515 29.4573 31.276 30.1494C31.5045 30.8339 31.3932 31.6076 30.9431 32.4715C30.7558 32.83 30.5942 33.1039 30.4581 33.2941L26.8007 31.4046C26.6468 31.7704 26.63 32.115 26.7499 32.4368C26.8815 32.7558 27.1081 32.998 27.4306 33.1647C27.9283 33.4216 28.4321 33.4356 28.9418 33.2067L29.3564 34.5498C28.5084 34.9106 27.6489 34.8656 26.7776 34.4161ZM27.4419 30.2027L29.7367 31.3884C29.8612 31.0434 29.8719 30.7291 29.7695 30.4437C29.6748 30.1628 29.4809 29.9461 29.1876 29.795C28.4705 29.4244 27.8882 29.5605 27.4419 30.2027ZM34.1122 38.0371L35.7158 34.9645C35.9522 34.5108 36.0436 34.1399 35.989 33.8524C35.9422 33.5676 35.7504 33.3387 35.4139 33.1645C34.7035 32.7979 34.1268 33.0385 33.6843 33.8873L32.0698 36.9823L30.6422 36.2449L33.5672 30.6361L34.995 31.3739L34.7207 31.9008C35.3083 31.6466 35.9242 31.6865 36.5687 32.0192C37.1249 32.3063 37.4987 32.7231 37.6887 33.2672C37.8901 33.8076 37.7883 34.4655 37.384 35.2415L35.5402 38.7754L34.1122 38.0371ZM37.1306 39.5971L40.0567 33.9889L41.4843 34.7263L41.2269 35.2199C41.6421 34.9051 42.0984 34.8758 42.5962 35.1329C43.0136 35.349 43.32 35.689 43.5157 36.1515L42.6365 37.3558C42.4434 36.9772 42.16 36.6917 41.7868 36.4991C41.1429 36.1661 40.6101 36.4016 40.1906 37.2067L38.5588 40.3341L37.1306 39.5971ZM43.8533 43.2372C43.0405 42.8174 42.5354 42.2263 42.3376 41.4651C42.1401 40.7027 42.281 39.8611 42.7623 38.9392C43.2321 38.04 43.8386 37.4471 44.582 37.1627C45.3325 36.8814 46.1104 36.9487 46.916 37.3654C47.6489 37.744 48.1268 38.2783 48.3515 38.9707C48.5796 39.6547 48.469 40.4293 48.0185 41.2928C47.8317 41.6506 47.6701 41.926 47.5343 42.1152L43.8767 40.2255C43.7225 40.5925 43.7052 40.9357 43.8254 41.2583C43.9565 41.5764 44.1838 41.8198 44.5058 41.9857C45.0041 42.2437 45.5078 42.2576 46.0174 42.0282L46.4326 43.3711C45.5847 43.7323 44.7243 43.6869 43.8533 43.2372ZM44.5172 39.0239L46.8131 40.21C46.9368 39.8653 46.9472 39.5503 46.8452 39.2655C46.7503 38.9839 46.5564 38.7674 46.264 38.6167C45.5457 38.2452 44.9634 38.3814 44.5172 39.0239Z" fill="#F8F8F8"/>
<path d="M92.6253 2.86987C91.6813 1.22966 90.1669 0.144843 88.4831 -0.283568C87.1579 -0.620834 85.7282 -0.550161 84.3878 -0.024525L84.021 -0.661404L81.9923 0.570636L82.3591 1.20751C81.0052 2.38652 80.1794 4.02368 79.9823 5.74461L69.7482 13.7926L70.4874 15.0759L69.0433 15.9529C68.0862 16.5336 67.4022 17.4588 67.1177 18.5588C66.8328 19.6579 66.9826 20.7958 67.539 21.7615C68.6912 23.7625 71.2405 24.411 73.2222 23.2086L80.8796 18.5595C81.7424 18.0358 82.8524 18.3188 83.3537 19.1891C83.8554 20.0603 83.5618 21.1952 82.6992 21.7187L76.5887 25.4273L77.7685 27.476L83.8786 23.7665C85.8602 22.564 86.5349 19.9579 85.3829 17.9579C84.231 15.9578 81.6814 15.3083 79.7001 16.5117L72.0423 21.1599C71.1796 21.6836 70.0695 21.4006 69.5682 20.5303C69.3268 20.1112 69.2621 19.6156 69.3869 19.1368C69.5109 18.6562 69.8076 18.2525 70.2232 18.0015L71.6673 17.1245L72.3435 18.2985L84.2492 12.9229C84.4952 13.0176 84.7461 13.0996 85.001 13.164C86.3267 13.5021 87.7548 13.43 89.0963 12.9049L89.4636 13.5427L91.4924 12.3106L91.1255 11.6737C93.6104 9.51016 94.3122 5.8016 92.6253 2.86987ZM74.5366 15.7695C73.7896 16.223 72.8317 15.9792 72.3975 15.2252C71.9628 14.4702 72.2164 13.4915 72.9639 13.0389C73.7105 12.5845 74.6683 12.8284 75.103 13.5833C75.5373 14.3373 75.2837 15.3161 74.5366 15.7695Z" fill="#00BBF9"/>
<path d="M121.66 9.43192C125.174 2.69742 133.486 0.0603598 140.225 3.54163L170.735 19.3027L192.145 30.3268L201.328 35.4296C207.802 39.027 210.233 47.1067 206.823 53.694L201.141 64.6712L189.592 87.0995L172.099 120.636C168.585 127.371 160.273 130.008 153.533 126.527L92.5151 95.0044C85.7748 91.5224 83.1594 83.2402 86.6732 76.5056L121.66 9.43192Z" fill="#D3BCF1"/>
<path d="M122.362 51.124C114.5 50.2003 102.877 47.3815 106.332 39.7645C108.86 34.1898 108.42 35.5789 110.784 31.1793C112.395 28.1828 116.72 26.2111 119.942 26.3988C129.251 29.3488 120.569 35.0407 127.248 38.9042C134.156 42.4724 127.906 51.3258 122.362 51.124Z" fill="#9B5DE5"/>
<path d="M172.535 119.684C165.839 124.353 151.458 99.3488 159.383 96.6346C174.188 91.5669 177.747 84.4476 180.068 83.7112C183.9 82.4951 188.002 87.1999 187.802 90.4159C186.212 93.464 183.519 98.6279 181.6 102.307C177.999 109.21 177.465 110.233 172.535 119.684Z" fill="#9B5DE5"/>
<path d="M146.292 43.9756C145.714 43.6767 145.268 43.3023 144.954 42.8526C144.644 42.3954 144.47 41.9099 144.43 41.397C144.395 40.8774 144.434 40.3633 144.55 39.8566C144.673 39.3539 144.867 38.8503 145.13 38.3457C145.374 37.8769 145.67 37.4537 146.015 37.0745C146.366 36.6895 146.764 36.3608 147.212 36.0911C147.664 35.8129 148.169 35.6656 148.727 35.6474C149.288 35.6216 149.855 35.7562 150.426 36.0511C151.114 36.4064 151.605 36.8736 151.898 37.4526C152.198 38.0348 152.321 38.6185 152.267 39.2038L150.623 39.1209C150.582 38.7007 150.494 38.362 150.358 38.1058C150.222 37.8497 149.996 37.6402 149.682 37.4783C149.279 37.2695 148.87 37.2354 148.454 37.3733C148.049 37.5077 147.703 37.7331 147.417 38.0495C147.135 38.3592 146.885 38.7222 146.668 39.1394C146.32 39.8046 146.156 40.4684 146.174 41.128C146.2 41.7915 146.487 42.2648 147.036 42.5484C147.571 42.8248 148.208 42.7361 148.947 42.2813L150.04 43.5011C148.808 44.4718 147.559 44.63 146.292 43.9756ZM150.426 45.9573L154.211 38.7031L155.988 38.771L151.854 46.6955L150.426 45.9573ZM156.742 49.2201L156.954 48.8146C156.408 48.9881 155.831 48.9174 155.223 48.603C154.616 48.2896 154.202 47.871 153.982 47.3489C153.769 46.8301 153.817 46.2737 154.126 45.6817C154.443 45.0748 154.899 44.7246 155.496 44.634C156.099 44.5456 156.709 44.6615 157.323 44.978C157.814 45.2319 158.196 45.541 158.471 45.9061L158.62 45.6205C158.929 45.0276 158.747 44.5571 158.073 44.2098C157.458 43.8915 156.782 43.779 156.046 43.8733L156.208 42.4936C157.088 42.3908 157.968 42.5666 158.846 43.0204C159.147 43.1759 159.397 43.3379 159.598 43.5064C159.805 43.6789 159.997 43.8987 160.173 44.1658C160.35 44.4339 160.424 44.7553 160.395 45.1302C160.378 45.5026 160.251 45.9152 160.014 46.369L158.147 49.9461L156.742 49.2201ZM156.15 47.4933C156.597 47.7246 157.069 47.7729 157.566 47.6397L157.882 47.0369C157.639 46.7532 157.323 46.511 156.935 46.3103C156.613 46.1444 156.324 46.0647 156.069 46.0723C155.818 46.0723 155.636 46.1832 155.521 46.4022C155.426 46.5853 155.43 46.773 155.534 46.9658C155.645 47.1629 155.85 47.3386 156.15 47.4933ZM161.469 51.8298C161.015 51.5953 160.63 51.2805 160.316 50.8862C160.001 50.491 159.814 50.0834 159.755 49.6625L161.117 49.349C161.31 49.96 161.645 50.3879 162.12 50.6337C162.685 50.9254 163.052 50.9055 163.224 50.5767C163.304 50.4235 163.292 50.2591 163.188 50.0843C163.095 49.9062 162.896 49.6459 162.592 49.3028C162.04 48.7388 161.681 48.2426 161.514 47.8124C161.352 47.3756 161.391 46.9269 161.631 46.4656C161.887 45.9751 162.281 45.6912 162.815 45.6146C163.351 45.5288 163.913 45.6378 164.499 45.9409C165.348 46.3792 165.877 47.0336 166.083 47.9014L164.721 48.1868C164.549 47.6988 164.264 47.3521 163.869 47.1482C163.393 46.9025 163.083 46.9182 162.938 47.1963C162.815 47.4303 163.063 47.8461 163.681 48.4439C164.168 48.9376 164.499 49.4052 164.676 49.8502C164.858 50.2876 164.816 50.7586 164.553 51.2632C164.27 51.8044 163.853 52.1235 163.302 52.2194C162.754 52.3077 162.143 52.1779 161.469 51.8298ZM166.896 54.6338C166.442 54.3984 166.057 54.0836 165.743 53.6893C165.428 53.2941 165.241 52.8866 165.182 52.4657L166.544 52.1521C166.738 52.764 167.072 53.1919 167.548 53.4377C168.112 53.7286 168.479 53.7095 168.651 53.3798C168.731 53.2266 168.72 53.0631 168.615 52.8884C168.522 52.7102 168.323 52.4491 168.019 52.1059C167.467 51.5428 167.108 51.0458 166.942 50.6164C166.779 50.1796 166.819 49.7309 167.059 49.2696C167.314 48.7791 167.709 48.4952 168.242 48.4177C168.779 48.3328 169.34 48.4418 169.926 48.744C170.776 49.1832 171.304 49.8367 171.51 50.7054L170.148 50.9908C169.976 50.5029 169.692 50.1561 169.297 49.9523C168.82 49.7056 168.51 49.7222 168.365 50.0003C168.243 50.2343 168.491 50.6501 169.108 51.2479C169.595 51.7407 169.926 52.2092 170.103 52.6533C170.285 53.0907 170.244 53.5627 169.98 54.0663C169.698 54.6084 169.28 54.9266 168.729 55.0234C168.18 55.1109 167.57 54.981 166.896 54.6338ZM174.53 50.4536C174.303 50.3368 174.147 50.1536 174.063 49.9059C173.99 49.6547 174.012 49.4155 174.13 49.189C174.249 48.9617 174.43 48.8096 174.675 48.7319C174.921 48.6542 175.16 48.6749 175.394 48.7966C175.629 48.9183 175.785 49.1006 175.861 49.3443C175.942 49.5813 175.922 49.8173 175.8 50.0513C175.678 50.2852 175.494 50.4415 175.249 50.5192C175.004 50.5969 174.764 50.5753 174.53 50.4536ZM170.547 56.352L173.473 50.744L174.9 51.4813L171.975 57.0902L170.547 56.352ZM175.852 59.26C175.068 58.8546 174.581 58.2733 174.391 57.516C174.201 56.7588 174.344 55.9217 174.821 55.0074C175.294 54.0998 175.899 53.5022 176.635 53.2136C177.379 52.9291 178.138 52.9867 178.915 53.388C180.123 54.0126 180.616 54.9634 180.395 56.243L178.798 55.9891C178.867 55.4119 178.678 55.0076 178.232 54.7763C177.888 54.5991 177.535 54.598 177.174 54.7732C176.82 54.9533 176.519 55.2806 176.271 55.756C176.023 56.2324 175.927 56.6652 175.983 57.0564C176.043 57.4409 176.238 57.7177 176.567 57.8878C177.057 58.1407 177.529 58.041 177.98 57.5868L179.129 58.6958C178.167 59.7034 177.074 59.8918 175.852 59.26ZM137.535 61.1396C136.963 60.8438 136.512 60.4712 136.179 60.0209C135.858 59.5671 135.662 59.0803 135.589 58.5595C135.524 58.0428 135.546 57.52 135.655 56.991C135.763 56.462 135.953 55.9377 136.224 55.4182C136.476 54.9352 136.79 54.5027 137.165 54.1206C137.545 53.7318 137.968 53.412 138.434 53.1601C138.907 52.9124 139.424 52.7847 139.986 52.7771C140.558 52.767 141.123 52.9057 141.679 53.1926C142.36 53.5448 142.831 53.9783 143.092 54.494C143.364 55.0054 143.526 55.5961 143.577 56.2626L141.881 56.3342C141.792 55.4706 141.477 54.8993 140.935 54.6198C140.598 54.4457 140.26 54.3725 139.919 54.401C139.59 54.4261 139.291 54.5369 139.022 54.7323C138.757 54.9203 138.516 55.1393 138.301 55.3901C138.098 55.6385 137.918 55.913 137.762 56.2127C137.388 56.9297 137.227 57.6132 137.278 58.2614C137.33 58.9107 137.664 59.3949 138.278 59.7115C138.652 59.9049 139.03 59.947 139.412 59.8376C139.802 59.7333 140.086 59.5077 140.265 59.1639L140.311 59.0765L139.004 58.4012L139.737 56.9964L142.56 58.4542L141.97 59.585C141.474 60.5367 140.819 61.1408 140.006 61.399C139.193 61.6563 138.369 61.5698 137.535 61.1396ZM144.112 64.5373C143.299 64.1166 142.794 63.5265 142.596 62.7643C142.398 62.003 142.54 61.161 143.021 60.2393C143.49 59.3392 144.097 58.7473 144.84 58.4619C145.591 58.1805 146.369 58.2487 147.174 58.6645C147.907 59.0433 148.385 59.5784 148.61 60.2708C148.838 60.9548 148.727 61.7284 148.277 62.5928C148.09 62.9508 147.929 63.2251 147.793 63.4154L144.135 61.5257C143.981 61.8916 143.964 62.2357 144.084 62.5583C144.215 62.8765 144.442 63.119 144.765 63.2858C145.262 63.5429 145.766 63.5567 146.276 63.3274L146.691 64.6704C145.843 65.0316 144.983 64.987 144.112 64.5373ZM144.776 60.324L147.071 61.5093C147.195 61.1645 147.206 60.8502 147.104 60.5647C147.009 60.284 146.815 60.0675 146.522 59.916C145.804 59.5453 145.222 59.6813 144.776 60.324ZM151.447 68.1588L153.05 65.0862C153.287 64.6324 153.378 64.2616 153.323 63.9729C153.277 63.6892 153.084 63.4593 152.748 63.2853C152.037 62.9187 151.461 63.1595 151.018 64.008L149.404 67.104L147.976 66.3658L150.901 60.7569L152.329 61.4951L152.055 62.0222C152.642 61.7678 153.258 61.8075 153.903 62.1403C154.459 62.428 154.833 62.8438 155.023 63.3878C155.224 63.9283 155.123 64.587 154.718 65.3622L152.874 68.8961L151.447 68.1588ZM154.465 69.7185L157.391 64.1097L158.819 64.8479L158.561 65.3407C158.976 65.026 159.433 64.9975 159.931 65.2545C160.348 65.4705 160.654 65.8095 160.85 66.2732L159.97 67.4765C159.777 67.0979 159.494 66.8123 159.121 66.6198C158.477 66.287 157.945 66.5231 157.524 67.3275L155.893 70.4558L154.465 69.7185ZM161.187 73.358C160.375 72.9381 159.869 72.3471 159.672 71.5858C159.474 70.8245 159.616 69.9825 160.097 69.0608C160.566 68.1606 161.172 67.5679 161.916 67.2834C162.667 67.0029 163.445 67.0702 164.25 67.486C164.982 67.8639 165.461 68.3999 165.686 69.0914C165.914 69.7762 165.803 70.5499 165.353 71.4135C165.166 71.7724 165.004 72.0466 164.868 72.236L161.21 70.3463C161.057 70.713 161.04 71.0573 161.16 71.3798C161.291 71.698 161.518 71.9405 161.84 72.1064C162.338 72.3635 162.842 72.3782 163.352 72.1498L163.767 73.4928C162.918 73.8531 162.059 73.8085 161.187 73.358ZM161.851 69.1446L164.147 70.3308C164.271 69.986 164.281 69.6709 164.179 69.3862C164.084 69.1046 163.891 68.889 163.598 68.7375C162.88 68.3668 162.298 68.5028 161.851 69.1446Z" fill="#F8F8F8"/>
<path d="M145.888 140.762L84.8699 109.241C78.1301 105.758 69.8175 108.396 66.3049 115.131L31.3171 182.204C27.8036 188.939 30.4196 197.221 37.1595 200.703L98.1778 232.226C104.917 235.707 113.229 233.07 116.742 226.335L151.73 159.262C155.243 152.527 152.628 144.244 145.888 140.762Z" fill="#98F5E1"/>
<path d="M145.976 141.089C150.622 147.761 125.48 162.147 122.801 154.245C117.797 139.485 110.679 135.945 109.953 133.632C108.754 129.811 113.491 125.711 116.714 125.905C119.762 127.487 124.925 130.166 128.601 132.074C135.504 135.655 136.528 136.186 145.976 141.089Z" fill="#20E9BD"/>
<path d="M56.2355 159.56C55.5185 159.19 54.9937 158.682 54.6611 158.036C54.328 157.391 54.2238 156.682 54.3477 155.909L55.9623 156.102C55.9393 156.555 56.0171 156.968 56.1956 157.338C56.3746 157.709 56.6464 157.989 57.0123 158.179C57.393 158.376 57.7357 158.449 58.0386 158.403C58.3504 158.358 58.5839 158.186 58.74 157.887C58.8207 157.733 58.8544 157.578 58.843 157.424C58.8302 157.269 58.7614 157.098 58.6352 156.912C58.509 156.726 58.3894 156.573 58.2771 156.45C58.1764 156.322 58.0132 156.145 57.7874 155.918C57.5341 155.656 57.3417 155.455 57.2109 155.313C57.0878 155.174 56.9342 154.97 56.7501 154.699C56.567 154.427 56.4449 154.188 56.3856 153.981C56.3299 153.766 56.3088 153.513 56.3205 153.223C56.3442 152.928 56.4328 152.635 56.5858 152.343C56.8984 151.742 57.3938 151.362 58.0728 151.201C58.7549 151.034 59.4951 151.156 60.2924 151.569C60.9515 151.909 61.4191 152.36 61.6939 152.919C61.9758 153.484 62.0526 154.066 61.9243 154.669L60.3661 154.421C60.4081 153.755 60.1087 153.257 59.4721 152.928C59.1502 152.761 58.8635 152.696 58.6111 152.734C58.3703 152.768 58.1893 152.902 58.0671 153.136C57.9873 153.29 57.9878 153.467 58.0693 153.667C58.1548 153.859 58.2567 154.028 58.3768 154.173C58.4999 154.311 58.6974 154.521 58.97 154.8C59.1801 155.021 59.3415 155.192 59.4542 155.315C59.5665 155.438 59.7149 155.617 59.8987 155.852C60.0843 156.087 60.2111 156.296 60.2818 156.481C60.3592 156.671 60.4279 156.887 60.487 157.131C60.5568 157.371 60.5658 157.622 60.5132 157.883C60.465 158.136 60.3712 158.395 60.2341 158.659C59.8563 159.382 59.2956 159.817 58.5502 159.962C57.813 160.11 57.0414 159.977 56.2355 159.56ZM63.6439 163.22L63.8556 162.814C63.3099 162.987 62.7333 162.917 62.1254 162.603C61.5175 162.289 61.1039 161.871 60.8835 161.348C60.6708 160.829 60.7194 160.275 61.028 159.682C61.3446 159.074 61.8017 158.725 62.3972 158.633C63.0012 158.546 63.6098 158.661 64.2258 158.978C64.7165 159.232 65.0985 159.541 65.3727 159.905L65.5217 159.621C65.8312 159.028 65.6488 158.557 64.9754 158.209C64.3594 157.892 63.6837 157.779 62.9478 157.873L63.1092 156.493C63.99 156.391 64.8696 156.567 65.7482 157.021C66.0482 157.175 66.2989 157.337 66.4992 157.506C66.7071 157.678 66.8988 157.898 67.0757 158.166C67.2512 158.433 67.3261 158.754 67.2976 159.13C67.2793 159.502 67.1527 159.914 66.916 160.368L65.0501 163.947L63.6439 163.22ZM63.0532 161.494C63.4995 161.725 63.9716 161.773 64.4684 161.64L64.7828 161.036C64.5409 160.753 64.2256 160.511 63.8373 160.31C63.5149 160.145 63.2263 160.065 62.9719 160.072C62.7205 160.072 62.5376 160.182 62.4229 160.402C62.3277 160.586 62.3314 160.773 62.4352 160.966C62.5467 161.163 62.7528 161.339 63.0532 161.494ZM68.5573 165.926C67.8398 165.555 67.4055 165.006 67.2556 164.278C67.1133 163.554 67.2856 162.724 67.7745 161.787C68.2401 160.895 68.8264 160.296 69.533 159.994C70.2503 159.685 70.9508 159.708 71.6314 160.059C72.1446 160.324 72.4498 160.71 72.5484 161.216L73.6308 159.142L75.3958 159.232L71.2624 167.156L69.8342 166.419L70.0458 166.013C69.6183 166.246 69.1212 166.218 68.5573 165.926ZM69.5041 164.674C69.9427 164.9 70.3471 164.919 70.716 164.729L71.8725 162.511C71.8054 162.086 71.5606 161.764 71.135 161.546C70.7767 161.36 70.4278 161.351 70.0887 161.521C69.7608 161.686 69.4654 162.02 69.2018 162.525C68.9465 163.015 68.8411 163.449 68.8864 163.824C68.9388 164.205 69.1453 164.487 69.5041 164.674ZM47.3297 176.633C46.6123 176.263 46.0875 175.754 45.7544 175.109C45.4222 174.464 45.3181 173.755 45.4415 172.984L47.0557 173.176C47.0336 173.628 47.1109 174.04 47.2899 174.411C47.4689 174.783 47.7402 175.062 48.1061 175.251C48.4868 175.448 48.829 175.523 49.1337 175.475C49.4446 175.431 49.6781 175.26 49.8338 174.959C49.9149 174.806 49.9486 174.652 49.9358 174.497C49.9244 174.342 49.8547 174.172 49.7294 173.986C49.6033 173.8 49.484 173.645 49.3713 173.523C49.2706 173.396 49.1074 173.218 48.8812 172.99C48.627 172.729 48.435 172.528 48.3051 172.386C48.182 172.248 48.0284 172.043 47.8444 171.772C47.6599 171.5 47.5391 171.261 47.4794 171.054C47.4246 170.84 47.4021 170.587 47.4156 170.296C47.4384 170.002 47.5261 169.709 47.6787 169.416C47.9922 168.815 48.4875 168.435 49.1661 168.275C49.8482 168.107 50.5893 168.229 51.3876 168.642C52.0466 168.982 52.5129 169.432 52.7881 169.992C53.07 170.557 53.1469 171.139 53.0185 171.742L51.4603 171.495C51.5014 170.828 51.2039 170.33 50.5664 170.002C50.2444 169.835 49.9568 169.77 49.7053 169.807C49.4645 169.841 49.2835 169.975 49.1614 170.209C49.0811 170.362 49.0816 170.539 49.1636 170.74C49.2491 170.932 49.351 171.101 49.471 171.247C49.5941 171.385 49.7916 171.594 50.0642 171.874C50.2743 172.094 50.4357 172.266 50.5484 172.388C50.6607 172.511 50.8092 172.69 50.9934 172.924C51.1781 173.159 51.3053 173.369 51.376 173.554C51.4544 173.743 51.5231 173.96 51.5812 174.204C51.651 174.444 51.6596 174.695 51.6074 174.956C51.5584 175.21 51.4655 175.468 51.3279 175.731C50.9505 176.456 50.3894 176.89 49.6445 177.036C48.9072 177.183 48.1356 177.05 47.3297 176.633ZM55.9783 180.113C55.247 180.393 54.4817 180.328 53.6839 179.916C52.8857 179.503 52.3916 178.919 52.2007 178.161C52.0099 177.403 52.1539 176.566 52.631 175.652C53.1036 174.745 53.7092 174.147 54.4449 173.857C55.1883 173.574 55.9558 173.635 56.7464 174.044C57.5379 174.452 58.0253 175.039 58.2122 175.805C58.4062 176.573 58.2667 177.412 57.7927 178.319C57.3161 179.234 56.711 179.831 55.9783 180.113ZM54.399 178.544C54.7573 178.729 55.1102 178.739 55.4565 178.575C55.8072 178.402 56.1088 178.071 56.365 177.58C56.6207 177.091 56.719 176.654 56.6588 176.269C56.5992 175.886 56.3891 175.601 56.0313 175.416C55.6793 175.234 55.3233 175.231 54.9614 175.407C54.6116 175.579 54.3104 175.907 54.0591 176.389C53.8069 176.872 53.7113 177.306 53.771 177.69C53.8383 178.077 54.0484 178.362 54.399 178.544ZM61.1799 183.622L62.7834 180.549C63.0202 180.095 63.1109 179.724 63.0573 179.436C63.01 179.152 62.8182 178.923 62.4815 178.748C61.7712 178.381 61.1939 178.622 60.7521 179.471L59.1371 182.566L57.7098 181.829L60.6348 176.22L62.0634 176.958L61.7882 177.484C62.3762 177.231 62.9924 177.271 63.6366 177.603C64.1929 177.891 64.5658 178.306 64.756 178.851C64.9581 179.391 64.8557 180.05 64.4514 180.825L62.608 184.359L61.1799 183.622ZM65.0857 188.426L64.9132 186.831C65.7198 187.175 66.3038 187.336 66.6668 187.32C67.0326 187.313 67.3178 187.113 67.5241 186.718L67.6039 186.564C67.1703 186.702 66.6926 186.636 66.1727 186.367C65.4772 186.009 65.0483 185.466 64.8873 184.743C64.7297 184.01 64.897 183.173 65.389 182.229C65.8551 181.337 66.4378 180.736 67.1376 180.429C67.8477 180.118 68.5514 180.142 69.2473 180.502C69.7452 180.759 70.0689 181.108 70.2207 181.549L70.375 181.252L71.8031 181.99L69.2724 186.841C68.7503 187.843 68.1875 188.467 67.5847 188.714C66.986 188.971 66.1525 188.874 65.0857 188.426ZM67.1195 185.115C67.5509 185.338 67.9554 185.357 68.3319 185.171L69.4883 182.953C69.392 182.513 69.1463 182.191 68.7504 181.987C68.3921 181.801 68.0432 181.793 67.7041 181.962C67.3762 182.127 67.0808 182.461 66.8176 182.967C66.5694 183.442 66.4662 183.872 66.5079 184.256C66.5493 184.639 66.7527 184.926 67.1195 185.115ZM72.314 189.54C71.8606 189.307 71.4758 188.992 71.1612 188.597C70.8469 188.202 70.6605 187.795 70.6001 187.374L71.9632 187.06C72.156 187.67 72.4897 188.098 72.9665 188.345C73.53 188.636 73.8974 188.617 74.0698 188.288C74.1496 188.134 74.1368 187.97 74.0331 187.795C73.9405 187.618 73.7413 187.357 73.4378 187.014C72.8857 186.45 72.5269 185.953 72.36 185.524C72.1979 185.087 72.2362 184.637 72.4774 184.177C72.7326 183.687 73.1268 183.403 73.6597 183.325C74.1975 183.24 74.7592 183.349 75.3446 183.652C76.1941 184.09 76.7222 184.744 76.9291 185.613L75.5667 185.899C75.394 185.41 75.1097 185.064 74.7146 184.859C74.2382 184.613 73.9289 184.629 73.7829 184.907C73.6608 185.141 73.909 185.557 74.5266 186.155C75.0133 186.648 75.3451 187.116 75.5224 187.561C75.7032 187.998 75.6615 188.469 75.3983 188.975C75.1162 189.516 74.6995 189.835 74.1465 189.93C73.5993 190.019 72.9879 189.889 72.314 189.54Z" fill="#F8F8F8"/>
<path d="M77.4272 136.172C69.5638 135.247 57.9417 132.43 61.3958 124.811C63.9243 119.237 63.4835 120.625 65.8486 116.226C67.4599 113.23 71.7841 111.258 75.0069 111.447C84.3152 114.395 75.6337 120.087 82.312 123.95C89.2206 127.519 82.9702 136.373 77.4272 136.172Z" fill="#20E9BD"/>
<path d="M105.693 185.719C105.169 185.627 104.623 185.978 104.473 186.503C103.38 190.347 100.945 197.296 96.9128 200.664C91.5896 205.11 86.9748 203.451 84.4315 200.417C80.5476 195.784 83.0588 190.892 86.3886 188.109C93.6252 182.067 106.25 182.899 106.377 182.908C106.913 182.947 107.426 182.547 107.521 182.014C107.617 181.482 107.26 181.019 106.724 180.98C106.586 180.969 103.303 180.741 99.0189 181.311C93.1995 182.086 88.5503 183.897 85.2018 186.694C80.8236 190.351 78.3999 196.419 82.8542 201.733C84.9336 204.213 87.5989 205.447 90.5606 205.3C93.0861 205.175 95.7631 204.032 98.1001 202.081C102.367 198.517 104.954 191.825 106.371 186.839C106.521 186.314 106.217 185.812 105.693 185.719Z" fill="#20E9BD"/>
<path d="M99.8748 176.852C101.161 175.778 102.243 173.984 103.091 171.522C103.7 169.753 103.96 168.288 103.971 168.226C104.063 167.693 103.704 167.232 103.167 167.196C102.63 167.159 102.118 167.561 102.025 168.094C101.766 169.577 100.66 173.787 98.6876 175.435C98.1005 175.926 96.0536 177.369 94.3726 175.363C93.0365 173.769 93.8528 172.122 95.0617 171.111C96.0502 170.286 97.4287 169.703 99.1597 169.378C99.7014 169.276 100.104 168.768 100.055 168.244C100.006 167.72 99.528 167.378 98.9849 167.479C96.881 167.874 95.1621 168.62 93.8754 169.694C92.8096 170.585 92.0779 171.711 91.8151 172.867C91.6003 173.816 91.5954 175.247 92.7966 176.68C94.8683 179.152 97.8446 178.548 99.8748 176.852Z" fill="#20E9BD"/>
<path d="M124.501 188.681C124.594 188.15 124.237 187.689 123.703 187.651C123.621 187.644 121.659 187.508 119.112 187.847C115.623 188.312 112.827 189.405 110.8 191.098C109.363 192.298 108.378 193.812 108.026 195.361C107.613 197.173 108.071 198.935 109.346 200.459C112.122 203.77 116.111 202.957 118.835 200.683C122.966 197.232 124.44 189.028 124.501 188.681ZM110.923 199.142C109.555 197.51 109.116 194.912 111.987 192.514C115.156 189.868 120.206 189.559 122.345 189.555C121.839 191.754 120.392 196.974 117.647 199.266C115.766 200.838 113.01 201.631 110.923 199.142Z" fill="#20E9BD"/>
<path d="M48.7868 90.6082L-12.2314 59.0858C-18.9711 55.6046 -27.283 58.2416 -30.7962 64.977L-65.7835 132.05C-69.2975 138.784 -66.6818 147.068 -59.9416 150.548L1.07679 182.071C7.8166 185.553 16.1283 182.916 19.6418 176.181L54.6292 109.108C58.1424 102.372 55.5269 94.0902 48.7868 90.6082Z" fill="#FCB0B4"/>
<path d="M11.1386 148.956C18.9318 150.353 30.3628 153.867 26.4549 161.263C23.5961 166.674 24.1186 165.315 21.4934 169.563C19.7043 172.456 15.2687 174.165 12.0628 173.782C2.94894 170.277 11.9585 165.119 5.52522 160.86C-1.15543 156.88 5.61757 148.421 11.1386 148.956Z" fill="#DE4D86"/>
<path d="M7.28896 98.811C6.73315 98.524 6.29986 98.114 5.99178 97.5841C5.68676 97.0448 5.55258 96.4465 5.5897 95.7879L7.20021 95.8542C7.20706 96.5902 7.48413 97.1011 8.03276 97.385C8.80183 97.7822 9.44849 97.4786 9.9714 96.4761L12.5185 91.593L14.0014 92.3583L11.3851 97.3743C11.1135 97.8942 10.7968 98.3058 10.4337 98.6108C10.0809 98.9117 9.71771 99.0911 9.34426 99.1489C8.97036 99.2058 8.61169 99.2067 8.27004 99.1507C7.93775 99.091 7.61087 98.9781 7.28896 98.811ZM16.1795 102.415C15.4473 102.696 14.682 102.63 13.8842 102.219C13.086 101.806 12.5914 101.221 12.4015 100.462C12.2111 99.7053 12.3542 98.8692 12.8308 97.9542C13.3044 97.0464 13.9095 96.4497 14.6452 96.1602C15.3891 95.8756 16.1556 95.9374 16.9467 96.347C17.7373 96.7556 18.2265 97.3414 18.4134 98.107C18.6061 98.8752 18.4665 99.7139 17.9939 100.621C17.5159 101.536 16.9113 102.133 16.1795 102.415ZM14.5993 100.847C14.9585 101.032 15.3106 101.042 15.6564 100.877C16.0075 100.705 16.31 100.374 16.5662 99.8829C16.8219 99.3935 16.9193 98.9567 16.8592 98.5721C16.7995 98.1884 16.5894 97.9037 16.2311 97.7181C15.8796 97.537 15.5231 97.5334 15.1617 97.7096C14.8124 97.8808 14.5107 98.2096 14.2594 98.6922C14.0072 99.1753 13.9116 99.6089 13.9713 99.9927C14.0386 100.38 14.2474 100.665 14.5993 100.847ZM17.3948 106.568L19.4022 104.805L20.1791 98.1828L21.6401 98.938L21.1811 102.811C21.1633 103.005 21.1277 103.207 21.0765 103.412C21.1217 103.362 21.2669 103.218 21.5111 102.981L24.4304 100.38L25.8908 101.134L18.8782 107.334L17.3948 106.568ZM28.1085 103.868L25.8343 108.225L24.4071 107.487L26.6799 103.13L25.9001 102.727L26.5535 101.476L27.3333 101.879L27.7795 101.023C28.2486 100.122 28.9447 99.9115 29.8673 100.388C30.3437 100.633 30.7127 100.941 30.9762 101.309L30.3695 102.473C30.1196 102.185 29.8842 101.985 29.6651 101.872C29.394 101.732 29.1922 101.79 29.0577 102.046L28.7606 102.617L29.9688 103.241L29.3162 104.492L28.1085 103.868ZM31.4513 111.127L31.726 110.599C31.1456 110.857 30.5295 110.817 29.8776 110.481C29.3289 110.197 28.9555 109.781 28.7573 109.233C28.5591 108.685 28.6615 108.027 29.0623 107.259L30.9053 103.725L32.3339 104.463L30.7308 107.535C30.4971 107.982 30.4023 108.351 30.4461 108.642C30.5001 108.931 30.6951 109.162 31.0327 109.335C31.7425 109.702 32.3194 109.462 32.7621 108.613L34.3767 105.518L35.8046 106.256L32.8785 111.864L31.4513 111.127ZM34.5792 112.742L38.3636 105.488L40.1408 105.556L36.0069 113.48L34.5792 112.742ZM-1.68324 115.851C-2.13625 115.616 -2.52098 115.301 -2.8352 114.907C-3.14987 114.512 -3.33719 114.104 -3.39669 113.683L-2.03409 113.371C-1.84124 113.981 -1.50664 114.409 -1.03119 114.655C-0.467291 114.946 -0.0993813 114.926 0.0730216 114.597C0.15238 114.444 0.140417 114.28 0.0366927 114.105C-0.056322 113.927 -0.255041 113.667 -0.559932 113.324C-1.11111 112.759 -1.47037 112.263 -1.63683 111.833C-1.79976 111.396 -1.76018 110.948 -1.52034 110.486C-1.26417 109.996 -0.870049 109.712 -0.336633 109.635C0.199843 109.55 0.761934 109.659 1.34782 109.961C2.19682 110.401 2.72495 111.054 2.93136 111.922L1.56991 112.208C1.3972 111.72 1.11331 111.374 0.717324 111.169C0.241871 110.923 -0.0688337 110.939 -0.213444 111.217C-0.336467 111.451 -0.0887262 111.867 0.529785 112.464C1.01604 112.959 1.34736 113.426 1.52466 113.871C1.70593 114.308 1.66517 114.779 1.4015 115.284C1.11844 115.825 0.701772 116.144 0.150165 116.24C-0.397474 116.328 -1.00891 116.199 -1.68324 115.851ZM6.43732 119.056C5.70508 119.337 4.93894 119.272 4.14114 118.86C3.34377 118.447 2.84924 117.862 2.65841 117.104C2.46759 116.346 2.61205 115.51 3.08866 114.595C3.56219 113.687 4.16729 113.091 4.90305 112.801C5.646 112.517 6.41345 112.578 7.20407 112.987C7.99515 113.396 8.48343 113.983 8.67029 114.748C8.86387 115.516 8.72435 116.355 8.25082 117.263C7.77376 118.177 7.16911 118.774 6.43732 119.056ZM4.85717 117.487C5.21544 117.673 5.56838 117.683 5.91509 117.518C6.26443 117.346 6.56695 117.015 6.82312 116.524C7.07974 116.034 7.17663 115.597 7.11696 115.213C7.05684 114.828 6.84722 114.545 6.48805 114.359C6.13741 114.178 5.78005 114.175 5.41956 114.35C5.06932 114.522 4.76811 114.849 4.51726 115.333C4.26506 115.816 4.16857 116.25 4.22779 116.633C4.29643 117.021 4.50518 117.305 4.85717 117.487ZM11.6375 122.565L13.2411 119.491C13.477 119.038 13.5686 118.667 13.515 118.379C13.4677 118.094 13.2763 117.866 12.9392 117.691C12.2285 117.325 11.652 117.566 11.2102 118.415L9.59476 121.509L8.16751 120.772L11.0938 115.164L12.521 115.901L12.2464 116.428C12.8344 116.175 13.4496 116.215 14.0947 116.547C14.6506 116.834 15.024 117.25 15.2145 117.794C15.4149 118.335 15.3134 118.992 14.9095 119.768L13.0661 123.303L11.6375 122.565ZM15.5438 127.369L15.3713 125.775C16.1775 126.117 16.7619 126.28 17.1245 126.262C17.4898 126.257 17.7759 126.056 17.9818 125.661L18.062 125.508C17.6275 125.646 17.1507 125.58 16.6308 125.311C15.9349 124.952 15.5064 124.41 15.3454 123.686C15.1878 122.954 15.3551 122.117 15.8471 121.173C16.3136 120.28 16.8959 119.68 17.5953 119.372C18.3059 119.062 19.0095 119.086 19.705 119.444C20.2024 119.703 20.527 120.051 20.6784 120.492L20.8327 120.195L22.2608 120.932L19.7305 125.784C19.2076 126.787 18.6451 127.41 18.0423 127.657C17.4432 127.915 16.6106 127.818 15.5438 127.369ZM17.5771 124.058C18.0086 124.281 18.4135 124.301 18.7895 124.114L19.946 121.896C19.8502 121.457 19.6045 121.135 19.2085 120.931C18.8502 120.745 18.5013 120.736 18.1618 120.905C17.8343 121.071 17.539 121.405 17.2757 121.911C17.0271 122.385 16.9243 122.816 16.9656 123.199C17.0074 123.583 17.2108 123.87 17.5771 124.058ZM22.7721 128.484C22.3182 128.249 21.9335 127.935 21.6202 127.54C21.3046 127.145 21.1173 126.738 21.0587 126.317L22.4213 126.004C22.6141 126.614 22.9479 127.042 23.4242 127.288C23.9881 127.58 24.3551 127.56 24.5266 127.231C24.6078 127.078 24.5958 126.913 24.4912 126.739C24.3982 126.56 24.1994 126.3 23.8954 125.957C23.3434 125.393 22.9841 124.897 22.8181 124.468C22.6556 124.03 22.6943 123.581 22.9355 123.121C23.1903 122.629 23.5849 122.346 24.1187 122.269C24.6552 122.183 25.2164 122.293 25.8023 122.595C26.6522 123.034 27.1803 123.688 27.3858 124.556L26.0244 124.842C25.8517 124.353 25.5687 124.007 25.1727 123.802C24.6964 123.557 24.3856 123.573 24.241 123.85C24.1189 124.084 24.3667 124.5 24.9847 125.099C25.4714 125.592 25.8032 126.06 25.98 126.504C26.1604 126.942 26.1197 127.413 25.8569 127.917C25.5738 128.459 25.1563 128.778 24.6047 128.874C24.057 128.962 23.4465 128.832 22.7721 128.484Z" fill="#F8F8F8"/>
</svg>
