<svg width="709" height="726" viewBox="0 0 709 726" fill="none" xmlns="http://www.w3.org/2000/svg">
<g opacity="0.85" filter="url(#filter0_d_958_80)">
<path d="M480.194 470.775L358.361 439.414C344.904 435.95 331.581 443.574 328.603 456.443L298.951 584.602C295.973 597.471 304.469 610.711 317.926 614.176L439.759 645.537C453.216 649.001 466.539 641.377 469.516 628.508L499.169 500.349C502.146 487.48 493.651 474.24 480.194 470.775Z" fill="#A6E1FA"/>
<path d="M435.116 459.171C446.425 468.871 409.22 502.999 400.769 490.449C384.986 467.007 370.834 463.609 368.463 459.912C364.546 453.807 370.896 444.994 376.635 444.117C382.726 445.684 393.043 448.34 400.393 450.232C414.187 453.783 416.232 454.309 435.116 459.171Z" fill="#00BBF9"/>
<path d="M469.688 626.556C460.156 637.064 423.142 599.508 435.753 591.896C459.307 577.68 462.185 564.135 465.905 562.007C472.048 558.491 481.459 565.038 482.627 570.631C481.279 576.456 478.996 586.322 477.37 593.351C474.318 606.542 473.866 608.497 469.688 626.556Z" fill="#00BBF9"/>
<path d="M328.252 521.779L331.65 507.099L338.228 508.792C339.164 509.033 339.944 509.375 340.57 509.818C341.211 510.264 341.676 510.762 341.968 511.311C342.259 511.859 342.438 512.425 342.505 513.004C342.572 513.584 342.537 514.175 342.397 514.777C342.116 515.993 341.421 516.955 340.312 517.661C339.218 518.373 337.809 518.507 336.084 518.062L332.465 517.131L331.213 522.541L328.252 521.779ZM336.836 515.412C337.524 515.588 338.079 515.532 338.502 515.24C338.929 514.935 339.204 514.517 339.328 513.986C339.446 513.469 339.391 512.973 339.16 512.499C338.929 512.024 338.455 511.695 337.739 511.51L333.989 510.546L333.086 514.446L336.836 515.412ZM350.255 526.132C349.105 526.888 347.733 527.061 346.139 526.65C344.546 526.24 343.404 525.419 342.712 524.19C342.02 522.96 341.877 521.471 342.281 519.725C342.682 517.991 343.46 516.739 344.614 515.969C345.782 515.203 347.157 515.024 348.735 515.431C350.314 515.836 351.447 516.661 352.136 517.905C352.839 519.153 352.99 520.643 352.589 522.377C352.184 524.125 351.407 525.377 350.255 526.132ZM346.746 524.029C347.462 524.213 348.085 524.099 348.614 523.688C349.147 523.261 349.521 522.58 349.738 521.643C349.954 520.707 349.92 519.92 349.633 519.283C349.347 518.646 348.845 518.237 348.129 518.052C347.427 517.871 346.801 517.999 346.25 518.435C345.719 518.861 345.345 519.535 345.132 520.457C344.919 521.381 344.955 522.16 345.242 522.797C345.543 523.438 346.044 523.848 346.746 524.029ZM359.282 530.033C358.259 529.77 357.541 529.222 357.129 528.391L356.266 532.123L353.129 532.627L356.578 517.716L359.429 518.45L359.25 519.226C359.979 518.687 360.862 518.552 361.9 518.819C363.304 519.18 364.307 519.965 364.911 521.172C365.532 522.369 365.637 523.855 365.227 525.63C364.829 527.35 364.082 528.603 362.987 529.386C361.892 530.171 360.656 530.387 359.282 530.033ZM359.45 527.298C360.166 527.483 360.774 527.365 361.274 526.946C361.789 526.531 362.155 525.847 362.376 524.896C362.589 523.974 362.56 523.195 362.288 522.563C362.034 521.92 361.549 521.507 360.833 521.322C359.985 521.104 359.268 521.223 358.683 521.679L357.702 525.916C357.946 526.601 358.529 527.062 359.45 527.298ZM326.853 556.251C325.712 555.957 324.745 555.486 323.949 554.836C323.173 554.177 322.598 553.415 322.226 552.548C321.868 551.686 321.658 550.78 321.6 549.832C321.54 548.883 321.626 547.913 321.855 546.92C322.068 545.998 322.415 545.139 322.893 544.344C323.374 543.534 323.964 542.826 324.661 542.221C325.374 541.619 326.221 541.207 327.201 540.986C328.199 540.754 329.255 540.781 330.366 541.067C331.725 541.417 332.755 541.986 333.456 542.774C334.174 543.551 334.737 544.504 335.142 545.629L332.203 546.384C331.64 544.935 330.817 544.071 329.735 543.794C329.063 543.62 328.435 543.621 327.852 543.798C327.287 543.963 326.815 544.264 326.435 544.7C326.059 545.121 325.742 545.588 325.485 546.099C325.244 546.6 325.058 547.137 324.925 547.71C324.608 549.081 324.648 550.313 325.046 551.408C325.442 552.503 326.256 553.208 327.484 553.525C328.229 553.716 328.911 553.647 329.529 553.318C330.164 552.992 330.555 552.5 330.708 551.843L330.746 551.675L328.137 551.004L328.757 548.319L334.394 549.769L333.894 551.93C333.474 553.748 332.611 555.029 331.308 555.775C330.004 556.521 328.519 556.679 326.853 556.251ZM339.986 559.631C338.363 559.214 337.199 558.387 336.492 557.154C335.786 555.92 335.637 554.423 336.045 552.662C336.443 550.942 337.227 549.699 338.394 548.933C339.577 548.171 340.973 547.998 342.581 548.411C344.044 548.787 345.135 549.528 345.856 550.632C346.579 551.722 346.75 553.091 346.369 554.742C346.209 555.427 346.056 555.957 345.907 556.334L338.604 554.454C338.507 555.14 338.64 555.737 339.003 556.245C339.384 556.743 339.895 557.074 340.539 557.24C341.533 557.496 342.423 557.332 343.208 556.749L344.569 558.9C343.253 559.835 341.725 560.078 339.986 559.631ZM339.161 552.153L343.743 553.332C343.798 552.694 343.668 552.15 343.354 551.699C343.055 551.252 342.613 550.952 342.028 550.802C340.596 550.433 339.64 550.884 339.161 552.153ZM354.552 563.114L355.911 557.242C356.111 556.375 356.096 555.704 355.864 555.231C355.648 554.76 355.203 554.438 354.532 554.265C353.114 553.9 352.217 554.528 351.841 556.149L350.473 562.064L347.622 561.33L350.101 550.614L352.952 551.348L352.72 552.354C353.63 551.699 354.728 551.538 356.015 551.869C357.126 552.155 357.977 552.73 358.567 553.593C359.175 554.446 359.308 555.613 358.965 557.095L357.402 563.848L354.552 563.114ZM360.579 564.666L363.058 553.949L365.909 554.683L365.691 555.626C366.27 554.931 367.057 554.711 368.05 554.967C368.884 555.182 369.581 555.651 370.143 556.372L369.17 558.767C368.653 558.188 368.021 557.804 367.276 557.613C365.99 557.281 365.168 557.885 364.813 559.422L363.43 565.399L360.579 564.666ZM374.08 568.407C372.457 567.99 371.293 567.164 370.587 565.931C369.881 564.697 369.73 563.199 370.139 561.438C370.537 559.719 371.32 558.475 372.489 557.71C373.672 556.948 375.067 556.774 376.675 557.188C378.138 557.564 379.229 558.304 379.949 559.408C380.673 560.498 380.844 561.868 380.462 563.518C380.304 564.202 380.15 564.734 380.001 565.109L372.699 563.23C372.601 563.917 372.734 564.513 373.097 565.022C373.477 565.519 373.99 565.851 374.633 566.016C375.627 566.273 376.517 566.109 377.302 565.526L378.664 567.676C377.348 568.612 375.819 568.855 374.08 568.407ZM373.254 560.929L377.838 562.109C377.892 561.471 377.762 560.926 377.448 560.476C377.149 560.028 376.708 559.729 376.123 559.578C374.689 559.209 373.733 559.66 373.254 560.929Z" fill="#F8F8F8"/>
<path d="M470.695 503.467C468.267 501.004 465.101 499.707 461.947 499.599C459.465 499.514 456.993 500.168 454.892 501.57L453.948 500.613L450.973 503.483L451.917 504.44C450.1 506.968 449.427 510.086 449.894 513.114L435.756 530.74L437.658 532.667L435.541 534.711C434.137 536.064 433.376 537.908 433.396 539.901C433.416 541.894 434.216 543.791 435.647 545.241C438.611 548.245 443.386 548.409 446.291 545.606L457.518 534.774C458.783 533.553 460.861 533.625 462.151 534.932C463.442 536.24 463.463 538.297 462.198 539.518L453.239 548.16L456.275 551.236L465.233 542.593C468.138 539.79 468.09 535.066 465.126 532.062C462.162 529.058 457.387 528.895 454.482 531.698L443.256 542.53C441.991 543.75 439.912 543.679 438.622 542.371C438.001 541.743 437.654 540.916 437.646 540.047C437.637 539.176 437.967 538.373 438.576 537.787L440.693 535.744L442.433 537.507L460.762 523.843C461.237 523.914 461.715 523.961 462.193 523.977C464.676 524.063 467.145 523.406 469.249 522.006L470.193 522.963L473.168 520.093L472.224 519.137C475.557 514.496 475.036 507.87 470.695 503.467ZM445.082 532.348C443.987 533.405 442.193 533.344 441.076 532.211C439.958 531.079 439.94 529.304 441.036 528.248C442.13 527.19 443.925 527.252 445.042 528.385C446.16 529.517 446.177 531.292 445.082 532.348Z" fill="#00BBF9"/>
<path d="M119.791 350.477C123.006 336.618 137.359 328.402 151.85 332.125L217.445 348.977L263.46 360.737L283.386 366.473C297.433 370.516 306.125 384.469 303.031 398.013L297.875 420.584L287.457 466.675L271.453 535.683C268.239 549.542 253.886 557.759 239.395 554.036L108.203 520.329C93.7114 516.607 84.5695 502.353 87.7845 488.494L119.791 350.477Z" fill="#D3BCF1"/>
<path d="M151.472 384.876C136.159 386.331 112.788 385.798 115.443 370.332C117.386 359.014 117.26 361.757 119.491 352.677C121.012 346.492 128.174 341.108 134.354 340.16C153.424 341.866 139.923 355.876 154.492 360.329C169.345 364.145 162.039 383.018 151.472 384.876Z" fill="#9B5DE5"/>
<path d="M271.795 533.75C261.524 545.07 221.682 504.649 235.267 496.446C260.643 481.126 263.75 466.539 267.757 464.245C274.375 460.457 284.507 467.5 285.761 473.523C284.306 479.796 281.842 490.421 280.087 497.991C276.793 512.197 276.304 514.301 271.795 533.75Z" fill="#9B5DE5"/>
<path d="M125.828 422.882C124.584 422.563 123.552 422.05 122.731 421.345C121.914 420.625 121.338 419.798 121.004 418.867C120.673 417.921 120.488 416.955 120.449 415.972C120.426 414.994 120.535 413.985 120.776 412.946C120.999 411.982 121.342 411.081 121.803 410.242C122.268 409.388 122.855 408.622 123.563 407.942C124.274 407.247 125.152 406.771 126.196 406.513C127.244 406.24 128.381 406.261 129.61 406.577C131.09 406.957 132.252 407.622 133.099 408.573C133.962 409.529 134.49 410.558 134.685 411.661L131.54 412.17C131.25 411.409 130.911 410.82 130.524 410.401C130.137 409.982 129.605 409.686 128.929 409.512C128.062 409.29 127.272 409.39 126.557 409.813C125.861 410.223 125.323 410.78 124.944 411.48C124.569 412.165 124.281 412.937 124.082 413.795C123.764 415.165 123.79 416.456 124.159 417.667C124.545 418.883 125.328 419.642 126.509 419.947C127.658 420.241 128.815 419.821 129.979 418.684L132.662 420.498C130.829 422.788 128.551 423.582 125.828 422.882ZM134.638 424.882L138.1 409.954L141.49 409.365L137.708 425.671L134.638 424.882ZM148.217 428.371L148.411 427.536C147.469 428.076 146.344 428.178 145.038 427.842C143.731 427.506 142.737 426.9 142.056 426.023C141.391 425.15 141.2 424.103 141.483 422.884C141.773 421.635 142.457 420.805 143.536 420.397C144.631 419.992 145.84 419.96 147.162 420.299C148.217 420.57 149.095 420.987 149.799 421.551L149.936 420.964C150.218 419.744 149.635 418.948 148.187 418.576C146.864 418.236 145.532 418.301 144.189 418.77L143.794 416.155C145.405 415.612 147.155 415.583 149.044 416.068C149.689 416.234 150.244 416.432 150.707 416.663C151.187 416.898 151.661 417.228 152.13 417.651C152.599 418.075 152.901 418.639 153.038 419.344C153.194 420.038 153.164 420.852 152.948 421.786L151.24 429.148L148.217 428.371ZM146.225 425.418C147.185 425.665 148.1 425.565 148.971 425.119L149.26 423.878C148.658 423.452 147.939 423.131 147.105 422.916C146.413 422.739 145.827 422.708 145.35 422.824C144.876 422.926 144.587 423.203 144.482 423.654C144.395 424.032 144.498 424.376 144.792 424.692C145.102 425.01 145.579 425.252 146.225 425.418ZM158.465 431.292C157.489 431.04 156.603 430.614 155.81 430.011C155.015 429.408 154.455 428.73 154.129 427.976L156.542 426.849C157.217 427.9 158.065 428.557 159.089 428.82C160.301 429.131 160.985 428.948 161.142 428.27C161.216 427.954 161.11 427.656 160.825 427.375C160.559 427.083 160.051 426.682 159.302 426.17C157.975 425.35 157.045 424.577 156.512 423.85C155.984 423.108 155.83 422.263 156.05 421.314C156.284 420.305 156.884 419.622 157.852 419.265C158.822 418.891 159.937 418.867 161.196 419.191C163.022 419.659 164.352 420.656 165.183 422.177L162.756 423.253C162.182 422.419 161.471 421.894 160.62 421.675C159.597 421.412 159.019 421.566 158.887 422.139C158.775 422.621 159.454 423.29 160.923 424.145C162.092 424.861 162.956 425.593 163.516 426.343C164.08 427.079 164.241 427.966 163.999 429.004C163.742 430.119 163.115 430.875 162.123 431.274C161.132 431.658 159.913 431.663 158.465 431.292ZM170.134 434.29C169.158 434.038 168.272 433.612 167.479 433.009C166.684 432.406 166.124 431.728 165.798 430.974L168.211 429.847C168.886 430.898 169.734 431.555 170.758 431.818C171.969 432.128 172.654 431.946 172.811 431.268C172.885 430.952 172.779 430.654 172.494 430.373C172.228 430.082 171.72 429.68 170.971 429.168C169.644 428.348 168.714 427.575 168.181 426.848C167.653 426.106 167.499 425.261 167.719 424.312C167.953 423.303 168.553 422.62 169.521 422.263C170.491 421.89 171.606 421.865 172.865 422.189C174.691 422.657 176.021 423.654 176.852 425.175L174.425 426.251C173.851 425.417 173.14 424.892 172.289 424.673C171.266 424.41 170.688 424.565 170.555 425.137C170.444 425.619 171.123 426.288 172.592 427.143C173.761 427.859 174.625 428.591 175.185 429.341C175.748 430.076 175.91 430.964 175.668 432.002C175.411 433.117 174.784 433.873 173.792 434.272C172.801 434.656 171.582 434.662 170.134 434.29ZM182.424 423.496C181.936 423.37 181.549 423.096 181.265 422.672C180.998 422.236 180.919 421.785 181.028 421.319C181.135 420.851 181.401 420.497 181.825 420.255C182.248 420.013 182.711 419.956 183.215 420.086C183.719 420.215 184.106 420.49 184.375 420.91C184.648 421.315 184.729 421.759 184.617 422.241C184.505 422.722 184.238 423.085 183.815 423.327C183.391 423.569 182.928 423.626 182.424 423.496ZM177.899 435.998L180.575 424.457L183.645 425.245L180.969 436.786L177.899 435.998ZM189.388 439.236C187.704 438.803 186.489 437.925 185.746 436.602C185.003 435.278 184.848 433.674 185.285 431.793C185.718 429.926 186.556 428.578 187.799 427.748C189.058 426.923 190.522 426.725 192.191 427.154C194.789 427.822 196.203 429.382 196.435 431.834L193.292 432.008C193.129 430.913 192.567 430.242 191.606 429.995C190.867 429.805 190.2 429.945 189.607 430.414C189.031 430.889 188.629 431.615 188.402 432.593C188.175 433.573 188.214 434.412 188.518 435.112C188.827 435.798 189.335 436.231 190.044 436.414C191.098 436.684 191.936 436.309 192.556 435.289L195.291 436.876C193.985 439.125 192.018 439.912 189.388 439.236ZM118.006 458.122C116.778 457.806 115.736 457.299 114.88 456.6C114.044 455.891 113.426 455.07 113.024 454.137C112.639 453.208 112.415 452.234 112.352 451.213C112.288 450.191 112.381 449.147 112.629 448.077C112.859 447.084 113.232 446.158 113.747 445.301C114.267 444.43 114.902 443.668 115.654 443.016C116.422 442.367 117.333 441.923 118.389 441.684C119.465 441.434 120.602 441.463 121.798 441.77C123.262 442.146 124.371 442.758 125.125 443.606C125.898 444.443 126.504 445.468 126.939 446.68L123.773 447.495C123.167 445.935 122.281 445.005 121.117 444.706C120.393 444.52 119.716 444.521 119.089 444.712C118.48 444.89 117.972 445.214 117.563 445.684C117.157 446.138 116.815 446.639 116.537 447.19C116.278 447.73 116.078 448.309 115.934 448.926C115.593 450.402 115.635 451.729 116.062 452.908C116.489 454.086 117.364 454.846 118.686 455.185C119.49 455.392 120.224 455.317 120.891 454.962C121.573 454.611 121.995 454.081 122.16 453.374L122.201 453.193L119.391 452.47L120.062 449.58L126.13 451.139L125.591 453.466C125.138 455.423 124.208 456.803 122.804 457.607C121.4 458.411 119.8 458.582 118.006 458.122ZM132.148 461.755C130.4 461.305 129.146 460.417 128.387 459.089C127.627 457.761 127.467 456.149 127.908 454.252C128.337 452.4 129.181 451.062 130.44 450.236C131.714 449.415 133.218 449.227 134.949 449.672C136.524 450.076 137.699 450.873 138.474 452.062C139.253 453.235 139.436 454.709 139.025 456.486C138.853 457.224 138.687 457.795 138.527 458.201L130.663 456.181C130.558 456.919 130.701 457.562 131.091 458.109C131.501 458.645 132.052 459.002 132.745 459.18C133.815 459.455 134.773 459.278 135.619 458.65L137.084 460.965C135.666 461.973 134.021 462.236 132.148 461.755ZM131.263 453.703L136.198 454.97C136.257 454.283 136.118 453.698 135.78 453.211C135.458 452.73 134.982 452.408 134.352 452.247C132.81 451.85 131.78 452.336 131.263 453.703ZM147.833 465.497L149.3 459.174C149.516 458.241 149.5 457.518 149.251 457.008C149.019 456.501 148.54 456.155 147.816 455.969C146.288 455.576 145.323 456.254 144.917 458L143.441 464.369L140.371 463.58L143.047 452.039L146.117 452.828L145.866 453.913C146.846 453.207 148.03 453.032 149.415 453.388C150.611 453.696 151.528 454.314 152.162 455.243C152.817 456.161 152.959 457.418 152.59 459.014L150.903 466.286L147.833 465.497ZM154.323 467.165L156.999 455.625L160.069 456.413L159.833 457.429C160.457 456.68 161.305 456.443 162.375 456.718C163.273 456.949 164.023 457.453 164.627 458.231L163.579 460.809C163.022 460.187 162.342 459.773 161.54 459.567C160.154 459.211 159.27 459.861 158.885 461.517L157.392 467.953L154.323 467.165ZM168.861 471.187C167.113 470.738 165.859 469.849 165.1 468.522C164.341 467.194 164.18 465.581 164.62 463.684C165.05 461.833 165.894 460.494 167.154 459.669C168.428 458.848 169.931 458.659 171.662 459.104C173.237 459.509 174.412 460.305 175.187 461.494C175.966 462.667 176.15 464.142 175.737 465.919C175.566 466.656 175.401 467.228 175.24 467.633L167.376 465.613C167.272 466.352 167.414 466.995 167.805 467.542C168.214 468.078 168.765 468.435 169.458 468.613C170.528 468.887 171.487 468.711 172.333 468.083L173.798 470.398C172.38 471.406 170.734 471.669 168.861 471.187ZM167.976 463.135L172.911 464.403C172.97 463.716 172.831 463.13 172.494 462.644C172.171 462.163 171.696 461.841 171.065 461.679C169.523 461.283 168.493 461.768 167.976 463.135Z" fill="#F8F8F8"/>
<path d="M217.16 370.531C212.742 371.518 210.131 375.842 211.346 380.163L212.191 383.167C212.792 385.296 215.057 386.633 217.234 386.148L218.749 385.81C218.748 386.052 218.733 386.295 218.801 386.544L221.818 397.262C215.737 399.554 212.159 405.546 213.126 412.021L214.061 417.197C214.279 418.387 215.271 419.331 216.504 419.516C217.816 419.717 219.489 421.149 220.148 423.499C220.891 426.138 219.896 428.367 218.499 428.794C217.211 429.185 216.449 430.426 216.688 431.732L217.423 435.79C218.03 439.847 220.405 443.541 223.935 445.923C227.468 448.303 231.827 449.146 235.892 448.242L236.155 448.184L237.712 453.72C238.124 455.177 239.665 456.089 241.153 455.756C241.9 455.592 242.491 455.145 242.845 454.559C243.199 453.972 243.317 453.245 243.11 452.517L241.553 446.979L241.813 446.922C245.584 446.08 248.78 443.803 250.701 440.619C250.852 440.369 250.996 440.116 251.129 439.856C252.981 436.274 253.119 432.022 251.517 428.225L249.914 424.269C249.423 423.055 248.13 422.306 246.822 422.477C245.372 422.661 243.324 421.106 242.588 418.494C241.932 416.162 242.633 414.3 243.586 413.548C244.481 412.837 244.793 411.625 244.353 410.537L242.286 405.435C239.816 399.573 233.642 395.764 227.233 396.108L224.199 385.339C224.132 385.091 223.988 384.885 223.857 384.67L225.372 384.332C226.463 384.091 227.331 383.435 227.85 382.576C228.369 381.717 228.541 380.649 228.239 379.584L227.395 376.587C226.807 374.491 225.416 372.707 223.484 371.564C221.552 370.42 219.305 370.052 217.16 370.531ZM233.774 436.75C233.42 437.336 232.83 437.784 232.083 437.948C230.594 438.28 229.053 437.368 228.641 435.911L227.59 432.179C227.182 430.722 228.058 429.271 229.546 428.939C231.039 428.606 232.581 429.518 232.989 430.976L234.039 434.708C234.246 435.436 234.128 436.163 233.774 436.75ZM240.624 429.273L241.674 433.004C241.882 433.734 241.764 434.46 241.41 435.047C241.056 435.634 240.465 436.081 239.718 436.245C238.228 436.579 236.687 435.668 236.277 434.209L235.226 430.477C234.817 429.019 235.693 427.568 237.182 427.236C238.675 426.903 240.215 427.815 240.624 429.273ZM221.997 377.79L222.444 379.377L217.191 380.549L216.748 378.962C216.347 377.546 217.201 376.132 218.648 375.809C220.095 375.486 221.6 376.377 221.997 377.79Z" fill="#9B5DE5"/>
<path d="M331.898 143.053L210.065 111.689C196.608 108.225 183.285 115.849 180.307 128.718L150.657 256.877C147.68 269.746 156.175 282.987 169.633 286.451L291.466 317.815C304.923 321.279 318.246 313.655 321.223 300.786L350.874 172.627C353.851 159.758 345.355 146.517 331.898 143.053Z" fill="#98F5E1"/>
<path d="M332.207 143.581C343.499 153.301 306.228 187.361 297.8 174.797C282.059 151.329 267.912 147.906 265.546 144.206C261.641 138.094 268.009 129.294 273.749 128.425C279.838 130.004 290.151 132.677 297.497 134.582C311.285 138.157 313.33 138.687 332.207 143.581Z" fill="#20E9BD"/>
<path d="M184.989 195.616C183.556 195.248 182.396 194.571 181.508 193.587C180.62 192.603 180.103 191.426 179.955 190.053L182.876 189.784C183.05 190.57 183.381 191.247 183.87 191.817C184.357 192.388 184.966 192.766 185.697 192.955C186.457 193.151 187.093 193.15 187.602 192.957C188.127 192.765 188.455 192.383 188.587 191.81C188.656 191.516 188.642 191.239 188.549 190.977C188.453 190.716 188.252 190.449 187.943 190.177C187.635 189.905 187.353 189.685 187.097 189.516C186.86 189.336 186.49 189.092 185.988 188.785C185.42 188.431 184.988 188.157 184.691 187.962C184.41 187.772 184.045 187.478 183.595 187.08C183.144 186.683 182.818 186.318 182.616 185.984C182.418 185.636 182.261 185.211 182.145 184.708C182.047 184.193 182.063 183.656 182.193 183.098C182.457 181.951 183.146 181.114 184.261 180.585C185.377 180.043 186.732 179.978 188.325 180.388C189.642 180.726 190.672 181.325 191.419 182.183C192.18 183.047 192.59 184.019 192.65 185.101L189.801 185.256C189.56 184.098 188.801 183.354 187.529 183.027C186.886 182.861 186.353 182.857 185.929 183.014C185.523 183.163 185.268 183.459 185.164 183.907C185.097 184.201 185.182 184.504 185.42 184.817C185.659 185.115 185.919 185.368 186.196 185.573C186.478 185.764 186.923 186.048 187.533 186.427C188.006 186.728 188.369 186.961 188.625 187.131C188.88 187.3 189.225 187.552 189.658 187.886C190.092 188.22 190.415 188.532 190.626 188.824C190.852 189.119 191.075 189.465 191.292 189.862C191.529 190.249 191.662 190.676 191.693 191.142C191.728 191.596 191.687 192.075 191.57 192.578C191.25 193.962 190.472 194.917 189.235 195.443C188.012 195.972 186.597 196.031 184.989 195.616ZM199.701 199.137L199.88 198.361C199.006 198.862 197.962 198.956 196.748 198.644C195.535 198.331 194.612 197.768 193.979 196.953C193.361 196.142 193.184 195.171 193.445 194.038C193.714 192.878 194.349 192.108 195.351 191.729C196.367 191.353 197.489 191.324 198.717 191.639C199.697 191.892 200.513 192.281 201.166 192.803L201.293 192.259C201.554 191.126 201.013 190.386 199.668 190.04C198.439 189.724 197.202 189.783 195.955 190.218L195.588 187.79C197.083 187.286 198.708 187.261 200.462 187.712C201.061 187.866 201.577 188.05 202.007 188.265C202.453 188.483 202.893 188.789 203.329 189.183C203.764 189.577 204.046 190.1 204.173 190.755C204.318 191.401 204.291 192.156 204.09 193.023L202.508 199.86L199.701 199.137ZM197.85 196.395C198.741 196.623 199.591 196.531 200.4 196.118L200.667 194.964C200.108 194.568 199.441 194.27 198.666 194.07C198.023 193.905 197.48 193.877 197.036 193.984C196.596 194.079 196.327 194.336 196.231 194.756C196.15 195.105 196.245 195.426 196.518 195.719C196.806 196.014 197.25 196.239 197.85 196.395ZM209.591 201.95C208.158 201.58 207.138 200.8 206.532 199.607C205.939 198.417 205.85 196.928 206.264 195.139C206.659 193.432 207.403 192.187 208.499 191.403C209.612 190.608 210.849 190.386 212.209 190.736C213.232 190.999 213.949 191.546 214.361 192.378L215.279 188.415L218.415 187.911L214.912 203.052L212.062 202.319L212.241 201.544C211.601 202.104 210.717 202.24 209.591 201.95ZM210.658 199.447C211.535 199.673 212.252 199.554 212.808 199.09L213.788 194.853C213.47 194.149 212.889 193.687 212.04 193.47C211.324 193.286 210.709 193.401 210.195 193.817C209.698 194.223 209.338 194.907 209.114 195.872C208.898 196.809 208.918 197.592 209.176 198.221C209.447 198.854 209.942 199.262 210.658 199.447ZM177.441 228.238C176.008 227.87 174.849 227.193 173.96 226.209C173.072 225.225 172.555 224.048 172.408 222.677L175.328 222.406C175.502 223.192 175.834 223.869 176.322 224.44C176.81 225.01 177.419 225.388 178.15 225.577C178.91 225.773 179.545 225.773 180.055 225.579C180.58 225.387 180.908 225.006 181.04 224.432C181.109 224.138 181.095 223.861 181 223.6C180.907 223.339 180.705 223.072 180.396 222.799C180.088 222.527 179.805 222.307 179.55 222.138C179.313 221.958 178.944 221.715 178.441 221.407C177.872 221.054 177.44 220.78 177.144 220.584C176.863 220.394 176.498 220.1 176.047 219.702C175.596 219.305 175.271 218.94 175.069 218.606C174.871 218.26 174.713 217.833 174.598 217.329C174.5 216.815 174.515 216.279 174.645 215.72C174.91 214.573 175.599 213.736 176.713 213.208C177.83 212.666 179.185 212.6 180.779 213.011C182.095 213.348 183.125 213.947 183.872 214.806C184.633 215.669 185.042 216.641 185.103 217.723L182.255 217.879C182.011 216.72 181.254 215.976 179.982 215.649C179.339 215.484 178.805 215.48 178.382 215.638C177.976 215.785 177.721 216.081 177.618 216.53C177.55 216.823 177.634 217.126 177.872 217.44C178.113 217.738 178.372 217.99 178.649 218.194C178.931 218.386 179.376 218.671 179.985 219.05C180.458 219.35 180.823 219.584 181.077 219.752C181.333 219.922 181.677 220.175 182.111 220.508C182.545 220.842 182.867 221.154 183.079 221.445C183.305 221.741 183.527 222.087 183.745 222.484C183.981 222.871 184.115 223.298 184.146 223.766C184.18 224.219 184.139 224.697 184.023 225.2C183.703 226.584 182.924 227.539 181.688 228.065C180.465 228.594 179.05 228.653 177.441 228.238ZM194.243 230.987C193.093 231.742 191.72 231.914 190.127 231.504C188.534 231.093 187.392 230.274 186.7 229.045C186.008 227.815 185.864 226.325 186.268 224.578C186.67 222.845 187.447 221.594 188.601 220.823C189.77 220.058 191.144 219.878 192.722 220.285C194.302 220.691 195.435 221.516 196.123 222.76C196.827 224.008 196.978 225.498 196.576 227.231C196.172 228.98 195.394 230.23 194.243 230.987ZM190.733 228.883C191.45 229.068 192.073 228.954 192.602 228.542C193.134 228.115 193.508 227.434 193.725 226.497C193.941 225.561 193.907 224.774 193.62 224.137C193.335 223.501 192.832 223.09 192.116 222.906C191.415 222.725 190.789 222.853 190.238 223.289C189.706 223.715 189.333 224.39 189.12 225.312C188.906 226.235 188.943 227.015 189.229 227.652C189.53 228.292 190.032 228.702 190.733 228.883ZM205.017 235.071L206.375 229.198C206.575 228.332 206.56 227.661 206.33 227.187C206.112 226.717 205.668 226.395 204.997 226.222C203.578 225.857 202.681 226.485 202.306 228.107L200.938 234.02L198.088 233.287L200.566 222.571L203.417 223.305L203.184 224.311C204.095 223.656 205.193 223.495 206.48 223.826C207.591 224.112 208.441 224.686 209.032 225.55C209.64 226.403 209.773 227.57 209.43 229.052L207.867 235.805L205.017 235.071ZM214.131 241.861L213.075 239.189C214.651 239.477 215.752 239.537 216.379 239.374C217.017 239.226 217.424 238.775 217.597 238.021L217.666 237.727C216.97 238.126 216.102 238.19 215.064 237.923C213.676 237.567 212.669 236.796 212.044 235.613C211.422 234.416 211.32 232.916 211.737 231.112C212.132 229.407 212.869 228.16 213.95 227.372C215.049 226.573 216.293 226.352 217.682 226.71C218.676 226.965 219.41 227.444 219.883 228.144L220.014 227.577L222.865 228.311L220.72 237.58C220.278 239.495 219.586 240.776 218.646 241.424C217.718 242.088 216.212 242.234 214.131 241.861ZM216.132 235.421C216.994 235.644 217.711 235.524 218.282 235.064L219.262 230.827C218.887 230.108 218.304 229.647 217.514 229.444C216.797 229.259 216.183 229.375 215.668 229.791C215.171 230.197 214.812 230.881 214.588 231.846C214.378 232.756 214.4 233.53 214.653 234.174C214.908 234.817 215.4 235.233 216.132 235.421ZM227.327 241.08C226.42 240.848 225.598 240.451 224.86 239.89C224.123 239.33 223.603 238.7 223.3 238L225.54 236.954C226.166 237.93 226.954 238.541 227.905 238.785C229.031 239.075 229.666 238.905 229.811 238.276C229.879 237.982 229.78 237.706 229.516 237.444C229.269 237.173 228.797 236.8 228.103 236.325C226.869 235.564 226.005 234.844 225.51 234.17C225.019 233.479 224.875 232.694 225.079 231.814C225.297 230.877 225.853 230.243 226.751 229.911C227.653 229.565 228.687 229.543 229.858 229.844C231.553 230.281 232.788 231.205 233.559 232.619L231.308 233.618C230.774 232.843 230.112 232.354 229.323 232.15C228.372 231.906 227.837 232.05 227.713 232.581C227.61 233.028 228.24 233.65 229.606 234.445C230.691 235.11 231.494 235.791 232.014 236.488C232.538 237.171 232.688 237.994 232.465 238.96C232.225 239.994 231.645 240.696 230.722 241.066C229.804 241.423 228.672 241.427 227.327 241.08Z" fill="#F8F8F8"/>
<path d="M209.737 160.685C195.519 162.029 173.818 161.524 176.275 147.161C178.074 136.651 177.958 139.198 180.026 130.767C181.434 125.024 188.082 120.028 193.82 119.15C211.527 120.742 198.998 133.747 212.528 137.89C226.322 141.44 219.548 158.965 209.737 160.685Z" fill="#20E9BD"/>
<path d="M282.677 235.193C281.714 235.23 280.924 236.035 280.909 236.994C280.809 243.996 279.822 256.832 274.345 264.116C267.115 273.729 258.242 272.602 252.352 268.342C243.357 261.837 245.448 252.506 249.972 246.49C259.801 233.422 282.323 230.145 282.548 230.113C283.506 229.98 284.216 229.103 284.133 228.153C284.049 227.204 283.204 226.541 282.246 226.674C281.999 226.708 276.137 227.539 268.898 230.114C259.063 233.613 251.771 238.454 247.223 244.502C241.275 252.409 239.892 263.729 250.21 271.19C255.026 274.671 260.279 275.796 265.401 274.44C269.768 273.284 273.921 270.324 277.095 266.104C282.891 258.396 284.265 245.948 284.395 236.863C284.409 235.905 283.64 235.157 282.677 235.193Z" fill="#20E9BD"/>
<path d="M268.293 222.142C270.04 219.819 271.09 216.337 271.413 211.795C271.645 208.533 271.407 205.92 271.398 205.81C271.309 204.862 270.461 204.203 269.502 204.34C268.544 204.479 267.838 205.359 267.926 206.309C268.172 208.95 268.224 216.589 265.543 220.153C264.746 221.214 261.841 224.454 257.946 221.637C254.851 219.399 255.504 216.267 257.147 214.082C258.489 212.298 260.63 210.784 263.509 209.581C264.412 209.203 264.876 208.182 264.544 207.301C264.211 206.42 263.21 206.01 262.307 206.387C258.807 207.849 256.145 209.769 254.397 212.093C252.95 214.018 252.2 216.223 252.285 218.305C252.356 220.014 253.023 222.473 255.805 224.485C260.604 227.955 265.535 225.809 268.293 222.142Z" fill="#20E9BD"/>
<path d="M317.042 233.267C316.954 232.321 316.111 231.663 315.155 231.796C315.008 231.817 311.507 232.312 307.202 233.844C301.307 235.942 296.922 238.861 294.169 242.521C292.216 245.117 291.204 248.083 291.32 250.872C291.452 254.137 293.086 256.992 296.042 259.13C302.47 263.778 309.078 260.896 312.777 255.979C318.389 248.516 317.099 233.886 317.042 233.267ZM298.184 256.282C295.015 253.991 293.018 249.695 296.919 244.51C301.223 238.787 309.926 236.374 313.675 235.57C313.827 239.533 313.755 249.032 310.027 253.989C307.471 257.389 303.016 259.777 298.184 256.282Z" fill="#20E9BD"/>
<path d="M533.022 242.9L411.189 211.539C397.732 208.075 384.409 215.699 381.431 228.568L351.779 356.727C348.801 369.596 357.297 382.836 370.754 386.3L492.586 417.662C506.044 421.126 519.367 413.502 522.344 400.633L551.997 272.474C554.974 259.605 546.479 246.364 533.022 242.9Z" fill="#FCB0B4"/>
<path d="M481.598 255.837C495.633 253.479 517.249 252.437 515.903 266.979C514.917 277.619 514.837 275.063 513.425 283.643C512.463 289.489 506.234 294.96 500.596 296.247C482.867 295.917 494.332 282.015 480.563 278.837C466.577 276.269 471.975 258.257 481.598 255.837Z" fill="#DE4D86"/>
<path d="M524.726 393.121C515.194 403.629 478.18 366.073 490.791 358.461C514.345 344.245 517.223 330.7 520.943 328.572C527.086 325.056 536.497 331.603 537.665 337.197C536.317 343.021 534.034 352.887 532.408 359.916C529.356 373.107 528.904 375.062 524.726 393.121Z" fill="#DE4D86"/>
<path d="M410.72 260.371C396.502 261.715 374.8 261.21 377.259 246.848C379.057 236.338 378.94 238.886 381.008 230.454C382.417 224.711 389.065 219.714 394.803 218.836C412.512 220.429 399.982 233.434 413.512 237.576C427.306 241.126 420.531 258.65 410.72 260.371Z" fill="#DE4D86"/>
<path d="M384.751 295.117C383.64 294.831 382.689 294.289 381.897 293.494C381.109 292.683 380.591 291.705 380.345 290.561L383.199 290.074C383.558 291.336 384.285 292.109 385.381 292.391C386.917 292.786 387.907 292.026 388.35 290.11L390.509 280.779L393.469 281.54L391.251 291.124C391.022 292.117 390.661 292.943 390.168 293.6C389.692 294.249 389.141 294.692 388.512 294.931C387.884 295.169 387.257 295.303 386.63 295.334C386.021 295.356 385.394 295.283 384.751 295.117ZM402.035 297.989C400.884 298.744 399.512 298.917 397.919 298.507C396.325 298.097 395.182 297.277 394.491 296.046C393.799 294.817 393.656 293.328 394.06 291.581C394.461 289.847 395.239 288.596 396.393 287.826C397.562 287.06 398.935 286.88 400.514 287.287C402.093 287.694 403.227 288.519 403.915 289.763C404.618 291.009 404.769 292.5 404.368 294.234C403.963 295.981 403.186 297.233 402.035 297.989ZM398.525 295.885C399.242 296.07 399.865 295.956 400.393 295.544C400.926 295.118 401.3 294.437 401.517 293.5C401.733 292.564 401.699 291.777 401.412 291.14C401.126 290.503 400.624 290.093 399.908 289.909C399.207 289.728 398.58 289.855 398.03 290.292C397.498 290.717 397.124 291.392 396.911 292.315C396.698 293.237 396.735 294.017 397.021 294.654C397.322 295.294 397.823 295.705 398.525 295.885ZM406.126 304.664L408.812 300.889L407.047 289.235L409.963 289.986L410.989 296.805C411.049 297.146 411.083 297.503 411.09 297.875C411.145 297.772 411.331 297.471 411.647 296.974L415.535 291.42L418.451 292.171L409.088 305.426L406.126 304.664ZM423.629 296.037L421.701 304.362L418.851 303.629L420.778 295.303L419.221 294.902L419.774 292.511L421.331 292.912L421.71 291.276C422.107 289.556 423.227 288.934 425.068 289.408C426.019 289.652 426.812 290.042 427.447 290.576L426.934 292.799C426.36 292.399 425.854 292.143 425.415 292.03C424.874 291.891 424.547 292.066 424.433 292.556L424.182 293.646L426.594 294.268L426.041 296.658L423.629 296.037ZM432.915 307.249L433.148 306.242C432.252 306.9 431.155 307.062 429.853 306.727C428.756 306.444 427.906 305.87 427.3 305.003C426.695 304.137 426.563 302.97 426.903 301.501L428.465 294.749L431.317 295.483L429.957 301.354C429.759 302.207 429.767 302.876 429.981 303.36C430.212 303.834 430.664 304.159 431.336 304.332C432.754 304.696 433.652 304.068 434.027 302.447L435.395 296.532L438.246 297.266L435.766 307.983L432.915 307.249ZM439.161 308.856L442.369 294.995L445.516 294.449L442.012 309.59L439.161 308.856ZM377.071 327.706C376.166 327.472 375.343 327.076 374.606 326.515C373.868 325.955 373.347 325.325 373.044 324.624L375.285 323.58C375.911 324.555 376.7 325.165 377.65 325.41C378.775 325.7 379.41 325.53 379.557 324.901C379.624 324.607 379.526 324.33 379.261 324.069C379.014 323.798 378.542 323.425 377.847 322.95C376.614 322.187 375.75 321.47 375.255 320.793C374.764 320.105 374.62 319.32 374.824 318.439C375.041 317.502 375.598 316.868 376.496 316.536C377.397 316.19 378.432 316.168 379.602 316.469C381.298 316.906 382.533 317.831 383.304 319.245L381.052 320.242C380.519 319.468 379.858 318.979 379.068 318.776C378.118 318.531 377.581 318.674 377.459 319.206C377.355 319.653 377.985 320.275 379.35 321.07C380.436 321.735 381.238 322.415 381.759 323.113C382.284 323.796 382.433 324.62 382.21 325.584C381.97 326.619 381.389 327.321 380.468 327.691C379.549 328.046 378.417 328.051 377.071 327.706ZM392.817 330.181C391.666 330.937 390.294 331.109 388.701 330.699C387.107 330.288 385.964 329.468 385.272 328.239C384.581 327.009 384.438 325.52 384.843 323.773C385.243 322.039 386.022 320.788 387.175 320.018C388.343 319.253 389.717 319.073 391.296 319.48C392.876 319.886 394.008 320.711 394.697 321.955C395.399 323.202 395.55 324.692 395.149 326.426C394.744 328.174 393.967 329.425 392.817 330.181ZM389.307 328.078C390.023 328.263 390.646 328.149 391.175 327.736C391.707 327.31 392.081 326.629 392.298 325.692C392.516 324.755 392.48 323.969 392.194 323.332C391.907 322.695 391.406 322.285 390.69 322.101C389.988 321.92 389.361 322.048 388.812 322.484C388.279 322.91 387.907 323.583 387.694 324.507C387.48 325.43 387.516 326.21 387.802 326.846C388.104 327.486 388.605 327.897 389.307 328.078ZM403.59 334.266L404.949 328.393C405.149 327.527 405.134 326.856 404.903 326.381C404.687 325.911 404.243 325.589 403.569 325.416C402.151 325.051 401.254 325.679 400.879 327.302L399.511 333.215L396.66 332.481L399.14 321.765L401.99 322.498L401.758 323.505C402.668 322.851 403.767 322.69 405.053 323.021C406.164 323.307 407.015 323.881 407.606 324.744C408.213 325.597 408.345 326.764 408.003 328.246L406.442 334.999L403.59 334.266ZM412.704 341.055L411.649 338.384C413.224 338.671 414.325 338.732 414.952 338.567C415.59 338.42 415.997 337.97 416.171 337.214L416.239 336.922C415.543 337.32 414.675 337.385 413.637 337.118C412.248 336.76 411.242 335.99 410.617 334.807C409.996 333.61 409.893 332.11 410.31 330.307C410.705 328.6 411.443 327.354 412.524 326.565C413.622 325.767 414.867 325.547 416.255 325.904C417.25 326.16 417.983 326.638 418.456 327.337L418.587 326.772L421.438 327.504L419.294 336.775C418.851 338.69 418.159 339.971 417.22 340.618C416.291 341.283 414.786 341.428 412.704 341.055ZM414.704 334.615C415.567 334.837 416.284 334.718 416.855 334.257L417.836 330.022C417.46 329.303 416.877 328.842 416.087 328.639C415.371 328.454 414.756 328.569 414.241 328.985C413.745 329.391 413.385 330.076 413.162 331.04C412.951 331.949 412.973 332.725 413.227 333.368C413.481 334.011 413.974 334.427 414.704 334.615ZM425.9 340.275C424.994 340.041 424.171 339.645 423.434 339.084C422.696 338.524 422.175 337.894 421.873 337.193L424.113 336.149C424.739 337.124 425.527 337.735 426.478 337.979C427.604 338.269 428.239 338.099 428.385 337.471C428.453 337.176 428.354 336.899 428.089 336.638C427.842 336.367 427.37 335.994 426.675 335.519C425.441 334.757 424.578 334.038 424.084 333.363C423.592 332.674 423.449 331.889 423.653 331.009C423.869 330.071 424.427 329.438 425.325 329.105C426.225 328.759 427.261 328.737 428.43 329.038C430.126 329.475 431.361 330.4 432.133 331.813L429.88 332.811C429.347 332.037 428.686 331.548 427.897 331.345C426.946 331.101 426.409 331.243 426.286 331.775C426.183 332.222 426.813 332.844 428.179 333.64C429.265 334.304 430.068 334.985 430.588 335.682C431.111 336.365 431.262 337.189 431.039 338.153C430.798 339.188 430.217 339.89 429.296 340.261C428.377 340.615 427.245 340.62 425.9 340.275Z" fill="#F8F8F8"/>
</g>
<defs>
<filter id="filter0_d_958_80" x="80.1408" y="105.854" width="483.451" height="553.519" filterUnits="userSpaceOnUse" color-interpolation-filters="sRGB">
<feFlood flood-opacity="0" result="BackgroundImageFix"/>
<feColorMatrix in="SourceAlpha" type="matrix" values="0 0 0 0 0 0 0 0 0 0 0 0 0 0 0 0 0 0 127 0" result="hardAlpha"/>
<feOffset dx="2" dy="4"/>
<feGaussianBlur stdDeviation="4.5"/>
<feComposite in2="hardAlpha" operator="out"/>
<feColorMatrix type="matrix" values="0 0 0 0 0 0 0 0 0 0 0 0 0 0 0 0 0 0 0.25 0"/>
<feBlend mode="normal" in2="BackgroundImageFix" result="effect1_dropShadow_958_80"/>
<feBlend mode="normal" in="SourceGraphic" in2="effect1_dropShadow_958_80" result="shape"/>
</filter>
</defs>
</svg>
