<svg width="331" height="275" viewBox="0 0 331 275" fill="none" xmlns="http://www.w3.org/2000/svg">
<g filter="url(#filter0_d_560_7)">
<rect x="4" width="323" height="267" rx="15" fill="url(#paint0_linear_560_7)" shape-rendering="crispEdges"/>
</g>
<g filter="url(#filter1_d_560_7)">
<path d="M48.3813 79V48.2H69.0173V53.832H54.3213V60.3H63.6493V65.932H54.3213V79H48.3813ZM76.331 53.876C75.4216 53.876 74.6296 53.5533 73.955 52.908C73.3096 52.2333 72.987 51.4413 72.987 50.532C72.987 49.6227 73.3096 48.8453 73.955 48.2C74.6003 47.5547 75.3923 47.232 76.331 47.232C77.2696 47.232 78.0616 47.5547 78.707 48.2C79.3523 48.816 79.675 49.5933 79.675 50.532C79.675 51.4707 79.3523 52.2627 78.707 52.908C78.0616 53.5533 77.2696 53.876 76.331 53.876ZM73.471 79V56.516H79.191V79H73.471ZM99.7489 79V66.68C99.7489 64.8613 99.4263 63.5413 98.7809 62.72C98.1649 61.8987 97.1823 61.488 95.8329 61.488C92.9876 61.488 91.5649 63.1893 91.5649 66.592V79H85.8449V56.516H91.5649V58.628C93.0023 56.868 95.0116 55.988 97.5929 55.988C99.8223 55.988 101.685 56.692 103.181 58.1C104.706 59.4787 105.469 61.7227 105.469 64.832V79H99.7489ZM120.025 79.528C117.15 79.528 114.877 78.5013 113.205 76.448C111.562 74.3947 110.741 71.4907 110.741 67.736C110.741 64.1573 111.606 61.312 113.337 59.2C115.097 57.0587 117.341 55.988 120.069 55.988C122.122 55.988 123.721 56.7067 124.865 58.144V49.828L130.585 47.232V79H124.865V77.372C123.897 78.8093 122.284 79.528 120.025 79.528ZM120.949 74.028C122.709 74.028 124.014 73.4267 124.865 72.224V63.336C123.956 62.104 122.65 61.488 120.949 61.488C119.512 61.488 118.397 62.0307 117.605 63.116C116.842 64.172 116.461 65.712 116.461 67.736C116.461 69.7013 116.842 71.2413 117.605 72.356C118.397 73.4707 119.512 74.028 120.949 74.028ZM160.953 79V77.372C159.515 78.8093 157.579 79.528 155.145 79.528C152.71 79.528 150.715 78.8827 149.161 77.592C147.635 76.3013 146.873 74.468 146.873 72.092C146.873 69.6573 147.738 67.8093 149.469 66.548C151.229 65.2867 153.341 64.656 155.805 64.656C157.77 64.656 159.486 65.008 160.953 65.712V64.568C160.953 62.192 159.603 61.004 156.905 61.004C154.441 61.004 152.123 61.752 149.953 63.248L148.193 58.628C150.803 56.868 153.869 55.988 157.389 55.988C158.591 55.988 159.647 56.0907 160.557 56.296C161.495 56.5013 162.463 56.8827 163.461 57.44C164.458 57.9973 165.221 58.892 165.749 60.124C166.306 61.3267 166.585 62.8373 166.585 64.656V79H160.953ZM156.245 74.512C158.034 74.512 159.603 73.896 160.953 72.664V70.244C159.721 69.7453 158.327 69.496 156.773 69.496C155.482 69.496 154.441 69.716 153.649 70.156C152.857 70.5667 152.461 71.212 152.461 72.092C152.461 72.8253 152.783 73.412 153.429 73.852C154.103 74.292 155.042 74.512 156.245 74.512ZM191.164 79.528C189.345 79.528 187.614 79.1613 185.972 78.428C184.329 77.6947 183.068 76.712 182.188 75.48L185.972 72.268C187.585 73.8813 189.345 74.688 191.252 74.688C193.51 74.688 194.64 74.028 194.64 72.708C194.64 72.092 194.332 71.5933 193.716 71.212C193.129 70.8013 192.073 70.3027 190.548 69.716C187.878 68.836 185.928 67.8533 184.696 66.768C183.464 65.6533 182.848 64.172 182.848 62.324C182.848 60.3587 183.625 58.8187 185.18 57.704C186.734 56.56 188.685 55.988 191.032 55.988C194.434 55.988 197.177 57.1907 199.26 59.596L195.432 62.72C194.082 61.4587 192.616 60.828 191.032 60.828C189.125 60.828 188.172 61.3853 188.172 62.5C188.172 63.4387 189.638 64.348 192.572 65.228C194.918 65.9907 196.737 66.9293 198.028 68.044C199.318 69.1293 199.964 70.684 199.964 72.708C199.964 74.8787 199.172 76.5653 197.588 77.768C196.004 78.9413 193.862 79.528 191.164 79.528ZM222.063 76.404C220.215 78.4867 217.692 79.528 214.495 79.528C211.298 79.528 208.775 78.4867 206.927 76.404C205.079 74.3213 204.155 71.4467 204.155 67.78C204.155 64.1427 205.079 61.268 206.927 59.156C208.804 57.044 211.327 55.988 214.495 55.988C217.663 55.988 220.171 57.044 222.019 59.156C223.896 61.268 224.835 64.1427 224.835 67.78C224.835 71.4467 223.911 74.3213 222.063 76.404ZM214.495 74.028C215.932 74.028 217.062 73.4853 217.883 72.4C218.704 71.2853 219.115 69.7453 219.115 67.78C219.115 65.8147 218.704 64.2747 217.883 63.16C217.062 62.0453 215.932 61.488 214.495 61.488C213.087 61.488 211.958 62.06 211.107 63.204C210.286 64.3187 209.875 65.844 209.875 67.78C209.875 69.716 210.286 71.2413 211.107 72.356C211.958 73.4707 213.087 74.028 214.495 74.028ZM244.253 79V66.68C244.253 64.8613 243.93 63.5413 243.285 62.72C242.669 61.8987 241.686 61.488 240.337 61.488C237.491 61.488 236.069 63.1893 236.069 66.592V79H230.349V56.516H236.069V58.628C237.506 56.868 239.515 55.988 242.097 55.988C244.326 55.988 246.189 56.692 247.685 58.1C249.21 59.4787 249.973 61.7227 249.973 64.832V79H244.253ZM264.485 87.8L261.317 83.048C264.426 82.8133 266.538 82.3733 267.653 81.728C268.797 81.112 269.369 80.012 269.369 78.428V77.812C268.225 78.956 266.612 79.528 264.529 79.528C261.742 79.528 259.498 78.516 257.797 76.492C256.096 74.4387 255.245 71.52 255.245 67.736C255.245 64.1573 256.096 61.312 257.797 59.2C259.528 57.0587 261.786 55.988 264.573 55.988C266.568 55.988 268.166 56.56 269.369 57.704V56.516H275.089V75.964C275.089 79.9827 274.341 82.872 272.845 84.632C271.378 86.4213 268.592 87.4773 264.485 87.8ZM265.453 74.028C267.184 74.028 268.489 73.4267 269.369 72.224V63.336C268.342 62.104 267.037 61.488 265.453 61.488C264.016 61.488 262.901 62.0307 262.109 63.116C261.346 64.172 260.965 65.712 260.965 67.736C260.965 69.6427 261.346 71.168 262.109 72.312C262.872 73.456 263.986 74.028 265.453 74.028ZM289.132 79.528C287.314 79.528 285.583 79.1613 283.94 78.428C282.298 77.6947 281.036 76.712 280.156 75.48L283.94 72.268C285.554 73.8813 287.314 74.688 289.22 74.688C291.479 74.688 292.608 74.028 292.608 72.708C292.608 72.092 292.3 71.5933 291.684 71.212C291.098 70.8013 290.042 70.3027 288.516 69.716C285.847 68.836 283.896 67.8533 282.664 66.768C281.432 65.6533 280.816 64.172 280.816 62.324C280.816 60.3587 281.594 58.8187 283.148 57.704C284.703 56.56 286.654 55.988 289 55.988C292.403 55.988 295.146 57.1907 297.228 59.596L293.4 62.72C292.051 61.4587 290.584 60.828 289 60.828C287.094 60.828 286.14 61.3853 286.14 62.5C286.14 63.4387 287.607 64.348 290.54 65.228C292.887 65.9907 294.706 66.9293 295.996 68.044C297.287 69.1293 297.932 70.684 297.932 72.708C297.932 74.8787 297.14 76.5653 295.556 77.768C293.972 78.9413 291.831 79.528 289.132 79.528ZM145.18 146V133.724C145.18 131.876 144.902 130.541 144.344 129.72C143.787 128.899 142.878 128.488 141.616 128.488C140.267 128.488 139.27 128.899 138.624 129.72C138.008 130.541 137.7 131.861 137.7 133.68V146H131.98V133.724C131.98 131.876 131.702 130.541 131.144 129.72C130.587 128.899 129.678 128.488 128.416 128.488C127.067 128.488 126.07 128.899 125.424 129.72C124.808 130.541 124.5 131.861 124.5 133.68V146H118.78V123.516H124.5V125.584C125.85 123.853 127.624 122.988 129.824 122.988C132.582 122.988 134.503 124.044 135.588 126.156C137.084 124.044 139.387 122.988 142.496 122.988C148.099 122.988 150.9 125.951 150.9 131.876V146H145.18ZM174.088 143.404C172.24 145.487 169.718 146.528 166.52 146.528C163.323 146.528 160.8 145.487 158.952 143.404C157.104 141.321 156.18 138.447 156.18 134.78C156.18 131.143 157.104 128.268 158.952 126.156C160.83 124.044 163.352 122.988 166.52 122.988C169.688 122.988 172.196 124.044 174.044 126.156C175.922 128.268 176.86 131.143 176.86 134.78C176.86 138.447 175.936 141.321 174.088 143.404ZM166.52 141.028C167.958 141.028 169.087 140.485 169.908 139.4C170.73 138.285 171.14 136.745 171.14 134.78C171.14 132.815 170.73 131.275 169.908 130.16C169.087 129.045 167.958 128.488 166.52 128.488C165.112 128.488 163.983 129.06 163.132 130.204C162.311 131.319 161.9 132.844 161.9 134.78C161.9 136.716 162.311 138.241 163.132 139.356C163.983 140.471 165.112 141.028 166.52 141.028ZM199.182 143.404C197.334 145.487 194.812 146.528 191.614 146.528C188.417 146.528 185.894 145.487 184.046 143.404C182.198 141.321 181.274 138.447 181.274 134.78C181.274 131.143 182.198 128.268 184.046 126.156C185.924 124.044 188.446 122.988 191.614 122.988C194.782 122.988 197.29 124.044 199.138 126.156C201.016 128.268 201.954 131.143 201.954 134.78C201.954 138.447 201.03 141.321 199.182 143.404ZM191.614 141.028C193.052 141.028 194.181 140.485 195.002 139.4C195.824 138.285 196.234 136.745 196.234 134.78C196.234 132.815 195.824 131.275 195.002 130.16C194.181 129.045 193.052 128.488 191.614 128.488C190.206 128.488 189.077 129.06 188.226 130.204C187.405 131.319 186.994 132.844 186.994 134.78C186.994 136.716 187.405 138.241 188.226 139.356C189.077 140.471 190.206 141.028 191.614 141.028ZM215.652 146.528C212.777 146.528 210.504 145.501 208.832 143.448C207.189 141.395 206.368 138.491 206.368 134.736C206.368 131.157 207.233 128.312 208.964 126.2C210.724 124.059 212.968 122.988 215.696 122.988C217.749 122.988 219.348 123.707 220.492 125.144V116.828L226.212 114.232V146H220.492V144.372C219.524 145.809 217.911 146.528 215.652 146.528ZM216.576 141.028C218.336 141.028 219.641 140.427 220.492 139.224V130.336C219.583 129.104 218.277 128.488 216.576 128.488C215.139 128.488 214.024 129.031 213.232 130.116C212.469 131.172 212.088 132.712 212.088 134.736C212.088 136.701 212.469 138.241 213.232 139.356C214.024 140.471 215.139 141.028 216.576 141.028Z" fill="#F8F8F8"/>
</g>
<path d="M273.38 194.547C279.224 194.547 283.962 199.063 283.962 204.633C283.962 210.204 279.225 214.72 273.38 214.72C267.535 214.72 262.797 210.204 262.797 204.633C262.797 199.063 267.535 194.547 273.38 194.547ZM302.796 254.154L285.727 237.935L291.528 239.328C291.945 239.428 292.363 239.476 292.774 239.476C295.048 239.476 297.118 238.011 297.699 235.813C298.385 233.218 296.734 230.585 294.012 229.931L277.078 225.864C277.078 225.864 263.013 212.372 262.232 211.637C259.252 208.831 254.057 207.618 249.75 212.563C244.652 218.417 235.543 238.487 235.543 250.78C235.543 257.779 241.496 263.453 248.839 263.453C252.312 263.453 255.189 261.821 256.654 260.708L277.277 245.109L294.821 261.779C295.923 262.826 297.366 263.35 298.808 263.35C300.257 263.35 301.705 262.822 302.809 261.767C305.011 259.661 305.005 256.253 302.796 254.154ZM263.722 226.861L270.208 233.072C270.958 233.789 271.846 234.354 272.818 234.742L259.043 244.993C260.049 237.203 261.942 231.644 263.722 226.861Z" fill="#303030"/>
<g clip-path="url(#clip0_560_7)">
<path d="M129.669 225.375H129.669C130.932 225.374 131.959 224.347 131.959 223.084C131.959 221.947 130.37 220.347 130.051 220.037C129.838 219.83 129.498 219.83 129.284 220.038C128.966 220.347 127.378 221.948 127.378 223.085C127.378 224.347 128.406 225.375 129.669 225.375ZM129.667 221.224C130.25 221.865 130.858 222.696 130.858 223.084C130.858 223.74 130.325 224.274 129.669 224.274C129.013 224.274 128.479 223.74 128.479 223.084C128.479 222.712 129.043 221.908 129.667 221.224Z" fill="#303030"/>
<path d="M160.372 220.493C160.372 220.493 160.372 220.493 160.372 220.493C160.984 220.493 161.559 220.254 161.992 219.822C162.424 219.389 162.663 218.814 162.662 218.202C162.662 217.066 161.073 215.465 160.755 215.156C160.541 214.948 160.202 214.948 159.988 215.156C159.67 215.465 158.081 217.067 158.081 218.203C158.081 219.465 159.109 220.493 160.372 220.493ZM160.371 216.343C160.953 216.983 161.562 217.814 161.562 218.202C161.562 218.52 161.438 218.819 161.213 219.043C160.988 219.268 160.69 219.392 160.372 219.392C159.716 219.392 159.182 218.858 159.182 218.202C159.182 217.83 159.746 217.026 160.371 216.343Z" fill="#303030"/>
<path d="M147.863 232.661C147.863 232.661 147.864 232.661 147.864 232.661C148.476 232.661 149.051 232.422 149.483 231.99C149.916 231.557 150.154 230.982 150.154 230.37C150.154 229.234 148.565 227.633 148.246 227.324C148.033 227.116 147.693 227.116 147.479 227.324C147.161 227.633 145.573 229.234 145.573 230.371C145.573 231.633 146.6 232.661 147.863 232.661ZM147.862 228.51C148.444 229.151 149.053 229.982 149.053 230.37C149.053 231.026 148.52 231.56 147.863 231.56H147.863C147.207 231.56 146.674 231.026 146.673 230.37C146.673 229.998 147.237 229.194 147.862 228.51Z" fill="#303030"/>
<path d="M123.995 230.571C125.715 230.066 127.677 229.799 129.668 229.799C131.783 229.799 133.849 230.098 135.644 230.663C135.699 230.68 135.755 230.688 135.809 230.688C136.043 230.688 136.26 230.538 136.334 230.303C136.426 230.013 136.264 229.704 135.975 229.613C134.074 229.014 131.894 228.698 129.668 228.698C127.573 228.698 125.504 228.981 123.685 229.515C123.393 229.6 123.226 229.906 123.312 230.198C123.397 230.49 123.704 230.656 123.995 230.571Z" fill="#303030"/>
<path d="M121.614 231.501C121.885 231.363 121.993 231.032 121.855 230.761C121.717 230.49 121.386 230.381 121.115 230.52C118.606 231.795 117.224 233.547 117.224 235.45C117.224 235.754 117.47 236.001 117.774 236.001C118.078 236.001 118.325 235.754 118.325 235.45C118.325 233.982 119.493 232.579 121.614 231.501Z" fill="#303030"/>
<path d="M120.048 238.408C119.809 238.217 119.59 238.018 119.397 237.814C119.188 237.594 118.84 237.584 118.619 237.794C118.399 238.003 118.389 238.351 118.598 238.572C118.826 238.812 119.082 239.046 119.361 239.268C119.463 239.349 119.584 239.388 119.704 239.388C119.866 239.388 120.026 239.317 120.135 239.181C120.324 238.944 120.285 238.597 120.048 238.408Z" fill="#303030"/>
<path d="M142.113 235.45C142.113 234.117 141.422 232.836 140.115 231.745C139.882 231.551 139.534 231.582 139.34 231.815C139.145 232.049 139.176 232.396 139.41 232.591C140.141 233.201 141.012 234.192 141.012 235.45C141.012 238.514 135.818 241.101 129.669 241.101C126.764 241.101 123.993 240.541 121.867 239.525C121.593 239.393 121.264 239.509 121.133 239.784C121.002 240.058 121.118 240.386 121.392 240.518C123.663 241.604 126.603 242.202 129.669 242.202C136.647 242.202 142.113 239.236 142.113 235.45Z" fill="#303030"/>
<path d="M126.499 231.492C126.204 231.564 126.022 231.861 126.093 232.156C126.165 232.452 126.463 232.634 126.758 232.562C127.786 232.313 128.934 232.2 130.077 232.235C132.585 232.312 134.85 233.107 135.849 234.261C136.228 234.699 136.394 235.153 136.343 235.61C136.269 236.263 135.765 236.783 135.356 237.103C135.117 237.291 135.075 237.637 135.263 237.876C135.371 238.014 135.533 238.087 135.696 238.087C135.815 238.087 135.935 238.048 136.035 237.969C136.86 237.324 137.344 236.55 137.436 235.734C137.523 234.969 137.262 234.211 136.681 233.54C135.472 232.144 132.954 231.222 130.111 231.135C128.871 231.097 127.622 231.22 126.499 231.492Z" fill="#303030"/>
<path d="M122.656 237.36C123.865 238.756 126.383 239.678 129.226 239.765C129.374 239.77 129.522 239.772 129.669 239.772C130.865 239.772 132.046 239.624 133.111 239.339C133.404 239.26 133.578 238.958 133.5 238.665C133.421 238.371 133.12 238.196 132.826 238.276C131.732 238.568 130.498 238.703 129.26 238.665C126.753 238.588 124.487 237.793 123.488 236.639C123.109 236.202 122.943 235.748 122.994 235.29C123.086 234.482 123.812 233.871 124.405 233.501C124.663 233.34 124.741 233.001 124.581 232.743C124.42 232.485 124.08 232.407 123.822 232.567C122.677 233.282 122.012 234.181 121.901 235.167C121.814 235.931 122.075 236.69 122.656 237.36Z" fill="#303030"/>
<path d="M128.968 234.73C129.267 234.679 129.468 234.394 129.417 234.095C129.365 233.795 129.08 233.594 128.781 233.645C127.735 233.825 126.972 234.289 126.687 234.918C126.513 235.303 126.533 235.719 126.742 236.092C127.089 236.709 127.939 237.157 129.016 237.289C129.223 237.315 129.438 237.328 129.655 237.328C130.904 237.328 132.234 236.901 132.65 235.982C132.8 235.649 132.807 235.297 132.669 234.962C132.479 234.501 132.018 234.111 131.369 233.863C131.085 233.755 130.767 233.897 130.658 234.181C130.55 234.465 130.692 234.783 130.976 234.892C131.391 235.05 131.597 235.248 131.652 235.382C131.673 235.434 131.672 235.473 131.647 235.528C131.477 235.905 130.419 236.353 129.151 236.197C128.348 236.098 127.837 235.794 127.702 235.553C127.659 235.475 127.665 235.428 127.69 235.372C127.79 235.151 128.232 234.856 128.968 234.73Z" fill="#303030"/>
<path d="M141.558 244.361C140.558 244.515 139.573 244.714 138.63 244.952C138.335 245.026 138.157 245.325 138.231 245.62C138.294 245.87 138.518 246.036 138.764 246.036C138.809 246.036 138.854 246.031 138.899 246.019C139.809 245.79 140.76 245.598 141.726 245.449C142.026 245.402 142.232 245.121 142.186 244.821C142.14 244.52 141.858 244.313 141.558 244.361Z" fill="#303030"/>
<path d="M128.557 255.189C128.521 254.952 128.503 254.711 128.503 254.472C128.503 251.356 131.581 248.436 136.737 246.66C137.024 246.561 137.177 246.248 137.078 245.961C136.979 245.673 136.665 245.52 136.378 245.62C130.758 247.555 127.402 250.864 127.402 254.472C127.402 254.766 127.425 255.063 127.469 255.354C127.51 255.627 127.745 255.822 128.012 255.822C128.04 255.822 128.068 255.82 128.096 255.815C128.396 255.77 128.603 255.489 128.557 255.189Z" fill="#303030"/>
<path d="M138.088 262.707C134.071 261.565 131.027 259.722 129.517 257.518C129.345 257.267 129.002 257.203 128.752 257.375C128.501 257.547 128.437 257.89 128.609 258.14C130.263 260.556 133.523 262.553 137.787 263.766C137.837 263.781 137.888 263.787 137.938 263.787C138.177 263.787 138.398 263.63 138.467 263.388C138.55 263.095 138.38 262.791 138.088 262.707Z" fill="#303030"/>
<path d="M147.089 263.899C146.059 263.899 145.025 263.856 144.016 263.77C143.713 263.744 143.447 263.968 143.421 264.271C143.395 264.574 143.619 264.84 143.922 264.866C144.962 264.955 146.028 265 147.089 265C147.393 265 147.64 264.754 147.64 264.45C147.64 264.146 147.393 263.899 147.089 263.899Z" fill="#303030"/>
<path d="M166.35 252.26C166.238 251.977 165.919 251.838 165.636 251.949C165.353 252.06 165.214 252.379 165.325 252.662C165.557 253.255 165.675 253.864 165.675 254.472C165.675 256.445 164.454 258.345 162.143 259.967C159.827 261.592 156.51 262.825 152.804 263.439C152.504 263.489 152.301 263.773 152.351 264.072C152.395 264.342 152.629 264.533 152.893 264.533C152.923 264.533 152.953 264.53 152.984 264.525C161.233 263.158 166.776 259.118 166.776 254.472C166.776 253.726 166.633 252.982 166.35 252.26Z" fill="#303030"/>
<path d="M145.251 245.091C145.857 245.061 146.476 245.045 147.089 245.045C154.347 245.045 160.997 247.236 164.031 250.626C164.139 250.747 164.29 250.809 164.441 250.809C164.571 250.809 164.703 250.763 164.808 250.669C165.034 250.466 165.053 250.118 164.851 249.892C161.618 246.279 154.646 243.944 147.089 243.944C146.457 243.944 145.82 243.96 145.195 243.992C144.892 244.007 144.658 244.266 144.673 244.569C144.689 244.873 144.941 245.104 145.251 245.091Z" fill="#303030"/>
<path d="M150.534 247.498C149.666 247.375 148.766 247.298 147.858 247.27C144.99 247.183 142.212 247.575 139.822 248.407C139.534 248.507 139.383 248.821 139.483 249.108C139.562 249.335 139.775 249.477 140.002 249.477C140.062 249.477 140.123 249.468 140.183 249.447C142.448 248.659 145.089 248.286 147.824 248.371C148.692 248.397 149.552 248.471 150.38 248.588C150.683 248.632 150.959 248.421 151.002 248.121C151.045 247.82 150.835 247.541 150.534 247.498Z" fill="#303030"/>
<path d="M134.539 253.112C134.624 253.158 134.714 253.18 134.804 253.18C134.998 253.18 135.187 253.077 135.287 252.895C135.512 252.486 135.826 252.085 136.219 251.705C136.438 251.494 136.444 251.146 136.233 250.927C136.022 250.708 135.674 250.702 135.455 250.913C134.982 251.37 134.601 251.858 134.322 252.364C134.176 252.63 134.273 252.965 134.539 253.112Z" fill="#303030"/>
<path d="M133.772 254.806C134.072 258.511 139.467 261.463 146.32 261.674C146.587 261.682 146.851 261.686 147.115 261.686C152.771 261.686 157.741 259.822 159.637 256.942C159.805 256.688 159.734 256.347 159.48 256.18C159.226 256.013 158.885 256.083 158.718 256.337C156.964 259.001 151.879 260.745 146.354 260.574C140.165 260.383 135.12 257.811 134.869 254.717C134.844 254.414 134.578 254.187 134.276 254.213C133.973 254.237 133.747 254.503 133.772 254.806Z" fill="#303030"/>
<path d="M159.848 255.415C160.124 255.415 160.362 255.207 160.394 254.926C160.658 252.587 158.937 250.401 155.67 248.928C155.393 248.803 155.067 248.926 154.942 249.203C154.817 249.48 154.94 249.806 155.218 249.931C158.019 251.195 159.507 252.97 159.3 254.802C159.266 255.104 159.483 255.377 159.785 255.411C159.806 255.414 159.827 255.415 159.848 255.415Z" fill="#303030"/>
<path d="M150.825 251.646C150.91 251.354 150.743 251.048 150.451 250.963C149.892 250.8 149.289 250.677 148.66 250.6C146.822 250.374 144.934 250.546 143.342 251.085C143.054 251.183 142.9 251.495 142.997 251.783C143.075 252.013 143.289 252.157 143.518 252.157C143.577 252.157 143.636 252.148 143.695 252.128C145.112 251.648 146.873 251.489 148.526 251.692C149.096 251.763 149.64 251.873 150.142 252.019C150.434 252.105 150.74 251.938 150.825 251.646Z" fill="#303030"/>
<path d="M141.663 253.284C141.878 253.068 141.877 252.72 141.662 252.505C141.446 252.29 141.098 252.291 140.883 252.507C140.588 252.804 140.361 253.125 140.209 253.461C139.902 254.141 139.908 254.855 140.228 255.528C140.322 255.726 140.52 255.842 140.726 255.842C140.805 255.842 140.885 255.825 140.962 255.789C141.236 255.658 141.353 255.33 141.222 255.055C141.041 254.674 141.038 254.301 141.212 253.915C141.31 253.699 141.461 253.486 141.663 253.284Z" fill="#303030"/>
<path d="M145.652 257.252C144.544 257.115 143.537 256.827 142.742 256.417C142.471 256.278 142.139 256.385 142 256.655C141.861 256.925 141.968 257.257 142.238 257.396C143.148 257.864 144.282 258.192 145.518 258.344C146.054 258.41 146.587 258.442 147.111 258.442C150.31 258.442 153.165 257.263 153.97 255.483C154.475 254.367 154.128 253.19 153.018 252.254C152.786 252.058 152.439 252.088 152.243 252.32C152.047 252.552 152.076 252.9 152.309 253.096C152.815 253.522 153.34 254.204 152.967 255.029C152.321 256.457 149.228 257.69 145.652 257.252Z" fill="#303030"/>
<path d="M147.089 253.846C148.197 253.846 148.795 254.29 148.795 254.472C148.795 254.776 149.042 255.022 149.346 255.022C149.649 255.022 149.896 254.776 149.896 254.472C149.896 253.488 148.689 252.745 147.089 252.745C145.489 252.745 144.283 253.488 144.283 254.472C144.283 255.456 145.489 256.199 147.089 256.199C147.393 256.199 147.64 255.952 147.64 255.648C147.64 255.344 147.393 255.098 147.089 255.098C145.981 255.098 145.383 254.654 145.383 254.472C145.383 254.29 145.981 253.846 147.089 253.846Z" fill="#303030"/>
</g>
<g clip-path="url(#clip1_560_7)">
<path d="M204.331 225.375H204.331C203.068 225.374 202.041 224.347 202.041 223.084C202.041 221.947 203.63 220.347 203.949 220.037C204.162 219.83 204.502 219.83 204.716 220.038C205.034 220.347 206.622 221.948 206.622 223.085C206.622 224.347 205.594 225.375 204.331 225.375ZM204.333 221.224C203.75 221.865 203.142 222.696 203.142 223.084C203.142 223.74 203.675 224.274 204.331 224.274C204.987 224.274 205.521 223.74 205.521 223.084C205.521 222.712 204.957 221.908 204.333 221.224Z" fill="#303030"/>
<path d="M173.628 220.493C173.628 220.493 173.628 220.493 173.628 220.493C173.016 220.493 172.441 220.254 172.008 219.822C171.576 219.389 171.337 218.814 171.338 218.202C171.338 217.066 172.927 215.465 173.245 215.156C173.459 214.948 173.798 214.948 174.012 215.156C174.33 215.465 175.919 217.067 175.919 218.203C175.919 219.465 174.891 220.493 173.628 220.493ZM173.629 216.343C173.047 216.983 172.438 217.814 172.438 218.202C172.438 218.52 172.562 218.819 172.787 219.043C173.012 219.268 173.31 219.392 173.628 219.392C174.284 219.392 174.818 218.858 174.818 218.202C174.818 217.83 174.254 217.026 173.629 216.343Z" fill="#303030"/>
<path d="M186.137 232.661C186.137 232.661 186.136 232.661 186.136 232.661C185.524 232.661 184.949 232.422 184.517 231.99C184.084 231.557 183.846 230.982 183.846 230.37C183.846 229.234 185.435 227.633 185.754 227.324C185.967 227.116 186.307 227.116 186.521 227.324C186.839 227.633 188.427 229.234 188.427 230.371C188.427 231.633 187.4 232.661 186.137 232.661ZM186.138 228.51C185.556 229.151 184.947 229.982 184.947 230.37C184.947 231.026 185.48 231.56 186.137 231.56H186.137C186.793 231.56 187.326 231.026 187.327 230.37C187.327 229.998 186.763 229.194 186.138 228.51Z" fill="#303030"/>
<path d="M210.005 230.571C208.285 230.066 206.323 229.799 204.332 229.799C202.217 229.799 200.151 230.098 198.356 230.663C198.301 230.68 198.245 230.688 198.191 230.688C197.957 230.688 197.74 230.538 197.666 230.303C197.574 230.013 197.736 229.704 198.025 229.613C199.926 229.014 202.106 228.698 204.332 228.698C206.427 228.698 208.496 228.981 210.315 229.515C210.607 229.6 210.774 229.906 210.688 230.198C210.603 230.49 210.296 230.656 210.005 230.571Z" fill="#303030"/>
<path d="M212.386 231.501C212.115 231.363 212.007 231.032 212.145 230.761C212.283 230.49 212.614 230.381 212.885 230.52C215.394 231.795 216.776 233.547 216.776 235.45C216.776 235.754 216.53 236.001 216.226 236.001C215.922 236.001 215.675 235.754 215.675 235.45C215.675 233.982 214.507 232.579 212.386 231.501Z" fill="#303030"/>
<path d="M213.952 238.408C214.191 238.217 214.41 238.018 214.603 237.814C214.812 237.594 215.16 237.584 215.381 237.794C215.601 238.003 215.611 238.351 215.402 238.572C215.174 238.812 214.918 239.046 214.639 239.268C214.537 239.349 214.416 239.388 214.296 239.388C214.134 239.388 213.974 239.317 213.865 239.181C213.676 238.944 213.715 238.597 213.952 238.408Z" fill="#303030"/>
<path d="M191.887 235.45C191.887 234.117 192.578 232.836 193.885 231.745C194.118 231.551 194.466 231.582 194.66 231.815C194.855 232.049 194.824 232.396 194.59 232.591C193.859 233.201 192.988 234.192 192.988 235.45C192.988 238.514 198.182 241.101 204.331 241.101C207.236 241.101 210.007 240.541 212.133 239.525C212.407 239.393 212.736 239.509 212.867 239.784C212.998 240.058 212.882 240.386 212.608 240.518C210.337 241.604 207.397 242.202 204.331 242.202C197.353 242.202 191.887 239.236 191.887 235.45Z" fill="#303030"/>
<path d="M207.501 231.492C207.796 231.564 207.978 231.861 207.907 232.156C207.835 232.452 207.537 232.634 207.242 232.562C206.214 232.313 205.066 232.2 203.923 232.235C201.415 232.312 199.15 233.107 198.151 234.261C197.772 234.699 197.606 235.153 197.657 235.61C197.731 236.263 198.235 236.783 198.644 237.103C198.883 237.291 198.925 237.637 198.737 237.876C198.629 238.014 198.467 238.087 198.304 238.087C198.185 238.087 198.065 238.048 197.965 237.969C197.14 237.324 196.656 236.55 196.564 235.734C196.477 234.969 196.738 234.211 197.319 233.54C198.528 232.144 201.046 231.222 203.889 231.135C205.129 231.097 206.378 231.22 207.501 231.492Z" fill="#303030"/>
<path d="M211.344 237.36C210.135 238.756 207.617 239.678 204.774 239.765C204.626 239.77 204.478 239.772 204.331 239.772C203.135 239.772 201.954 239.624 200.889 239.339C200.596 239.26 200.422 238.958 200.5 238.665C200.579 238.371 200.88 238.196 201.174 238.276C202.268 238.568 203.502 238.703 204.74 238.665C207.247 238.588 209.513 237.793 210.512 236.639C210.891 236.202 211.057 235.748 211.006 235.29C210.914 234.482 210.188 233.871 209.595 233.501C209.337 233.34 209.259 233.001 209.419 232.743C209.58 232.485 209.92 232.407 210.178 232.567C211.323 233.282 211.988 234.181 212.099 235.167C212.186 235.931 211.925 236.69 211.344 237.36Z" fill="#303030"/>
<path d="M205.032 234.73C204.733 234.679 204.532 234.394 204.583 234.095C204.635 233.795 204.92 233.594 205.219 233.645C206.265 233.825 207.028 234.289 207.313 234.918C207.487 235.303 207.467 235.719 207.258 236.092C206.911 236.709 206.061 237.157 204.984 237.289C204.777 237.315 204.562 237.328 204.345 237.328C203.096 237.328 201.766 236.901 201.35 235.982C201.2 235.649 201.193 235.297 201.331 234.962C201.521 234.501 201.982 234.111 202.631 233.863C202.915 233.755 203.233 233.897 203.342 234.181C203.45 234.465 203.308 234.783 203.024 234.892C202.609 235.05 202.403 235.248 202.348 235.382C202.327 235.434 202.328 235.473 202.353 235.528C202.523 235.905 203.581 236.353 204.849 236.197C205.652 236.098 206.163 235.794 206.298 235.553C206.341 235.475 206.335 235.428 206.31 235.372C206.21 235.151 205.768 234.856 205.032 234.73Z" fill="#303030"/>
<path d="M192.442 244.361C193.442 244.515 194.427 244.714 195.37 244.952C195.665 245.026 195.843 245.325 195.769 245.62C195.706 245.87 195.482 246.036 195.236 246.036C195.191 246.036 195.146 246.031 195.101 246.019C194.191 245.79 193.24 245.598 192.274 245.449C191.974 245.402 191.768 245.121 191.814 244.821C191.86 244.52 192.142 244.313 192.442 244.361Z" fill="#303030"/>
<path d="M205.443 255.189C205.479 254.952 205.497 254.711 205.497 254.472C205.497 251.356 202.419 248.436 197.263 246.66C196.976 246.561 196.823 246.248 196.922 245.961C197.021 245.673 197.335 245.52 197.622 245.62C203.242 247.555 206.598 250.864 206.598 254.472C206.598 254.766 206.575 255.063 206.531 255.354C206.49 255.627 206.255 255.822 205.988 255.822C205.96 255.822 205.932 255.82 205.904 255.815C205.604 255.77 205.397 255.489 205.443 255.189Z" fill="#303030"/>
<path d="M195.912 262.707C199.929 261.565 202.973 259.722 204.483 257.518C204.655 257.267 204.998 257.203 205.248 257.375C205.499 257.547 205.563 257.89 205.391 258.14C203.737 260.556 200.477 262.553 196.213 263.766C196.163 263.781 196.112 263.787 196.062 263.787C195.823 263.787 195.602 263.63 195.533 263.388C195.45 263.095 195.62 262.791 195.912 262.707Z" fill="#303030"/>
<path d="M186.911 263.899C187.941 263.899 188.975 263.856 189.984 263.77C190.287 263.744 190.553 263.968 190.579 264.271C190.605 264.574 190.381 264.84 190.078 264.866C189.038 264.955 187.972 265 186.911 265C186.607 265 186.36 264.754 186.36 264.45C186.36 264.146 186.607 263.899 186.911 263.899Z" fill="#303030"/>
<path d="M167.65 252.26C167.762 251.977 168.081 251.838 168.364 251.949C168.647 252.06 168.786 252.379 168.675 252.662C168.443 253.255 168.325 253.864 168.325 254.472C168.325 256.445 169.546 258.345 171.857 259.967C174.173 261.592 177.49 262.825 181.196 263.439C181.496 263.489 181.699 263.773 181.649 264.072C181.605 264.342 181.371 264.533 181.107 264.533C181.077 264.533 181.047 264.53 181.016 264.525C172.767 263.158 167.224 259.118 167.224 254.472C167.224 253.726 167.367 252.982 167.65 252.26Z" fill="#303030"/>
<path d="M188.749 245.091C188.143 245.061 187.524 245.045 186.911 245.045C179.653 245.045 173.003 247.236 169.969 250.626C169.861 250.747 169.71 250.809 169.559 250.809C169.429 250.809 169.297 250.763 169.192 250.669C168.966 250.466 168.947 250.118 169.149 249.892C172.382 246.279 179.354 243.944 186.911 243.944C187.543 243.944 188.18 243.96 188.805 243.992C189.108 244.007 189.342 244.266 189.327 244.569C189.311 244.873 189.059 245.104 188.749 245.091Z" fill="#303030"/>
<path d="M183.466 247.498C184.334 247.375 185.234 247.298 186.142 247.27C189.01 247.183 191.788 247.575 194.178 248.407C194.466 248.507 194.617 248.821 194.517 249.108C194.438 249.335 194.225 249.477 193.998 249.477C193.938 249.477 193.877 249.468 193.817 249.447C191.552 248.659 188.911 248.286 186.176 248.371C185.308 248.397 184.448 248.471 183.62 248.588C183.317 248.632 183.041 248.421 182.998 248.121C182.955 247.82 183.165 247.541 183.466 247.498Z" fill="#303030"/>
<path d="M199.461 253.112C199.376 253.158 199.286 253.18 199.196 253.18C199.002 253.18 198.813 253.077 198.713 252.895C198.488 252.486 198.174 252.085 197.781 251.705C197.562 251.494 197.556 251.146 197.767 250.927C197.978 250.708 198.326 250.702 198.545 250.913C199.018 251.37 199.399 251.858 199.678 252.364C199.824 252.63 199.727 252.965 199.461 253.112Z" fill="#303030"/>
<path d="M200.228 254.806C199.928 258.511 194.533 261.463 187.68 261.674C187.413 261.682 187.149 261.686 186.885 261.686C181.229 261.686 176.259 259.822 174.363 256.942C174.195 256.688 174.266 256.347 174.52 256.18C174.774 256.013 175.115 256.083 175.282 256.337C177.036 259.001 182.121 260.745 187.646 260.574C193.835 260.383 198.88 257.811 199.131 254.717C199.156 254.414 199.422 254.187 199.724 254.213C200.027 254.237 200.253 254.503 200.228 254.806Z" fill="#303030"/>
<path d="M174.152 255.415C173.876 255.415 173.638 255.207 173.606 254.926C173.342 252.587 175.063 250.401 178.33 248.928C178.607 248.803 178.933 248.926 179.058 249.203C179.183 249.48 179.06 249.806 178.782 249.931C175.981 251.195 174.493 252.97 174.7 254.802C174.734 255.104 174.517 255.377 174.215 255.411C174.194 255.414 174.173 255.415 174.152 255.415Z" fill="#303030"/>
<path d="M183.175 251.646C183.09 251.354 183.257 251.048 183.549 250.963C184.108 250.8 184.711 250.677 185.34 250.6C187.178 250.374 189.066 250.546 190.658 251.085C190.946 251.183 191.1 251.495 191.003 251.783C190.925 252.013 190.711 252.157 190.482 252.157C190.423 252.157 190.364 252.148 190.305 252.128C188.888 251.648 187.127 251.489 185.474 251.692C184.904 251.763 184.36 251.873 183.858 252.019C183.566 252.105 183.26 251.938 183.175 251.646Z" fill="#303030"/>
<path d="M192.337 253.284C192.122 253.068 192.123 252.72 192.338 252.505C192.554 252.29 192.902 252.291 193.117 252.507C193.412 252.804 193.639 253.125 193.791 253.461C194.098 254.141 194.092 254.855 193.772 255.528C193.678 255.726 193.48 255.842 193.274 255.842C193.195 255.842 193.115 255.825 193.038 255.789C192.764 255.658 192.647 255.33 192.778 255.055C192.959 254.674 192.962 254.301 192.788 253.915C192.69 253.699 192.539 253.486 192.337 253.284Z" fill="#303030"/>
<path d="M188.348 257.252C189.456 257.115 190.463 256.827 191.258 256.417C191.529 256.278 191.861 256.385 192 256.655C192.139 256.925 192.032 257.257 191.762 257.396C190.852 257.864 189.718 258.192 188.482 258.344C187.946 258.41 187.413 258.442 186.889 258.442C183.69 258.442 180.835 257.263 180.03 255.483C179.525 254.367 179.872 253.19 180.982 252.254C181.214 252.058 181.561 252.088 181.757 252.32C181.953 252.552 181.924 252.9 181.691 253.096C181.185 253.522 180.66 254.204 181.033 255.029C181.679 256.457 184.772 257.69 188.348 257.252Z" fill="#303030"/>
<path d="M186.911 253.846C185.803 253.846 185.205 254.29 185.205 254.472C185.205 254.776 184.958 255.022 184.654 255.022C184.351 255.022 184.104 254.776 184.104 254.472C184.104 253.488 185.311 252.745 186.911 252.745C188.511 252.745 189.717 253.488 189.717 254.472C189.717 255.456 188.511 256.199 186.911 256.199C186.607 256.199 186.36 255.952 186.36 255.648C186.36 255.344 186.607 255.098 186.911 255.098C188.019 255.098 188.617 254.654 188.617 254.472C188.617 254.29 188.019 253.846 186.911 253.846Z" fill="#303030"/>
</g>
<g clip-path="url(#clip2_560_7)">
<path d="M69.8385 201.49C65.5747 201.49 62.1182 198.033 62.1182 193.77C62.1182 189.506 65.5747 186.049 69.8385 186.049C74.1023 186.049 77.5588 189.506 77.5588 193.77C77.5588 198.033 74.1023 201.49 69.8385 201.49Z" fill="#303030"/>
<path d="M40.1309 241.885C51.5898 227.533 50.7582 228.509 51.2827 228.08L56.5759 206.557L41.386 185.934C40.1658 184.278 40.5196 181.946 42.1761 180.726C43.8321 179.506 46.1641 179.86 47.3845 181.516L62.7385 202.361C62.9565 202.404 72.1044 204.628 72.6417 204.836L91.4636 185.676C92.905 184.208 95.2637 184.187 96.7313 185.629C98.1989 187.071 98.22 189.429 96.7783 190.897L75.3923 212.667L72.5861 224.078L69.477 236.72L71.2016 242.825L86.2515 240.161C88.6804 239.732 91.002 241.353 91.4322 243.784C91.8625 246.215 90.2406 248.535 87.8096 248.965C67.2773 252.599 68.5583 252.402 67.9955 252.402C66.0287 252.402 64.2488 251.099 63.6974 249.147C59.4306 234.041 59.6967 235.087 59.6338 234.517L57.7936 234.065C57.6069 234.337 58.3724 233.366 49.4304 244.566L60.6637 257.613C62.2744 259.484 62.0635 262.307 60.1929 263.917C58.3229 265.527 55.5002 265.318 53.8889 263.447L40.2369 247.591C38.834 245.962 38.7896 243.565 40.1309 241.885Z" fill="#303030"/>
</g>
<defs>
<filter id="filter0_d_560_7" x="0" y="0" width="331" height="275" filterUnits="userSpaceOnUse" color-interpolation-filters="sRGB">
<feFlood flood-opacity="0" result="BackgroundImageFix"/>
<feColorMatrix in="SourceAlpha" type="matrix" values="0 0 0 0 0 0 0 0 0 0 0 0 0 0 0 0 0 0 127 0" result="hardAlpha"/>
<feOffset dy="4"/>
<feGaussianBlur stdDeviation="2"/>
<feComposite in2="hardAlpha" operator="out"/>
<feColorMatrix type="matrix" values="0 0 0 0 0.188235 0 0 0 0 0.188235 0 0 0 0 0.188235 0 0 0 0.25 0"/>
<feBlend mode="normal" in2="BackgroundImageFix" result="effect1_dropShadow_560_7"/>
<feBlend mode="normal" in="SourceGraphic" in2="effect1_dropShadow_560_7" result="shape"/>
</filter>
<filter id="filter1_d_560_7" x="44.3813" y="45.2319" width="261.551" height="111.296" filterUnits="userSpaceOnUse" color-interpolation-filters="sRGB">
<feFlood flood-opacity="0" result="BackgroundImageFix"/>
<feColorMatrix in="SourceAlpha" type="matrix" values="0 0 0 0 0 0 0 0 0 0 0 0 0 0 0 0 0 0 127 0" result="hardAlpha"/>
<feOffset dx="2" dy="4"/>
<feGaussianBlur stdDeviation="3"/>
<feComposite in2="hardAlpha" operator="out"/>
<feColorMatrix type="matrix" values="0 0 0 0 0.188235 0 0 0 0 0.188235 0 0 0 0 0.188235 0 0 0 0.4 0"/>
<feBlend mode="normal" in2="BackgroundImageFix" result="effect1_dropShadow_560_7"/>
<feBlend mode="normal" in="SourceGraphic" in2="effect1_dropShadow_560_7" result="shape"/>
</filter>
<linearGradient id="paint0_linear_560_7" x1="166.079" y1="-1.41202e-06" x2="166.079" y2="267" gradientUnits="userSpaceOnUse">
<stop stop-color="#98F5E1" stop-opacity="0.929871"/>
<stop offset="0.208668" stop-color="#98F5E1" stop-opacity="0.649885"/>
<stop offset="0.341907" stop-color="#98F5E1" stop-opacity="0.464333"/>
<stop offset="1" stop-color="#98F5E1" stop-opacity="0.09"/>
</linearGradient>
<clipPath id="clip0_560_7">
<rect width="50" height="50" fill="white" transform="translate(117 215)"/>
</clipPath>
<clipPath id="clip1_560_7">
<rect width="50" height="50" fill="white" transform="matrix(-1 0 0 1 217 215)"/>
</clipPath>
<clipPath id="clip2_560_7">
<rect width="85" height="85" fill="white" transform="matrix(-1 0 0 1 111 180)"/>
</clipPath>
</defs>
</svg>
