<svg width="331" height="275" viewBox="0 0 331 275" fill="none" xmlns="http://www.w3.org/2000/svg">
<g filter="url(#filter0_d_501_86)">
<rect x="4" width="323" height="267" rx="15" fill="url(#paint0_linear_501_86)" shape-rendering="crispEdges"/>
</g>
<g filter="url(#filter1_d_501_86)">
<path d="M59.2524 79V48.2H79.8884V53.832H65.1924V60.3H74.5204V65.932H65.1924V79H59.2524ZM87.202 53.876C86.2927 53.876 85.5007 53.5533 84.826 52.908C84.1807 52.2333 83.858 51.4413 83.858 50.532C83.858 49.6227 84.1807 48.8453 84.826 48.2C85.4714 47.5547 86.2634 47.232 87.202 47.232C88.1407 47.232 88.9327 47.5547 89.578 48.2C90.2234 48.816 90.546 49.5933 90.546 50.532C90.546 51.4707 90.2234 52.2627 89.578 52.908C88.9327 53.5533 88.1407 53.876 87.202 53.876ZM84.342 79V56.516H90.062V79H84.342ZM110.62 79V66.68C110.62 64.8613 110.297 63.5413 109.652 62.72C109.036 61.8987 108.053 61.488 106.704 61.488C103.859 61.488 102.436 63.1893 102.436 66.592V79H96.716V56.516H102.436V58.628C103.873 56.868 105.883 55.988 108.464 55.988C110.693 55.988 112.556 56.692 114.052 58.1C115.577 59.4787 116.34 61.7227 116.34 64.832V79H110.62ZM130.896 79.528C128.021 79.528 125.748 78.5013 124.076 76.448C122.433 74.3947 121.612 71.4907 121.612 67.736C121.612 64.1573 122.477 61.312 124.208 59.2C125.968 57.0587 128.212 55.988 130.94 55.988C132.993 55.988 134.592 56.7067 135.736 58.144V49.828L141.456 47.232V79H135.736V77.372C134.768 78.8093 133.155 79.528 130.896 79.528ZM131.82 74.028C133.58 74.028 134.885 73.4267 135.736 72.224V63.336C134.827 62.104 133.521 61.488 131.82 61.488C130.383 61.488 129.268 62.0307 128.476 63.116C127.713 64.172 127.332 65.712 127.332 67.736C127.332 69.7013 127.713 71.2413 128.476 72.356C129.268 73.4707 130.383 74.028 131.82 74.028ZM171.824 79V77.372C170.386 78.8093 168.45 79.528 166.016 79.528C163.581 79.528 161.586 78.8827 160.032 77.592C158.506 76.3013 157.744 74.468 157.744 72.092C157.744 69.6573 158.609 67.8093 160.34 66.548C162.1 65.2867 164.212 64.656 166.676 64.656C168.641 64.656 170.357 65.008 171.824 65.712V64.568C171.824 62.192 170.474 61.004 167.776 61.004C165.312 61.004 162.994 61.752 160.824 63.248L159.064 58.628C161.674 56.868 164.74 55.988 168.26 55.988C169.462 55.988 170.518 56.0907 171.428 56.296C172.366 56.5013 173.334 56.8827 174.332 57.44C175.329 57.9973 176.092 58.892 176.62 60.124C177.177 61.3267 177.456 62.8373 177.456 64.656V79H171.824ZM167.116 74.512C168.905 74.512 170.474 73.896 171.824 72.664V70.244C170.592 69.7453 169.198 69.496 167.644 69.496C166.353 69.496 165.312 69.716 164.52 70.156C163.728 70.5667 163.332 71.212 163.332 72.092C163.332 72.8253 163.654 73.412 164.3 73.852C164.974 74.292 165.913 74.512 167.116 74.512ZM202.035 79.528C200.216 79.528 198.485 79.1613 196.843 78.428C195.2 77.6947 193.939 76.712 193.059 75.48L196.843 72.268C198.456 73.8813 200.216 74.688 202.123 74.688C204.381 74.688 205.511 74.028 205.511 72.708C205.511 72.092 205.203 71.5933 204.587 71.212C204 70.8013 202.944 70.3027 201.419 69.716C198.749 68.836 196.799 67.8533 195.567 66.768C194.335 65.6533 193.719 64.172 193.719 62.324C193.719 60.3587 194.496 58.8187 196.051 57.704C197.605 56.56 199.556 55.988 201.903 55.988C205.305 55.988 208.048 57.1907 210.131 59.596L206.303 62.72C204.953 61.4587 203.487 60.828 201.903 60.828C199.996 60.828 199.043 61.3853 199.043 62.5C199.043 63.4387 200.509 64.348 203.443 65.228C205.789 65.9907 207.608 66.9293 208.899 68.044C210.189 69.1293 210.835 70.684 210.835 72.708C210.835 74.8787 210.043 76.5653 208.459 77.768C206.875 78.9413 204.733 79.528 202.035 79.528ZM232.934 76.404C231.086 78.4867 228.564 79.528 225.366 79.528C222.169 79.528 219.646 78.4867 217.798 76.404C215.95 74.3213 215.026 71.4467 215.026 67.78C215.026 64.1427 215.95 61.268 217.798 59.156C219.676 57.044 222.198 55.988 225.366 55.988C228.534 55.988 231.042 57.044 232.89 59.156C234.768 61.268 235.706 64.1427 235.706 67.78C235.706 71.4467 234.782 74.3213 232.934 76.404ZM225.366 74.028C226.804 74.028 227.933 73.4853 228.754 72.4C229.576 71.2853 229.986 69.7453 229.986 67.78C229.986 65.8147 229.576 64.2747 228.754 63.16C227.933 62.0453 226.804 61.488 225.366 61.488C223.958 61.488 222.829 62.06 221.978 63.204C221.157 64.3187 220.746 65.844 220.746 67.78C220.746 69.716 221.157 71.2413 221.978 72.356C222.829 73.4707 223.958 74.028 225.366 74.028ZM255.124 79V66.68C255.124 64.8613 254.801 63.5413 254.156 62.72C253.54 61.8987 252.557 61.488 251.208 61.488C248.363 61.488 246.94 63.1893 246.94 66.592V79H241.22V56.516H246.94V58.628C248.377 56.868 250.387 55.988 252.968 55.988C255.197 55.988 257.06 56.692 258.556 58.1C260.081 59.4787 260.844 61.7227 260.844 64.832V79H255.124ZM275.356 87.8L272.188 83.048C275.297 82.8133 277.409 82.3733 278.524 81.728C279.668 81.112 280.24 80.012 280.24 78.428V77.812C279.096 78.956 277.483 79.528 275.4 79.528C272.613 79.528 270.369 78.516 268.668 76.492C266.967 74.4387 266.116 71.52 266.116 67.736C266.116 64.1573 266.967 61.312 268.668 59.2C270.399 57.0587 272.657 55.988 275.444 55.988C277.439 55.988 279.037 56.56 280.24 57.704V56.516H285.96V75.964C285.96 79.9827 285.212 82.872 283.716 84.632C282.249 86.4213 279.463 87.4773 275.356 87.8ZM276.324 74.028C278.055 74.028 279.36 73.4267 280.24 72.224V63.336C279.213 62.104 277.908 61.488 276.324 61.488C274.887 61.488 273.772 62.0307 272.98 63.116C272.217 64.172 271.836 65.712 271.836 67.736C271.836 69.6427 272.217 71.168 272.98 72.312C273.743 73.456 274.857 74.028 276.324 74.028Z" fill="#F8F8F8"/>
</g>
<g clip-path="url(#clip0_501_86)">
<path d="M90.9343 252.676L81.3008 196.424C82.2708 196.315 83.1221 195.629 83.3919 194.629C83.715 193.432 83.1523 192.026 81.4492 191.567C81.3149 192.111 81.4662 191.654 78.3433 200.06L87.4563 253.272C87.6208 254.232 88.5324 254.878 89.4931 254.713C90.4534 254.549 91.0986 253.637 90.9343 252.676Z" fill="#303030"/>
<path d="M72.5004 206.959L78.3365 191.25C79.0647 189.29 78.0659 187.11 76.1056 186.382C74.1453 185.653 71.9656 186.652 71.2374 188.612L66.5604 201.201L54.7754 198.477L63.6642 198.747C62.5955 196.388 60.0003 195.001 57.3611 195.557L47.5088 197.631C44.4576 198.273 42.5047 201.267 43.147 204.318L48.8647 231.485L48.0899 244.682L38.6848 260.315C37.429 262.402 38.1031 265.112 40.1905 266.368C42.2783 267.624 44.9883 266.949 46.2439 264.862L56.2089 248.298C56.5766 247.687 56.7907 246.996 56.8327 246.283L57.739 230.849L61.3425 230.09L66.2018 241.911L66.4141 262.634C66.4389 265.032 68.3852 267.015 70.8698 266.999C73.3058 266.974 75.2601 264.979 75.2353 262.543L75.0142 240.973C75.0086 240.413 74.8961 239.859 74.6834 239.342L69.8957 227.694L66.5825 211.953L53.0705 205.855L68.0987 209.33C69.9524 209.758 71.8372 208.744 72.5004 206.959Z" fill="#303030"/>
<path d="M68.127 187.972C67.6793 186.479 66.4931 185.245 64.8771 184.809C62.6454 184.206 60.3559 185.333 59.4276 187.369C59.7222 186.183 59.7605 184.914 59.4919 183.638C58.5411 179.121 54.1088 176.23 49.592 177.181C45.0749 178.132 42.1841 182.564 43.1348 187.081C44.0856 191.598 48.5181 194.489 53.0348 193.538C55.8932 192.936 58.0987 190.94 59.0934 188.411C58.6246 190.791 60.0722 193.162 62.4503 193.804C63.8065 194.17 65.1837 193.896 66.2646 193.169C66.9631 191.289 67.4979 189.85 68.1892 187.989L68.127 187.972Z" fill="#303030"/>
<path d="M109.87 180.011L109.869 180.008C108.402 180.341 98.4763 182.593 96.7352 182.989L96.7402 183.01C96.229 183.24 95.8725 183.753 95.8725 184.35V194.336C95.413 194.217 94.9191 194.152 94.4039 194.152C91.9688 194.152 89.9948 195.6 89.9948 197.387C89.9948 199.173 91.9688 200.621 94.4039 200.621C97.0214 200.621 98.7342 198.973 98.7813 197.004C98.7866 196.783 98.804 195.065 98.8131 188.146L109.007 185.832V191.335C108.547 191.216 108.053 191.151 107.538 191.151C105.103 191.151 103.129 192.599 103.129 194.385C103.129 196.172 105.103 197.62 107.538 197.62C110.155 197.62 111.869 195.973 111.916 194.003C111.921 193.778 111.933 192.75 111.947 181.35C111.947 180.284 110.845 179.568 109.87 180.011Z" fill="#303030"/>
</g>
<g clip-path="url(#clip1_501_86)">
<path d="M188.349 182.976C183.8 177.418 175.775 176.41 169.999 180.489C169.999 180.489 170.441 182.058 170.938 183.195C170.965 183.261 171.002 183.289 171.031 183.335C172.302 186.397 174.302 189.769 176.996 193.064C180.164 196.932 183.649 199.958 186.795 201.785C192.27 196.976 192.998 188.663 188.349 182.976ZM188.143 192.639C188.401 192.288 188.923 192.229 189.298 192.507C189.681 192.786 189.472 193.688 189.451 193.711C189.431 193.761 189.417 193.817 189.381 193.864C189.135 194.199 188.645 194.257 188.286 193.99C187.966 193.757 188.058 192.759 188.143 192.639ZM189.411 198.229C189.126 198.607 188.701 198.765 188.463 198.584C188.336 198.487 188.365 197.638 188.543 197.404C188.83 197.025 189.255 196.869 189.491 197.049C189.623 197.144 189.585 197.993 189.411 198.229ZM190.844 191.962C190.595 192.165 190.174 192.063 189.902 191.726C189.753 191.546 189.674 190.708 189.832 190.581C190.08 190.379 190.502 190.483 190.774 190.818C190.92 190.994 190.999 191.834 190.844 191.962ZM189.233 186.643C189.429 186.484 189.825 186.636 190.114 186.988C190.27 187.176 190.447 187.99 190.323 188.092C190.124 188.251 189.727 188.102 189.442 187.747C189.284 187.555 189.112 186.745 189.233 186.643ZM189.115 189.375C188.837 189.604 188.363 189.488 188.06 189.118C187.896 188.919 187.811 187.976 187.987 187.83C188.27 187.601 188.742 187.716 189.046 188.088C189.211 188.29 189.291 189.233 189.115 189.375ZM187.175 183.243C187.355 183.097 187.767 183.299 188.094 183.702C188.271 183.918 188.538 184.787 188.425 184.879C188.248 185.022 187.842 184.819 187.51 184.418C187.333 184.198 187.062 183.331 187.175 183.243ZM186.845 184.934C187.024 185.15 187.127 186.156 186.943 186.309C186.651 186.548 186.15 186.414 185.822 186.017C185.646 185.798 185.543 184.792 185.722 184.643C186.018 184.399 186.518 184.532 186.845 184.934ZM184.58 186.55C184.759 186.765 184.792 187.827 184.58 188.003C184.249 188.275 183.704 188.177 183.375 187.774C183.2 187.559 183.163 186.501 183.375 186.329C183.713 186.049 184.253 186.149 184.58 186.55ZM180.624 178.891C180.888 178.675 181.303 178.745 181.549 179.05C181.798 179.352 181.788 179.774 181.521 179.99C181.261 180.202 180.846 180.129 180.599 179.826C180.352 179.524 180.362 179.103 180.624 178.891ZM173.81 180.199C173.577 180.387 173.318 180.466 173.109 180.45C172.912 180.484 172.731 180.45 172.633 180.327C172.444 180.095 172.587 179.664 172.949 179.366C173.181 179.178 173.44 179.098 173.648 179.115C173.848 179.083 174.026 179.118 174.13 179.241C174.317 179.471 174.174 179.899 173.81 180.199ZM176.211 182.802C175.842 183.101 175.302 183.051 175.003 182.686C174.819 182.456 174.974 181.429 175.174 181.267C175.543 180.964 176.082 181.015 176.385 181.379C176.566 181.607 176.415 182.636 176.211 182.802ZM176.756 179.286C176.349 179.335 175.97 179.154 175.917 178.882C175.861 178.614 176.146 178.351 176.554 178.301C176.965 178.252 177.34 178.43 177.397 178.702C177.456 178.974 177.168 179.235 176.756 179.286ZM178.614 186.696C178.246 186.998 177.685 186.915 177.357 186.514C177.181 186.298 177.185 185.205 177.41 185.018C177.778 184.715 178.342 184.799 178.667 185.203C178.845 185.419 178.838 186.511 178.614 186.696ZM179.019 180.839C178.694 181.191 178.2 181.256 177.917 180.995C177.74 180.828 177.851 179.873 178.027 179.684C178.351 179.339 178.843 179.266 179.127 179.531C179.304 179.697 179.193 180.648 179.019 180.839ZM181.531 190.636C181.141 190.951 180.545 190.862 180.2 190.437C180.011 190.208 180.013 189.045 180.254 188.848C180.641 188.532 181.239 188.619 181.584 189.047C181.775 189.275 181.775 190.437 181.531 190.636ZM181.677 184.447C181.344 184.722 180.794 184.623 180.473 184.218C180.296 184.002 180.258 182.948 180.473 182.771C180.809 182.496 181.347 182.593 181.677 182.997C181.858 183.213 181.886 184.274 181.677 184.447ZM182.76 181.076C183.035 180.844 183.508 180.961 183.815 181.335C183.981 181.533 184.058 182.476 183.888 182.618C183.606 182.848 183.132 182.73 182.83 182.36C182.663 182.158 182.583 181.22 182.76 181.076ZM184.588 193.582C184.222 193.881 183.657 193.798 183.334 193.399C183.157 193.18 183.159 192.09 183.39 191.899C183.752 191.601 184.316 191.683 184.643 192.084C184.82 192.302 184.817 193.393 184.588 193.582ZM184.848 181.594C184.712 181.406 184.609 180.609 184.743 180.516C184.952 180.366 185.328 180.536 185.577 180.891C185.711 181.083 185.812 181.876 185.681 181.97C185.47 182.116 185.099 181.949 184.848 181.594ZM185.777 189.621C186.115 189.342 186.657 189.444 186.984 189.843C187.162 190.058 187.193 191.12 186.981 191.295C186.648 191.57 186.105 191.468 185.777 191.069C185.6 190.852 185.568 189.794 185.777 189.621ZM186.071 196.597C185.906 196.401 185.955 195.359 186.185 195.171C186.55 194.874 187.088 194.931 187.389 195.299C187.551 195.495 187.505 196.537 187.278 196.726C186.911 197.025 186.372 196.965 186.071 196.597Z" fill="#303030"/>
<path d="M184.946 203.154C181.868 201.309 178.486 198.351 175.413 194.586C171.794 190.173 169.343 185.566 168.364 181.839C165.758 184.366 164.372 187.734 164.259 191.155C165.29 193.936 166.896 196.791 169.096 199.465C170.852 201.609 172.804 203.395 174.806 204.825C175.144 204.902 175.486 204.956 175.829 205.005C175.862 205.027 175.895 205.054 175.927 205.077L175.987 205.034C179.027 205.448 182.201 204.847 184.946 203.154Z" fill="#303030"/>
<path d="M143.944 262.192C143.944 265.402 151.412 268 160.621 268C169.829 268 177.295 265.402 177.295 262.192C177.295 259.204 170.804 256.745 162.469 256.426V216.267L166.625 212.886C166.976 212.603 167.072 212.085 166.957 211.498L173.181 207.041C171.029 205.566 168.925 203.659 167.043 201.362C164.687 198.494 162.982 195.412 161.971 192.446L155.654 198.215C155.348 198.191 155.063 198.225 154.851 198.397L146.85 204.898C146.461 205.214 146.407 205.822 146.587 206.493L142.642 210.095C140.36 211.962 139.906 215.179 141.629 217.286L145.095 221.52C146.821 223.626 150.065 223.82 152.347 221.956L156.48 218.997C156.7 219.159 156.924 219.298 157.147 219.394V256.51C149.605 257.071 143.944 259.399 143.944 262.192Z" fill="#303030"/>
</g>
<g clip-path="url(#clip2_501_86)">
<path d="M242.066 252.676L251.699 196.424C250.729 196.315 249.878 195.629 249.608 194.629C249.285 193.432 249.848 192.026 251.551 191.567C251.685 192.111 251.534 191.654 254.657 200.06L245.544 253.272C245.379 254.232 244.468 254.878 243.507 254.713C242.547 254.549 241.901 253.637 242.066 252.676Z" fill="#303030"/>
<path d="M260.5 206.959L254.664 191.25C253.935 189.29 254.934 187.11 256.894 186.382C258.855 185.653 261.034 186.652 261.763 188.612L266.44 201.201L278.225 198.477L269.336 198.747C270.405 196.388 273 195.001 275.639 195.557L285.491 197.631C288.542 198.273 290.495 201.267 289.853 204.318L284.135 231.485L284.91 244.682L294.315 260.315C295.571 262.402 294.897 265.112 292.809 266.368C290.722 267.624 288.012 266.949 286.756 264.862L276.791 248.298C276.423 247.687 276.209 246.996 276.167 246.283L275.261 230.849L271.657 230.09L266.798 241.911L266.586 262.634C266.561 265.032 264.615 267.015 262.13 266.999C259.694 266.974 257.74 264.979 257.765 262.543L257.986 240.973C257.991 240.413 258.104 239.859 258.317 239.342L263.104 227.694L266.417 211.953L279.93 205.855L264.901 209.33C263.048 209.758 261.163 208.744 260.5 206.959Z" fill="#303030"/>
<path d="M264.873 187.972C265.321 186.479 266.507 185.245 268.123 184.809C270.355 184.206 272.644 185.333 273.572 187.369C273.278 186.183 273.239 184.914 273.508 183.638C274.459 179.121 278.891 176.23 283.408 177.181C287.925 178.132 290.816 182.564 289.865 187.081C288.914 191.598 284.482 194.489 279.965 193.538C277.107 192.936 274.901 190.94 273.907 188.411C274.375 190.791 272.928 193.162 270.55 193.804C269.194 194.17 267.816 193.896 266.735 193.169C266.037 191.289 265.502 189.85 264.811 187.989L264.873 187.972Z" fill="#303030"/>
<path d="M223.13 180.011L223.131 180.008C224.598 180.341 234.524 182.593 236.265 182.989L236.26 183.01C236.771 183.24 237.127 183.753 237.127 184.35V194.336C237.587 194.217 238.081 194.152 238.596 194.152C241.031 194.152 243.005 195.6 243.005 197.387C243.005 199.173 241.031 200.621 238.596 200.621C235.979 200.621 234.266 198.973 234.219 197.004C234.213 196.783 234.196 195.065 234.187 188.146L223.993 185.832V191.335C224.453 191.216 224.947 191.151 225.462 191.151C227.897 191.151 229.871 192.599 229.871 194.385C229.871 196.172 227.897 197.62 225.462 197.62C222.845 197.62 221.131 195.973 221.084 194.003C221.079 193.778 221.067 192.75 221.053 181.35C221.053 180.284 222.155 179.568 223.13 180.011Z" fill="#303030"/>
</g>
<defs>
<filter id="filter0_d_501_86" x="0" y="0" width="331" height="275" filterUnits="userSpaceOnUse" color-interpolation-filters="sRGB">
<feFlood flood-opacity="0" result="BackgroundImageFix"/>
<feColorMatrix in="SourceAlpha" type="matrix" values="0 0 0 0 0 0 0 0 0 0 0 0 0 0 0 0 0 0 127 0" result="hardAlpha"/>
<feOffset dy="4"/>
<feGaussianBlur stdDeviation="2"/>
<feComposite in2="hardAlpha" operator="out"/>
<feColorMatrix type="matrix" values="0 0 0 0 0.188235 0 0 0 0 0.188235 0 0 0 0 0.188235 0 0 0 0.25 0"/>
<feBlend mode="normal" in2="BackgroundImageFix" result="effect1_dropShadow_501_86"/>
<feBlend mode="normal" in="SourceGraphic" in2="effect1_dropShadow_501_86" result="shape"/>
</filter>
<filter id="filter1_d_501_86" x="55.2524" y="45.2319" width="238.708" height="52.5679" filterUnits="userSpaceOnUse" color-interpolation-filters="sRGB">
<feFlood flood-opacity="0" result="BackgroundImageFix"/>
<feColorMatrix in="SourceAlpha" type="matrix" values="0 0 0 0 0 0 0 0 0 0 0 0 0 0 0 0 0 0 127 0" result="hardAlpha"/>
<feOffset dx="2" dy="4"/>
<feGaussianBlur stdDeviation="3"/>
<feComposite in2="hardAlpha" operator="out"/>
<feColorMatrix type="matrix" values="0 0 0 0 0.188235 0 0 0 0 0.188235 0 0 0 0 0.188235 0 0 0 0.4 0"/>
<feBlend mode="normal" in2="BackgroundImageFix" result="effect1_dropShadow_501_86"/>
<feBlend mode="normal" in="SourceGraphic" in2="effect1_dropShadow_501_86" result="shape"/>
</filter>
<linearGradient id="paint0_linear_501_86" x1="166.079" y1="-8.90159e-07" x2="166.079" y2="267" gradientUnits="userSpaceOnUse">
<stop stop-color="#FCB0B4" stop-opacity="0.929871"/>
<stop offset="0.208668" stop-color="#FCB0B4" stop-opacity="0.649885"/>
<stop offset="0.341907" stop-color="#FCB0B4" stop-opacity="0.464333"/>
<stop offset="1" stop-color="#BCCCD1" stop-opacity="0.09"/>
<stop offset="1" stop-color="#FCB0B4" stop-opacity="0.09"/>
</linearGradient>
<clipPath id="clip0_501_86">
<rect width="90" height="90" fill="white" transform="translate(30 177)"/>
</clipPath>
<clipPath id="clip1_501_86">
<rect width="90" height="90" fill="white" transform="translate(121 178)"/>
</clipPath>
<clipPath id="clip2_501_86">
<rect width="90" height="90" fill="white" transform="matrix(-1 0 0 1 303 177)"/>
</clipPath>
</defs>
</svg>
