<svg width="331" height="275" viewBox="0 0 331 275" fill="none" xmlns="http://www.w3.org/2000/svg">
<g filter="url(#filter0_d_503_287)">
<rect x="4" width="323" height="267" rx="15" fill="url(#paint0_linear_503_287)" shape-rendering="crispEdges"/>
</g>
<g filter="url(#filter1_d_503_287)">
<path d="M41.3813 79V48.2H62.0173V53.832H47.3213V60.3H56.6493V65.932H47.3213V79H41.3813ZM69.331 53.876C68.4216 53.876 67.6296 53.5533 66.955 52.908C66.3096 52.2333 65.987 51.4413 65.987 50.532C65.987 49.6227 66.3096 48.8453 66.955 48.2C67.6003 47.5547 68.3923 47.232 69.331 47.232C70.2696 47.232 71.0616 47.5547 71.707 48.2C72.3523 48.816 72.675 49.5933 72.675 50.532C72.675 51.4707 72.3523 52.2627 71.707 52.908C71.0616 53.5533 70.2696 53.876 69.331 53.876ZM66.471 79V56.516H72.191V79H66.471ZM92.7489 79V66.68C92.7489 64.8613 92.4263 63.5413 91.7809 62.72C91.1649 61.8987 90.1823 61.488 88.8329 61.488C85.9876 61.488 84.5649 63.1893 84.5649 66.592V79H78.8449V56.516H84.5649V58.628C86.0023 56.868 88.0116 55.988 90.5929 55.988C92.8223 55.988 94.6849 56.692 96.1809 58.1C97.7063 59.4787 98.4689 61.7227 98.4689 64.832V79H92.7489ZM113.025 79.528C110.15 79.528 107.877 78.5013 106.205 76.448C104.562 74.3947 103.741 71.4907 103.741 67.736C103.741 64.1573 104.606 61.312 106.337 59.2C108.097 57.0587 110.341 55.988 113.069 55.988C115.122 55.988 116.721 56.7067 117.865 58.144V49.828L123.585 47.232V79H117.865V77.372C116.897 78.8093 115.284 79.528 113.025 79.528ZM113.949 74.028C115.709 74.028 117.014 73.4267 117.865 72.224V63.336C116.956 62.104 115.65 61.488 113.949 61.488C112.512 61.488 111.397 62.0307 110.605 63.116C109.842 64.172 109.461 65.712 109.461 67.736C109.461 69.7013 109.842 71.2413 110.605 72.356C111.397 73.4707 112.512 74.028 113.949 74.028ZM153.953 79V77.372C152.515 78.8093 150.579 79.528 148.145 79.528C145.71 79.528 143.715 78.8827 142.161 77.592C140.635 76.3013 139.873 74.468 139.873 72.092C139.873 69.6573 140.738 67.8093 142.469 66.548C144.229 65.2867 146.341 64.656 148.805 64.656C150.77 64.656 152.486 65.008 153.953 65.712V64.568C153.953 62.192 152.603 61.004 149.905 61.004C147.441 61.004 145.123 61.752 142.953 63.248L141.193 58.628C143.803 56.868 146.869 55.988 150.389 55.988C151.591 55.988 152.647 56.0907 153.557 56.296C154.495 56.5013 155.463 56.8827 156.461 57.44C157.458 57.9973 158.221 58.892 158.749 60.124C159.306 61.3267 159.585 62.8373 159.585 64.656V79H153.953ZM149.245 74.512C151.034 74.512 152.603 73.896 153.953 72.664V70.244C152.721 69.7453 151.327 69.496 149.773 69.496C148.482 69.496 147.441 69.716 146.649 70.156C145.857 70.5667 145.461 71.212 145.461 72.092C145.461 72.8253 145.783 73.412 146.429 73.852C147.103 74.292 148.042 74.512 149.245 74.512ZM184.164 79.528C182.345 79.528 180.614 79.1613 178.972 78.428C177.329 77.6947 176.068 76.712 175.188 75.48L178.972 72.268C180.585 73.8813 182.345 74.688 184.252 74.688C186.51 74.688 187.64 74.028 187.64 72.708C187.64 72.092 187.332 71.5933 186.716 71.212C186.129 70.8013 185.073 70.3027 183.548 69.716C180.878 68.836 178.928 67.8533 177.696 66.768C176.464 65.6533 175.848 64.172 175.848 62.324C175.848 60.3587 176.625 58.8187 178.18 57.704C179.734 56.56 181.685 55.988 184.032 55.988C187.434 55.988 190.177 57.1907 192.26 59.596L188.432 62.72C187.082 61.4587 185.616 60.828 184.032 60.828C182.125 60.828 181.172 61.3853 181.172 62.5C181.172 63.4387 182.638 64.348 185.572 65.228C187.918 65.9907 189.737 66.9293 191.028 68.044C192.318 69.1293 192.964 70.684 192.964 72.708C192.964 74.8787 192.172 76.5653 190.588 77.768C189.004 78.9413 186.862 79.528 184.164 79.528ZM215.063 76.404C213.215 78.4867 210.692 79.528 207.495 79.528C204.298 79.528 201.775 78.4867 199.927 76.404C198.079 74.3213 197.155 71.4467 197.155 67.78C197.155 64.1427 198.079 61.268 199.927 59.156C201.804 57.044 204.327 55.988 207.495 55.988C210.663 55.988 213.171 57.044 215.019 59.156C216.896 61.268 217.835 64.1427 217.835 67.78C217.835 71.4467 216.911 74.3213 215.063 76.404ZM207.495 74.028C208.932 74.028 210.062 73.4853 210.883 72.4C211.704 71.2853 212.115 69.7453 212.115 67.78C212.115 65.8147 211.704 64.2747 210.883 63.16C210.062 62.0453 208.932 61.488 207.495 61.488C206.087 61.488 204.958 62.06 204.107 63.204C203.286 64.3187 202.875 65.844 202.875 67.78C202.875 69.716 203.286 71.2413 204.107 72.356C204.958 73.4707 206.087 74.028 207.495 74.028ZM237.253 79V66.68C237.253 64.8613 236.93 63.5413 236.285 62.72C235.669 61.8987 234.686 61.488 233.337 61.488C230.491 61.488 229.069 63.1893 229.069 66.592V79H223.349V56.516H229.069V58.628C230.506 56.868 232.515 55.988 235.097 55.988C237.326 55.988 239.189 56.692 240.685 58.1C242.21 59.4787 242.973 61.7227 242.973 64.832V79H237.253ZM257.485 87.8L254.317 83.048C257.426 82.8133 259.538 82.3733 260.653 81.728C261.797 81.112 262.369 80.012 262.369 78.428V77.812C261.225 78.956 259.612 79.528 257.529 79.528C254.742 79.528 252.498 78.516 250.797 76.492C249.096 74.4387 248.245 71.52 248.245 67.736C248.245 64.1573 249.096 61.312 250.797 59.2C252.528 57.0587 254.786 55.988 257.573 55.988C259.568 55.988 261.166 56.56 262.369 57.704V56.516H268.089V75.964C268.089 79.9827 267.341 82.872 265.845 84.632C264.378 86.4213 261.592 87.4773 257.485 87.8ZM258.453 74.028C260.184 74.028 261.489 73.4267 262.369 72.224V63.336C261.342 62.104 260.037 61.488 258.453 61.488C257.016 61.488 255.901 62.0307 255.109 63.116C254.346 64.172 253.965 65.712 253.965 67.736C253.965 69.6427 254.346 71.168 255.109 72.312C255.872 73.456 256.986 74.028 258.453 74.028ZM282.132 79.528C280.314 79.528 278.583 79.1613 276.94 78.428C275.298 77.6947 274.036 76.712 273.156 75.48L276.94 72.268C278.554 73.8813 280.314 74.688 282.22 74.688C284.479 74.688 285.608 74.028 285.608 72.708C285.608 72.092 285.3 71.5933 284.684 71.212C284.098 70.8013 283.042 70.3027 281.516 69.716C278.847 68.836 276.896 67.8533 275.664 66.768C274.432 65.6533 273.816 64.172 273.816 62.324C273.816 60.3587 274.594 58.8187 276.148 57.704C277.703 56.56 279.654 55.988 282 55.988C285.403 55.988 288.146 57.1907 290.228 59.596L286.4 62.72C285.051 61.4587 283.584 60.828 282 60.828C280.094 60.828 279.14 61.3853 279.14 62.5C279.14 63.4387 280.607 64.348 283.54 65.228C285.887 65.9907 287.706 66.9293 288.996 68.044C290.287 69.1293 290.932 70.684 290.932 72.708C290.932 74.8787 290.14 76.5653 288.556 77.768C286.972 78.9413 284.831 79.528 282.132 79.528ZM117.751 154.8L114.583 150.048C117.692 149.813 119.804 149.373 120.919 148.728C122.063 148.112 122.635 147.012 122.635 145.428V144.812C121.491 145.956 119.877 146.528 117.795 146.528C115.008 146.528 112.764 145.516 111.063 143.492C109.361 141.439 108.511 138.52 108.511 134.736C108.511 131.157 109.361 128.312 111.063 126.2C112.793 124.059 115.052 122.988 117.839 122.988C119.833 122.988 121.432 123.56 122.635 124.704V123.516H128.355V142.964C128.355 146.983 127.607 149.872 126.111 151.632C124.644 153.421 121.857 154.477 117.751 154.8ZM118.719 141.028C120.449 141.028 121.755 140.427 122.635 139.224V130.336C121.608 129.104 120.303 128.488 118.719 128.488C117.281 128.488 116.167 129.031 115.375 130.116C114.612 131.172 114.231 132.712 114.231 134.736C114.231 136.643 114.612 138.168 115.375 139.312C116.137 140.456 117.252 141.028 118.719 141.028ZM144.378 146.528C141.122 146.528 138.555 145.487 136.678 143.404C134.801 141.321 133.862 138.432 133.862 134.736C133.862 131.128 134.801 128.268 136.678 126.156C138.585 124.044 141.151 122.988 144.378 122.988C147.311 122.988 149.702 123.897 151.55 125.716C153.398 127.505 154.322 130.131 154.322 133.592C154.322 135.029 154.263 136.159 154.146 136.98H139.494C139.611 138.388 140.125 139.503 141.034 140.324C141.973 141.116 143.087 141.512 144.378 141.512C146.373 141.512 147.986 140.735 149.218 139.18L152.738 142.744C150.655 145.267 147.869 146.528 144.378 146.528ZM139.538 132.14H148.734C148.558 130.849 148.074 129.837 147.282 129.104C146.519 128.371 145.551 128.004 144.378 128.004C141.503 128.004 139.89 129.383 139.538 132.14ZM173.487 146V133.68C173.487 131.861 173.165 130.541 172.519 129.72C171.903 128.899 170.921 128.488 169.571 128.488C166.726 128.488 165.303 130.189 165.303 133.592V146H159.583V123.516H165.303V125.628C166.741 123.868 168.75 122.988 171.331 122.988C173.561 122.988 175.423 123.692 176.919 125.1C178.445 126.479 179.207 128.723 179.207 131.832V146H173.487ZM185.579 146V123.516H191.299V125.496C192.091 123.824 193.485 122.988 195.479 122.988C197.151 122.988 198.677 123.56 200.055 124.704L199.263 129.94C198.031 129.06 196.667 128.62 195.171 128.62C192.59 128.62 191.299 130.233 191.299 133.46V146H185.579ZM212.784 146.528C209.528 146.528 206.962 145.487 205.084 143.404C203.207 141.321 202.268 138.432 202.268 134.736C202.268 131.128 203.207 128.268 205.084 126.156C206.991 124.044 209.558 122.988 212.784 122.988C215.718 122.988 218.108 123.897 219.956 125.716C221.804 127.505 222.728 130.131 222.728 133.592C222.728 135.029 222.67 136.159 222.552 136.98H207.9C208.018 138.388 208.531 139.503 209.44 140.324C210.379 141.116 211.494 141.512 212.784 141.512C214.779 141.512 216.392 140.735 217.624 139.18L221.144 142.744C219.062 145.267 216.275 146.528 212.784 146.528ZM207.944 132.14H217.14C216.964 130.849 216.48 129.837 215.688 129.104C214.926 128.371 213.958 128.004 212.784 128.004C209.91 128.004 208.296 129.383 207.944 132.14Z" fill="#F8F8F8"/>
</g>
<g clip-path="url(#clip0_503_287)">
<path d="M269.967 261.591C275.001 256.557 276.457 249.079 274.601 241.633C274.958 238.145 277.47 236.801 279.21 236.286C280.209 236.196 281.224 236.014 282.237 235.695C288.654 233.696 293.268 227.212 291.434 224.309C290.208 222.369 288.982 221.24 285.341 223.039H285.34L285.337 223.042C284.922 223.246 284.475 223.49 283.996 223.774C282.677 224.358 280.678 224.857 279.373 223.399C278.049 221.921 278.754 219.496 279.453 217.909L297.47 199.609L297.476 199.616C297.508 199.579 297.539 199.544 297.571 199.508L298.046 199.024C299.703 197.534 301.919 197.259 303.116 198.456C303.17 198.51 303.202 198.576 303.251 198.634C303.322 198.455 303.399 198.272 303.485 198.087C304.357 196.175 305.9 193.989 307.957 191.931C309.834 190.054 311.82 188.599 313.606 187.695C313.779 187.607 313.945 187.534 314.113 187.456L315.027 186.542C314.953 185.962 315.045 185.242 315.505 184.383C315.505 184.383 314.007 182.3 313.897 180.947C313.839 180.233 313.406 180.064 313.008 180.059C312.653 180.055 312.325 180.181 312.325 180.181C312.325 180.181 312.45 179.853 312.446 179.497C312.44 179.1 312.27 178.666 311.557 178.609C310.205 178.499 308.123 177 308.123 177C307.264 177.461 306.544 177.553 305.963 177.478L305.049 178.392C304.973 178.56 304.899 178.726 304.812 178.899C303.909 180.684 302.453 182.671 300.575 184.548C298.518 186.604 296.331 188.15 294.42 189.021C294.234 189.105 294.052 189.183 293.872 189.254C293.931 189.303 293.996 189.336 294.05 189.391C295.133 190.473 295.018 192.391 293.885 193.974L275.147 213.005C273.548 213.906 270.611 215.17 269.252 213.226C267.722 211.034 268.7 208.439 269.158 207.48C269.223 207.355 269.289 207.231 269.349 207.111C269.35 207.108 269.356 207.098 269.356 207.098L269.355 207.097C271.172 203.434 270.04 202.206 268.097 200.977C265.193 199.142 258.712 203.759 256.71 210.174C256.547 210.696 256.429 211.218 256.327 211.74L256.32 211.737C256.32 211.737 256.316 211.783 256.307 211.858C256.265 212.089 256.217 212.32 256.185 212.549C255.774 214.429 254.187 218.879 248.424 218.274V218.275C242.167 217.576 236.162 219.273 231.904 223.53C223.436 231.998 225.091 247.384 235.602 257.895C246.115 268.404 261.499 270.059 269.967 261.591Z" fill="#303030"/>
</g>
<g clip-path="url(#clip1_503_287)">
<path d="M62.0328 261.591C56.9994 256.557 55.5428 249.079 57.3988 241.633C57.0421 238.145 54.5301 236.801 52.7899 236.286C51.7912 236.196 50.7755 236.014 49.7628 235.695C43.3464 233.696 38.7317 227.212 40.5662 224.309C41.7915 222.369 43.0183 221.24 46.6586 223.039H46.6603L46.663 223.042C47.0782 223.246 47.5247 223.49 48.0038 223.774C49.3234 224.358 51.3221 224.857 52.6273 223.399C53.9511 221.921 53.2464 219.496 52.5475 217.909L34.5305 199.609L34.5236 199.616C34.4922 199.579 34.4608 199.544 34.4294 199.508L33.9542 199.024C32.2965 197.534 30.0811 197.259 28.8843 198.456C28.8303 198.51 28.7976 198.576 28.7491 198.634C28.6777 198.455 28.6006 198.272 28.5149 198.087C27.6433 196.175 26.0997 193.989 24.0429 191.931C22.1657 190.054 20.18 188.599 18.394 187.695C18.2213 187.607 18.0546 187.534 17.8874 187.456L16.9733 186.542C17.0474 185.962 16.9546 185.242 16.4953 184.383C16.4953 184.383 17.9934 182.3 18.1031 180.947C18.1615 180.233 18.5937 180.064 18.9918 180.059C19.3472 180.055 19.675 180.181 19.675 180.181C19.675 180.181 19.5497 179.853 19.5541 179.497C19.5599 179.1 19.7296 178.666 20.4428 178.609C21.7946 178.499 23.8771 177 23.8771 177C24.7357 177.461 25.4562 177.553 26.0369 177.478L26.9512 178.392C27.0267 178.56 27.1008 178.726 27.1879 178.899C28.0907 180.684 29.5472 182.671 31.4246 184.548C33.4817 186.604 35.6685 188.15 37.5801 189.021C37.7655 189.105 37.9482 189.183 38.1278 189.254C38.0694 189.303 38.0038 189.336 37.9496 189.391C36.8669 190.473 36.9823 192.391 38.1151 193.974L56.8525 213.005C58.4517 213.906 61.389 215.17 62.7477 213.226C64.2783 211.034 63.2998 208.439 62.8425 207.48C62.7769 207.355 62.7111 207.231 62.6513 207.111C62.6499 207.108 62.6436 207.098 62.6436 207.098L62.6455 207.097C60.8281 203.434 61.9601 202.206 63.9031 200.977C66.8068 199.142 73.2882 203.759 75.2896 210.174C75.453 210.696 75.5714 211.218 75.6728 211.74L75.6797 211.737C75.6797 211.737 75.6841 211.783 75.6926 211.858C75.7353 212.089 75.7833 212.32 75.8152 212.549C76.226 214.429 77.8125 218.879 83.5763 218.274V218.275C89.8329 217.576 95.8378 219.273 100.096 223.53C108.564 231.998 106.909 247.384 96.3978 257.895C85.8855 268.404 70.5013 270.059 62.0328 261.591Z" fill="#303030"/>
</g>
<path d="M210.145 257.912H121.855C121.383 257.912 121 257.528 121 257.057V186.943C121 186.471 121.383 186.088 121.855 186.088H210.145C210.617 186.088 211 186.471 211 186.943V257.057C211 257.529 210.617 257.912 210.145 257.912ZM166.855 256.201H209.29V187.798H166.855V256.201ZM122.71 256.201H165.145V187.798H122.71V256.201ZM178.314 247.865H177.708C177.236 247.865 176.853 247.482 176.853 247.01C176.853 246.538 177.236 246.155 177.708 246.155H178.314C178.49 246.155 178.634 246.011 178.634 245.834V244.872H171.58C171.108 244.872 170.725 244.489 170.725 244.017C170.725 243.545 171.108 243.162 171.58 243.162H178.634V241.025C178.634 240.553 179.017 240.17 179.489 240.17C179.961 240.17 180.344 240.553 180.344 241.025V243.162H194.613V240.347C194.613 240.032 194.786 239.742 195.065 239.593C195.342 239.444 195.68 239.461 195.942 239.636L197.118 240.42C197.511 240.682 197.617 241.213 197.355 241.606C197.126 241.949 196.693 242.073 196.323 241.924V243.162H201.698V239.92C201.698 239.448 202.081 239.065 202.553 239.065C203.025 239.065 203.408 239.448 203.408 239.92V243.162H204.713C205.185 243.162 205.568 243.545 205.568 244.017C205.568 244.489 205.185 244.872 204.713 244.872H203.403C203.33 245.926 202.45 246.76 201.378 246.76H200.772C200.3 246.76 199.917 246.377 199.917 245.905C199.917 245.433 200.3 245.05 200.772 245.05H201.378C201.504 245.05 201.613 244.977 201.665 244.872H196.324V245.157C196.324 246.277 195.413 247.188 194.293 247.188H193.687C193.215 247.188 192.832 246.805 192.832 246.333C192.832 245.861 193.215 245.478 193.687 245.478H194.293C194.47 245.478 194.614 245.334 194.614 245.157V244.872H180.345V245.834C180.344 246.954 179.433 247.865 178.314 247.865ZM150.258 247.188H149.652C149.18 247.188 148.797 246.805 148.797 246.333C148.797 245.861 149.18 245.478 149.652 245.478H150.258C150.434 245.478 150.578 245.334 150.578 245.157V244.872H127.546C127.074 244.872 126.691 244.489 126.691 244.017C126.691 243.545 127.074 243.162 127.546 243.162H150.578V240.347C150.578 240.032 150.752 239.742 151.03 239.593C151.307 239.444 151.646 239.461 151.908 239.636L153.084 240.42C153.476 240.682 153.583 241.213 153.321 241.606C153.092 241.949 152.658 242.073 152.289 241.924V243.162H157.664V239.92C157.664 239.448 158.047 239.065 158.519 239.065C158.991 239.065 159.374 239.448 159.374 239.92V243.162H160.679C161.151 243.162 161.534 243.545 161.534 244.017C161.534 244.489 161.151 244.872 160.679 244.872H159.369C159.295 245.926 158.415 246.76 157.343 246.76H156.738C156.266 246.76 155.883 246.377 155.883 245.905C155.883 245.433 156.266 245.05 156.738 245.05H157.343C157.469 245.05 157.578 244.977 157.631 244.872H152.288V245.157C152.288 246.277 151.377 247.188 150.258 247.188ZM187.732 241.202H187.651C187.18 241.202 186.796 240.819 186.796 240.347C186.796 239.875 187.18 239.492 187.651 239.492H187.732C187.908 239.492 188.052 239.348 188.052 239.172V238.032H185.648V239.172C185.648 240.291 184.737 241.202 183.617 241.202C183.145 241.202 182.762 240.819 182.762 240.347C182.762 239.875 183.145 239.492 183.617 239.492C183.794 239.492 183.938 239.348 183.938 239.172V238.032H175.909V238.994C175.909 240.114 174.998 241.025 173.878 241.025H173.272C172.8 241.025 172.417 240.641 172.417 240.17C172.417 239.698 172.8 239.314 173.272 239.314H173.878C174.055 239.314 174.199 239.17 174.199 238.994V238.032H171.58C171.108 238.032 170.725 237.649 170.725 237.177C170.725 236.705 171.108 236.322 171.58 236.322H174.199V234.184C174.199 233.869 174.372 233.579 174.651 233.43C174.927 233.281 175.265 233.297 175.528 233.473L176.704 234.257C177.097 234.518 177.203 235.049 176.941 235.442C176.713 235.785 176.279 235.909 175.909 235.761V236.322H183.938V234.362C183.938 233.89 184.321 233.507 184.793 233.507H188.908C189.38 233.507 189.763 233.89 189.763 234.362V236.322H204.713C205.185 236.322 205.568 236.705 205.568 237.177C205.568 237.649 205.185 238.032 204.713 238.032H189.763V239.172C189.763 240.291 188.852 241.202 187.732 241.202ZM185.648 236.322H188.052V235.217H185.648V236.322ZM140.585 241.202H140.505C140.033 241.202 139.65 240.819 139.65 240.347C139.65 239.875 140.033 239.492 140.505 239.492H140.585C140.762 239.492 140.906 239.348 140.906 239.172V238.032H138.501V239.172C138.501 240.291 137.59 241.202 136.47 241.202C135.998 241.202 135.615 240.819 135.615 240.347C135.615 239.875 135.998 239.492 136.47 239.492C136.647 239.492 136.791 239.348 136.791 239.172V238.032H131.874V238.994C131.874 240.114 130.963 241.025 129.844 241.025H129.238C128.766 241.025 128.383 240.641 128.383 240.17C128.383 239.698 128.766 239.314 129.238 239.314H129.844C130.02 239.314 130.164 239.17 130.164 238.994V238.032H127.546C127.074 238.032 126.691 237.649 126.691 237.177C126.691 236.705 127.074 236.322 127.546 236.322H130.164V234.184C130.164 233.869 130.338 233.579 130.616 233.43C130.893 233.281 131.231 233.297 131.494 233.473L132.67 234.257C133.062 234.518 133.168 235.049 132.907 235.442C132.678 235.785 132.244 235.909 131.875 235.761V236.322H136.791V234.362C136.791 233.89 137.174 233.507 137.646 233.507H141.761C142.233 233.507 142.616 233.89 142.616 234.362V236.322H160.679C161.151 236.322 161.534 236.705 161.534 237.177C161.534 237.649 161.151 238.032 160.679 238.032H142.616V239.172C142.616 240.291 141.705 241.202 140.585 241.202ZM138.501 236.322H140.906V235.217H138.501V236.322ZM197.801 228.52H197.721C197.249 228.52 196.866 228.137 196.866 227.665C196.866 227.193 197.249 226.81 197.721 226.81H197.801C197.978 226.81 198.122 226.665 198.122 226.489V224.993H195.717V226.489C195.717 227.609 194.806 228.52 193.686 228.52C193.214 228.52 192.831 228.137 192.831 227.665C192.831 227.193 193.214 226.81 193.686 226.81C193.863 226.81 194.007 226.665 194.007 226.489V224.993H184.472V226.382C184.472 227.502 183.561 228.413 182.441 228.413H181.836C181.364 228.413 180.981 228.03 180.981 227.558C180.981 227.086 181.364 226.703 181.836 226.703H182.441C182.618 226.703 182.762 226.559 182.762 226.382V224.993H171.58C171.108 224.993 170.725 224.61 170.725 224.138C170.725 223.666 171.108 223.283 171.58 223.283H182.762V221.572C182.762 221.1 183.145 220.717 183.617 220.717C184.089 220.717 184.472 221.1 184.472 221.572V223.283H194.007V221.679C194.007 221.207 194.39 220.824 194.862 220.824H198.977C199.449 220.824 199.832 221.207 199.832 221.679V223.283H204.713C205.185 223.283 205.568 223.666 205.568 224.138C205.568 224.61 205.185 224.993 204.713 224.993H199.832V226.489C199.832 227.609 198.921 228.52 197.801 228.52ZM195.717 223.283H198.122V222.534H195.717V223.283ZM153.767 228.52H153.686C153.214 228.52 152.831 228.137 152.831 227.665C152.831 227.193 153.214 226.81 153.686 226.81H153.767C153.943 226.81 154.087 226.665 154.087 226.489V224.993H151.683V226.489C151.683 227.609 150.772 228.52 149.652 228.52C149.18 228.52 148.797 228.137 148.797 227.665C148.797 227.193 149.18 226.81 149.652 226.81C149.828 226.81 149.973 226.665 149.973 226.489V224.993H140.438V226.382C140.438 227.502 139.527 228.413 138.407 228.413H137.801C137.33 228.413 136.946 228.03 136.946 227.558C136.946 227.086 137.33 226.703 137.801 226.703H138.407C138.583 226.703 138.727 226.559 138.727 226.382V224.993H127.546C127.074 224.993 126.691 224.61 126.691 224.138C126.691 223.666 127.074 223.283 127.546 223.283H138.727V221.572C138.727 221.1 139.111 220.717 139.583 220.717C140.055 220.717 140.438 221.1 140.438 221.572V223.283H149.973V221.679C149.973 221.207 150.356 220.824 150.828 220.824H154.942C155.414 220.824 155.797 221.207 155.797 221.679V223.283H160.678C161.15 223.283 161.533 223.666 161.533 224.138C161.533 224.61 161.15 224.993 160.678 224.993H155.797V226.489C155.797 227.609 154.886 228.52 153.767 228.52ZM151.683 223.283H154.087V222.534H151.683V223.283ZM191.117 222H191.036C190.564 222 190.181 221.617 190.181 221.145C190.181 220.673 190.564 220.29 191.036 220.29H191.117C191.293 220.29 191.437 220.146 191.437 219.969V218.152H189.032V219.969C189.032 221.089 188.121 222 187.002 222C186.53 222 186.147 221.617 186.147 221.145C186.147 220.673 186.53 220.29 187.002 220.29C187.178 220.29 187.322 220.146 187.322 219.969V218.152H182.368C182.184 219.085 181.361 219.791 180.375 219.791H179.769C179.297 219.791 178.914 219.408 178.914 218.936C178.914 218.586 179.125 218.284 179.426 218.152H177.387V219.114C177.387 220.234 176.476 221.145 175.356 221.145H174.751C174.278 221.145 173.896 220.762 173.896 220.29C173.896 219.818 174.278 219.435 174.751 219.435H175.356C175.533 219.435 175.677 219.291 175.677 219.114V218.152H171.58C171.108 218.152 170.725 217.769 170.725 217.297C170.725 216.825 171.108 216.442 171.58 216.442H175.677V214.305C175.677 213.99 175.85 213.7 176.129 213.55C176.405 213.401 176.743 213.417 177.006 213.593L178.182 214.377C178.575 214.639 178.681 215.169 178.419 215.562C178.191 215.906 177.757 216.03 177.387 215.881V216.442H180.696V212.951C180.696 212.636 180.869 212.346 181.148 212.197C181.425 212.047 181.762 212.063 182.025 212.239L183.201 213.023C183.594 213.285 183.7 213.816 183.438 214.208C183.21 214.552 182.776 214.676 182.406 214.527V216.442H187.323V215.159C187.323 214.687 187.706 214.304 188.178 214.304H192.293C192.765 214.304 193.148 214.687 193.148 215.159V216.442H201.11V214.304C201.11 213.989 201.284 213.699 201.562 213.55C201.839 213.401 202.177 213.417 202.44 213.593L203.615 214.376C204.008 214.638 204.114 215.169 203.853 215.562C203.624 215.906 203.19 216.029 202.821 215.88V216.442H204.714C205.186 216.442 205.569 216.825 205.569 217.297C205.569 217.769 205.186 218.152 204.714 218.152H202.821V219.114C202.821 220.233 201.91 221.145 200.79 221.145H200.184C199.712 221.145 199.329 220.761 199.329 220.289C199.329 219.817 199.712 219.434 200.184 219.434H200.79C200.967 219.434 201.111 219.29 201.111 219.114V218.152H193.148V219.969C193.147 221.089 192.236 222 191.117 222ZM189.032 216.442H191.437V216.015H189.032V216.442ZM147.082 222H147.002C146.53 222 146.147 221.617 146.147 221.145C146.147 220.673 146.53 220.29 147.002 220.29H147.082C147.259 220.29 147.403 220.146 147.403 219.969V218.152H144.998V219.969C144.998 221.089 144.087 222 142.967 222C142.495 222 142.112 221.617 142.112 221.145C142.112 220.673 142.495 220.29 142.967 220.29C143.144 220.29 143.288 220.146 143.288 219.969V218.152H138.333C138.15 219.085 137.327 219.791 136.341 219.791H135.735C135.263 219.791 134.88 219.408 134.88 218.936C134.88 218.586 135.091 218.284 135.392 218.152H133.352V219.114C133.352 220.234 132.441 221.145 131.322 221.145H130.716C130.244 221.145 129.861 220.762 129.861 220.29C129.861 219.818 130.244 219.435 130.716 219.435H131.322C131.498 219.435 131.642 219.291 131.642 219.114V218.152H127.545C127.073 218.152 126.69 217.769 126.69 217.297C126.69 216.825 127.073 216.442 127.545 216.442H131.642V214.305C131.642 213.99 131.816 213.7 132.094 213.55C132.371 213.401 132.709 213.417 132.972 213.593L134.147 214.377C134.54 214.639 134.646 215.169 134.385 215.562C134.156 215.906 133.722 216.03 133.353 215.881V216.442H136.661V212.951C136.661 212.636 136.835 212.346 137.113 212.197C137.39 212.047 137.728 212.063 137.991 212.239L139.167 213.023C139.559 213.285 139.665 213.816 139.404 214.208C139.175 214.552 138.741 214.676 138.372 214.527V216.442H143.288V215.159C143.288 214.687 143.671 214.304 144.143 214.304H148.258C148.73 214.304 149.113 214.687 149.113 215.159V216.442H157.076V214.304C157.076 213.989 157.249 213.699 157.528 213.55C157.805 213.401 158.142 213.417 158.405 213.593L159.581 214.376C159.974 214.638 160.08 215.169 159.818 215.562C159.59 215.906 159.155 216.029 158.786 215.88V216.442H160.679C161.151 216.442 161.534 216.825 161.534 217.297C161.534 217.769 161.151 218.152 160.679 218.152H158.786V219.114C158.786 220.233 157.875 221.145 156.756 221.145H156.15C155.678 221.145 155.295 220.761 155.295 220.289C155.295 219.817 155.678 219.434 156.15 219.434H156.756C156.932 219.434 157.076 219.29 157.076 219.114V218.152H149.113V219.969C149.113 221.089 148.202 222 147.082 222ZM144.998 216.442H147.403V216.015H144.998V216.442ZM201.377 206.36H200.771C200.299 206.36 199.916 205.977 199.916 205.505C199.916 205.033 200.299 204.65 200.771 204.65H201.377C201.503 204.65 201.612 204.577 201.664 204.472H196.318C196.244 205.525 195.364 206.36 194.292 206.36H193.686C193.214 206.36 192.831 205.977 192.831 205.505C192.831 205.033 193.214 204.65 193.686 204.65H194.292C194.418 204.65 194.527 204.577 194.579 204.472H171.58C171.108 204.472 170.725 204.089 170.725 203.617C170.725 203.145 171.108 202.762 171.58 202.762H194.613V199.519C194.613 199.204 194.786 198.914 195.065 198.765C195.342 198.616 195.68 198.633 195.942 198.808L197.118 199.592C197.511 199.854 197.617 200.385 197.355 200.777C197.126 201.121 196.693 201.245 196.323 201.096V202.762H201.698V199.519C201.698 199.047 202.081 198.664 202.553 198.664C203.025 198.664 203.408 199.047 203.408 199.519V202.762H204.713C205.185 202.762 205.568 203.145 205.568 203.617C205.568 204.089 205.185 204.472 204.713 204.472H203.403C203.329 205.525 202.449 206.36 201.377 206.36ZM157.343 206.36H156.737C156.265 206.36 155.882 205.977 155.882 205.505C155.882 205.033 156.265 204.65 156.737 204.65H157.343C157.468 204.65 157.577 204.577 157.63 204.472H152.283C152.21 205.525 151.329 206.36 150.258 206.36H149.652C149.18 206.36 148.797 205.977 148.797 205.505C148.797 205.033 149.18 204.65 149.652 204.65H150.258C150.383 204.65 150.492 204.577 150.545 204.472H127.546C127.074 204.472 126.691 204.089 126.691 203.617C126.691 203.145 127.074 202.762 127.546 202.762H150.578V199.519C150.578 199.204 150.752 198.914 151.03 198.765C151.307 198.616 151.646 198.633 151.908 198.808L153.084 199.592C153.476 199.854 153.583 200.385 153.321 200.777C153.092 201.121 152.658 201.245 152.289 201.096V202.762H157.664V199.519C157.664 199.047 158.047 198.664 158.519 198.664C158.991 198.664 159.374 199.047 159.374 199.519V202.762H160.679C161.151 202.762 161.534 203.145 161.534 203.617C161.534 204.089 161.151 204.472 160.679 204.472H159.369C159.295 205.525 158.414 206.36 157.343 206.36ZM184.62 201.657H184.539C184.067 201.657 183.684 201.274 183.684 200.802C183.684 200.33 184.067 199.947 184.539 199.947H184.62C184.796 199.947 184.94 199.803 184.94 199.626V197.631H182.535V199.626C182.535 200.746 181.624 201.657 180.505 201.657C180.033 201.657 179.65 201.274 179.65 200.802C179.65 200.33 180.033 199.947 180.505 199.947C180.681 199.947 180.825 199.803 180.825 199.626V197.631H175.909V198.593C175.909 199.713 174.998 200.624 173.878 200.624H173.272C172.8 200.624 172.417 200.241 172.417 199.769C172.417 199.297 172.8 198.914 173.272 198.914H173.878C174.055 198.914 174.199 198.77 174.199 198.593V197.631H171.58C171.108 197.631 170.725 197.248 170.725 196.776C170.725 196.304 171.108 195.921 171.58 195.921H174.199V193.784C174.199 193.469 174.372 193.179 174.651 193.03C174.927 192.88 175.265 192.896 175.528 193.072L176.704 193.856C177.097 194.118 177.203 194.649 176.941 195.041C176.713 195.385 176.279 195.509 175.909 195.36V195.921H180.826V194.817C180.826 194.345 181.209 193.962 181.681 193.962H185.796C186.268 193.962 186.651 194.345 186.651 194.817V195.921H204.713C205.185 195.921 205.568 196.304 205.568 196.776C205.568 197.248 205.185 197.631 204.713 197.631H186.651V199.626C186.65 200.746 185.739 201.657 184.62 201.657ZM182.535 195.921H184.94V195.672H182.535V195.921ZM140.585 201.657H140.505C140.033 201.657 139.65 201.274 139.65 200.802C139.65 200.33 140.033 199.947 140.505 199.947H140.585C140.762 199.947 140.906 199.803 140.906 199.626V197.631H138.501V199.626C138.501 200.746 137.59 201.657 136.47 201.657C135.998 201.657 135.615 201.274 135.615 200.802C135.615 200.33 135.998 199.947 136.47 199.947C136.647 199.947 136.791 199.803 136.791 199.626V197.631H131.874V198.593C131.874 199.713 130.963 200.624 129.844 200.624H129.238C128.766 200.624 128.383 200.241 128.383 199.769C128.383 199.297 128.766 198.914 129.238 198.914H129.844C130.02 198.914 130.164 198.77 130.164 198.593V197.631H127.546C127.074 197.631 126.691 197.248 126.691 196.776C126.691 196.304 127.074 195.921 127.546 195.921H130.164V193.784C130.164 193.469 130.338 193.179 130.616 193.03C130.893 192.88 131.231 192.896 131.494 193.072L132.67 193.856C133.062 194.118 133.168 194.649 132.907 195.041C132.678 195.385 132.244 195.509 131.875 195.36V195.921H136.791V194.817C136.791 194.345 137.174 193.962 137.646 193.962H141.761C142.233 193.962 142.616 194.345 142.616 194.817V195.921H160.679C161.151 195.921 161.534 196.304 161.534 196.776C161.534 197.248 161.151 197.631 160.679 197.631H142.616V199.626C142.616 200.746 141.705 201.657 140.585 201.657ZM138.501 195.921H140.906V195.672H138.501V195.921Z" fill="#303030"/>
<defs>
<filter id="filter0_d_503_287" x="0" y="0" width="331" height="275" filterUnits="userSpaceOnUse" color-interpolation-filters="sRGB">
<feFlood flood-opacity="0" result="BackgroundImageFix"/>
<feColorMatrix in="SourceAlpha" type="matrix" values="0 0 0 0 0 0 0 0 0 0 0 0 0 0 0 0 0 0 127 0" result="hardAlpha"/>
<feOffset dy="4"/>
<feGaussianBlur stdDeviation="2"/>
<feComposite in2="hardAlpha" operator="out"/>
<feColorMatrix type="matrix" values="0 0 0 0 0.188235 0 0 0 0 0.188235 0 0 0 0 0.188235 0 0 0 0.25 0"/>
<feBlend mode="normal" in2="BackgroundImageFix" result="effect1_dropShadow_503_287"/>
<feBlend mode="normal" in="SourceGraphic" in2="effect1_dropShadow_503_287" result="shape"/>
</filter>
<filter id="filter1_d_503_287" x="37.3813" y="45.2319" width="261.551" height="119.568" filterUnits="userSpaceOnUse" color-interpolation-filters="sRGB">
<feFlood flood-opacity="0" result="BackgroundImageFix"/>
<feColorMatrix in="SourceAlpha" type="matrix" values="0 0 0 0 0 0 0 0 0 0 0 0 0 0 0 0 0 0 127 0" result="hardAlpha"/>
<feOffset dx="2" dy="4"/>
<feGaussianBlur stdDeviation="3"/>
<feComposite in2="hardAlpha" operator="out"/>
<feColorMatrix type="matrix" values="0 0 0 0 0.188235 0 0 0 0 0.188235 0 0 0 0 0.188235 0 0 0 0.4 0"/>
<feBlend mode="normal" in2="BackgroundImageFix" result="effect1_dropShadow_503_287"/>
<feBlend mode="normal" in="SourceGraphic" in2="effect1_dropShadow_503_287" result="shape"/>
</filter>
<linearGradient id="paint0_linear_503_287" x1="166.079" y1="1.80744e-06" x2="166.079" y2="267" gradientUnits="userSpaceOnUse">
<stop stop-color="#A6E1FA" stop-opacity="0.929871"/>
<stop offset="0.208668" stop-color="#A6E1FA" stop-opacity="0.649885"/>
<stop offset="0.341907" stop-color="#A6E1FA" stop-opacity="0.464333"/>
<stop offset="1" stop-color="#A6E1FA" stop-opacity="0.09"/>
</linearGradient>
<clipPath id="clip0_503_287">
<rect width="90" height="90" fill="white" transform="translate(226 177)"/>
</clipPath>
<clipPath id="clip1_503_287">
<rect width="90" height="90" fill="white" transform="matrix(-1 0 0 1 106 177)"/>
</clipPath>
</defs>
</svg>
