<svg width="156" height="42" viewBox="0 0 156 42" fill="none" xmlns="http://www.w3.org/2000/svg">
<path d="M76.378 11.54C76.8633 11.54 77.2533 11.696 77.548 12.008C77.8426 12.3027 77.99 12.7013 77.99 13.204V28.596C77.99 29.0813 77.8513 29.4627 77.574 29.74C77.2966 30.0173 76.9326 30.156 76.482 30.156C76.0313 30.156 75.676 30.0173 75.416 29.74C75.156 29.4627 75.026 29.0813 75.026 28.596V17.884L70.606 26.256C70.398 26.6373 70.1726 26.9233 69.93 27.114C69.6873 27.2873 69.4013 27.374 69.072 27.374C68.7426 27.374 68.4566 27.2873 68.214 27.114C67.9713 26.9407 67.746 26.6547 67.538 26.256L63.092 18.014V28.596C63.092 29.064 62.9533 29.4453 62.676 29.74C62.416 30.0173 62.0606 30.156 61.61 30.156C61.1593 30.156 60.804 30.0173 60.544 29.74C60.284 29.4627 60.154 29.0813 60.154 28.596V13.204C60.154 12.7013 60.2926 12.3027 60.57 12.008C60.8646 11.696 61.2546 11.54 61.74 11.54C62.416 11.54 62.9446 11.9127 63.326 12.658L69.098 23.656L74.844 12.658C75.2253 11.9127 75.7366 11.54 76.378 11.54ZM91.7133 17.026C92.216 17.026 92.6146 17.1647 92.9093 17.442C93.204 17.7193 93.3513 18.092 93.3513 18.56V28.648C93.3513 29.0987 93.1953 29.4627 92.8833 29.74C92.5886 30.0173 92.1986 30.156 91.7133 30.156C91.2453 30.156 90.8726 30.026 90.5953 29.766C90.318 29.506 90.1793 29.1507 90.1793 28.7V28.05C89.7806 28.7433 89.2433 29.2807 88.5673 29.662C87.8913 30.026 87.1286 30.208 86.2793 30.208C83.1593 30.208 81.5993 28.4573 81.5993 24.956V18.56C81.5993 18.092 81.7466 17.7193 82.0413 17.442C82.336 17.1647 82.726 17.026 83.2113 17.026C83.714 17.026 84.1126 17.1647 84.4073 17.442C84.702 17.7193 84.8493 18.092 84.8493 18.56V24.982C84.8493 25.8833 85.0313 26.5507 85.3953 26.984C85.7593 27.4173 86.3313 27.634 87.1113 27.634C88.0126 27.634 88.732 27.3393 89.2693 26.75C89.824 26.1433 90.1013 25.346 90.1013 24.358V18.56C90.1013 18.092 90.2486 17.7193 90.5433 17.442C90.838 17.1647 91.228 17.026 91.7133 17.026ZM101.336 30.208C99.4466 30.208 97.9213 29.8353 96.7599 29.09C96.2053 28.7607 95.9279 28.2927 95.9279 27.686C95.9279 27.3393 96.0233 27.062 96.2139 26.854C96.4046 26.6287 96.6386 26.516 96.9159 26.516C97.2106 26.516 97.6179 26.6547 98.1379 26.932C98.6926 27.192 99.1953 27.3913 99.6459 27.53C100.114 27.6687 100.703 27.738 101.414 27.738C102.142 27.738 102.705 27.6167 103.104 27.374C103.52 27.1313 103.728 26.7933 103.728 26.36C103.728 26.0653 103.641 25.8313 103.468 25.658C103.312 25.4847 103.017 25.3287 102.584 25.19C102.168 25.034 101.527 24.8607 100.66 24.67C99.1173 24.358 98.0079 23.916 97.3319 23.344C96.6733 22.772 96.3439 21.9833 96.3439 20.978C96.3439 20.2153 96.5693 19.5307 97.0199 18.924C97.4706 18.3 98.0859 17.8233 98.8659 17.494C99.6633 17.1473 100.565 16.974 101.57 16.974C102.298 16.974 103 17.0693 103.676 17.26C104.352 17.4333 104.959 17.6933 105.496 18.04C106.051 18.3867 106.328 18.846 106.328 19.418C106.328 19.7647 106.233 20.0593 106.042 20.302C105.851 20.5273 105.617 20.64 105.34 20.64C105.149 20.64 104.959 20.6053 104.768 20.536C104.595 20.4493 104.369 20.328 104.092 20.172C103.589 19.912 103.156 19.7213 102.792 19.6C102.428 19.4613 101.977 19.392 101.44 19.392C100.799 19.392 100.287 19.522 99.9059 19.782C99.5419 20.042 99.3599 20.3973 99.3599 20.848C99.3599 21.2813 99.5506 21.6107 99.9319 21.836C100.313 22.0613 101.05 22.2867 102.142 22.512C103.303 22.7547 104.213 23.032 104.872 23.344C105.531 23.656 105.999 24.046 106.276 24.514C106.571 24.982 106.718 25.58 106.718 26.308C106.718 27.4867 106.224 28.4313 105.236 29.142C104.265 29.8527 102.965 30.208 101.336 30.208ZM110.965 30.156C110.497 30.156 110.107 30.026 109.795 29.766C109.5 29.4887 109.353 29.0987 109.353 28.596V18.56C109.353 18.0573 109.5 17.676 109.795 17.416C110.107 17.156 110.497 17.026 110.965 17.026C111.433 17.026 111.823 17.156 112.135 17.416C112.447 17.676 112.603 18.0573 112.603 18.56V28.596C112.603 29.0987 112.447 29.4887 112.135 29.766C111.823 30.026 111.433 30.156 110.965 30.156ZM110.965 14.712C110.376 14.712 109.908 14.556 109.561 14.244C109.214 13.9147 109.041 13.49 109.041 12.97C109.041 12.45 109.214 12.034 109.561 11.722C109.908 11.41 110.376 11.254 110.965 11.254C111.537 11.254 111.996 11.41 112.343 11.722C112.707 12.034 112.889 12.45 112.889 12.97C112.889 13.49 112.716 13.9147 112.369 14.244C112.022 14.556 111.554 14.712 110.965 14.712ZM121.597 30.208C120.331 30.208 119.213 29.9393 118.243 29.402C117.289 28.8647 116.553 28.102 116.033 27.114C115.513 26.126 115.253 24.9733 115.253 23.656C115.253 22.3387 115.521 21.1773 116.059 20.172C116.613 19.1493 117.385 18.3607 118.373 17.806C119.361 17.2513 120.496 16.974 121.779 16.974C122.455 16.974 123.131 17.0693 123.807 17.26C124.5 17.4507 125.107 17.7107 125.627 18.04C126.181 18.404 126.459 18.8633 126.459 19.418C126.459 19.7993 126.363 20.1113 126.173 20.354C125.999 20.5793 125.765 20.692 125.471 20.692C125.28 20.692 125.081 20.6487 124.873 20.562C124.665 20.4753 124.457 20.3713 124.249 20.25C123.867 20.0247 123.503 19.8513 123.157 19.73C122.81 19.5913 122.411 19.522 121.961 19.522C120.886 19.522 120.054 19.8773 119.465 20.588C118.893 21.2813 118.607 22.2867 118.607 23.604C118.607 24.904 118.893 25.9093 119.465 26.62C120.054 27.3133 120.886 27.66 121.961 27.66C122.394 27.66 122.775 27.5993 123.105 27.478C123.451 27.3393 123.833 27.1573 124.249 26.932C124.509 26.776 124.734 26.6633 124.925 26.594C125.115 26.5073 125.306 26.464 125.497 26.464C125.774 26.464 126.008 26.5853 126.199 26.828C126.389 27.0707 126.485 27.374 126.485 27.738C126.485 28.0327 126.415 28.2927 126.277 28.518C126.155 28.726 125.947 28.9167 125.653 29.09C125.115 29.4367 124.491 29.714 123.781 29.922C123.07 30.1127 122.342 30.208 121.597 30.208ZM130.6 30.156C130.097 30.156 129.69 30 129.378 29.688C129.083 29.376 128.936 28.9687 128.936 28.466V13.204C128.936 12.7013 129.083 12.3027 129.378 12.008C129.69 11.696 130.097 11.54 130.6 11.54C131.12 11.54 131.527 11.696 131.822 12.008C132.134 12.3027 132.29 12.7013 132.29 13.204V28.466C132.29 28.9687 132.134 29.376 131.822 29.688C131.527 30 131.12 30.156 130.6 30.156ZM137.86 30C137.358 30 136.959 29.8613 136.664 29.584C136.387 29.3067 136.248 28.9167 136.248 28.414V13.256C136.248 12.7533 136.387 12.3633 136.664 12.086C136.959 11.8087 137.358 11.67 137.86 11.67H143.008C146.007 11.67 148.33 12.476 149.976 14.088C151.64 15.6827 152.472 17.9273 152.472 20.822C152.472 23.734 151.64 25.996 149.976 27.608C148.33 29.2027 146.007 30 143.008 30H137.86ZM142.8 27.27C147.012 27.27 149.118 25.1207 149.118 20.822C149.118 16.5407 147.012 14.4 142.8 14.4H139.602V27.27H142.8Z" fill="url(#paint0_linear_510_8)" fill-opacity="0.8"/>
<path d="M77.548 12.008L76.821 12.6946L76.8308 12.705L76.8409 12.7151L77.548 12.008ZM77.574 29.74L76.8669 29.0329L76.8669 29.0329L77.574 29.74ZM75.416 29.74L76.1455 29.0561L75.416 29.74ZM75.026 17.884H76.026L74.1417 17.4171L75.026 17.884ZM70.606 26.256L71.484 26.7349L71.4903 26.7229L70.606 26.256ZM69.93 27.114L70.5112 27.9277L70.5298 27.9144L70.5478 27.9003L69.93 27.114ZM68.214 27.114L68.7952 26.3003H68.7952L68.214 27.114ZM67.538 26.256L68.4246 25.7934L68.4181 25.7812L67.538 26.256ZM63.092 18.014L63.9721 17.5392L62.092 18.014H63.092ZM62.676 29.74L61.9478 29.0546L61.9464 29.0561L62.676 29.74ZM60.544 29.74L61.2735 29.0561L60.544 29.74ZM60.57 12.008L59.843 11.3214L59.8418 11.3226L60.57 12.008ZM63.326 12.658L62.4357 13.1135L62.4405 13.1227L63.326 12.658ZM69.098 23.656L68.2125 24.1207L69.1 25.8117L69.9843 24.1191L69.098 23.656ZM74.844 12.658L75.7303 13.1211L75.7342 13.1135L74.844 12.658ZM76.378 12.54C76.6278 12.54 76.7408 12.6097 76.821 12.6946L78.275 11.3214C77.7658 10.7823 77.0988 10.54 76.378 10.54V12.54ZM76.8409 12.7151C76.9104 12.7846 76.99 12.9081 76.99 13.204H78.99C78.99 12.4946 78.7749 11.8207 78.2551 11.3009L76.8409 12.7151ZM76.99 13.204V28.596H78.99V13.204H76.99ZM76.99 28.596C76.99 28.8829 76.9142 28.9855 76.8669 29.0329L78.2811 30.4471C78.7884 29.9398 78.99 29.2798 78.99 28.596H76.99ZM76.8669 29.0329C76.8054 29.0944 76.7103 29.156 76.482 29.156V31.156C77.155 31.156 77.7879 30.9403 78.2811 30.4471L76.8669 29.0329ZM76.482 29.156C76.2521 29.156 76.1815 29.0944 76.1455 29.0561L74.6864 30.4239C75.1705 30.9402 75.8106 31.156 76.482 31.156V29.156ZM76.1455 29.0561C76.1035 29.0112 76.026 28.9003 76.026 28.596H74.026C74.026 29.2624 74.2085 29.9141 74.6864 30.4239L76.1455 29.0561ZM76.026 28.596V17.884H74.026V28.596H76.026ZM74.1417 17.4171L69.7217 25.7891L71.4903 26.7229L75.9103 18.3509L74.1417 17.4171ZM69.7281 25.7771C69.5604 26.0845 69.4141 26.2476 69.3122 26.3277L70.5478 27.9003C70.9312 27.5991 71.2355 27.1902 71.4839 26.7349L69.7281 25.7771ZM69.3487 26.3003C69.2933 26.3398 69.2157 26.374 69.072 26.374V28.374C69.5869 28.374 70.0813 28.2348 70.5112 27.9277L69.3487 26.3003ZM69.072 26.374C68.9283 26.374 68.8506 26.3398 68.7952 26.3003L67.6327 27.9277C68.0627 28.2348 68.557 28.374 69.072 28.374V26.374ZM68.7952 26.3003C68.7291 26.253 68.5936 26.1174 68.4246 25.7934L66.6514 26.7186C66.8983 27.1919 67.2136 27.6283 67.6327 27.9277L68.7952 26.3003ZM68.4181 25.7812L63.9721 17.5392L62.2119 18.4888L66.6579 26.7308L68.4181 25.7812ZM62.092 18.014V28.596H64.092V18.014H62.092ZM62.092 28.596C62.092 28.852 62.0233 28.9744 61.9478 29.0546L63.4042 30.4254C63.8834 29.9162 64.092 29.276 64.092 28.596H62.092ZM61.9464 29.0561C61.9105 29.0944 61.8399 29.156 61.61 29.156V31.156C62.2814 31.156 62.9215 30.9402 63.4055 30.4239L61.9464 29.0561ZM61.61 29.156C61.3801 29.156 61.3095 29.0944 61.2735 29.0561L59.8144 30.4239C60.2985 30.9402 60.9386 31.156 61.61 31.156V29.156ZM61.2735 29.0561C61.2315 29.0112 61.154 28.9003 61.154 28.596H59.154C59.154 29.2624 59.3365 29.9141 59.8144 30.4239L61.2735 29.0561ZM61.154 28.596V13.204H59.154V28.596H61.154ZM61.154 13.204C61.154 12.8914 61.2352 12.7602 61.2982 12.6934L59.8418 11.3226C59.3501 11.8451 59.154 12.5113 59.154 13.204H61.154ZM61.297 12.6946C61.3772 12.6097 61.4902 12.54 61.74 12.54V10.54C61.0191 10.54 60.3521 10.7823 59.843 11.3214L61.297 12.6946ZM61.74 12.54C61.9443 12.54 62.1766 12.6071 62.4357 13.1135L64.2162 12.2025C63.7126 11.2183 62.8876 10.54 61.74 10.54V12.54ZM62.4405 13.1227L68.2125 24.1207L69.9834 23.1913L64.2114 12.1933L62.4405 13.1227ZM69.9843 24.1191L75.7303 13.1211L73.9577 12.1949L68.2117 23.1929L69.9843 24.1191ZM75.7342 13.1135C76.0059 12.5826 76.23 12.54 76.378 12.54V10.54C75.2433 10.54 74.4448 11.2428 73.9537 12.2025L75.7342 13.1135ZM92.9093 17.442L93.5947 16.7138L92.9093 17.442ZM92.8833 29.74L92.2189 28.9926L92.2083 29.002L92.1979 29.0118L92.8833 29.74ZM90.5953 29.766L91.2792 29.0365L90.5953 29.766ZM90.1793 28.05H91.1793V24.3047L89.3124 27.5515L90.1793 28.05ZM88.5673 29.662L89.0414 30.5425L89.0501 30.5378L89.0586 30.533L88.5673 29.662ZM82.0413 17.442L82.7267 18.1702V18.1702L82.0413 17.442ZM84.4073 17.442L83.7219 18.1702L83.7219 18.1702L84.4073 17.442ZM85.3953 26.984L84.6296 27.6272L85.3953 26.984ZM89.2693 26.75L88.5313 26.0752L88.5303 26.0762L89.2693 26.75ZM91.7133 18.026C92.0259 18.026 92.1571 18.1073 92.2239 18.1702L93.5947 16.7138C93.0722 16.2221 92.406 16.026 91.7133 16.026V18.026ZM92.2239 18.1702C92.2859 18.2285 92.3513 18.3205 92.3513 18.56H94.3513C94.3513 17.8635 94.1221 17.2102 93.5947 16.7138L92.2239 18.1702ZM92.3513 18.56V28.648H94.3513V18.56H92.3513ZM92.3513 28.648C92.3513 28.8386 92.299 28.9214 92.2189 28.9926L93.5477 30.4874C94.0916 30.0039 94.3513 29.3587 94.3513 28.648H92.3513ZM92.1979 29.0118C92.1246 29.0808 91.9978 29.156 91.7133 29.156V31.156C92.3995 31.156 93.0527 30.9538 93.5687 30.4682L92.1979 29.0118ZM91.7133 29.156C91.4376 29.156 91.3306 29.0846 91.2792 29.0365L89.9114 30.4955C90.4146 30.9674 91.053 31.156 91.7133 31.156V29.156ZM91.2792 29.0365C91.2409 29.0005 91.1793 28.9299 91.1793 28.7H89.1793C89.1793 29.3714 89.3951 30.0115 89.9114 30.4955L91.2792 29.0365ZM91.1793 28.7V28.05H89.1793V28.7H91.1793ZM89.3124 27.5515C89.0004 28.0942 88.5907 28.5007 88.076 28.791L89.0586 30.533C89.8959 30.0607 90.5609 29.3925 91.0462 28.5485L89.3124 27.5515ZM88.0932 28.7815C87.5779 29.059 86.9811 29.208 86.2793 29.208V31.208C87.2762 31.208 88.2047 30.993 89.0414 30.5425L88.0932 28.7815ZM86.2793 29.208C84.9052 29.208 84.0488 28.8278 83.5159 28.2297C82.9634 27.6097 82.5993 26.5791 82.5993 24.956H80.5993C80.5993 26.8342 81.0152 28.4296 82.0227 29.5603C83.0498 30.7129 84.5334 31.208 86.2793 31.208V29.208ZM82.5993 24.956V18.56H80.5993V24.956H82.5993ZM82.5993 18.56C82.5993 18.3205 82.6647 18.2285 82.7267 18.1702L81.3559 16.7138C80.8285 17.2102 80.5993 17.8635 80.5993 18.56H82.5993ZM82.7267 18.1702C82.8 18.1012 82.9268 18.026 83.2113 18.026V16.026C82.5251 16.026 81.8719 16.2282 81.3559 16.7138L82.7267 18.1702ZM83.2113 18.026C83.5239 18.026 83.6551 18.1073 83.7219 18.1702L85.0927 16.7138C84.5702 16.2221 83.904 16.026 83.2113 16.026V18.026ZM83.7219 18.1702C83.7839 18.2285 83.8493 18.3205 83.8493 18.56H85.8493C85.8493 17.8635 85.6201 17.2102 85.0927 16.7138L83.7219 18.1702ZM83.8493 18.56V24.982H85.8493V18.56H83.8493ZM83.8493 24.982C83.8493 25.9874 84.0472 26.9338 84.6296 27.6272L86.161 26.3408C86.0154 26.1675 85.8493 25.7792 85.8493 24.982H83.8493ZM84.6296 27.6272C85.248 28.3634 86.1533 28.634 87.1113 28.634V26.634C86.5094 26.634 86.2706 26.4713 86.161 26.3408L84.6296 27.6272ZM87.1113 28.634C88.2534 28.634 89.2558 28.2491 90.0083 27.4238L88.5303 26.0762C88.2082 26.4296 87.7719 26.634 87.1113 26.634V28.634ZM90.0073 27.4248C90.7633 26.5979 91.1013 25.5425 91.1013 24.358H89.1013C89.1013 25.1495 88.8847 25.6887 88.5313 26.0752L90.0073 27.4248ZM91.1013 24.358V18.56H89.1013V24.358H91.1013ZM91.1013 18.56C91.1013 18.3205 91.1667 18.2285 91.2287 18.1702L89.8579 16.7138C89.3305 17.2102 89.1013 17.8635 89.1013 18.56H91.1013ZM91.2287 18.1702C91.302 18.1012 91.4288 18.026 91.7133 18.026V16.026C91.0271 16.026 90.3739 16.2282 89.8579 16.7138L91.2287 18.1702ZM96.7599 29.09L97.3001 28.2484L97.2854 28.239L97.2705 28.2301L96.7599 29.09ZM96.2139 26.854L96.9511 27.5297L96.9645 27.5151L96.9773 27.4999L96.2139 26.854ZM98.1379 26.932L97.6674 27.8144L97.6901 27.8265L97.7135 27.8375L98.1379 26.932ZM99.6459 27.53L99.3518 28.4858L99.3619 28.4888L99.6459 27.53ZM103.104 27.374L102.6 26.5102L102.592 26.5149L102.584 26.5198L103.104 27.374ZM103.468 25.658L102.725 26.327L102.742 26.3465L102.761 26.3651L103.468 25.658ZM102.584 25.19L102.233 26.1263L102.256 26.1349L102.279 26.1424L102.584 25.19ZM100.66 24.67L100.875 23.6934L100.867 23.6915L100.858 23.6898L100.66 24.67ZM97.3319 23.344L96.6762 24.0991L96.686 24.1074L97.3319 23.344ZM97.0199 18.924L97.8228 19.5204L97.8306 19.5095L97.0199 18.924ZM98.8659 17.494L99.2549 18.4153L99.2647 18.4111L98.8659 17.494ZM103.676 17.26L103.404 18.2224L103.416 18.2257L103.428 18.2287L103.676 17.26ZM105.496 18.04L104.954 18.8803L104.96 18.8842L104.966 18.888L105.496 18.04ZM106.042 20.302L106.805 20.9479L106.817 20.9341L106.828 20.9198L106.042 20.302ZM104.768 20.536L104.321 21.4304L104.372 21.4561L104.426 21.4758L104.768 20.536ZM104.092 20.172L104.582 19.3004L104.567 19.2918L104.551 19.2838L104.092 20.172ZM102.792 19.6L102.436 20.5345L102.456 20.542L102.476 20.5487L102.792 19.6ZM99.9059 19.782L99.3426 18.9558L99.3336 18.9619L99.3247 18.9683L99.9059 19.782ZM99.9319 21.836L99.4232 22.6969L99.9319 21.836ZM102.142 22.512L102.346 21.5331L102.344 21.5326L102.142 22.512ZM104.872 23.344L105.3 22.4403L104.872 23.344ZM106.276 24.514L105.416 25.0238L105.423 25.0354L105.43 25.0468L106.276 24.514ZM105.236 29.142L104.652 28.3302L104.645 28.3351L105.236 29.142ZM101.336 29.208C99.5697 29.208 98.251 28.8587 97.3001 28.2484L96.2198 29.9316C97.5915 30.8119 99.3235 31.208 101.336 31.208V29.208ZM97.2705 28.2301C96.9959 28.0671 96.9279 27.9134 96.9279 27.686H94.9279C94.9279 28.672 95.4147 29.4542 96.2494 29.9499L97.2705 28.2301ZM96.9279 27.686C96.9279 27.6037 96.9393 27.5601 96.9451 27.5431C96.948 27.5347 96.9501 27.5311 96.9504 27.5307C96.9506 27.5303 96.9506 27.5303 96.9511 27.5297L95.4768 26.1783C95.0805 26.6106 94.9279 27.1491 94.9279 27.686H96.9279ZM96.9773 27.4999C96.9864 27.4893 96.9902 27.4866 96.9878 27.4885C96.9852 27.4907 96.9779 27.4959 96.9663 27.5015C96.9545 27.5072 96.9423 27.5113 96.9312 27.5137C96.9204 27.5161 96.9147 27.516 96.9159 27.516V25.516C96.3236 25.516 95.8173 25.7746 95.4506 26.2081L96.9773 27.4999ZM96.9159 27.516C96.9157 27.516 96.977 27.5179 97.1202 27.5667C97.258 27.6136 97.4389 27.6925 97.6674 27.8144L98.6085 26.0496C98.0612 25.7577 97.4699 25.516 96.9159 25.516V27.516ZM97.7135 27.8375C98.2987 28.1117 98.8457 28.33 99.3519 28.4858L99.94 26.5742C99.5448 26.4526 99.0866 26.2723 98.5624 26.0265L97.7135 27.8375ZM99.3619 28.4888C99.9536 28.6641 100.647 28.738 101.414 28.738V26.738C100.76 26.738 100.274 26.6732 99.93 26.5712L99.3619 28.4888ZM101.414 28.738C102.231 28.738 103.004 28.6055 103.624 28.2282L102.584 26.5198C102.406 26.6278 102.053 26.738 101.414 26.738V28.738ZM103.608 28.2378C104.29 27.84 104.728 27.1943 104.728 26.36H102.728C102.728 26.3878 102.725 26.4021 102.723 26.4068C102.722 26.4109 102.722 26.4124 102.72 26.4144C102.719 26.4164 102.696 26.4542 102.6 26.5102L103.608 28.2378ZM104.728 26.36C104.728 25.8574 104.573 25.3487 104.175 24.9509L102.761 26.3651C102.754 26.3579 102.746 26.3485 102.739 26.3374C102.732 26.3264 102.727 26.3169 102.725 26.3108C102.721 26.2986 102.728 26.3102 102.728 26.36H104.728ZM104.211 24.989C103.869 24.6092 103.358 24.3878 102.889 24.2376L102.279 26.1424C102.458 26.1998 102.582 26.2524 102.662 26.2948C102.747 26.3395 102.751 26.3563 102.725 26.327L104.211 24.989ZM102.935 24.2537C102.45 24.0717 101.752 23.8863 100.875 23.6934L100.445 25.6466C101.302 25.8351 101.886 25.9963 102.233 26.1263L102.935 24.2537ZM100.858 23.6898C99.3704 23.3889 98.4605 22.989 97.9779 22.5806L96.686 24.1074C97.5554 24.843 98.8642 25.3271 100.462 25.6502L100.858 23.6898ZM97.9876 22.589C97.5821 22.2368 97.3439 21.7426 97.3439 20.978H95.3439C95.3439 22.224 95.7644 23.3072 96.6763 24.099L97.9876 22.589ZM97.3439 20.978C97.3439 20.428 97.5014 19.9529 97.8227 19.5203L96.2172 18.3277C95.6372 19.1085 95.3439 20.0027 95.3439 20.978H97.3439ZM97.8306 19.5095C98.1636 19.0485 98.6262 18.6807 99.2549 18.4152L98.477 16.5727C97.5457 16.9659 96.7777 17.5515 96.2093 18.3385L97.8306 19.5095ZM99.2647 18.4111C99.918 18.127 100.681 17.974 101.57 17.974V15.974C100.449 15.974 99.4085 16.1677 98.4672 16.5769L99.2647 18.4111ZM101.57 17.974C102.21 17.974 102.82 18.0576 103.404 18.2224L103.947 16.2976C103.18 16.0811 102.386 15.974 101.57 15.974V17.974ZM103.428 18.2287C104.009 18.3777 104.515 18.597 104.954 18.8803L106.038 17.1997C105.402 16.7896 104.695 16.489 103.924 16.2913L103.428 18.2287ZM104.966 18.888C105.278 19.0829 105.328 19.2454 105.328 19.418H107.328C107.328 18.4466 106.823 17.6904 106.026 17.192L104.966 18.888ZM105.328 19.418C105.328 19.5698 105.291 19.6393 105.256 19.6842L106.828 20.9198C107.174 20.4793 107.328 19.9596 107.328 19.418H105.328ZM105.279 19.6561C105.27 19.6667 105.266 19.6694 105.268 19.6675C105.271 19.6653 105.278 19.6601 105.29 19.6545C105.301 19.6488 105.314 19.6447 105.325 19.6423C105.335 19.6399 105.341 19.64 105.34 19.64V21.64C105.932 21.64 106.439 21.3814 106.805 20.9479L105.279 19.6561ZM105.34 19.64C105.273 19.64 105.198 19.6283 105.11 19.5962L104.426 21.4758C104.719 21.5824 105.025 21.64 105.34 21.64V19.64ZM105.215 19.6416C105.063 19.5653 104.853 19.4528 104.582 19.3004L103.602 21.0436C103.885 21.2032 104.127 21.3334 104.321 21.4304L105.215 19.6416ZM104.551 19.2838C104.022 19.01 103.539 18.7948 103.108 18.6513L102.476 20.5487C102.773 20.6479 103.156 20.814 103.633 21.0602L104.551 19.2838ZM103.148 18.6655C102.636 18.4705 102.056 18.392 101.44 18.392V20.392C101.899 20.392 102.22 20.4522 102.436 20.5345L103.148 18.6655ZM101.44 18.392C100.673 18.392 99.9432 18.5463 99.3426 18.9558L100.469 20.6082C100.631 20.4977 100.924 20.392 101.44 20.392V18.392ZM99.3247 18.9683C98.6956 19.4176 98.3599 20.0773 98.3599 20.848H100.36C100.36 20.7174 100.388 20.6664 100.487 20.5957L99.3247 18.9683ZM98.3599 20.848C98.3599 21.6445 98.7457 22.2966 99.4232 22.6969L100.441 20.9751C100.406 20.9545 100.387 20.9383 100.378 20.9296C100.373 20.9252 100.371 20.9222 100.37 20.9208C100.369 20.9201 100.369 20.9196 100.369 20.9193C100.369 20.9192 100.368 20.9191 100.368 20.919C100.368 20.919 100.368 20.919 100.368 20.919C100.368 20.919 100.368 20.919 100.368 20.919C100.368 20.919 100.368 20.919 100.368 20.9189C100.368 20.9189 100.368 20.9187 100.368 20.9183C100.368 20.9175 100.367 20.9153 100.366 20.911C100.364 20.9026 100.36 20.8828 100.36 20.848H98.3599ZM99.4232 22.6969C99.965 23.0171 100.855 23.2675 101.94 23.4914L102.344 21.5326C101.245 21.3058 100.662 21.1056 100.441 20.9751L99.4232 22.6969ZM101.937 23.4909C103.063 23.7261 103.887 23.9839 104.444 24.2477L105.3 22.4403C104.54 22.0801 103.543 21.7832 102.346 21.5331L101.937 23.4909ZM104.444 24.2477C104.982 24.5028 105.269 24.7766 105.416 25.0238L107.136 24.0042C106.728 23.3154 106.079 22.8092 105.3 22.4403L104.444 24.2477ZM105.43 25.0468C105.597 25.3122 105.718 25.7102 105.718 26.308H107.718C107.718 25.4498 107.544 24.6518 107.122 23.9812L105.43 25.0468ZM105.718 26.308C105.718 27.1527 105.389 27.8002 104.652 28.3302L105.82 29.9538C107.059 29.0625 107.718 27.8207 107.718 26.308H105.718ZM104.645 28.3351C103.897 28.8826 102.827 29.208 101.336 29.208V31.208C103.104 31.208 104.633 30.8227 105.827 29.9489L104.645 28.3351ZM109.795 29.766L109.11 30.4942L109.132 30.5149L109.155 30.5342L109.795 29.766ZM109.795 17.416L109.155 16.6478L109.144 16.6568L109.133 16.6662L109.795 17.416ZM112.135 17.416L112.775 16.6478H112.775L112.135 17.416ZM112.135 29.766L112.775 30.5342L112.788 30.524L112.799 30.5134L112.135 29.766ZM109.561 14.244L108.872 14.969L108.882 14.9783L108.892 14.9873L109.561 14.244ZM109.561 11.722L110.23 12.4653L110.23 12.4653L109.561 11.722ZM112.343 11.722L111.674 12.4653L111.683 12.4734L111.692 12.4813L112.343 11.722ZM112.369 14.244L113.038 14.9873L113.048 14.9783L113.058 14.969L112.369 14.244ZM110.965 29.156C110.693 29.156 110.541 29.0856 110.435 28.9978L109.155 30.5342C109.674 30.9664 110.301 31.156 110.965 31.156V29.156ZM110.48 29.0378C110.433 28.9934 110.353 28.8943 110.353 28.596H108.353C108.353 29.303 108.568 29.984 109.11 30.4942L110.48 29.0378ZM110.353 28.596V18.56H108.353V28.596H110.353ZM110.353 18.56C110.353 18.2586 110.434 18.1859 110.457 18.1658L109.133 16.6662C108.567 17.1661 108.353 17.8561 108.353 18.56H110.353ZM110.435 18.1842C110.541 18.0964 110.693 18.026 110.965 18.026V16.026C110.301 16.026 109.674 16.2156 109.155 16.6478L110.435 18.1842ZM110.965 18.026C111.237 18.026 111.39 18.0964 111.495 18.1842L112.775 16.6478C112.257 16.2156 111.629 16.026 110.965 16.026V18.026ZM111.495 18.1842C111.526 18.2099 111.603 18.2771 111.603 18.56H113.603C113.603 17.8376 113.368 17.1421 112.775 16.6478L111.495 18.1842ZM111.603 18.56V28.596H113.603V18.56H111.603ZM111.603 28.596C111.603 28.8766 111.526 28.9695 111.471 29.0186L112.799 30.5134C113.368 30.0078 113.603 29.3208 113.603 28.596H111.603ZM111.495 28.9978C111.39 29.0856 111.237 29.156 110.965 29.156V31.156C111.629 31.156 112.257 30.9664 112.775 30.5342L111.495 28.9978ZM110.965 13.712C110.555 13.712 110.348 13.6073 110.23 13.5007L108.892 14.9873C109.467 15.5047 110.196 15.712 110.965 15.712V13.712ZM110.25 13.519C110.12 13.3961 110.041 13.2425 110.041 12.97H108.041C108.041 13.7375 108.308 14.4333 108.872 14.969L110.25 13.519ZM110.041 12.97C110.041 12.6972 110.12 12.5647 110.23 12.4653L108.892 10.9787C108.309 11.5033 108.041 12.2028 108.041 12.97H110.041ZM110.23 12.4653C110.348 12.3587 110.555 12.254 110.965 12.254V10.254C110.196 10.254 109.467 10.4613 108.892 10.9787L110.23 12.4653ZM110.965 12.254C111.349 12.254 111.55 12.3539 111.674 12.4653L113.012 10.9787C112.442 10.4661 111.726 10.254 110.965 10.254V12.254ZM111.692 12.4813C111.814 12.5858 111.889 12.714 111.889 12.97H113.889C113.889 12.186 113.6 11.4822 112.994 10.9627L111.692 12.4813ZM111.889 12.97C111.889 13.2425 111.81 13.3961 111.68 13.519L113.058 14.969C113.622 14.4333 113.889 13.7375 113.889 12.97H111.889ZM111.7 13.5007C111.582 13.6073 111.375 13.712 110.965 13.712V15.712C111.734 15.712 112.463 15.5047 113.038 14.9873L111.7 13.5007ZM118.243 29.402L117.752 30.2732L117.758 30.2769L118.243 29.402ZM116.033 27.114L116.918 26.6483L116.033 27.114ZM116.059 20.172L115.18 19.6952L115.177 19.7006L116.059 20.172ZM118.373 17.806L118.862 18.678L118.373 17.806ZM123.807 17.26L123.535 18.2225L123.541 18.2242L123.807 17.26ZM125.627 18.04L126.175 17.204L126.169 17.1995L126.162 17.1952L125.627 18.04ZM126.173 20.354L125.386 19.7361L125.38 19.7443L126.173 20.354ZM124.873 20.562L124.488 21.4851L124.488 21.4851L124.873 20.562ZM124.249 20.25L123.74 21.1109L123.745 21.1138L124.249 20.25ZM123.157 19.73L122.785 20.6585L122.806 20.6666L122.826 20.6739L123.157 19.73ZM119.465 20.588L118.695 19.9497L118.693 19.9516L119.465 20.588ZM119.465 26.62L118.686 27.247L118.694 27.2574L118.703 27.2676L119.465 26.62ZM123.105 27.478L123.45 28.4163L123.463 28.4116L123.476 28.4065L123.105 27.478ZM124.249 26.932L124.725 27.8113L124.744 27.8008L124.763 27.7895L124.249 26.932ZM124.925 26.594L125.266 27.5338L125.303 27.5205L125.338 27.5044L124.925 26.594ZM126.199 26.828L126.985 26.2102L126.199 26.828ZM126.277 28.518L125.425 27.9939L125.419 28.0039L125.413 28.0141L126.277 28.518ZM125.653 29.09L125.146 28.2281L125.128 28.2385L125.111 28.2497L125.653 29.09ZM123.781 29.922L124.04 30.8878L124.051 30.8849L124.062 30.8817L123.781 29.922ZM121.597 29.208C120.477 29.208 119.53 28.9714 118.727 28.5271L117.758 30.2769C118.897 30.9072 120.186 31.208 121.597 31.208V29.208ZM118.734 28.5308C117.951 28.09 117.35 27.4697 116.918 26.6483L115.148 27.5797C115.755 28.7343 116.627 29.6394 117.752 30.2732L118.734 28.5308ZM116.918 26.6483C116.486 25.8276 116.253 24.8402 116.253 23.656H114.253C114.253 25.1065 114.54 26.4244 115.148 27.5797L116.918 26.6483ZM116.253 23.656C116.253 22.4774 116.492 21.4826 116.941 20.6434L115.177 19.7006C114.551 20.8721 114.253 22.2 114.253 23.656H116.253ZM116.938 20.6488C117.405 19.7873 118.043 19.1377 118.862 18.678L117.883 16.934C116.726 17.5836 115.822 18.5114 115.18 19.6952L116.938 20.6488ZM118.862 18.678C119.682 18.2178 120.644 17.974 121.779 17.974V15.974C120.348 15.974 119.039 16.2848 117.883 16.934L118.862 18.678ZM121.779 17.974C122.359 17.974 122.944 18.0557 123.535 18.2224L124.078 16.2976C123.317 16.0829 122.55 15.974 121.779 15.974V17.974ZM123.541 18.2242C124.155 18.3929 124.668 18.6164 125.092 18.8848L126.162 17.1952C125.545 16.8049 124.845 16.5084 124.072 16.2958L123.541 18.2242ZM125.078 18.876C125.415 19.097 125.459 19.27 125.459 19.418H127.459C127.459 18.4567 126.948 17.711 126.175 17.204L125.078 18.876ZM125.459 19.418C125.459 19.6294 125.408 19.708 125.386 19.7362L126.959 20.9718C127.318 20.5147 127.459 19.9693 127.459 19.418H125.459ZM125.38 19.7443C125.379 19.7461 125.382 19.7408 125.393 19.7323C125.403 19.7236 125.417 19.7143 125.433 19.7065C125.469 19.6894 125.488 19.692 125.471 19.692V21.692C126.063 21.692 126.595 21.4454 126.965 20.9637L125.38 19.7443ZM125.471 19.692C125.434 19.692 125.365 19.6839 125.257 19.6389L124.488 21.4851C124.796 21.6134 125.126 21.692 125.471 21.692V19.692ZM125.257 19.6389C125.093 19.5705 124.925 19.4867 124.753 19.3862L123.745 21.1138C123.989 21.256 124.236 21.3802 124.488 21.4851L125.257 19.6389ZM124.757 19.3891C124.331 19.1369 123.907 18.9331 123.487 18.7861L122.826 20.6739C123.1 20.7696 123.404 20.9124 123.74 21.1109L124.757 19.3891ZM123.528 18.8015C123.042 18.6069 122.513 18.522 121.961 18.522V20.522C122.31 20.522 122.578 20.5757 122.785 20.6585L123.528 18.8015ZM121.961 18.522C120.643 18.522 119.506 18.9711 118.695 19.9497L120.234 21.2263C120.602 20.7836 121.129 20.522 121.961 20.522V18.522ZM118.693 19.9516C117.918 20.8911 117.607 22.1594 117.607 23.604H119.607C119.607 22.414 119.867 21.6716 120.236 21.2244L118.693 19.9516ZM117.607 23.604C117.607 25.0373 117.921 26.2967 118.686 27.247L120.244 25.993C119.865 25.522 119.607 24.7707 119.607 23.604H117.607ZM118.703 27.2676C119.517 28.2257 120.651 28.66 121.961 28.66V26.66C121.121 26.66 120.591 26.401 120.227 25.9724L118.703 27.2676ZM121.961 28.66C122.485 28.66 122.988 28.5868 123.45 28.4163L122.759 26.5397C122.563 26.6119 122.303 26.66 121.961 26.66V28.66ZM123.476 28.4065C123.867 28.2503 124.283 28.0504 124.725 27.8113L123.772 26.0527C123.382 26.2642 123.036 26.4284 122.733 26.5495L123.476 28.4065ZM124.763 27.7895C124.992 27.652 125.157 27.5734 125.266 27.5338L124.583 25.6542C124.311 25.7532 124.025 25.9 123.734 26.0745L124.763 27.7895ZM125.338 27.5044C125.412 27.4709 125.462 27.464 125.497 27.464V25.464C125.15 25.464 124.819 25.5438 124.511 25.6836L125.338 27.5044ZM125.497 27.464C125.493 27.464 125.481 27.4635 125.466 27.4597C125.45 27.4559 125.434 27.45 125.42 27.4428C125.39 27.4275 125.39 27.4177 125.412 27.4458L126.985 26.2102C126.629 25.7573 126.118 25.464 125.497 25.464V27.464ZM125.412 27.4458C125.441 27.482 125.485 27.5562 125.485 27.738H127.485C127.485 27.1918 127.338 26.6593 126.985 26.2102L125.412 27.4458ZM125.485 27.738C125.485 27.8693 125.456 27.9437 125.425 27.9939L127.128 29.0421C127.375 28.6417 127.485 28.1961 127.485 27.738H125.485ZM125.413 28.0141C125.407 28.025 125.351 28.1072 125.146 28.2281L126.16 29.9519C126.544 29.7261 126.904 29.427 127.14 29.0219L125.413 28.0141ZM125.111 28.2497C124.666 28.5367 124.132 28.7771 123.5 28.9623L124.062 30.8817C124.85 30.6509 125.565 30.3366 126.195 29.9303L125.111 28.2497ZM123.522 28.9562C122.896 29.1239 122.256 29.208 121.597 29.208V31.208C122.428 31.208 123.243 31.1015 124.04 30.8878L123.522 28.9562ZM129.378 29.688L128.651 30.3746L128.661 30.385L128.671 30.3951L129.378 29.688ZM129.378 12.008L128.671 11.3009V11.3009L129.378 12.008ZM131.822 12.008L131.095 12.6946L131.115 12.7154L131.135 12.735L131.822 12.008ZM131.822 29.688L131.115 28.9809L131.105 28.991L131.095 29.0014L131.822 29.688ZM130.6 29.156C130.322 29.156 130.183 29.0788 130.085 28.9809L128.671 30.3951C129.197 30.9212 129.872 31.156 130.6 31.156V29.156ZM130.105 29.0014C130.015 28.9064 129.936 28.7601 129.936 28.466H127.936C127.936 29.1772 128.151 29.8456 128.651 30.3746L130.105 29.0014ZM129.936 28.466V13.204H127.936V28.466H129.936ZM129.936 13.204C129.936 12.9081 130.016 12.7846 130.085 12.7151L128.671 11.3009C128.151 11.8207 127.936 12.4946 127.936 13.204H129.936ZM130.085 12.7151C130.183 12.6172 130.322 12.54 130.6 12.54V10.54C129.872 10.54 129.197 10.7748 128.671 11.3009L130.085 12.7151ZM130.6 12.54C130.908 12.54 131.028 12.6241 131.095 12.6946L132.549 11.3214C132.026 10.7679 131.332 10.54 130.6 10.54V12.54ZM131.135 12.735C131.213 12.8082 131.29 12.9252 131.29 13.204H133.29C133.29 12.4775 133.055 11.7971 132.509 11.281L131.135 12.735ZM131.29 13.204V28.466H133.29V13.204H131.29ZM131.29 28.466C131.29 28.7436 131.213 28.883 131.115 28.9809L132.529 30.3951C133.055 29.869 133.29 29.1937 133.29 28.466H131.29ZM131.095 29.0014C131.028 29.0719 130.908 29.156 130.6 29.156V31.156C131.332 31.156 132.026 30.9281 132.549 30.3746L131.095 29.0014ZM136.664 29.584L135.957 30.2911L135.968 30.3018L135.979 30.3122L136.664 29.584ZM136.664 12.086L135.979 11.3578L135.968 11.3682L135.957 11.3789L136.664 12.086ZM149.976 14.088L149.277 14.8026L149.285 14.81L149.976 14.088ZM149.976 27.608L150.672 28.3264L150.672 28.3262L149.976 27.608ZM139.602 14.4V13.4H138.602V14.4H139.602ZM139.602 27.27H138.602V28.27H139.602V27.27ZM137.86 29C137.548 29 137.417 28.9187 137.35 28.8558L135.979 30.3122C136.502 30.8039 137.168 31 137.86 31V29ZM137.372 28.8769C137.331 28.836 137.248 28.7297 137.248 28.414H135.248C135.248 29.1036 135.444 29.7773 135.957 30.2911L137.372 28.8769ZM137.248 28.414V13.256H135.248V28.414H137.248ZM137.248 13.256C137.248 12.9403 137.331 12.834 137.372 12.7931L135.957 11.3789C135.444 11.8927 135.248 12.5664 135.248 13.256H137.248ZM137.35 12.8142C137.417 12.7513 137.548 12.67 137.86 12.67V10.67C137.168 10.67 136.502 10.8661 135.979 11.3578L137.35 12.8142ZM137.86 12.67H143.008V10.67H137.86V12.67ZM143.008 12.67C145.827 12.67 147.868 13.4238 149.277 14.8026L150.676 13.3734C148.791 11.5282 146.187 10.67 143.008 10.67V12.67ZM149.285 14.81C150.704 16.1703 151.472 18.1258 151.472 20.822H153.472C153.472 17.7288 152.577 15.195 150.668 13.366L149.285 14.81ZM151.472 20.822C151.472 23.537 150.703 25.5119 149.281 26.8898L150.672 28.3262C152.578 26.4801 153.472 23.931 153.472 20.822H151.472ZM149.281 26.8896C147.873 28.2533 145.83 29 143.008 29V31C146.184 31 148.787 30.1521 150.672 28.3264L149.281 26.8896ZM143.008 29H137.86V31H143.008V29ZM142.8 28.27C145.066 28.27 146.947 27.6906 148.253 26.3579C149.555 25.0289 150.118 23.1204 150.118 20.822H148.118C148.118 22.8222 147.629 24.1378 146.825 24.9581C146.025 25.7747 144.747 26.27 142.8 26.27V28.27ZM150.118 20.822C150.118 18.5313 149.555 16.6287 148.252 15.3042C146.946 13.9766 145.065 13.4 142.8 13.4V15.4C144.748 15.4 146.026 15.8937 146.826 16.7068C147.629 17.5229 148.118 18.8314 148.118 20.822H150.118ZM142.8 13.4H139.602V15.4H142.8V13.4ZM138.602 14.4V27.27H140.602V14.4H138.602ZM139.602 28.27H142.8V26.27H139.602V28.27Z" fill="url(#paint1_linear_510_8)" fill-opacity="0.8"/>
<rect x="2" y="2" width="41" height="38" rx="11" stroke="url(#paint2_linear_510_8)" stroke-opacity="0.8" stroke-width="4"/>
<rect x="9.37415" y="16.3999" width="2.8125" height="11.2" rx="1.40625" fill="url(#paint3_linear_510_8)" fill-opacity="0.8"/>
<rect x="9.87415" y="16.8999" width="1.8125" height="10.2" rx="0.90625" stroke="url(#paint4_linear_510_8)" stroke-opacity="0.8"/>
<rect x="31.8744" y="16.3999" width="2.8125" height="11.2" rx="1.40625" fill="url(#paint5_linear_510_8)" fill-opacity="0.8"/>
<rect x="32.3744" y="16.8999" width="1.8125" height="10.2" rx="0.90625" stroke="url(#paint6_linear_510_8)" stroke-opacity="0.8"/>
<rect x="26.2491" y="12.1997" width="2.8125" height="18.2" rx="1.40625" fill="url(#paint7_linear_510_8)" fill-opacity="0.8"/>
<rect x="26.7491" y="12.6997" width="1.8125" height="17.2" rx="0.90625" stroke="url(#paint8_linear_510_8)" stroke-opacity="0.8"/>
<rect x="14.9994" y="12.1997" width="2.8125" height="18.2" rx="1.40625" fill="url(#paint9_linear_510_8)" fill-opacity="0.8"/>
<rect x="15.4994" y="12.6997" width="1.8125" height="17.2" rx="0.90625" stroke="url(#paint10_linear_510_8)" stroke-opacity="0.8"/>
<rect x="20.6243" y="8" width="2.8125" height="25.2" rx="1.40625" fill="url(#paint11_linear_510_8)" fill-opacity="0.8"/>
<rect x="21.1243" y="8.5" width="1.8125" height="24.2" rx="0.90625" stroke="url(#paint12_linear_510_8)" stroke-opacity="0.8"/>
<defs>
<linearGradient id="paint0_linear_510_8" x1="156" y1="11" x2="134.956" y2="62.5971" gradientUnits="userSpaceOnUse">
<stop offset="0.004574" stop-color="#00BBF9"/>
<stop offset="0.481253" stop-color="#9B5DE5"/>
<stop offset="1" stop-color="#DE4D86"/>
</linearGradient>
<linearGradient id="paint1_linear_510_8" x1="156" y1="11" x2="134.956" y2="62.5971" gradientUnits="userSpaceOnUse">
<stop offset="0.004574" stop-color="#00BBF9"/>
<stop offset="0.481253" stop-color="#9B5DE5"/>
<stop offset="1" stop-color="#DE4D86"/>
</linearGradient>
<linearGradient id="paint2_linear_510_8" x1="45" y1="2.47528e-06" x2="-7.03484" y2="27.3389" gradientUnits="userSpaceOnUse">
<stop offset="0.004574" stop-color="#00BBF9"/>
<stop offset="0.481253" stop-color="#9B5DE5"/>
<stop offset="1" stop-color="#DE4D86"/>
</linearGradient>
<linearGradient id="paint3_linear_510_8" x1="12.1866" y1="16.3999" x2="8.09872" y2="16.9033" gradientUnits="userSpaceOnUse">
<stop offset="0.004574" stop-color="#00BBF9"/>
<stop offset="0.481253" stop-color="#9B5DE5"/>
<stop offset="1" stop-color="#DE4D86"/>
</linearGradient>
<linearGradient id="paint4_linear_510_8" x1="12.1866" y1="16.3999" x2="8.09872" y2="16.9033" gradientUnits="userSpaceOnUse">
<stop offset="0.004574" stop-color="#00BBF9"/>
<stop offset="0.481253" stop-color="#9B5DE5"/>
<stop offset="1" stop-color="#DE4D86"/>
</linearGradient>
<linearGradient id="paint5_linear_510_8" x1="34.6869" y1="16.3999" x2="30.599" y2="16.9033" gradientUnits="userSpaceOnUse">
<stop offset="0.004574" stop-color="#00BBF9"/>
<stop offset="0.481253" stop-color="#9B5DE5"/>
<stop offset="1" stop-color="#DE4D86"/>
</linearGradient>
<linearGradient id="paint6_linear_510_8" x1="34.6869" y1="16.3999" x2="30.599" y2="16.9033" gradientUnits="userSpaceOnUse">
<stop offset="0.004574" stop-color="#00BBF9"/>
<stop offset="0.481253" stop-color="#9B5DE5"/>
<stop offset="1" stop-color="#DE4D86"/>
</linearGradient>
<linearGradient id="paint7_linear_510_8" x1="29.0616" y1="12.1997" x2="24.9354" y2="12.5124" gradientUnits="userSpaceOnUse">
<stop offset="0.004574" stop-color="#00BBF9"/>
<stop offset="0.481253" stop-color="#9B5DE5"/>
<stop offset="1" stop-color="#DE4D86"/>
</linearGradient>
<linearGradient id="paint8_linear_510_8" x1="29.0616" y1="12.1997" x2="24.9354" y2="12.5124" gradientUnits="userSpaceOnUse">
<stop offset="0.004574" stop-color="#00BBF9"/>
<stop offset="0.481253" stop-color="#9B5DE5"/>
<stop offset="1" stop-color="#DE4D86"/>
</linearGradient>
<linearGradient id="paint9_linear_510_8" x1="17.8119" y1="12.1997" x2="13.6857" y2="12.5124" gradientUnits="userSpaceOnUse">
<stop offset="0.004574" stop-color="#00BBF9"/>
<stop offset="0.481253" stop-color="#9B5DE5"/>
<stop offset="1" stop-color="#DE4D86"/>
</linearGradient>
<linearGradient id="paint10_linear_510_8" x1="17.8119" y1="12.1997" x2="13.6857" y2="12.5124" gradientUnits="userSpaceOnUse">
<stop offset="0.004574" stop-color="#00BBF9"/>
<stop offset="0.481253" stop-color="#9B5DE5"/>
<stop offset="1" stop-color="#DE4D86"/>
</linearGradient>
<linearGradient id="paint11_linear_510_8" x1="23.4368" y1="8" x2="19.2992" y2="8.22644" gradientUnits="userSpaceOnUse">
<stop offset="0.004574" stop-color="#00BBF9"/>
<stop offset="0.481253" stop-color="#9B5DE5"/>
<stop offset="1" stop-color="#DE4D86"/>
</linearGradient>
<linearGradient id="paint12_linear_510_8" x1="23.4368" y1="8" x2="19.2992" y2="8.22644" gradientUnits="userSpaceOnUse">
<stop offset="0.004574" stop-color="#00BBF9"/>
<stop offset="0.481253" stop-color="#9B5DE5"/>
<stop offset="1" stop-color="#DE4D86"/>
</linearGradient>
</defs>
</svg>
